<svg xmlns="http://www.w3.org/2000/svg" viewBox="0 0 411.65 417.8"><defs><style>.cls-1{fill:#fff;}.cls-2{fill:#808492;}.cls-3{fill:#b7bbc8;}.cls-4{fill:#6bc4cd;}.cls-5{fill:#010101;}.cls-6{fill:#398186;}</style></defs><g id="Layer_2" data-name="Layer 2"><g id="Layer_1-2" data-name="Layer 1"><rect class="cls-1" x="2.05" y="8.19" width="409.61" height="409.61"/><path class="cls-2" d="M52.4,411.19l1.5-1.72H47.76v-.55h6.13L52.4,407.2H53l1.77,2-1.77,2Zm-13.1-2.82A1.24,1.24,0,0,0,38,409.44h2.54a1.2,1.2,0,0,0-.42-.77A1.24,1.24,0,0,0,39.3,408.37ZM42,409.91s0,.15,0,.4H38a1.24,1.24,0,0,0,.5.76,1.69,1.69,0,0,0,1,.27,2.14,2.14,0,0,0,.7-.11,1.8,1.8,0,0,0,.59-.38l.79.86a2.67,2.67,0,0,1-2.12.83,3.3,3.3,0,0,1-1.54-.34,2.48,2.48,0,0,1-1-.94,2.54,2.54,0,0,1-.37-1.37,2.61,2.61,0,0,1,.36-1.36,2.53,2.53,0,0,1,1-.94,2.89,2.89,0,0,1,1.41-.35,2.79,2.79,0,0,1,1.36.33,2.32,2.32,0,0,1,1,.93A2.81,2.81,0,0,1,42,409.91Zm-8.53-2.67a2,2,0,0,1,1.53.58,2.28,2.28,0,0,1,.57,1.7v2.94H34v-2.71a1.32,1.32,0,0,0-.26-.91.87.87,0,0,0-.71-.31,1.05,1.05,0,0,0-.83.35,1.39,1.39,0,0,0-.31,1v2.58H30.44v-2.71c0-.81-.33-1.22-1-1.22a1.06,1.06,0,0,0-.82.35,1.44,1.44,0,0,0-.3,1v2.58H26.85v-5.14h1.42v.59a1.85,1.85,0,0,1,.7-.49,2.36,2.36,0,0,1,1.9,0,1.77,1.77,0,0,1,.71.62,2.21,2.21,0,0,1,.79-.62A2.64,2.64,0,0,1,33.43,407.24Zm-8.71-.64a.93.93,0,0,1-.67-.24.77.77,0,0,1-.26-.59.79.79,0,0,1,.26-.59.93.93,0,0,1,.67-.24,1,1,0,0,1,.67.23.72.72,0,0,1,.25.57.81.81,0,0,1-.25.62A1,1,0,0,1,24.72,406.6Zm-.75.72h1.49v5.14H24Zm-4.3-.29H17.52v-1.26h5.84V407H21.21v5.43H19.67Z"/><path class="cls-2" d="M8.65,410.81l1.73,1.5v-6.15h.55v6.14l1.71-1.49v.64l-2,1.77-2-1.77Zm2.82-10.61a1.28,1.28,0,0,0-.28-.85,1.2,1.2,0,0,0-.79-.42v2.53a1.2,1.2,0,0,0,.78-.42A1.23,1.23,0,0,0,11.47,400.2Zm-1.53,2.67-.41,0V399a1.22,1.22,0,0,0-.75.5,1.59,1.59,0,0,0-.28,1,1.92,1.92,0,0,0,.12.71,1.76,1.76,0,0,0,.38.58l-.86.8a2.67,2.67,0,0,1-.83-2.13,3.38,3.38,0,0,1,.33-1.53,2.5,2.5,0,0,1,2.31-1.4,2.67,2.67,0,0,1,1.36.35,2.51,2.51,0,0,1,.95,1,2.87,2.87,0,0,1,.34,1.4,2.94,2.94,0,0,1-.32,1.37,2.35,2.35,0,0,1-.94,1A2.77,2.77,0,0,1,9.94,402.87Zm-2.63-8.39a5.28,5.28,0,0,1,.15-1.25,3.29,3.29,0,0,1,.4-1l1.07.49a3.27,3.27,0,0,0-.36.84,3.51,3.51,0,0,0-.13,1c0,.63.15.95.46.95a.33.33,0,0,0,.32-.26,3.82,3.82,0,0,0,.16-.79,9.88,9.88,0,0,1,.22-1.05,1.61,1.61,0,0,1,.44-.71,1.25,1.25,0,0,1,.9-.3,1.39,1.39,0,0,1,.86.28,1.83,1.83,0,0,1,.59.82,3.54,3.54,0,0,1,.21,1.28,5,5,0,0,1-.12,1.08,3.14,3.14,0,0,1-.33.9l-1.06-.5a2.89,2.89,0,0,0,.38-1.48,1.52,1.52,0,0,0-.13-.72.4.4,0,0,0-.34-.23.35.35,0,0,0-.34.25,5.51,5.51,0,0,0-.18.83,8.66,8.66,0,0,1-.23,1,1.55,1.55,0,0,1-.43.7,1.26,1.26,0,0,1-.88.29,1.36,1.36,0,0,1-.85-.28,1.92,1.92,0,0,1-.58-.85A3.59,3.59,0,0,1,7.31,394.48Zm5.93-3.85a.93.93,0,0,1,.24-.67.81.81,0,0,1,1.19,0,.93.93,0,0,1,.24.67,1,1,0,0,1-.23.66.73.73,0,0,1-.58.26.8.8,0,0,1-.62-.26A.92.92,0,0,1,13.24,390.63Zm-.71-.75v1.49H7.38v-1.49ZM7.63,389a1.59,1.59,0,0,1-.25-.54,2.87,2.87,0,0,1-.07-.67,2,2,0,0,1,.47-1.42,1.76,1.76,0,0,1,1.37-.5h2.11v-.8h1.15v.8h1.25v1.49H12.41v1.28H11.26V387.4H9.17a.74.74,0,0,0-.51.16.69.69,0,0,0-.17.48,1,1,0,0,0,.19.6Zm4.22-6.15a1.68,1.68,0,0,1,.56.72,2.69,2.69,0,0,1,.19,1.05H11.23c0-.16,0-.27,0-.33a1.39,1.39,0,0,0-.36-1A1.43,1.43,0,0,0,9.81,383H7.38v-1.49h5.15v1.42Zm-.38-5.08a1.28,1.28,0,0,0-.28-.85,1.2,1.2,0,0,0-.79-.42v2.53a1.2,1.2,0,0,0,.78-.42A1.23,1.23,0,0,0,11.47,377.81Zm-1.53,2.67-.41,0v-3.89a1.22,1.22,0,0,0-.75.5,1.59,1.59,0,0,0-.28,1,2,2,0,0,0,.12.71,1.76,1.76,0,0,0,.38.58l-.86.79A2.64,2.64,0,0,1,7.31,378a3.45,3.45,0,0,1,.33-1.54,2.56,2.56,0,0,1,1-1,2.61,2.61,0,0,1,1.36-.36,2.67,2.67,0,0,1,1.36.35,2.45,2.45,0,0,1,.95,1,2.87,2.87,0,0,1,.34,1.4,2.94,2.94,0,0,1-.32,1.37,2.32,2.32,0,0,1-.94.95A2.68,2.68,0,0,1,9.94,380.48Zm-1.41-8.86a1.24,1.24,0,0,0,.38.94,1.44,1.44,0,0,0,1,.37,1.42,1.42,0,0,0,1-.37,1.21,1.21,0,0,0,.39-.94,1.24,1.24,0,0,0-.39-.94,1.47,1.47,0,0,0-1-.37,1.48,1.48,0,0,0-1,.37A1.27,1.27,0,0,0,8.53,371.62Zm4.07.26a2.59,2.59,0,0,1-.33,1.3,2.31,2.31,0,0,1-.93.93,2.8,2.8,0,0,1-1.39.33,2.86,2.86,0,0,1-1.39-.33,2.38,2.38,0,0,1-.93-.93,2.69,2.69,0,0,1-.32-1.3,2,2,0,0,1,.62-1.55H5.53v-1.49h7v1.43h-.6A2,2,0,0,1,12.6,371.88Zm-5.22-5.45L9,365.3l-1.58-1.17v-1.62l2.59,2,2.56-1.91v1.67L11,365.34l1.5,1.12V368L10,366.13l-2.63,2Zm1.25-4.33H7.38v-5.18h6.69V362H12.83v-3.51H11.38v3.1H10.17v-3.1H8.63Z"/><rect class="cls-2" y="212.31" width="409.61" height="0.68"/><rect class="cls-2" x="204.8" y="8.19" width="0.68" height="409.61"/><path class="cls-3" d="M27.31,27.14a2.91,2.91,0,0,1-1.65-.5,3,3,0,0,1-1.1-1.33,3,3,0,0,1-.17-1.71,3,3,0,0,1,2.34-2.33,3,3,0,0,1,3.06,1.26,3,3,0,0,1,.5,1.65,2.93,2.93,0,0,1-.23,1.13,2.89,2.89,0,0,1-1.61,1.61A2.79,2.79,0,0,1,27.31,27.14Zm6.08-9.41-.53-.48,0,0-.58-.43-.16-.11a2.26,2.26,0,0,0-.26-.16A9.26,9.26,0,0,0,27,15h-.23a9.22,9.22,0,0,0-9,9.22c0,4.41,6.22,12.26,8.49,15a1,1,0,0,0,.36.28,1,1,0,0,0,.91,0,1,1,0,0,0,.36-.28c2.23-2.71,8.31-10.49,8.31-14.91a9.16,9.16,0,0,0-2.79-6.57Z"/><path class="cls-3" d="M97.19,20.3h-.75v6.45h.75Zm-8.46,6.45h.74v-3a1.15,1.15,0,0,1,1.1-1.21.9.9,0,0,1,1,.92v3.32h.75V23.6a1,1,0,0,1,1.08-1.09.9.9,0,0,1,1,1v3.24h.74V23.51c0-1.14-.61-1.66-1.47-1.66a1.52,1.52,0,0,0-1.45.82h0a1.33,1.33,0,0,0-1.3-.82,1.3,1.3,0,0,0-1.3.82h-.06v-.76h-.72Zm-1.12-4.84h-1V20.75h-.75v1.16H85.1v.63h.73v3a1.24,1.24,0,0,0,1.31,1.25,1.51,1.51,0,0,0,.56-.09l-.15-.66a1.83,1.83,0,0,1-.33,0c-.33,0-.64-.1-.64-.73V22.54h1ZM81,23.84a1.22,1.22,0,0,1,1.27-1.33,1.07,1.07,0,0,1,1.12,1.21v3h.75V23.67c0-1.24-.67-1.82-1.66-1.82a1.39,1.39,0,0,0-1.42.82H81V20.3h-.75v6.45H81ZM79,23.64H76.13v.69H79Zm-6.81-1.73h-.86l1.54,2.42-1.54,2.42h.86l1.16-1.88,1.16,1.88h.86l-1.56-2.42,1.56-2.42h-.86l-1.16,2Zm-5.07,2a1.45,1.45,0,0,1,1.44-1.43,1.32,1.32,0,0,1,1.32,1.43Zm1.51,2.91a1.89,1.89,0,0,0,1.93-1.22l-.72-.2a1.19,1.19,0,0,1-1.21.75,1.47,1.47,0,0,1-1.51-1.6h3.52v-.31c0-1.81-1.08-2.42-2.08-2.42a2.25,2.25,0,0,0-2.19,2.52A2.23,2.23,0,0,0,68.58,26.85ZM63,26.18c-.93,0-1.41-.82-1.41-1.85S62,22.51,63,22.51s1.38.73,1.38,1.82S63.86,26.18,63,26.18Zm-.1.67A1.5,1.5,0,0,0,64.28,26h.09v.74h.72V20.3h-.75v2.38h-.06a1.47,1.47,0,0,0-1.4-.83c-1.22,0-2.07,1-2.07,2.49S61.66,26.85,62.87,26.85Zm-6.28-3a1.21,1.21,0,0,1,1.24-1.33,1.07,1.07,0,0,1,1.11,1.21v3h.74V23.67c0-1.23-.66-1.82-1.64-1.82a1.42,1.42,0,0,0-1.41.82h-.06v-.76h-.72v4.84h.74ZM54.12,21.1a.51.51,0,0,0,.53-.5.53.53,0,0,0-1.06,0A.51.51,0,0,0,54.12,21.1Zm-.38,5.65h.75V21.91h-.75Zm-1.31-3.11H49.61v.69h2.82Zm-5.72,3.11h.75V23.69a1.14,1.14,0,0,1,1.22-1.14,2.43,2.43,0,0,1,.45.05v-.75l-.39,0a1.32,1.32,0,0,0-1.26.81h0v-.73h-.72ZM45,21.1a.51.51,0,0,0,.53-.5.53.53,0,0,0-1.06,0A.51.51,0,0,0,45,21.1Zm-.38,5.65h.74V21.91h-.74Zm-5.5-.69V21h1.25c1.51,0,2.28,1,2.28,2.52s-.77,2.55-2.37,2.55Zm1.21.69c2,0,3.08-1.22,3.08-3.24s-1.11-3.21-3-3.21H38.33v6.45Z"/><path class="cls-3" d="M10.92,12.13a3,3,0,0,1-1.65-.51A3,3,0,0,1,8,8.58a3,3,0,0,1,.81-1.52,3,3,0,0,1,3.25-.64A2.9,2.9,0,0,1,13.4,7.51,2.94,2.94,0,0,1,13,11.26a3,3,0,0,1-1,.64A2.94,2.94,0,0,1,10.92,12.13ZM17,2.71c-.16-.16-.34-.32-.53-.48l0,0c-.18-.15-.37-.29-.57-.43l-.17-.11-.25-.16A9.33,9.33,0,0,0,10.57,0h-.22a9.22,9.22,0,0,0-9,9.22c0,4.41,6.22,12.26,8.48,15a1,1,0,0,0,.37.28,1,1,0,0,0,.9,0,1,1,0,0,0,.37-.28C13.71,21.48,19.8,13.7,19.8,9.28a9.12,9.12,0,0,0-.73-3.57A9,9,0,0,0,17,2.71Z"/><path class="cls-3" d="M43.51,11.16c-1,0-1.45-.85-1.45-1.82s.45-1.85,1.45-1.85S45,8.36,45,9.34,44.51,11.16,43.51,11.16Zm0,.67A2.22,2.22,0,0,0,45.7,9.34a2.21,2.21,0,1,0-4.38,0A2.22,2.22,0,0,0,43.51,11.83ZM39.82,6.08a.51.51,0,0,0,.53-.5.53.53,0,0,0-1.06,0A.51.51,0,0,0,39.82,6.08Zm-.38,5.65h.74V6.89h-.74Zm-1.9,0a.57.57,0,1,0-.57-.57A.56.56,0,0,0,37.54,11.78ZM35.79,8a1.64,1.64,0,0,0-1.72-1.14c-1,0-1.78.58-1.78,1.4,0,.66.4,1.11,1.29,1.32l.81.19c.48.11.71.35.71.68s-.44.76-1.13.76a1,1,0,0,1-1.12-.79l-.71.18A1.67,1.67,0,0,0,34,11.83c1.13,0,1.89-.61,1.89-1.45,0-.67-.42-1.1-1.28-1.31l-.72-.18c-.57-.14-.83-.33-.83-.7s.44-.72,1-.72a1,1,0,0,1,1,.69ZM31.51,6.89H30.43V6.4c0-.48.2-.73.69-.73a1.34,1.34,0,0,1,.42.07l.21-.64a1.69,1.69,0,0,0-.7-.13,1.25,1.25,0,0,0-1.36,1.25v.67H28.9v.63h.79v4.21h.74V7.52h1.08ZM24.68,9.31c0-1.08.48-1.82,1.39-1.82s1.41.8,1.41,1.82-.48,1.85-1.41,1.85S24.68,10.41,24.68,9.31ZM24,13.55h.74V11h.07a1.5,1.5,0,0,0,1.41.84c1.21,0,2-1,2-2.51s-.84-2.49-2.06-2.49a1.47,1.47,0,0,0-1.4.83h-.09V6.89H24ZM22.22,6.08a.51.51,0,0,0,.53-.5.53.53,0,0,0-1.06,0A.51.51,0,0,0,22.22,6.08Zm-.38,5.65h.75V6.89h-.75Z"/><path class="cls-3" d="M11.56,47.93a2.91,2.91,0,0,1-1.65-.5,3,3,0,0,1-1.1-1.33,3,3,0,0,1-.17-1.71,3,3,0,0,1,.82-1.52,3,3,0,0,1,4.58.45,3,3,0,0,1,.5,1.65,2.93,2.93,0,0,1-.23,1.13,2.89,2.89,0,0,1-1.61,1.61A3,3,0,0,1,11.56,47.93Zm6.08-9.41c-.17-.17-.35-.32-.53-.48l-.05,0-.58-.43-.16-.11a2.26,2.26,0,0,0-.26-.16,9.26,9.26,0,0,0-4.85-1.5H11A9.29,9.29,0,0,0,4.61,38.6,9.2,9.2,0,0,0,2,45c0,4.41,6.22,12.26,8.49,15a1,1,0,0,0,.36.29,1,1,0,0,0,.45.1,1,1,0,0,0,.46-.1,1,1,0,0,0,.36-.29c2.23-2.7,8.31-10.48,8.31-14.91a9.16,9.16,0,0,0-2.79-6.56Z"/><path class="cls-3" d="M70.81,47c-1,0-1.45-.86-1.45-1.83s.46-1.84,1.45-1.84,1.45.87,1.45,1.84S71.81,47,70.81,47Zm0,.67a2.24,2.24,0,0,0,2.2-2.5,2.21,2.21,0,1,0-4.39,0A2.23,2.23,0,0,0,70.81,47.64Zm-3.69-5.75a.51.51,0,1,0-.53-.5A.52.52,0,0,0,67.12,41.89Zm-.38,5.65h.74V42.7h-.74Zm-1.9.05a.57.57,0,1,0-.57-.57A.58.58,0,0,0,64.84,47.59Zm-1.75-3.81a1.64,1.64,0,0,0-1.72-1.15c-1,0-1.77.58-1.77,1.4s.39,1.12,1.28,1.33l.81.19c.49.11.72.34.72.68S62,47,61.27,47a1,1,0,0,1-1.12-.78l-.71.18a1.68,1.68,0,0,0,1.85,1.26c1.12,0,1.89-.62,1.89-1.45,0-.67-.43-1.1-1.29-1.31l-.72-.18c-.57-.14-.83-.33-.83-.7s.44-.72,1-.72a1,1,0,0,1,1.05.69ZM58.82,42.7H57.73v-.49c0-.48.2-.74.7-.74a1.19,1.19,0,0,1,.41.08l.22-.64a1.75,1.75,0,0,0-.71-.13A1.26,1.26,0,0,0,57,42v.67h-.78v.63H57v4.21h.74V43.33h1.09ZM52,45.12c0-1.09.48-1.82,1.39-1.82s1.41.8,1.41,1.82S54.3,47,53.37,47,52,46.21,52,45.12Zm-.73,4.23H52V46.79h.06a1.49,1.49,0,0,0,1.41.85c1.21,0,2.06-1,2.06-2.51s-.85-2.5-2.07-2.5a1.46,1.46,0,0,0-1.4.84H52V42.7h-.72Zm-1.73-7.46a.51.51,0,1,0-.53-.5A.52.52,0,0,0,49.52,41.89Zm-.37,5.65h.74V42.7h-.74Zm-1.91.05a.57.57,0,1,0-.56-.57A.57.57,0,0,0,47.24,47.59Zm-5.18-2.86a1.44,1.44,0,0,1,1.43-1.43,1.31,1.31,0,0,1,1.32,1.43Zm1.51,2.91a1.89,1.89,0,0,0,1.93-1.22l-.72-.21a1.18,1.18,0,0,1-1.21.76,1.46,1.46,0,0,1-1.51-1.6h3.51v-.31c0-1.81-1.07-2.43-2.08-2.43a2.26,2.26,0,0,0-2.18,2.53A2.23,2.23,0,0,0,43.57,47.64Zm-5.19-.1h.75V44.48a1.14,1.14,0,0,1,1.22-1.14,2.43,2.43,0,0,1,.45,0v-.76h-.39a1.32,1.32,0,0,0-1.26.81h0V42.7h-.72ZM34.92,47c-.59,0-1-.26-1-.78s.52-.74,1.09-.82a3.7,3.7,0,0,0,1.29-.27v.68A1.24,1.24,0,0,1,34.92,47Zm-.11.67a1.5,1.5,0,0,0,1.43-.77h0v.66H37V44.35a1.59,1.59,0,0,0-1.79-1.72,2,2,0,0,0-1.94,1.14L34,44a1.31,1.31,0,0,1,1.26-.73.9.9,0,0,1,1,1v0c0,.36-.36.33-1.25.44s-1.88.32-1.88,1.42A1.5,1.5,0,0,0,34.81,47.65Zm-5.93-3a1.22,1.22,0,0,1,1.27-1.33,1.07,1.07,0,0,1,1.13,1.21v3H32V44.46c0-1.24-.66-1.83-1.65-1.83a1.42,1.42,0,0,0-1.43.82h-.06V41.08h-.74v6.46h.74ZM26.11,42.7h.76A2,2,0,0,0,24.68,41a2,2,0,0,0-2.2,1.8c0,.87.63,1.39,1.64,1.68l.79.22c.68.19,1.29.43,1.29,1.07S25.52,47,24.62,47s-1.45-.34-1.51-1.08H22.3c.08,1.06.93,1.78,2.32,1.78S27,46.83,27,45.79c0-1.21-1.14-1.6-1.81-1.78l-.66-.18c-.48-.12-1.25-.38-1.25-1.07s.57-1.07,1.43-1.07S26,42.06,26.11,42.7Z"/><path class="cls-3" d="M31.36,68.41a3,3,0,0,1-1.66-.5,2.9,2.9,0,0,1-1.09-1.33,2.94,2.94,0,0,1,.65-3.23,2.86,2.86,0,0,1,1.52-.81,2.89,2.89,0,0,1,1.72.17,3,3,0,0,1,1.34,1.09,3,3,0,0,1,.5,1.65,2.93,2.93,0,0,1-.23,1.13,3,3,0,0,1-1.61,1.61A3,3,0,0,1,31.36,68.41ZM37.44,59l-.53-.48-.06,0c-.18-.15-.37-.29-.57-.43L36.12,58a2.26,2.26,0,0,0-.26-.16A9.32,9.32,0,0,0,31,56.29h-.23a9.27,9.27,0,0,0-6.37,2.79,9.15,9.15,0,0,0-2.61,6.43c0,4.41,6.22,12.26,8.49,15a1,1,0,0,0,.36.28,1,1,0,0,0,.45.1,1,1,0,0,0,.45-.1,1,1,0,0,0,.37-.28c2.22-2.71,8.31-10.49,8.31-14.92A9.16,9.16,0,0,0,37.44,59Z"/><path class="cls-3" d="M102,63.18h.75a2.25,2.25,0,0,0-4.38.1c0,.87.63,1.39,1.64,1.68l.79.22c.68.19,1.29.43,1.29,1.07s-.69,1.18-1.58,1.18-1.45-.34-1.51-1.08H98.2c.08,1.06.93,1.78,2.32,1.78s2.33-.82,2.33-1.86c0-1.21-1.15-1.6-1.81-1.78l-.66-.18c-.48-.12-1.25-.38-1.25-1.07s.57-1.07,1.43-1.07S101.93,62.54,102,63.18ZM93.27,68h.78V65.13h2.8v-.69h-2.8V62.26h3.09v-.7H93.27Zm-4.85-3V62.26h1.37c1,0,1.45.57,1.45,1.35A1.26,1.26,0,0,1,89.8,65Zm-.78,3h.78V65.66h1.41a2.05,2.05,0,1,0,0-4.1H87.64Zm-1.57-6.46h-.78V68h.78Zm-8,3.65a1.45,1.45,0,0,1,1.44-1.43,1.32,1.32,0,0,1,1.32,1.43Zm1.51,2.91a1.87,1.87,0,0,0,1.93-1.22l-.72-.2a1.17,1.17,0,0,1-1.21.75A1.47,1.47,0,0,1,78,65.85h3.52v-.31c0-1.81-1.07-2.43-2.08-2.43a2.26,2.26,0,0,0-2.18,2.53A2.22,2.22,0,0,0,79.55,68.12ZM69.81,68h.74V65a1.15,1.15,0,0,1,1.1-1.21.89.89,0,0,1,1,.92V68h.76V64.87a1,1,0,0,1,1.07-1.09.9.9,0,0,1,1,1V68h.74V64.78c0-1.14-.61-1.67-1.47-1.67a1.54,1.54,0,0,0-1.45.82h0a1.34,1.34,0,0,0-1.3-.82,1.31,1.31,0,0,0-1.3.82h-.06v-.75h-.72Zm-3.33-.57c-1,0-1.45-.86-1.45-1.83s.46-1.84,1.45-1.84,1.45.87,1.45,1.84S67.48,67.45,66.48,67.45Zm0,.67a2.53,2.53,0,1,0-2.19-2.5A2.24,2.24,0,0,0,66.48,68.12Zm-3.17-3.86a1.65,1.65,0,0,0-1.72-1.15c-1,0-1.77.58-1.77,1.4,0,.67.39,1.12,1.28,1.33l.81.19c.49.11.72.34.72.68s-.44.75-1.14.75a1,1,0,0,1-1.12-.78l-.71.18a1.68,1.68,0,0,0,1.84,1.26c1.13,0,1.9-.61,1.9-1.45,0-.67-.43-1.1-1.29-1.31l-.72-.18c-.57-.14-.83-.33-.83-.7s.44-.72,1-.72a1,1,0,0,1,1,.69Zm-8.08.95a1.45,1.45,0,0,1,1.44-1.43A1.32,1.32,0,0,1,58,65.21Zm1.51,2.91a1.88,1.88,0,0,0,1.93-1.22L58,66.7a1.18,1.18,0,0,1-1.21.75,1.47,1.47,0,0,1-1.51-1.6h3.52v-.31c0-1.81-1.07-2.43-2.08-2.43a2.26,2.26,0,0,0-2.18,2.53A2.22,2.22,0,0,0,56.74,68.12Zm-8-.1h.74l1-3.72h.08L51.69,68h.73l1.47-4.84h-.78l-1,3.69h0l-1-3.69h-.8l-1,3.7h-.05l-1-3.7h-.78ZM43.54,65.5l1-2.91h0l1,2.91ZM42.64,68l.65-1.83H45.9L46.55,68h.82L45,61.56h-.81L41.82,68Z"/><path class="cls-4" d="M47.74,99.13a2.94,2.94,0,0,1-1.65-.5A3,3,0,0,1,45,97.3a3,3,0,0,1-.17-1.71,3,3,0,0,1,2.34-2.33,3,3,0,0,1,3.06,1.26,2.94,2.94,0,0,1,.27,2.78,2.89,2.89,0,0,1-1.61,1.61A2.79,2.79,0,0,1,47.74,99.13Zm6.08-9.41-.53-.48,0,0c-.18-.15-.38-.29-.58-.43l-.16-.11a2.26,2.26,0,0,0-.26-.16A9.26,9.26,0,0,0,47.39,87h-.22a9.22,9.22,0,0,0-9,9.22c0,4.41,6.22,12.26,8.49,15a1,1,0,0,0,.36.28,1,1,0,0,0,.46.1,1,1,0,0,0,.45-.1,1,1,0,0,0,.36-.28c2.23-2.71,8.31-10.49,8.31-14.91a9.16,9.16,0,0,0-2.79-6.57Z"/><path class="cls-5" d="M88.87,96.32c0-1.09.48-1.82,1.38-1.82s1.42.8,1.42,1.82-.48,1.85-1.42,1.85S88.87,97.42,88.87,96.32Zm-.73,4.23h.74V98h.06a1.51,1.51,0,0,0,1.41.84c1.21,0,2.06-1,2.06-2.51s-.85-2.49-2.07-2.49a1.49,1.49,0,0,0-1.4.83h-.09V93.9h-.71Zm-3.33-2.38c-1,0-1.45-.86-1.45-1.83s.45-1.84,1.45-1.84,1.45.87,1.45,1.84S85.8,98.17,84.81,98.17Zm0,.67a2.52,2.52,0,1,0-2.2-2.5A2.23,2.23,0,0,0,84.81,98.84Zm-3-4.94h-1V92.74H80V93.9h-.73v.63H80v3a1.24,1.24,0,0,0,1.31,1.25,1.49,1.49,0,0,0,.55-.09l-.15-.66a1.73,1.73,0,0,1-.33,0c-.32,0-.64-.1-.64-.73V94.53h1Zm-6.93,4.84h.74V96.93l.52-.49,1.82,2.3h.94L76.67,96l2-2.07h-.92l-2.12,2.15h-.09V92.28h-.74ZM73.63,95a1.62,1.62,0,0,0-1.71-1.14c-1,0-1.78.58-1.78,1.39s.4,1.12,1.29,1.33l.8.19c.49.11.72.34.72.68s-.44.75-1.13.75a1,1,0,0,1-1.12-.78l-.71.18a1.66,1.66,0,0,0,1.84,1.26c1.13,0,1.89-.61,1.89-1.45,0-.67-.42-1.1-1.28-1.31l-.72-.18c-.58-.14-.83-.33-.83-.7s.44-.72,1-.72a1,1,0,0,1,1,.69Zm-8.07,1A1.44,1.44,0,0,1,67,94.5a1.32,1.32,0,0,1,1.33,1.43Zm1.51,2.91A1.89,1.89,0,0,0,69,97.62l-.72-.2a1.19,1.19,0,0,1-1.21.75,1.46,1.46,0,0,1-1.51-1.6h3.51v-.31c0-1.81-1.07-2.42-2.08-2.42a2.52,2.52,0,0,0,.08,5Zm-7.53-.79V93h1.25c1.51,0,2.28,1,2.28,2.52s-.77,2.55-2.37,2.55Zm1.21.69c2,0,3.08-1.22,3.08-3.24s-1.11-3.22-3-3.22H58.76v6.46Z"/><path class="cls-4" d="M60,125.76a3,3,0,0,1-1.65-.5,3,3,0,0,1-1.1-1.33,3.07,3.07,0,0,1-.17-1.72,3,3,0,0,1,5.9.58,3,3,0,0,1-.87,2.1,2.83,2.83,0,0,1-1,.64A3,3,0,0,1,60,125.76Zm6.08-9.41c-.17-.17-.35-.33-.53-.48l0,0c-.19-.14-.38-.29-.58-.42l-.16-.12-.26-.15a9.18,9.18,0,0,0-4.85-1.51h-.23a9.24,9.24,0,0,0-9,9.23c0,4.4,6.22,12.25,8.49,15a1.12,1.12,0,0,0,.36.29,1.09,1.09,0,0,0,.91,0,1.12,1.12,0,0,0,.36-.29c2.23-2.71,8.31-10.49,8.31-14.91a9,9,0,0,0-.73-3.56A9.13,9.13,0,0,0,66.11,116.35Z"/><path class="cls-5" d="M99.56,118.91h-.79v6.45h.79Zm-3.13,0v4.21a1.73,1.73,0,0,1-3.45,0v-4.21H92.2v4.27a2.51,2.51,0,0,0,5,0v-4.27Zm-11.51,4c0-1.08.48-1.81,1.39-1.81s1.41.79,1.41,1.81-.48,1.86-1.41,1.86S84.92,124,84.92,122.94Zm-.73,2.42h.72v-.74H85a1.52,1.52,0,0,0,1.42.84c1.21,0,2-1,2-2.5s-.84-2.5-2.07-2.5a1.49,1.49,0,0,0-1.4.83h-.06v-2.38h-.74Zm-4.75-2.81a1.44,1.44,0,0,1,1.44-1.42,1.31,1.31,0,0,1,1.32,1.42ZM81,125.46a1.89,1.89,0,0,0,1.93-1.22l-.72-.2a1.2,1.2,0,0,1-1.21.76,1.47,1.47,0,0,1-1.51-1.6H83v-.32c0-1.8-1.08-2.42-2.08-2.42A2.25,2.25,0,0,0,78.69,123,2.22,2.22,0,0,0,81,125.46Zm-8.73-.1H73l1.42-5.14h0l1.43,5.14h.8l1.77-6.45h-.79l-1.35,5.26h-.07l-1.37-5.26H74l-1.38,5.26H72.6l-1.35-5.26h-.79Z"/><path class="cls-4" d="M72.32,154.43a3,3,0,0,1-2.75-1.83,2.89,2.89,0,0,1-.17-1.72,3,3,0,0,1,.82-1.51,2.86,2.86,0,0,1,1.52-.81,3,3,0,0,1,1.72.16,3.06,3.06,0,0,1,1.34,1.1,2.94,2.94,0,0,1,.27,2.78,3.07,3.07,0,0,1-1.61,1.61A3,3,0,0,1,72.32,154.43ZM78.4,145c-.17-.17-.35-.33-.53-.48l-.06,0a6.07,6.07,0,0,0-.57-.43l-.16-.12-.26-.15a9.14,9.14,0,0,0-4.85-1.5h-.23a9.22,9.22,0,0,0-9,9.22c0,4.4,6.22,12.26,8.49,15a1,1,0,0,0,.81.39,1,1,0,0,0,.45-.1,1.06,1.06,0,0,0,.37-.29c2.22-2.7,8.31-10.49,8.31-14.91A9.16,9.16,0,0,0,78.4,145Z"/><path class="cls-5" d="M126.45,151.12a1.2,1.2,0,0,1,1.23-1.32,1.07,1.07,0,0,1,1.11,1.21v3h.75V151c0-1.24-.66-1.83-1.64-1.83a1.42,1.42,0,0,0-1.41.82h-.07v-.75h-.72V154h.75Zm-4.08,2.35c-1,0-1.44-.86-1.44-1.83s.45-1.84,1.44-1.84,1.45.87,1.45,1.84S123.37,153.47,122.37,153.47Zm0,.67a2.53,2.53,0,1,0-2.19-2.5A2.23,2.23,0,0,0,122.37,154.14Zm-3.69-5.75a.51.51,0,1,0-.53-.51A.52.52,0,0,0,118.68,148.39ZM118.3,154h.75V149.2h-.75Zm-4.45-2.92a1.2,1.2,0,0,1,1.24-1.32A1.07,1.07,0,0,1,116.2,151v3h.74V151c0-1.24-.66-1.83-1.64-1.83a1.43,1.43,0,0,0-1.41.82h-.06v-.75h-.72V154h.74Zm-4.2,2.36c-.59,0-1-.26-1-.78s.51-.74,1.09-.82a3.92,3.92,0,0,0,1.29-.28v.68A1.24,1.24,0,0,1,109.65,153.48Zm-.12.67a1.51,1.51,0,0,0,1.44-.77h0V154h.74v-3.19a1.59,1.59,0,0,0-1.79-1.72,2,2,0,0,0-1.94,1.14l.71.25a1.31,1.31,0,0,1,1.26-.73.9.9,0,0,1,1,1v0c0,.36-.37.32-1.25.44s-1.88.31-1.88,1.42A1.49,1.49,0,0,0,109.53,154.15Zm-6.1-2.53c0-1.09.48-1.82,1.39-1.82s1.41.79,1.41,1.82-.48,1.85-1.41,1.85S103.43,152.71,103.43,151.62Zm-.73,4.23h.75v-2.56h.06a1.49,1.49,0,0,0,1.41.85c1.21,0,2.06-1,2.06-2.51s-.85-2.5-2.07-2.5a1.47,1.47,0,0,0-1.4.83h-.09v-.76h-.72ZM95,154h.74v-3a1.15,1.15,0,0,1,1.1-1.21.9.9,0,0,1,1,.92V154h.75v-3.16a1,1,0,0,1,1.07-1.08.91.91,0,0,1,1,1V154h.74V150.8c0-1.14-.61-1.67-1.47-1.67a1.53,1.53,0,0,0-1.45.82h0a1.33,1.33,0,0,0-1.3-.82,1.3,1.3,0,0,0-1.3.82h-.06v-.75H95Zm-3.33-.57c-1,0-1.45-.86-1.45-1.83s.45-1.84,1.45-1.84,1.45.87,1.45,1.84S92.66,153.47,91.66,153.47Zm0,.67a2.53,2.53,0,1,0-2.19-2.5A2.23,2.23,0,0,0,91.66,154.14Zm-3.13-4.54a2.52,2.52,0,0,0-2.6-2.11c-1.65,0-2.84,1.28-2.84,3.32s1.19,3.31,2.84,3.31a2.52,2.52,0,0,0,2.6-2.1h-.78a1.76,1.76,0,0,1-1.82,1.37c-1.17,0-2.09-.9-2.09-2.58s.92-2.59,2.09-2.59a1.76,1.76,0,0,1,1.82,1.38Z"/><path class="cls-6" d="M101,187.2a3,3,0,0,1-2.75-1.83,3.07,3.07,0,0,1-.17-1.72,3,3,0,0,1,.82-1.52,3.09,3.09,0,0,1,1.52-.81,3.06,3.06,0,0,1,1.72.17,3,3,0,0,1,1.34,1.1,2.91,2.91,0,0,1,.5,1.64,3,3,0,0,1-.87,2.1,2.83,2.83,0,0,1-1,.64A3,3,0,0,1,101,187.2Zm6.08-9.41c-.17-.17-.35-.33-.53-.48l-.05,0c-.19-.15-.38-.3-.58-.43l-.16-.12-.26-.15a9.18,9.18,0,0,0-4.85-1.51h-.23a9.24,9.24,0,0,0-9,9.23c0,4.4,6.22,12.25,8.49,15a1.12,1.12,0,0,0,.36.29,1,1,0,0,0,.45.1,1,1,0,0,0,.46-.1,1.12,1.12,0,0,0,.36-.29c2.23-2.71,8.31-10.49,8.31-14.91a9.16,9.16,0,0,0-2.79-6.56Z"/><path class="cls-5" d="M156.42,186.24c-1,0-1.45-.86-1.45-1.83s.46-1.84,1.45-1.84,1.45.87,1.45,1.84S157.42,186.24,156.42,186.24Zm0,.67a2.53,2.53,0,1,0-2.19-2.5A2.23,2.23,0,0,0,156.42,186.91Zm-3.69-5.75a.51.51,0,1,0-.53-.51A.52.52,0,0,0,152.73,181.16Zm-.38,5.64h.74V182h-.74Zm-1.9,0a.56.56,0,0,0,.56-.56.57.57,0,1,0-1.13,0A.56.56,0,0,0,150.45,186.85Zm-1.75-3.8A1.64,1.64,0,0,0,147,181.9c-1,0-1.78.58-1.78,1.4,0,.67.4,1.12,1.29,1.32l.81.19c.49.12.72.35.72.68s-.45.76-1.14.76a1,1,0,0,1-1.12-.78l-.71.17a1.67,1.67,0,0,0,1.84,1.27c1.13,0,1.89-.62,1.89-1.45s-.42-1.1-1.28-1.32l-.72-.17c-.57-.14-.83-.34-.83-.71s.44-.72,1-.72a1,1,0,0,1,1.05.7ZM144.42,182h-1.08v-.49c0-.48.2-.73.69-.73a1,1,0,0,1,.42.08l.21-.65a1.74,1.74,0,0,0-.7-.12,1.25,1.25,0,0,0-1.36,1.25V182h-.78v.63h.78v4.21h.74v-4.21h1.08Zm-6.83,2.42c0-1.08.48-1.81,1.39-1.81s1.41.79,1.41,1.81-.48,1.86-1.41,1.86S137.59,185.48,137.59,184.38Zm-.73,4.24h.74v-2.56h.07a1.49,1.49,0,0,0,1.41.85c1.21,0,2-1,2-2.51s-.84-2.5-2.06-2.5a1.47,1.47,0,0,0-1.4.83h-.09V182h-.72Zm-1.73-7.46a.51.51,0,1,0-.53-.51A.52.52,0,0,0,135.13,181.16Zm-.38,5.64h.75V182h-.75Zm-1.9,0a.57.57,0,0,0,.57-.56.58.58,0,0,0-.57-.57.57.57,0,0,0-.56.57A.56.56,0,0,0,132.85,186.85Zm-1.75-3.8a1.62,1.62,0,0,0-1.71-1.15c-1,0-1.78.58-1.78,1.4,0,.67.4,1.12,1.29,1.32l.8.19c.49.12.72.35.72.68s-.44.76-1.13.76a1,1,0,0,1-1.12-.78l-.71.17a1.66,1.66,0,0,0,1.84,1.27c1.13,0,1.89-.62,1.89-1.45s-.42-1.1-1.28-1.32l-.72-.17c-.58-.14-.84-.34-.84-.71s.45-.72,1-.72a1,1,0,0,1,1,.7Zm-6.42,3.86a1.81,1.81,0,0,0,1.91-1.52h-.75a1.13,1.13,0,0,1-1.16.85c-.88,0-1.45-.73-1.45-1.86s.58-1.81,1.45-1.81a1.13,1.13,0,0,1,1.16.84h.75a1.81,1.81,0,0,0-1.92-1.51,2.53,2.53,0,0,0,0,5Zm-5.29-.67c-1,0-1.45-.86-1.45-1.83s.45-1.84,1.45-1.84,1.45.87,1.45,1.84S120.38,186.24,119.39,186.24Zm0,.67a2.53,2.53,0,1,0-2.2-2.5A2.23,2.23,0,0,0,119.39,186.91Zm-5.55-.67c-.93,0-1.41-.82-1.41-1.86s.46-1.81,1.41-1.81,1.38.73,1.38,1.81S114.73,186.24,113.84,186.24Zm-.1.67a1.49,1.49,0,0,0,1.41-.85h.09v.74H116v-6.45h-.75v2.38h-.06a1.47,1.47,0,0,0-1.4-.83c-1.22,0-2.07,1-2.07,2.5S112.53,186.91,113.74,186.91Z"/><path class="cls-3" d="M40,32.62l1.57.46.18-.66L40.22,32Zm-4.39-1.26,3.13.9.19-.65-3.13-.91Zm-4.39-1.27,3.14.9.19-.65-3.14-.91Zm-4.39-1.27,3.14.91.19-.66-3.14-.9Zm-4.39-1.27,3.14.91.19-.66-3.14-.9Zm-4.39-1.26,3.14.9.19-.66-3.14-.9ZM13.7,25l3.13.9.19-.65-3.13-.91Zm-2.82-.82,1.56.46.19-.66-1.57-.45Z"/><path class="cls-3" d="M402.39,39.22h1.71v-.68h-1.71Zm-4.78,0H401v-.68h-3.41Zm-4.78,0h3.42v-.68h-3.42Zm-4.78,0h3.42v-.68h-3.42Zm-4.78,0h3.42v-.68h-3.42Zm-4.77,0h3.41v-.68H378.5Zm-4.78,0h3.41v-.68h-3.41Zm-4.78,0h3.41v-.68h-3.41Zm-4.78,0h3.41v-.68h-3.41Zm-4.78,0h3.41v-.68h-3.41Zm-4.78,0H358v-.68H354.6Zm-4.78,0h3.42v-.68h-3.42Zm-4.78,0h3.42v-.68H345Zm-4.77,0h3.41v-.68h-3.41Zm-4.78,0h3.41v-.68h-3.41Zm-4.78,0h3.41v-.68h-3.41Zm-4.78,0h3.41v-.68h-3.41Zm-4.78,0h3.41v-.68h-3.41Zm-4.78,0h3.42v-.68h-3.42Zm-4.78,0H315v-.68h-3.42Zm-4.78,0h3.42v-.68h-3.42Zm-4.77,0h3.41v-.68H302Zm-4.78,0h3.41v-.68h-3.41Zm-4.78,0h3.41v-.68h-3.41Zm-4.78,0h3.41v-.68H287.7Zm-4.78,0h3.41v-.68h-3.41Zm-4.78,0h3.42v-.68h-3.42Zm-4.78,0h3.42v-.68h-3.42Zm-4.78,0H272v-.68h-3.42Zm-4.77,0h3.41v-.68h-3.41Zm-4.78,0h3.41v-.68H259Zm-4.78,0h3.41v-.68h-3.41Zm-4.78,0h3.41v-.68h-3.41Zm-4.78,0h3.41v-.68h-3.41Zm-4.78,0h3.42v-.68h-3.42Zm-4.78,0h3.42v-.68h-3.42Zm-4.78,0h3.42v-.68h-3.42Zm-4.77,0H229v-.68h-3.41Zm-4.78,0h3.41v-.68H220.8Zm-4.78,0h3.41v-.68H216Zm-4.78,0h3.41v-.68h-3.41Zm-4.78,0h3.41v-.68h-3.41Zm-4.78,0h3.42v-.68h-3.42Zm-4.78,0h3.42v-.68H196.9Zm-4.78,0h3.42v-.68h-3.42Zm-4.77,0h3.41v-.68h-3.41Zm-4.78,0H186v-.68h-3.41Zm-4.78,0h3.41v-.68h-3.41Zm-4.78,0h3.41v-.68H173Zm-4.78,0h3.41v-.68h-3.41Zm-4.78,0h3.42v-.68h-3.42Zm-4.78,0h3.42v-.68h-3.42Zm-4.77,0h3.41v-.68H153.9Zm-4.78,0h3.41v-.68h-3.41Zm-4.78,0h3.41v-.68h-3.41Zm-4.78,0H143v-.68h-3.41Zm-4.78,0h3.41v-.68h-3.41Zm-4.78,0h3.41v-.68H130Zm-4.78,0h3.42v-.68h-3.42Zm-4.78,0h3.42v-.68h-3.42Zm-4.77,0h3.41v-.68h-3.41Zm-4.78,0h3.41v-.68h-3.41Zm-4.78,0h3.41v-.68h-3.41Zm-4.78,0h3.41v-.68h-3.41Zm-4.78,0H100v-.68H96.55Zm-4.78,0h3.42v-.68H91.77Zm-4.78,0h3.42v-.68H87Zm-4.78,0h3.42v-.68H82.21Zm-4.77,0h3.41v-.68H77.44Zm-4.78,0h3.41v-.68H72.66Zm-4.78,0h3.41v-.68H67.88Zm-4.78,0h3.41v-.68H63.1Zm-4.78,0h3.41v-.68H58.32Zm-4.78,0H57v-.68H53.54Zm-4.78,0h3.42v-.68H48.76Zm-4.78,0H47.4v-.68H44Zm-4.77,0h3.41v-.68H39.21Zm-4.78,0h3.41v-.68H34.43Zm-4.78,0h3.41v-.68H29.65Zm-3.07,0h1.7v-.68h-1.7Z"/><path class="cls-3" d="M46.12,60.38h1.62V59.7H46.12Zm-4.52,0h3.23V59.7H41.6Zm-4.52,0h3.23V59.7H37.08Zm-4.52,0h3.23V59.7H32.56Zm-4.53,0h3.23V59.7H28Zm-4.52,0h3.23V59.7H23.51Zm-4.52,0h3.23V59.7H19Zm-4.52,0H17.7V59.7H14.47Zm-2.91,0h1.61V59.7H11.56Z"/><path class="cls-6" d="M402.4,251.92l1.7.3.23-1.35-1.69-.29Zm-4.73-.82,3.38.59.23-1.35-3.38-.58Zm-4.74-.82,3.39.59.23-1.35-3.38-.59Zm-4.73-.82,3.38.59.23-1.35-3.38-.59Zm-4.74-.82,3.38.58.24-1.34-3.39-.59Zm-4.74-.82,3.39.58.23-1.34-3.38-.59ZM374,247l3.38.59.23-1.34-3.38-.59Zm-4.74-.82,3.39.59.23-1.35-3.38-.58Zm-4.73-.82,3.38.59.23-1.35-3.38-.58Zm-4.74-.82,3.38.59.24-1.35-3.39-.58Zm-4.74-.82,3.39.59.23-1.35-3.38-.59Zm-4.73-.82,3.38.58.23-1.34-3.38-.59Zm-4.74-.82,3.38.58.24-1.34-3.38-.59Zm-4.73-.82,3.38.58.23-1.34-3.38-.59Zm-4.74-.83,3.38.59.24-1.34-3.39-.59Zm-4.74-.82,3.39.59.23-1.35-3.38-.58Zm-4.73-.82,3.38.59.23-1.35-3.38-.58Zm-4.74-.82,3.38.59.24-1.35-3.39-.59Zm-4.73-.82,3.38.59.23-1.35-3.38-.59Zm-4.74-.82,3.38.58.24-1.34-3.39-.59Zm-4.74-.82,3.39.58.23-1.34-3.38-.59Zm-4.73-.83,3.38.59.23-1.34-3.38-.59Zm-4.74-.82,3.38.59.24-1.35-3.39-.58Zm-4.73-.82,3.38.59.23-1.35-3.38-.58Zm-4.74-.82,3.38.59.24-1.35-3.39-.58Zm-4.74-.82,3.39.59.23-1.35-3.38-.59Zm-4.73-.82,3.38.58.23-1.34-3.38-.59Zm-4.74-.82,3.38.58.24-1.34-3.39-.59Zm-4.74-.83,3.39.59.23-1.34-3.38-.59Zm-4.73-.82,3.38.59.24-1.34-3.39-.59Zm-4.74-.82,3.39.59.23-1.35-3.38-.58Zm-4.73-.82,3.38.59.23-1.35-3.38-.58Zm-4.74-.82,3.38.59.24-1.35-3.39-.59Zm-4.74-.82,3.39.58.23-1.34-3.38-.59Zm-4.73-.82,3.38.58.23-1.34-3.38-.59Zm-4.74-.82,3.39.58.23-1.34-3.38-.59Zm-4.73-.83,3.38.59.23-1.34-3.38-.59Zm-4.74-.82,3.38.59.24-1.35-3.39-.58Zm-4.74-.82,3.39.59.23-1.35-3.38-.58Zm-4.73-.82,3.38.59.23-1.35-3.38-.59Zm-4.74-.82,3.39.59.23-1.35-3.38-.59Zm-4.73-.82,3.38.58.23-1.34-3.38-.59Zm-4.74-.82,3.38.58.24-1.34-3.39-.59Zm-4.74-.83,3.39.59.23-1.34-3.38-.59Zm-4.73-.82,3.38.59.23-1.35-3.38-.58Zm-4.74-.82,3.38.59.24-1.35-3.38-.58Zm-4.73-.82,3.38.59.23-1.35-3.38-.58Zm-4.74-.82,3.38.59.24-1.35L180,212Zm-4.74-.82,3.39.58.23-1.34-3.38-.59Zm-4.73-.82,3.38.58.23-1.34-3.38-.59Zm-4.74-.82,3.38.58.24-1.34-3.38-.59Zm-4.73-.83,3.38.59.23-1.34-3.38-.59Zm-4.74-.82,3.38.59.24-1.35-3.39-.58Zm-4.74-.82,3.39.59.23-1.35-3.38-.58Zm-4.73-.82,3.38.59.23-1.35-3.38-.59Zm-4.74-.82,3.38.59.24-1.35-3.39-.59Zm-4.73-.82,3.38.58.23-1.34-3.38-.59Zm-4.74-.82,3.38.58.24-1.34-3.39-.59Zm-4.74-.83,3.39.59.23-1.34-3.38-.59Zm-4.73-.82,3.38.59.23-1.35-3.38-.58Zm-4.74-.82,3.38.59.24-1.35-3.39-.58Zm-4.73-.82,3.38.59.23-1.35-3.38-.58Zm-4.74-.82,3.38.59.24-1.35-3.39-.59Zm-4.74-.82,3.39.58.23-1.34-3.38-.59Zm-3-.53,1.69.29.23-1.34-1.69-.3Z"/><path class="cls-3" d="M196.23,107.22l1.7.27.11-.68-1.7-.27Zm-4.76-.76,3.4.54.11-.67-3.4-.55Zm-4.76-.76,3.4.54.11-.68-3.4-.54Zm-4.76-.77,3.4.55.11-.68-3.4-.54Zm-4.76-.76,3.4.55.11-.68-3.4-.54Zm-4.76-.76,3.4.55.11-.68-3.4-.54Zm-4.76-.76,3.4.55.11-.68-3.4-.54Zm-4.76-.76,3.4.55.11-.68-3.4-.54Zm-4.76-.76,3.4.54.11-.67-3.4-.54Zm-4.75-.76,3.4.54.1-.67-3.4-.54Zm-4.76-.76,3.4.54.1-.67-3.4-.54Zm-4.76-.76,3.4.54.1-.67-3.4-.54Zm-4.76-.76,3.4.54.11-.67-3.4-.55Zm-4.76-.76,3.4.54.11-.67-3.4-.55Zm-4.76-.76,3.4.54.11-.67-3.4-.55Zm-4.76-.76,3.4.54.11-.67-3.4-.55Zm-4.76-.76,3.4.54.11-.67-3.4-.55Zm-4.76-.76,3.4.54.11-.68-3.4-.54Zm-4.76-.77,3.4.55.11-.68-3.4-.54Zm-4.76-.76,3.4.55.11-.68-3.4-.54ZM101,92l3.4.55.11-.68-3.4-.54Zm-4.76-.76,3.4.55.11-.68-3.4-.54Zm-4.75-.76,3.4.54.1-.67-3.4-.54Zm-4.76-.76,3.4.54.1-.67-3.4-.54ZM82,89l3.4.54.1-.67-3.4-.54Zm-4.76-.76,3.4.54.11-.67-3.4-.54Zm-4.76-.76,3.4.54.11-.67-3.4-.55Zm-4.76-.76,3.4.54.11-.67L67.84,86ZM63,85.92l3.4.54.11-.67-3.4-.55Zm-4.76-.76,3.4.54.11-.67-3.4-.55Zm-4.76-.76,3.4.54.11-.67-3.4-.55Zm-4.76-.76,3.4.54.11-.68L48.8,83Zm-4.76-.77,3.4.55.11-.68L44,82.2Zm-4.76-.76,3.4.55.11-.68-3.4-.54Zm-4.75-.76,3.39.55.11-.68-3.4-.54Zm-3.06-.49,1.7.28.1-.68-1.7-.27Z"/><path class="cls-4" d="M402.4,202.2l1.7.18.14-1.36-1.69-.18Zm-4.74-.51,3.39.36.14-1.35-3.38-.36Zm-4.74-.5,3.39.36.15-1.36-3.39-.36Zm-4.74-.51,3.39.36.15-1.36-3.39-.36Zm-4.74-.51,3.39.36.15-1.35-3.39-.37Zm-4.73-.51,3.38.37.15-1.36-3.39-.36Zm-4.74-.5,3.38.36.15-1.36-3.39-.36Zm-4.74-.51,3.38.36.15-1.36-3.39-.36Zm-4.74-.51,3.38.37.15-1.36-3.39-.36Zm-4.74-.5,3.38.36.15-1.36-3.39-.36Zm-4.74-.51,3.38.36.15-1.36-3.39-.36Zm-4.74-.51,3.38.36.15-1.35-3.39-.37Zm-4.74-.51,3.38.37.15-1.36-3.39-.36Zm-4.74-.5,3.38.36.15-1.36-3.39-.36Zm-4.74-.51,3.38.36.15-1.36-3.39-.36Zm-4.74-.51,3.38.37.15-1.36-3.39-.36Zm-4.74-.5,3.38.36.15-1.36-3.39-.36Zm-4.74-.51,3.38.36.15-1.36-3.39-.36Zm-4.74-.51,3.38.36.15-1.35-3.39-.37Zm-4.74-.51,3.38.37.15-1.36-3.39-.36Zm-4.74-.5,3.38.36.15-1.36-3.39-.36Zm-4.74-.51,3.38.36.15-1.36-3.39-.36Zm-4.74-.51,3.39.37.14-1.36-3.39-.36Zm-4.74-.5,3.39.36.14-1.36-3.38-.36Zm-4.74-.51,3.39.36.14-1.36-3.38-.36Zm-4.74-.51,3.39.36.14-1.35-3.38-.37Zm-4.74-.51,3.39.37.14-1.36-3.38-.36Zm-4.74-.5,3.39.36.14-1.36-3.38-.36Zm-4.74-.51,3.39.36.14-1.36-3.38-.36Zm-4.74-.51,3.39.37.14-1.36-3.38-.36Zm-4.74-.5,3.39.36.14-1.36-3.38-.36Zm-4.74-.51,3.39.36.14-1.36-3.38-.36Zm-4.74-.51,3.39.36.14-1.35-3.38-.37Zm-4.74-.51,3.39.37.14-1.36-3.38-.36Zm-4.74-.5,3.39.36.14-1.36-3.38-.36Zm-4.74-.51,3.39.36.14-1.36-3.38-.36Zm-4.74-.51,3.39.37.14-1.36-3.38-.36Zm-4.74-.5,3.39.36.14-1.36-3.38-.36Zm-4.74-.51,3.39.36.14-1.36-3.38-.36Zm-4.74-.51,3.39.36.14-1.35-3.38-.37Zm-4.74-.51,3.39.37.15-1.36-3.39-.36Zm-4.74-.5,3.39.36.15-1.36-3.39-.36Zm-4.74-.51,3.39.36.15-1.36-3.39-.36Zm-4.73-.51,3.38.37.15-1.36-3.39-.36Zm-4.74-.5,3.38.36.15-1.36-3.39-.36Zm-4.74-.51,3.38.36.15-1.36-3.39-.36Zm-4.74-.51,3.38.36.15-1.35-3.39-.37Zm-4.74-.51,3.38.37.15-1.36-3.39-.36Zm-4.74-.5,3.38.36.15-1.36L175,176.5Zm-4.74-.51,3.38.36.15-1.36L170.3,176Zm-4.74-.51,3.38.37.15-1.36-3.39-.36Zm-4.74-.5,3.38.36.15-1.36-3.39-.36Zm-4.74-.51,3.38.36.15-1.36-3.39-.36Zm-4.74-.51,3.38.36.15-1.35-3.39-.37Zm-4.74-.51,3.38.37.15-1.36-3.39-.36Zm-4.74-.5,3.38.36.15-1.36-3.39-.36ZM137,173.8l3.38.36.15-1.36-3.39-.36Zm-4.74-.51,3.38.37.15-1.36-3.39-.36Zm-4.74-.5,3.38.36.15-1.36-3.39-.36Zm-4.74-.51,3.39.36.14-1.36-3.39-.36Zm-4.74-.51,3.39.36.14-1.35-3.38-.37Zm-4.74-.51,3.39.37.14-1.36-3.38-.36Zm-4.74-.5,3.39.36.14-1.36-3.38-.36Zm-4.74-.51,3.39.36.14-1.35-3.38-.37Zm-4.74-.51,3.39.37.14-1.36-3.38-.36Zm-4.74-.5,3.39.36.14-1.36-3.38-.36Zm-4.74-.51,3.39.36.14-1.36-3.38-.36Zm-4.74-.51,3.39.36.14-1.35L85,166.86Zm-4.74-.51,3.39.37.14-1.36-3.38-.36Zm-4.74-.5,3.39.36.14-1.36-3.38-.36Zm-3-.33,1.69.18.14-1.35-1.69-.19Z"/><path class="cls-4" d="M402.41,176.93l1.69.19.15-1.35-1.69-.2Zm-4.72-.53,3.37.38.15-1.36-3.37-.38Zm-4.73-.53,3.38.38.15-1.36-3.37-.38Zm-4.72-.54,3.37.38.16-1.35-3.38-.38Zm-4.72-.53,3.37.38.16-1.36-3.38-.38Zm-4.72-.53,3.37.38.15-1.36-3.37-.38Zm-4.73-.54,3.38.38.15-1.35-3.37-.38Zm-4.72-.53,3.37.38.16-1.36-3.38-.38Zm-4.72-.53,3.37.38.15-1.36-3.37-.38Zm-4.72-.54,3.37.38.15-1.35-3.37-.38Zm-4.73-.53,3.38.38.15-1.36-3.37-.38Zm-4.72-.53,3.37.38.16-1.36-3.38-.38Zm-4.72-.54,3.37.39.15-1.36-3.37-.38ZM341,170l3.37.38.15-1.35-3.37-.38Zm-4.73-.53,3.38.38.15-1.36-3.37-.38Zm-4.72-.53,3.37.38.16-1.36-3.38-.38Zm-4.72-.54,3.37.38.15-1.35-3.37-.38Zm-4.73-.53,3.38.38.15-1.36-3.37-.38Zm-4.72-.53,3.38.38.15-1.36-3.37-.38Zm-4.72-.54,3.37.38.16-1.35-3.38-.38Zm-4.72-.53,3.37.38.15-1.36-3.37-.38Zm-4.73-.53,3.38.38.15-1.36-3.37-.38Zm-4.72-.54,3.38.39.15-1.36-3.38-.38Zm-4.72-.53,3.37.38.16-1.35-3.38-.39Zm-4.72-.53,3.37.38.15-1.36-3.37-.38Zm-4.73-.53,3.38.38.15-1.36-3.37-.38Zm-4.72-.54,3.37.38.16-1.35-3.38-.38Zm-4.72-.53,3.37.38.15-1.36-3.37-.38Zm-4.72-.53,3.37.38.15-1.36-3.37-.38Zm-4.73-.54,3.38.38.15-1.35-3.37-.38Zm-4.72-.53,3.37.38.16-1.36-3.38-.38Zm-4.72-.53,3.37.38.15-1.36-3.37-.38Zm-4.72-.54,3.37.38.15-1.35-3.37-.38Zm-4.73-.53,3.38.38.15-1.36-3.37-.38Zm-4.72-.53,3.37.38.16-1.36-3.38-.38Zm-4.72-.54,3.37.39.15-1.36-3.37-.38Zm-4.72-.53,3.37.38.15-1.35-3.37-.39Zm-4.73-.53,3.38.38.15-1.36-3.37-.38Zm-4.72-.53,3.37.38.16-1.36-3.38-.38Zm-4.72-.54,3.37.38.15-1.35-3.37-.38Zm-4.73-.53,3.38.38.15-1.36-3.37-.38Zm-4.72-.53,3.38.38.15-1.36-3.38-.38Zm-4.72-.54,3.37.38.16-1.35-3.38-.38Zm-4.72-.53,3.37.38.15-1.36-3.37-.38Zm-4.73-.53,3.38.38.15-1.36-3.37-.38Zm-4.72-.54,3.37.39.16-1.36-3.38-.38Zm-4.72-.53,3.37.38.16-1.35-3.38-.39Zm-4.72-.53,3.37.38.15-1.36-3.37-.38Zm-4.73-.53,3.38.38.15-1.36-3.37-.38Zm-4.72-.54,3.37.38.16-1.35-3.38-.38Zm-4.72-.53,3.37.38.15-1.36-3.37-.38Zm-4.72-.53,3.37.38.15-1.36-3.37-.38Zm-4.73-.54,3.38.38.15-1.35-3.37-.38Zm-4.72-.53,3.37.38.16-1.36-3.38-.38Zm-4.72-.53,3.37.38.15-1.36-3.37-.38Zm-4.72-.54L146,148l.15-1.35-3.37-.38Zm-4.73-.53,3.38.38.15-1.36-3.37-.38Zm-4.72-.53,3.37.38.16-1.36-3.38-.38ZM128.5,146l3.37.39L132,145l-3.37-.38Zm-4.73-.53,3.38.38.15-1.35-3.37-.39Zm-4.72-.53,3.38.38.15-1.36-3.37-.38Zm-4.72-.53,3.37.38.16-1.36-3.38-.38Zm-4.72-.54,3.37.38.15-1.35-3.37-.38Zm-4.73-.53,3.38.38.15-1.36L105,142Zm-4.72-.53,3.37.38.16-1.36-3.38-.38Zm-4.72-.54,3.37.38.16-1.35-3.38-.38Zm-4.72-.53,3.37.38.15-1.36-3.37-.38ZM86,141.22l3.38.38.15-1.36-3.37-.38Zm-4.72-.54,3.37.38.16-1.35-3.38-.38Zm-4.72-.53,3.37.38.16-1.35-3.38-.39Zm-4.72-.53,3.37.38.15-1.36L72,138.26Zm-4.73-.53,3.38.38.15-1.36-3.37-.38Zm-4.72-.54,3.37.38.16-1.35-3.38-.38Zm-3-.34,1.69.19.15-1.36-1.68-.19Z"/><path class="cls-4" d="M402.4,151.67l1.7.19.15-1.35-1.7-.2Zm-4.75-.54,3.39.39.15-1.36-3.39-.38Zm-4.75-.53,3.39.38.15-1.36-3.39-.38Zm-4.76-.54,3.4.38.15-1.35-3.39-.39Zm-4.75-.54,3.4.39.15-1.36-3.39-.38Zm-4.75-.53,3.4.38.15-1.36-3.39-.38Zm-4.75-.54,3.39.38.16-1.35-3.4-.39Zm-4.75-.54,3.39.39.16-1.36-3.4-.39Zm-4.75-.54,3.39.39.15-1.36-3.39-.38Zm-4.75-.53,3.39.38.15-1.36-3.39-.38Zm-4.76-.54,3.4.38.15-1.35-3.39-.39Zm-4.75-.54,3.4.39.15-1.36-3.39-.38Zm-4.75-.53,3.4.38.15-1.36-3.39-.38Zm-4.75-.54,3.39.38.16-1.35-3.4-.39Zm-4.75-.54,3.39.39.16-1.36-3.4-.38Zm-4.75-.53,3.39.38.15-1.36-3.39-.38Zm-4.75-.54,3.39.38.15-1.35-3.39-.39Zm-4.76-.54,3.4.38.15-1.35-3.39-.39Zm-4.75-.54,3.4.39.15-1.36-3.39-.38Zm-4.75-.53,3.4.38.15-1.36-3.39-.38Zm-4.75-.54,3.39.38.16-1.35-3.4-.39Zm-4.75-.54,3.39.39.16-1.36-3.4-.38Zm-4.75-.53,3.39.38.15-1.36L298,138.5Zm-4.75-.54,3.39.38.15-1.35-3.39-.39Zm-4.76-.54,3.4.39.15-1.36-3.39-.38Zm-4.75-.54,3.4.39.15-1.36-3.39-.38Zm-4.75-.53,3.4.38.15-1.36-3.39-.38Zm-4.75-.54,3.39.38.16-1.35-3.4-.39Zm-4.75-.54,3.39.39.16-1.36-3.4-.38Zm-4.75-.53,3.39.38.16-1.36-3.4-.38Zm-4.75-.54,3.39.38.15-1.35L260,134.2ZM255.1,135l3.4.39.15-1.36-3.39-.38Zm-4.75-.53,3.4.38.15-1.36-3.39-.38ZM245.6,134l3.4.38.15-1.35-3.39-.39Zm-4.75-.54,3.39.39.16-1.36-3.4-.39Zm-4.75-.54,3.39.39.16-1.36-3.4-.38Zm-4.75-.53,3.39.38.16-1.36-3.4-.38Zm-4.75-.54,3.39.38.15-1.35-3.39-.39Zm-4.76-.54,3.4.39.15-1.36-3.39-.38Zm-4.75-.53,3.4.38.15-1.36-3.39-.38Zm-4.75-.54,3.4.38.15-1.35-3.39-.39Zm-4.75-.54L211,130l.16-1.36-3.4-.38Zm-4.75-.53,3.39.38.16-1.36-3.4-.38Zm-4.75-.54,3.39.38.16-1.35-3.4-.39Zm-4.75-.54,3.39.38.15-1.35-3.39-.39Zm-4.75-.54,3.39.39.15-1.36-3.39-.38Zm-4.76-.53,3.4.38.15-1.36-3.39-.38Zm-4.75-.54,3.4.38.15-1.35-3.39-.39Zm-4.75-.54,3.39.39.16-1.36-3.4-.38Zm-4.75-.53,3.39.38.16-1.36-3.4-.38Zm-4.75-.54,3.39.38.16-1.35-3.4-.39Zm-4.75-.54,3.39.39.15-1.36-3.39-.38Zm-4.75-.54,3.39.39.15-1.36-3.39-.38Zm-4.76-.53,3.4.38.15-1.36-3.39-.38Zm-4.75-.54,3.4.38.15-1.35-3.39-.39Zm-4.75-.54,3.39.39.16-1.36-3.4-.38Zm-4.75-.53,3.39.38.16-1.36-3.4-.38Zm-4.75-.54,3.39.38.16-1.35-3.4-.39Zm-4.75-.54,3.39.39.15-1.36-3.39-.38Zm-4.75-.53,3.39.38.15-1.36-3.39-.38Zm-4.76-.54,3.4.38.15-1.35-3.39-.39Zm-4.75-.54,3.4.39.15-1.36-3.39-.39Zm-4.75-.54,3.39.39.16-1.36L108,117Zm-4.75-.53,3.39.38.16-1.36-3.4-.38Zm-4.75-.54,3.39.38.16-1.35-3.4-.39Zm-4.75-.54,3.39.39.15-1.36-3.39-.38Zm-4.75-.53,3.39.38.15-1.36L89,114.87Zm-4.76-.54,3.4.38.15-1.35-3.39-.39Zm-4.75-.54,3.4.39.15-1.36-3.39-.38Zm-4.75-.53,3.39.38.16-1.36-3.4-.38Zm-4.75-.54,3.39.38.16-1.36-3.4-.38Zm-4.75-.54,3.39.38.16-1.35-3.4-.39ZM60.3,113l3.39.39.15-1.36-3.39-.38Zm-4.75-.53,3.39.38.15-1.36-3.39-.38Zm-4.76-.54,3.4.38.15-1.35L51,110.57Zm-3-.35,1.7.2.15-1.36-1.7-.19Z"/><path class="cls-3" d="M331.56,309.33a3,3,0,0,1-2.75-1.84,3,3,0,0,1,2.17-4,3,3,0,0,1,3.56,2.91,3,3,0,0,1-3,3Zm6.08-9.41c-.17-.17-.35-.33-.53-.48l-.05,0c-.19-.15-.38-.29-.58-.42l-.16-.12-.26-.15a9.18,9.18,0,0,0-4.85-1.51H331a9.24,9.24,0,0,0-9,9.23c0,4.4,6.22,12.25,8.49,15a1.12,1.12,0,0,0,.36.29,1.09,1.09,0,0,0,.91,0,1.12,1.12,0,0,0,.36-.29c2.23-2.71,8.31-10.49,8.31-14.91a9.12,9.12,0,0,0-2.79-6.56Z"/><path class="cls-3" d="M382.07,308.37c-1,0-1.45-.86-1.45-1.83s.45-1.84,1.45-1.84,1.45.87,1.45,1.84S383.06,308.37,382.07,308.37Zm0,.66a2.52,2.52,0,1,0-2.2-2.49A2.22,2.22,0,0,0,382.07,309Zm-3.7-5.74a.52.52,0,0,0,.53-.51.53.53,0,0,0-1.06,0A.52.52,0,0,0,378.37,303.29Zm-.37,5.64h.74v-4.84H378Zm-1.91.05a.57.57,0,1,0-.56-.56A.56.56,0,0,0,376.09,309Zm-1.75-3.8a1.62,1.62,0,0,0-1.71-1.15c-1,0-1.78.58-1.78,1.4s.4,1.11,1.29,1.32l.8.19c.49.11.72.35.72.68s-.44.76-1.13.76a1,1,0,0,1-1.12-.78l-.71.17a1.65,1.65,0,0,0,1.84,1.26c1.13,0,1.89-.61,1.89-1.45,0-.67-.42-1.1-1.28-1.31l-.72-.17c-.58-.15-.84-.34-.84-.71s.45-.72,1-.72a1,1,0,0,1,1.05.7Zm-4.27-1.09H369v-.49c0-.48.2-.73.69-.73a1.09,1.09,0,0,1,.42.08l.21-.65a1.76,1.76,0,0,0-.71-.12,1.25,1.25,0,0,0-1.36,1.24v.67h-.78v.63h.78v4.21H369v-4.21h1.08Zm-6.83,2.42c0-1.08.48-1.81,1.39-1.81s1.41.79,1.41,1.81-.48,1.86-1.41,1.86S363.24,307.61,363.24,306.51Zm-.73,4.24h.74v-2.56h.06a1.52,1.52,0,0,0,1.42.84c1.21,0,2-1,2-2.5s-.84-2.5-2.07-2.5a1.49,1.49,0,0,0-1.4.83h-.08v-.77h-.72Zm-1.73-7.46a.52.52,0,0,0,.53-.51.53.53,0,0,0-1.06,0A.52.52,0,0,0,360.78,303.29Zm-.38,5.64h.75v-4.84h-.75Zm-1.9.05a.57.57,0,1,0-.57-.56A.57.57,0,0,0,358.5,309Zm-1.66-4.89h-1v-1.16h-.74v1.16h-.73v.63h.73v3a1.24,1.24,0,0,0,1.31,1.25,1.51,1.51,0,0,0,.56-.09l-.15-.67a1.71,1.71,0,0,1-.33,0c-.33,0-.65-.1-.65-.73v-2.83h1Zm-3.31,1.09a1.64,1.64,0,0,0-1.72-1.15c-1,0-1.78.58-1.78,1.4s.4,1.11,1.29,1.32l.81.19c.48.11.71.35.71.68s-.44.76-1.13.76a1,1,0,0,1-1.12-.78l-.71.17a1.66,1.66,0,0,0,1.84,1.26c1.13,0,1.89-.61,1.89-1.45,0-.67-.42-1.1-1.28-1.31l-.72-.17c-.57-.15-.83-.34-.83-.71s.44-.72,1-.72a1,1,0,0,1,1.05.7Zm-5.16-1.89a.52.52,0,0,0,.53-.51.53.53,0,0,0-1.06,0A.52.52,0,0,0,348.37,303.29Zm-.38,5.64h.74v-4.84H348Zm-3.58-.56c-.94,0-1.41-.82-1.41-1.86s.46-1.81,1.41-1.81,1.38.73,1.38,1.81S345.3,308.37,344.41,308.37Zm-.1.66a1.51,1.51,0,0,0,1.41-.84h.09v.74h.72v-6.45h-.75v2.38h-.06a1.49,1.49,0,0,0-1.4-.83c-1.22,0-2.07,1-2.07,2.5S343.1,309,344.31,309Z"/><path class="cls-3" d="M394.87,344.12l1.57.55.22-.65-1.56-.54Zm-4.37-1.52,3.13,1.09.22-.65L390.73,342Zm-4.37-1.53,3.13,1.09.22-.64-3.12-1.09Zm-4.37-1.53,3.12,1.09.23-.64L382,338.9ZM377.39,338l3.12,1.09.23-.65-3.12-1.09ZM373,336.49l3.12,1.09.23-.64-3.12-1.09ZM368.65,335l3.12,1.09.23-.65-3.12-1.09Zm-4.37-1.53,3.12,1.09.23-.64-3.13-1.09Zm-4.37-1.52L363,333l.23-.65-3.13-1.09Zm-4.37-1.53,3.12,1.09.23-.65-3.13-1.09Zm-4.37-1.53,3.12,1.09.22-.64-3.12-1.09Zm-4.37-1.52,3.12,1.09.22-.65L347,326.69Zm-4.37-1.53,3.12,1.09.22-.64-3.12-1.09Zm-4.37-1.52,3.12,1.09.22-.65-3.12-1.09Zm-4.38-1.53,3.13,1.09.22-.64-3.12-1.09Zm-2.8-1,1.56.54.22-.64-1.56-.55Z"/><path class="cls-3" d="M273.56,252.33a3,3,0,0,1-2.75-1.84,3,3,0,0,1,2.17-4,3,3,0,0,1,3.56,2.91,3,3,0,0,1-3,3Zm6.08-9.41c-.17-.17-.35-.33-.53-.48l-.05,0c-.19-.15-.38-.29-.58-.42l-.16-.12-.26-.15a9.18,9.18,0,0,0-4.85-1.51H273a9.24,9.24,0,0,0-9,9.23c0,4.4,6.22,12.25,8.49,15a1.12,1.12,0,0,0,.36.29,1.09,1.09,0,0,0,.91,0,1.12,1.12,0,0,0,.36-.29c2.23-2.71,8.31-10.49,8.31-14.91a9.12,9.12,0,0,0-2.79-6.56Z"/><path class="cls-3" d="M337.55,251.93h.75v-3.06a1.13,1.13,0,0,1,1.22-1.13,1.77,1.77,0,0,1,.45,0V247h-.39a1.31,1.31,0,0,0-1.26.8h-.05v-.73h-.72Zm-4.64-2.81a1.44,1.44,0,0,1,1.43-1.42,1.31,1.31,0,0,1,1.33,1.42Zm1.51,2.91a1.89,1.89,0,0,0,1.93-1.22l-.72-.2a1.2,1.2,0,0,1-1.21.76,1.47,1.47,0,0,1-1.51-1.61h3.51v-.31c0-1.8-1.07-2.42-2.08-2.42a2.25,2.25,0,0,0-2.18,2.52A2.22,2.22,0,0,0,334.42,252Zm-5.19-.1H330v-3.06a1.13,1.13,0,0,1,1.22-1.13,1.77,1.77,0,0,1,.45,0V247h-.39a1.31,1.31,0,0,0-1.26.8H330v-.73h-.72Zm-3.32-.56c-1,0-1.45-.86-1.45-1.83s.45-1.84,1.45-1.84,1.44.87,1.44,1.84S326.9,251.37,325.91,251.37Zm0,.66a2.52,2.52,0,1,0-2.2-2.49A2.22,2.22,0,0,0,325.91,252Zm-3.33-6.55h-.75v6.45h.75Zm-5.42,4c0-1.08.47-1.81,1.38-1.81s1.41.79,1.41,1.81-.47,1.86-1.41,1.86S317.16,250.61,317.16,249.51Zm-.74,4.24h.75v-2.56h.06a1.51,1.51,0,0,0,1.41.84c1.21,0,2.06-1,2.06-2.5s-.85-2.5-2.07-2.5a1.48,1.48,0,0,0-1.4.83h-.09v-.77h-.72Zm-4.23-6.66h-.86l1.54,2.42-1.54,2.42h.86l1.16-1.88,1.16,1.88h.85l-1.56-2.42,1.56-2.42h-.85l-1.16,2Zm-5.76,4.84h3.94v-.69h-3.16v-2.19h2.91v-.7h-2.91v-2.18h3.11v-.69h-3.89Zm-8.09-.69v-5.07h1.24c1.52,0,2.28,1,2.28,2.52s-.76,2.55-2.37,2.55Zm1.21.69c2,0,3.07-1.22,3.07-3.24s-1.11-3.21-3-3.21h-2.08v6.45Zm-7,0h3.78v-.69h-3v-5.76h-.78Zm-4.85-3.05v-2.71h1.37c1.05,0,1.45.58,1.45,1.35a1.25,1.25,0,0,1-1.43,1.36Zm-.78,3.05h.78v-2.35h1.41a2.05,2.05,0,1,0,0-4.1h-2.18Zm-1.57-6.45h-.78v6.45h.78Z"/><path class="cls-3" d="M402.33,291.85l1.67.35.14-.67-1.67-.35Zm-4.69-1,3.35.7.14-.67-3.35-.7Zm-4.68-1,3.35.7.14-.66-3.35-.7Zm-4.68-1,3.34.7.14-.66-3.34-.7Zm-4.68-1,3.34.7.14-.66-3.35-.7Zm-4.69-1,3.35.7.14-.67-3.35-.7Zm-4.68-1,3.34.7.14-.67-3.34-.7Zm-4.68-1,3.34.7L373,285l-3.34-.7Zm-4.69-1,3.35.7.14-.67-3.35-.7Zm-4.68-1,3.35.7.13-.67-3.34-.7Zm-4.68-1,3.34.7.14-.67-3.34-.7Zm-4.69-1,3.35.7.14-.67-3.35-.7Zm-4.68-1,3.35.7.14-.67-3.35-.7Zm-4.68-1,3.34.7.14-.67-3.34-.7Zm-4.68-1,3.34.7.14-.67-3.35-.7Zm-4.69-1,3.35.7.14-.67-3.35-.7Zm-4.68-1,3.34.7.14-.67-3.34-.7Zm-4.68-1,3.34.7.14-.67-3.34-.7Zm-4.69-1,3.35.7.14-.67-3.35-.7Zm-4.68-1,3.34.7.14-.66-3.34-.7Zm-4.68-1,3.34.7.14-.66-3.34-.7Zm-4.69-1,3.35.69.14-.66-3.35-.7Zm-4.68-1,3.35.7.14-.67-3.35-.7Zm-4.68-1,3.34.7.14-.67-3.34-.7Zm-4.69-1,3.35.7.14-.67-3.35-.7Zm-4.68-1,3.35.7.14-.67-3.35-.7Zm-4.68-1,3.34.7.14-.67-3.34-.7Zm-4.68-1,3.34.7.14-.67-3.34-.7Zm-3-.63,1.67.35.14-.67-1.68-.35Z"/></g></g></svg>