<svg xmlns="http://www.w3.org/2000/svg" viewBox="0 0 411.65 417.8"><defs><style>.cls-1{fill:#fff;}.cls-2{fill:#808492;}.cls-3{fill:#b7bbc8;}.cls-4{fill:#398186;}.cls-5{fill:#6bc4cd;}.cls-6{fill:#010101;}</style></defs><g id="Layer_2" data-name="Layer 2"><g id="Layer_1-2" data-name="Layer 1"><rect class="cls-1" x="2.05" y="8.19" width="409.61" height="409.61"/><path class="cls-2" d="M52.4,411.19l1.5-1.72H47.76v-.55h6.13L52.4,407.2H53l1.77,2-1.77,2Zm-13.1-2.82A1.24,1.24,0,0,0,38,409.44h2.54a1.2,1.2,0,0,0-.42-.77A1.24,1.24,0,0,0,39.3,408.37ZM42,409.91s0,.15,0,.4H38a1.24,1.24,0,0,0,.5.76,1.69,1.69,0,0,0,1,.27,2.14,2.14,0,0,0,.7-.11,1.8,1.8,0,0,0,.59-.38l.79.86a2.67,2.67,0,0,1-2.12.83,3.32,3.32,0,0,1-1.54-.34,2.48,2.48,0,0,1-1-.94,2.54,2.54,0,0,1-.37-1.37,2.61,2.61,0,0,1,.36-1.36,2.53,2.53,0,0,1,1-.94,2.89,2.89,0,0,1,1.41-.35,2.79,2.79,0,0,1,1.36.33,2.32,2.32,0,0,1,1,.93A2.81,2.81,0,0,1,42,409.91Zm-8.53-2.67a2,2,0,0,1,1.53.58,2.28,2.28,0,0,1,.57,1.7v2.94H34v-2.71a1.32,1.32,0,0,0-.26-.91.87.87,0,0,0-.71-.31,1.05,1.05,0,0,0-.83.35,1.39,1.39,0,0,0-.31,1v2.58H30.44v-2.71c0-.81-.33-1.22-1-1.22a1.06,1.06,0,0,0-.82.35,1.44,1.44,0,0,0-.3,1v2.58H26.85v-5.14h1.42v.59a1.85,1.85,0,0,1,.7-.49,2.29,2.29,0,0,1,.92-.18,2.24,2.24,0,0,1,1,.22,1.77,1.77,0,0,1,.71.62,2.21,2.21,0,0,1,.79-.62A2.68,2.68,0,0,1,33.43,407.24Zm-8.71-.64a.93.93,0,0,1-.67-.24.77.77,0,0,1-.26-.59.79.79,0,0,1,.26-.59.93.93,0,0,1,.67-.24,1,1,0,0,1,.67.23.72.72,0,0,1,.25.57.81.81,0,0,1-.25.62A1,1,0,0,1,24.72,406.6Zm-.75.72h1.49v5.14H24Zm-4.3-.29H17.53v-1.26h5.83V407H21.21v5.43H19.67Z"/><path class="cls-2" d="M8.66,410.81l1.72,1.5v-6.15h.55v6.14l1.71-1.49v.64l-2,1.77-2-1.77Zm2.81-10.61a1.28,1.28,0,0,0-.28-.85,1.2,1.2,0,0,0-.79-.42v2.53a1.2,1.2,0,0,0,.78-.42A1.23,1.23,0,0,0,11.47,400.2Zm-1.53,2.67-.41,0V399a1.22,1.22,0,0,0-.75.5,1.59,1.59,0,0,0-.28,1,1.92,1.92,0,0,0,.12.71,1.76,1.76,0,0,0,.38.58l-.86.8a2.67,2.67,0,0,1-.83-2.13,3.38,3.38,0,0,1,.33-1.53,2.59,2.59,0,0,1,1-1,2.62,2.62,0,0,1,1.37-.36,2.66,2.66,0,0,1,1.35.35,2.51,2.51,0,0,1,.95,1,2.87,2.87,0,0,1,.34,1.4,2.94,2.94,0,0,1-.32,1.37,2.35,2.35,0,0,1-.94,1A2.77,2.77,0,0,1,9.94,402.87Zm-2.63-8.39a5.28,5.28,0,0,1,.15-1.25,3.29,3.29,0,0,1,.4-1l1.07.49a3.27,3.27,0,0,0-.36.84,3.51,3.51,0,0,0-.13,1c0,.63.15.95.46.95a.33.33,0,0,0,.32-.26,3.82,3.82,0,0,0,.16-.79,9.88,9.88,0,0,1,.22-1.05,1.61,1.61,0,0,1,.44-.71,1.25,1.25,0,0,1,.9-.3,1.39,1.39,0,0,1,.86.28,1.83,1.83,0,0,1,.59.82,3.54,3.54,0,0,1,.21,1.28,5,5,0,0,1-.12,1.08,3.14,3.14,0,0,1-.33.9l-1.06-.5a2.89,2.89,0,0,0,.38-1.48,1.52,1.52,0,0,0-.13-.72.4.4,0,0,0-.34-.23.35.35,0,0,0-.34.25,5.51,5.51,0,0,0-.18.83,8.66,8.66,0,0,1-.23,1,1.55,1.55,0,0,1-.43.7,1.26,1.26,0,0,1-.88.29,1.36,1.36,0,0,1-.85-.28,1.92,1.92,0,0,1-.58-.85A3.59,3.59,0,0,1,7.31,394.48Zm5.93-3.85a.93.93,0,0,1,.24-.67.81.81,0,0,1,1.19,0,.93.93,0,0,1,.24.67,1,1,0,0,1-.23.66.73.73,0,0,1-.58.26.8.8,0,0,1-.62-.26A.92.92,0,0,1,13.24,390.63Zm-.71-.75v1.49H7.38v-1.49ZM7.63,389a1.59,1.59,0,0,1-.25-.54,2.87,2.87,0,0,1-.07-.67,2,2,0,0,1,.47-1.42,1.76,1.76,0,0,1,1.37-.5h2.11v-.8h1.15v.8h1.25v1.49H12.41v1.28H11.26V387.4H9.17a.74.74,0,0,0-.51.16.69.69,0,0,0-.17.48,1,1,0,0,0,.19.6Zm4.22-6.15a1.68,1.68,0,0,1,.56.72,2.69,2.69,0,0,1,.19,1.05H11.23c0-.16,0-.27,0-.33a1.39,1.39,0,0,0-.37-1A1.43,1.43,0,0,0,9.81,383H7.38v-1.49h5.15v1.42Zm-.38-5.08a1.28,1.28,0,0,0-.28-.85,1.2,1.2,0,0,0-.79-.42v2.53a1.2,1.2,0,0,0,.78-.42A1.23,1.23,0,0,0,11.47,377.81Zm-1.53,2.67-.41,0v-3.89a1.22,1.22,0,0,0-.75.5,1.59,1.59,0,0,0-.28,1,2,2,0,0,0,.12.71,1.76,1.76,0,0,0,.38.58l-.86.79A2.64,2.64,0,0,1,7.31,378a3.45,3.45,0,0,1,.33-1.54,2.56,2.56,0,0,1,1-1,2.62,2.62,0,0,1,1.37-.36,2.66,2.66,0,0,1,1.35.35,2.45,2.45,0,0,1,.95,1,2.87,2.87,0,0,1,.34,1.4,2.94,2.94,0,0,1-.32,1.37,2.32,2.32,0,0,1-.94.95A2.68,2.68,0,0,1,9.94,380.48Zm-1.41-8.86a1.24,1.24,0,0,0,.38.94,1.45,1.45,0,0,0,1.05.37,1.42,1.42,0,0,0,1-.37,1.21,1.21,0,0,0,.39-.94,1.24,1.24,0,0,0-.39-.94,1.46,1.46,0,0,0-1-.37,1.49,1.49,0,0,0-1.05.37A1.27,1.27,0,0,0,8.53,371.62Zm4.07.26a2.59,2.59,0,0,1-.33,1.3,2.31,2.31,0,0,1-.93.93,2.79,2.79,0,0,1-1.38.33,2.87,2.87,0,0,1-1.4-.33,2.38,2.38,0,0,1-.93-.93,2.69,2.69,0,0,1-.32-1.3,2,2,0,0,1,.62-1.55H5.53v-1.49h7v1.43h-.6A2,2,0,0,1,12.6,371.88Zm-5.22-5.45L9,365.3l-1.58-1.17v-1.62l2.59,2,2.56-1.91v1.67L11,365.34l1.5,1.12V368L10,366.13l-2.63,2Zm1.25-4.33H7.38v-5.18h6.69V362H12.83v-3.51H11.38v3.1H10.17v-3.1H8.63Z"/><rect class="cls-2" y="212.31" width="409.61" height="0.68"/><rect class="cls-2" x="204.8" y="8.19" width="0.68" height="409.61"/><path class="cls-3" d="M27.31,27.14a3,3,0,0,1-2.75-1.83,3,3,0,0,1-.17-1.71,3,3,0,0,1,2.34-2.33,3,3,0,0,1,3.06,1.26,3,3,0,0,1,.5,1.65,2.93,2.93,0,0,1-.23,1.13,2.89,2.89,0,0,1-1.61,1.61A2.79,2.79,0,0,1,27.31,27.14Zm6.08-9.41-.53-.48,0,0-.58-.43-.16-.11a2.26,2.26,0,0,0-.26-.16A9.26,9.26,0,0,0,27,15h-.23a9.22,9.22,0,0,0-9,9.22c0,4.41,6.22,12.26,8.49,15a1,1,0,0,0,.36.28,1,1,0,0,0,.45.11,1.07,1.07,0,0,0,.46-.11,1,1,0,0,0,.36-.28c2.23-2.71,8.31-10.49,8.31-14.91a9.16,9.16,0,0,0-2.79-6.57Z"/><path class="cls-3" d="M97.19,20.3h-.75v6.45h.75Zm-8.46,6.45h.74v-3a1.15,1.15,0,0,1,1.1-1.21.9.9,0,0,1,1,.92v3.32h.75V23.6a1,1,0,0,1,1.08-1.09.9.9,0,0,1,1,1v3.24h.74V23.51c0-1.14-.61-1.66-1.47-1.66a1.51,1.51,0,0,0-1.45.82h0a1.33,1.33,0,0,0-1.3-.82,1.3,1.3,0,0,0-1.3.82h-.06v-.76h-.72Zm-1.12-4.84h-1V20.75h-.75v1.16H85.1v.63h.73v3a1.24,1.24,0,0,0,1.31,1.25,1.51,1.51,0,0,0,.56-.09l-.15-.66a1.94,1.94,0,0,1-.33,0c-.33,0-.64-.1-.64-.73V22.54h1ZM81,23.84a1.21,1.21,0,0,1,1.27-1.33,1.07,1.07,0,0,1,1.12,1.21v3h.74V23.67c0-1.24-.66-1.82-1.65-1.82a1.39,1.39,0,0,0-1.42.82H81V20.3h-.75v6.45H81ZM79,23.64H76.13v.69H79Zm-6.81-1.73h-.86l1.54,2.42-1.54,2.42h.86l1.16-1.88,1.16,1.88h.86l-1.57-2.42,1.57-2.42h-.86l-1.16,2Zm-5.07,2a1.45,1.45,0,0,1,1.43-1.43,1.32,1.32,0,0,1,1.33,1.43Zm1.51,2.91a1.89,1.89,0,0,0,1.93-1.22l-.72-.2a1.19,1.19,0,0,1-1.21.75,1.47,1.47,0,0,1-1.51-1.6h3.52v-.31c0-1.81-1.08-2.42-2.09-2.42a2.25,2.25,0,0,0-2.18,2.52A2.23,2.23,0,0,0,68.58,26.85ZM63,26.18c-.94,0-1.41-.82-1.41-1.85S62,22.51,63,22.51s1.38.73,1.38,1.82S63.86,26.18,63,26.18Zm-.1.67A1.51,1.51,0,0,0,64.28,26h.09v.74h.72V20.3h-.75v2.38h-.06a1.49,1.49,0,0,0-1.4-.83c-1.22,0-2.07,1-2.07,2.49S61.66,26.85,62.87,26.85Zm-6.28-3a1.2,1.2,0,0,1,1.24-1.33,1.07,1.07,0,0,1,1.11,1.21v3h.74V23.67c0-1.23-.66-1.82-1.64-1.82a1.42,1.42,0,0,0-1.41.82h-.06v-.76h-.72v4.84h.74ZM54.12,21.1a.51.51,0,0,0,.53-.5.53.53,0,0,0-1.06,0A.51.51,0,0,0,54.12,21.1Zm-.38,5.65h.75V21.91h-.75Zm-1.31-3.11H49.61v.69h2.82Zm-5.72,3.11h.75V23.69a1.14,1.14,0,0,1,1.22-1.14,2.43,2.43,0,0,1,.45.05v-.75l-.39,0a1.32,1.32,0,0,0-1.26.81h0v-.73h-.72ZM45,21.1a.51.51,0,0,0,.53-.5.52.52,0,0,0-.53-.51.51.51,0,0,0-.52.51A.51.51,0,0,0,45,21.1Zm-.37,5.65h.74V21.91h-.74Zm-5.5-.69V21h1.25c1.51,0,2.28,1,2.28,2.52s-.77,2.55-2.37,2.55Zm1.21.69c2,0,3.08-1.22,3.08-3.24s-1.11-3.21-3-3.21H38.33v6.45Z"/><path class="cls-3" d="M10.92,12.13a3,3,0,0,1-1.65-.51A3,3,0,0,1,8,8.58a3,3,0,0,1,.81-1.52,3,3,0,0,1,3.25-.64A2.9,2.9,0,0,1,13.4,7.51,2.94,2.94,0,0,1,13,11.26a3,3,0,0,1-1,.64A2.94,2.94,0,0,1,10.92,12.13ZM17,2.71c-.16-.16-.34-.32-.53-.48l0,0c-.18-.15-.37-.29-.57-.43l-.17-.11-.25-.16A9.32,9.32,0,0,0,10.58,0h-.23a9.22,9.22,0,0,0-9,9.22c0,4.41,6.22,12.26,8.48,15a1,1,0,0,0,.37.28,1,1,0,0,0,.9,0,1,1,0,0,0,.37-.28C13.71,21.48,19.8,13.7,19.8,9.28a9.12,9.12,0,0,0-.73-3.57A9,9,0,0,0,17,2.71Z"/><path class="cls-3" d="M43.51,11.16c-1,0-1.45-.85-1.45-1.82s.45-1.85,1.45-1.85S45,8.36,45,9.34,44.51,11.16,43.51,11.16Zm0,.67A2.22,2.22,0,0,0,45.7,9.34a2.21,2.21,0,1,0-4.38,0A2.22,2.22,0,0,0,43.51,11.83ZM39.82,6.08a.51.51,0,0,0,.52-.5.51.51,0,0,0-.52-.51.52.52,0,0,0-.53.51A.51.51,0,0,0,39.82,6.08Zm-.38,5.65h.74V6.89h-.74Zm-1.9,0a.57.57,0,1,0-.57-.57A.56.56,0,0,0,37.54,11.78ZM35.79,8a1.64,1.64,0,0,0-1.72-1.14c-1,0-1.78.58-1.78,1.4,0,.66.4,1.11,1.29,1.32l.81.19c.48.11.71.35.71.68s-.44.76-1.13.76a1,1,0,0,1-1.12-.79l-.71.18A1.67,1.67,0,0,0,34,11.83c1.13,0,1.89-.61,1.89-1.45,0-.67-.42-1.1-1.28-1.31l-.72-.18c-.57-.14-.83-.33-.83-.7s.44-.72,1-.72a1,1,0,0,1,1,.69ZM31.51,6.89H30.43V6.4c0-.48.2-.73.69-.73a1.34,1.34,0,0,1,.42.07l.21-.64a1.69,1.69,0,0,0-.7-.13,1.25,1.25,0,0,0-1.36,1.25v.67H28.9v.63h.79v4.21h.74V7.52h1.08ZM24.68,9.31c0-1.08.48-1.82,1.39-1.82s1.41.8,1.41,1.82-.48,1.85-1.41,1.85S24.68,10.41,24.68,9.31ZM24,13.55h.74V11h.07a1.5,1.5,0,0,0,1.41.84c1.21,0,2-1,2-2.51s-.84-2.49-2.06-2.49a1.47,1.47,0,0,0-1.4.83h-.09V6.89H24ZM22.22,6.08a.51.51,0,0,0,.53-.5.53.53,0,0,0-1.06,0A.51.51,0,0,0,22.22,6.08Zm-.38,5.65h.75V6.89h-.75Z"/><path class="cls-3" d="M267.48,237.76l1.49.86.35-.59-1.5-.86Zm-4.18-2.42,3,1.73.35-.59-3-1.73Zm-4.19-2.41,3,1.72.34-.59-3-1.73Zm-4.18-2.42,3,1.72.34-.59-3-1.72Zm-4.18-2.42,3,1.73.35-.59-3-1.73Zm-4.19-2.41,3,1.72.34-.59-3-1.72Zm-4.18-2.42,3,1.73.34-.59-3-1.73Zm-4.18-2.41,3,1.72.34-.59-3-1.72ZM234,218.43l3,1.73.34-.59-3-1.73ZM229.83,216l3,1.72.34-.59-3-1.73Zm-4.19-2.42,3,1.73.34-.6L226,213Zm-4.18-2.42,3,1.73.34-.59-3-1.73Zm-4.18-2.41,3,1.72.34-.59-3-1.72Zm-4.19-2.42,3,1.73.34-.59-3-1.73Zm-4.18-2.41,3,1.72.34-.59-3-1.72Zm-4.18-2.42,3,1.73.35-.59-3-1.73Zm-4.19-2.41,3,1.72.34-.59-3-1.72Zm-4.18-2.42,3,1.73.34-.59-3-1.73Zm-4.18-2.41,3,1.72.35-.59-3-1.73ZM188,191.86l3,1.73.34-.6-3-1.72Zm-4.18-2.42,3,1.73.34-.59-3-1.73ZM179.62,187l3,1.72.34-.59-3-1.72Zm-4.18-2.42,3,1.73.34-.59-3-1.73Zm-4.18-2.41,3,1.72.34-.59-3-1.72Zm-4.19-2.42,3,1.73.34-.59-3-1.73Zm-4.18-2.41,3,1.72.34-.59-3-1.73ZM158.71,175l3,1.73.34-.6-3-1.72Zm-4.19-2.42,3,1.73.34-.59-3-1.73Zm-4.18-2.41,3,1.72.34-.59-3-1.72Zm-4.18-2.42,3,1.73.35-.59-3-1.73ZM142,165.29l3,1.72.34-.59-3-1.72Zm-4.18-2.42,3,1.73.34-.59-3-1.73Zm-4.18-2.41,3,1.72.35-.59-3-1.72ZM129.42,158l3,1.73.34-.59-3-1.73Zm-4.18-2.41,3,1.72.34-.59-3-1.73Zm-4.19-2.42,3,1.73.34-.6-3-1.72Zm-4.18-2.42,3,1.73.34-.59-3-1.73Zm-4.18-2.41,3,1.72.34-.59-3-1.72ZM108.5,146l3,1.73.34-.59-3-1.73Zm-2.69-1.55,1.5.86.34-.59-1.49-.86Z"/><path class="cls-4" d="M406.16,389.87l1.4,1,.78-1.12-1.4-1Zm-3.93-2.76,2.8,2,.79-1.12L403,386Zm-3.93-2.76,2.81,2,.78-1.12-2.8-2Zm-3.93-2.76,2.81,2,.78-1.12-2.8-2Zm-3.92-2.76,2.8,2,.79-1.12-2.81-2Zm-3.93-2.76,2.8,2,.79-1.12-2.81-2Zm-3.93-2.76,2.81,2,.78-1.12-2.8-2Zm-3.93-2.76,2.81,2,.78-1.12-2.8-2Zm-3.92-2.76,2.8,2,.79-1.12-2.81-2ZM370.81,365l2.81,2,.78-1.12-2.8-2Zm-3.93-2.76,2.81,2,.78-1.12-2.8-2ZM363,359.51l2.8,2,.79-1.12-2.81-2ZM359,356.75l2.8,2,.79-1.12-2.81-2ZM355.1,354l2.81,2,.78-1.12-2.8-2Zm-3.93-2.76,2.81,2,.78-1.12-2.8-2Zm-3.92-2.76,2.8,2,.79-1.12-2.81-2Zm-3.93-2.76,2.8,2,.79-1.12-2.81-2ZM339.39,343l2.81,2,.78-1.12-2.8-2Zm-3.92-2.76,2.8,2,.79-1.12-2.81-2Zm-3.93-2.76,2.8,2,.79-1.12-2.81-2Zm-3.93-2.76,2.81,2,.78-1.12-2.8-2Zm-3.93-2.76,2.81,2,.78-1.12-2.8-2Zm-3.92-2.76,2.8,2,.79-1.12-2.81-2Zm-3.93-2.76,2.8,2,.79-1.12-2.81-2Zm-3.93-2.76,2.81,2,.78-1.12-2.8-2ZM308,320.87l2.81,2,.78-1.12-2.8-2Zm-3.92-2.76,2.8,2,.79-1.12-2.81-2Zm-3.93-2.76,2.81,2,.78-1.12-2.8-2Zm-3.93-2.76,2.81,2,.78-1.12-2.8-2Zm-3.92-2.76,2.8,2,.79-1.12-2.81-2Zm-3.93-2.76,2.8,2,.79-1.12-2.81-2Zm-3.93-2.76,2.81,2,.78-1.12-2.8-2Zm-3.93-2.76,2.81,2,.78-1.12-2.8-2Zm-3.92-2.76,2.8,2,.79-1.12-2.81-2ZM272.63,296l2.8,2,.79-1.12-2.81-2Zm-3.93-2.76,2.81,2,.78-1.12-2.8-2Zm-3.92-2.76,2.8,2,.79-1.12-2.81-2Zm-3.93-2.76,2.8,2,.79-1.12-2.81-2ZM256.92,285l2.81,2,.78-1.12-2.8-2ZM253,282.23l2.81,2,.78-1.12-2.8-2Zm-3.92-2.76,2.8,2,.79-1.12-2.81-2Zm-3.93-2.76,2.8,2,.79-1.12-2.81-2ZM241.21,274l2.81,2,.78-1.12-2.8-2Zm-3.93-2.76,2.81,2,.78-1.12-2.8-2Zm-3.92-2.76,2.8,2,.79-1.12-2.81-2Zm-3.93-2.76,2.81,2,.78-1.12-2.8-2Zm-3.93-2.76,2.81,2,.78-1.12-2.8-2Zm-3.92-2.76,2.8,2,.79-1.12-2.81-2Zm-3.93-2.76,2.8,2,.79-1.12-2.81-2Zm-3.93-2.76,2.81,2,.78-1.12-2.8-2Zm-3.93-2.76,2.81,2,.78-1.12-2.8-2Zm-3.92-2.76,2.8,2,.79-1.12-2.81-2Zm-3.93-2.76,2.8,2,.79-1.12-2.81-2ZM198,243.59l2.81,2,.78-1.12-2.8-2Zm-3.92-2.76,2.8,2,.79-1.12-2.81-2Zm-3.93-2.76,2.8,2,.79-1.12-2.81-2Zm-3.93-2.76,2.81,2,.78-1.12-2.8-2Zm-3.93-2.76,2.81,2,.78-1.12-2.8-2Zm-3.92-2.76,2.8,2,.79-1.12-2.81-2ZM174.45,227l2.8,2,.79-1.12-2.81-2Zm-3.93-2.76,2.81,2,.78-1.12-2.8-2Zm-3.93-2.76,2.81,2,.78-1.12-2.8-2Zm-3.92-2.76,2.8,2,.79-1.12-2.81-2ZM158.74,216l2.81,2,.78-1.12-2.8-2Zm-3.93-2.76,2.81,2,.78-1.12-2.8-2Zm-3.92-2.76,2.8,2,.79-1.12-2.81-2ZM147,207.71l2.8,2,.79-1.12-2.81-2ZM143,205l2.81,2,.78-1.12-2.8-2Zm-3.93-2.76,2.81,2,.78-1.12-2.8-2Zm-3.92-2.76,2.8,2,.79-1.12-2.81-2Zm-3.93-2.76,2.8,2,.79-1.12-2.81-2Zm-3.93-2.76,2.81,2,.78-1.12-2.8-2Zm-3.92-2.76,2.8,2L127,192l-2.81-2Zm-3.93-2.76,2.8,2,.79-1.12-2.81-2Zm-3.93-2.76,2.81,2,.78-1.12-2.8-2Zm-3.93-2.76,2.81,2,.78-1.12-2.8-2Zm-3.92-2.77,2.8,2,.79-1.12-2.81-2Zm-3.93-2.76,2.8,2,.79-1.12-2.81-2Zm-3.93-2.76,2.81,2,.78-1.12-2.8-2Zm-3.93-2.76,2.81,2,.78-1.12-2.8-2ZM92,169.06l2.8,2,.79-1.12-2.81-2Zm-3.93-2.76,2.81,2,.78-1.12-2.8-2Zm-3.93-2.76,2.81,2,.78-1.12-2.8-2Zm-3.92-2.76,2.8,2,.79-1.12-2.81-2ZM76.27,158l2.8,2,.79-1.12-2.81-2Zm-3.93-2.76,2.81,2,.78-1.12-2.8-2Zm-3.93-2.76,2.81,2,.78-1.12-2.8-2Zm-3.92-2.76,2.8,2,.79-1.12-2.81-2ZM60.56,147l2.8,2,.79-1.12-2.81-2Zm-3.93-2.76,2.81,2,.78-1.12-2.8-2Zm-3.92-2.76,2.8,2,.79-1.12-2.81-2Zm-3.93-2.76,2.8,2,.79-1.12-2.81-2Zm-3.93-2.76,2.81,2,.78-1.12-2.8-2Zm-2.52-1.77,1.4,1,.78-1.12-1.4-1Z"/><path class="cls-5" d="M402.47,176.17l1.67.33.27-1.34-1.68-.33Zm-4.69-.92,3.35.66.26-1.34-3.35-.66Zm-4.69-.92,3.35.66.26-1.34-3.35-.66Zm-4.69-.91,3.35.65.26-1.34-3.35-.65Zm-4.7-.92,3.36.66.26-1.34-3.35-.66Zm-4.69-.92,3.35.66.27-1.34-3.35-.66Zm-4.69-.91,3.35.65.27-1.34-3.36-.65Zm-4.69-.92,3.35.66.26-1.34-3.35-.66Zm-4.69-.92,3.35.66.26-1.34-3.35-.66Zm-4.69-.91,3.35.65.26-1.34-3.35-.65Zm-4.69-.92,3.35.66.26-1.34-3.35-.66Zm-4.69-.92,3.35.66.26-1.34-3.35-.66Zm-4.69-.91,3.35.65.26-1.34-3.35-.65Zm-4.69-.92,3.35.66.26-1.34-3.35-.66Zm-4.69-.92,3.35.66.26-1.34-3.35-.66Zm-4.7-.91,3.36.65.26-1.34-3.35-.65Zm-4.69-.92,3.35.66.27-1.34-3.35-.66Zm-4.69-.92,3.35.66.26-1.34-3.35-.66Zm-4.69-.91,3.35.65.26-1.34-3.35-.65Zm-4.69-.92,3.35.66.26-1.34-3.35-.66Zm-4.69-.92,3.35.66.26-1.34-3.35-.66Zm-4.69-.91,3.35.65.26-1.34-3.35-.65Zm-4.69-.92,3.35.65.26-1.33-3.35-.66Zm-4.69-.92,3.35.66.26-1.34-3.35-.66Zm-4.69-.91,3.35.65.26-1.34-3.35-.65Zm-4.7-.92,3.36.65.26-1.34-3.35-.65Zm-4.69-.92,3.35.66.27-1.34-3.35-.66Zm-4.69-.91,3.35.65.27-1.34-3.36-.65Zm-4.69-.92,3.35.65.26-1.34-3.35-.65Zm-4.69-.92,3.35.66.26-1.34-3.35-.66Zm-4.69-.91,3.35.65.26-1.34-3.35-.65Zm-4.69-.92,3.35.65.26-1.34-3.35-.65Zm-4.69-.92,3.35.66.26-1.34-3.35-.66Zm-4.69-.91,3.35.65.26-1.34-3.35-.65ZM243,145l3.35.65.26-1.34-3.35-.65Zm-4.69-.92,3.35.66.26-1.34-3.35-.66Zm-4.7-.91,3.36.65.26-1.34-3.35-.65Zm-4.69-.92,3.35.65.27-1.34-3.35-.65Zm-4.69-.92,3.35.66.26-1.34-3.35-.66Zm-4.69-.91,3.35.65.26-1.34-3.35-.65Zm-4.69-.92,3.35.65.26-1.34-3.35-.65Zm-4.69-.92,3.35.66.26-1.34-3.35-.66Zm-4.69-.91,3.35.65.26-1.34-3.35-.65Zm-4.69-.92,3.35.65.26-1.34-3.35-.65Zm-4.69-.92,3.35.66.26-1.34-3.35-.66Zm-4.69-.91,3.35.65.26-1.34-3.35-.65Zm-4.7-.92,3.36.65.26-1.34-3.35-.65Zm-4.69-.92,3.35.66.27-1.34-3.35-.66Zm-4.69-.91,3.35.65.27-1.34-3.36-.65Zm-4.69-.92,3.35.65.26-1.34-3.35-.65Zm-4.69-.92,3.35.66.26-1.34-3.35-.66Zm-4.69-.92,3.35.66.26-1.34-3.35-.66Zm-4.69-.91,3.35.65.26-1.34-3.35-.65Zm-4.69-.92,3.35.66.26-1.34-3.35-.66Zm-4.69-.92,3.35.66.26-1.34-3.35-.66Zm-4.69-.91,3.35.65.26-1.34-3.35-.65Zm-4.69-.92,3.35.66.26-1.34-3.35-.66Zm-4.7-.92,3.35.66.27-1.34-3.35-.66Zm-4.69-.91,3.35.65.27-1.34-3.35-.65Zm-4.69-.92,3.35.66.26-1.34-3.35-.66Zm-4.69-.92,3.35.66.26-1.34-3.35-.66Zm-4.69-.91,3.35.65.26-1.34-3.35-.65Zm-4.69-.92L115,120l.26-1.34-3.35-.66Zm-4.69-.92,3.35.66.26-1.34-3.35-.66Zm-4.69-.91,3.35.65.26-1.34-3.35-.65Zm-4.69-.92,3.35.66.26-1.34-3.35-.66Zm-4.69-.92,3.35.66.26-1.34-3.35-.66Zm-4.7-.91,3.36.65.26-1.34-3.35-.65Zm-4.69-.92,3.35.66.27-1.34-3.35-.66Zm-4.69-.92,3.35.66.27-1.34-3.36-.66Zm-3-.59,1.67.33.26-1.34L76,111Z"/><path class="cls-5" d="M402.53,163.61l1.67.34.26-1.34-1.66-.33Zm-4.66-.92,3.33.66.27-1.34-3.33-.66Zm-4.66-.93,3.33.66.27-1.34-3.33-.66Zm-4.66-.93,3.33.66.27-1.34-3.33-.66Zm-4.66-.93,3.33.66.27-1.33-3.33-.67Zm-4.66-.93,3.33.67.27-1.34-3.33-.67Zm-4.65-.92,3.32.66.27-1.34-3.33-.66Zm-4.66-.93,3.32.66.27-1.34-3.33-.66Zm-4.66-.93,3.32.66.27-1.34-3.33-.66Zm-4.66-.93,3.32.66.27-1.34-3.33-.66Zm-4.66-.93,3.33.67.26-1.34L356.2,153Zm-4.66-.93,3.33.67.26-1.34-3.33-.66Zm-4.66-.92,3.33.66.26-1.34-3.33-.66Zm-4.66-.93,3.33.66.26-1.34-3.32-.66Zm-4.66-.93,3.33.66.26-1.34-3.32-.66Zm-4.66-.93,3.33.66.26-1.33-3.32-.67Zm-4.66-.93,3.33.67.27-1.34-3.33-.67Zm-4.66-.93,3.33.67.27-1.34-3.33-.66Zm-4.66-.92,3.33.66.27-1.34-3.33-.66ZM314,146l3.33.66.27-1.34-3.33-.66Zm-4.66-.93,3.33.66.27-1.34-3.33-.66Zm-4.66-.93,3.33.66.27-1.33-3.33-.67Zm-4.66-.93,3.33.67.27-1.34-3.33-.67Zm-4.66-.92,3.33.66.27-1.34-3.33-.66Zm-4.66-.93L294,142l.27-1.34L291,140Zm-4.66-.93,3.33.66.27-1.34-3.33-.66Zm-4.65-.93,3.32.66.27-1.34-3.33-.66Zm-4.66-.93,3.32.67.27-1.34-3.33-.67Zm-4.66-.93,3.32.67.27-1.34-3.33-.66Zm-4.66-.92,3.32.66L271,136l-3.33-.66Zm-4.66-.93,3.33.66.26-1.34-3.33-.66Zm-4.66-.93,3.33.66.26-1.34-3.33-.66Zm-4.66-.93,3.33.66.26-1.33-3.33-.67Zm-4.66-.93,3.33.67.26-1.34-3.32-.67Zm-4.66-.93,3.33.67.26-1.34-3.32-.66Zm-4.66-.92,3.33.66.26-1.34-3.32-.66Zm-4.66-.93,3.33.66.26-1.34-3.32-.66Zm-4.66-.93,3.33.66.27-1.34-3.33-.66Zm-4.66-.93,3.33.67.27-1.34-3.33-.67Zm-4.66-.93,3.33.67.27-1.34-3.33-.67Zm-4.66-.92,3.33.66.27-1.34-3.33-.66Zm-4.66-.93,3.33.66.27-1.34-3.33-.66Zm-4.66-.93,3.33.66.27-1.34-3.33-.66Zm-4.66-.93,3.33.66.27-1.34-3.33-.66Zm-4.66-.93,3.33.67.27-1.34-3.33-.67Zm-4.66-.93,3.33.67.27-1.34-3.33-.66Zm-4.66-.92,3.33.66.27-1.34-3.33-.66Zm-4.65-.93,3.32.66.27-1.34-3.33-.66Zm-4.66-.93,3.32.66.27-1.34-3.33-.66Zm-4.66-.93,3.32.66.27-1.33-3.33-.67Zm-4.66-.93,3.33.67.26-1.34-3.33-.67Zm-4.66-.93,3.33.67.26-1.34-3.33-.66Zm-4.66-.92,3.33.66.26-1.34L160.5,114Zm-4.66-.93,3.33.66.26-1.34-3.32-.66Zm-4.66-.93,3.33.66.26-1.34-3.32-.66Zm-4.66-.93,3.33.67.26-1.34-3.32-.67Zm-4.66-.93,3.33.67.26-1.34-3.32-.67Zm-4.66-.92,3.33.66.27-1.34-3.33-.66Zm-4.66-.93,3.33.66.27-1.34-3.33-.66Zm-4.66-.93,3.33.66.27-1.34-3.33-.66Zm-4.66-.93,3.33.66.27-1.34-3.33-.66ZM118.3,107l3.33.67.27-1.34-3.33-.67Zm-4.66-.93,3.33.67.27-1.34-3.33-.66Zm-4.66-.92,3.33.66.27-1.34-3.33-.66Zm-4.66-.93,3.33.66.27-1.34-3.33-.66Zm-4.66-.93,3.33.66.27-1.34-3.33-.66ZM95,102.35l3.33.66.27-1.33L95.27,101Zm-4.65-.93,3.32.67.27-1.34-3.33-.67Zm-4.66-.92,3.32.66.27-1.34L86,99.16ZM81,99.57l3.32.66.27-1.34-3.33-.66Zm-4.66-.93,3.32.66L80,98l-3.33-.66Zm-4.66-.93,3.33.66L75.3,97,72,96.37Zm-4.66-.93,3.33.67.26-1.34-3.33-.67Zm-4.66-.93,3.33.67L66,95.18l-3.33-.66Zm-3-.59,1.67.33.26-1.34-1.66-.33Z"/><path class="cls-5" d="M402.53,154.07l1.66.32.27-1.34-1.67-.32Zm-4.67-.92,3.34.65.26-1.34-3.33-.65Zm-4.66-.92,3.33.66.26-1.34-3.33-.66Zm-4.67-.91,3.33.65.27-1.34-3.34-.65Zm-4.66-.92,3.33.66.26-1.34-3.33-.66Zm-4.67-.91,3.33.65.27-1.34-3.34-.65Zm-4.67-.92,3.34.65.26-1.33-3.33-.66Zm-4.66-.91,3.33.65.26-1.34-3.33-.65Zm-4.67-.92,3.34.65.26-1.34-3.33-.65Zm-4.66-.92,3.33.66.26-1.34-3.33-.66Zm-4.67-.91,3.34.65.26-1.34-3.33-.65Zm-4.66-.92,3.33.66.26-1.34-3.33-.66Zm-4.67-.91,3.33.65.27-1.34-3.34-.65Zm-4.66-.92,3.33.66.26-1.34-3.33-.66Zm-4.67-.91,3.33.65.27-1.34-3.34-.65Zm-4.67-.92,3.34.65.26-1.34-3.33-.65Zm-4.66-.92,3.33.66.26-1.34-3.33-.66Zm-4.67-.91,3.34.65.26-1.34-3.33-.65Zm-4.66-.92,3.33.66.26-1.34-3.33-.66Zm-4.67-.91,3.33.65.27-1.34-3.33-.65Zm-4.66-.92,3.33.66.26-1.34-3.33-.66Zm-4.67-.91,3.33.65.27-1.34-3.34-.65Zm-4.66-.92,3.33.65.26-1.34-3.33-.65Zm-4.67-.92,3.33.66.27-1.34-3.34-.66Zm-4.67-.91,3.34.65.26-1.34-3.33-.65Zm-4.66-.92,3.33.66.26-1.34-3.33-.66Zm-4.67-.91,3.34.65.26-1.34-3.33-.65Zm-4.66-.92,3.33.66.26-1.34-3.33-.66Zm-4.67-.91,3.33.65.27-1.34-3.34-.65Zm-4.66-.92,3.33.65.26-1.34-3.33-.65Zm-4.67-.92,3.33.66.27-1.34-3.34-.66Zm-4.67-.91,3.34.65.26-1.34-3.33-.65Zm-4.66-.92,3.33.66.26-1.34-3.33-.66Zm-4.67-.91,3.34.65.26-1.34-3.33-.65Zm-4.66-.92,3.33.66.26-1.34-3.33-.66Zm-4.67-.91,3.34.65.26-1.34-3.33-.65Zm-4.66-.92,3.33.65.26-1.34-3.33-.65Zm-4.67-.92,3.33.66.27-1.34-3.34-.65Zm-4.66-.91,3.33.65.26-1.34-3.33-.65Zm-4.67-.92,3.33.66.27-1.34-3.34-.66Zm-4.67-.91,3.34.65.26-1.34-3.33-.65Zm-4.66-.92,3.33.66.26-1.34-3.33-.66Zm-4.67-.91,3.34.65.26-1.34-3.33-.65Zm-4.66-.92,3.33.65.26-1.33-3.33-.66Zm-4.67-.91,3.33.65.27-1.34-3.33-.65Zm-4.66-.92,3.33.65.26-1.34-3.33-.65Zm-4.67-.92,3.33.66.27-1.34-3.34-.66Zm-4.66-.91,3.33.65.26-1.34-3.33-.65Zm-4.67-.92,3.33.66.27-1.34-3.34-.66Zm-4.67-.91,3.34.65.26-1.34-3.33-.65Zm-4.66-.92,3.33.66.26-1.34-3.33-.66Zm-4.67-.91,3.34.65.26-1.34-3.33-.65Zm-4.66-.92,3.33.65.26-1.34-3.33-.65Zm-4.67-.92,3.33.66.27-1.34-3.34-.66Zm-4.66-.91,3.33.65.26-1.34-3.33-.65Zm-4.67-.92,3.33.66.27-1.34-3.34-.66Zm-4.67-.91,3.34.65.26-1.34-3.33-.65Zm-4.66-.92,3.33.66.26-1.34-3.33-.66Zm-4.67-.91,3.34.65.26-1.34-3.33-.65Zm-4.66-.92,3.33.65.26-1.34-3.33-.65Zm-4.67-.92,3.34.66.26-1.34-3.33-.66Zm-4.66-.91,3.33.65.26-1.34-3.33-.65Zm-4.67-.92,3.33.66.27-1.34L113.52,96Zm-4.66-.91,3.33.65.26-1.34L108.86,95Zm-4.67-.92,3.33.66.27-1.34-3.34-.66Zm-4.67-.91,3.34.65.26-1.34-3.33-.65Zm-4.66-.92,3.33.65.26-1.34-3.33-.65Zm-4.67-.92,3.34.66L93.53,92l-3.33-.66Zm-4.66-.91,3.33.65.26-1.34-3.33-.65Zm-4.67-.92,3.33.66.27-1.34-3.34-.66ZM75.94,90l3.33.65.26-1.34-3.33-.65Zm-4.67-.92,3.33.66.27-1.34-3.34-.66Zm-4.66-.91,3.33.65.26-1.34-3.33-.65Zm-4.67-.92,3.33.65.27-1.34-3.34-.65Zm-4.67-.92,3.34.66.26-1.34L57.54,85Zm-4.66-.91,3.33.65.26-1.34-3.33-.65Zm-4.67-.92,3.34.66.26-1.34-3.33-.66Zm-4.66-.91,3.33.65.26-1.34-3.33-.65Zm-3-.59,1.66.33L42.21,82l-1.67-.33Z"/><path class="cls-4" d="M401.82,184.88l1.63.53.42-1.3-1.63-.53Zm-4.57-1.48,3.26,1.06.43-1.3-3.27-1.06Zm-4.56-1.47,3.26,1,.42-1.3-3.26-1.05Zm-4.56-1.48,3.26,1.05.42-1.3-3.26-1ZM383.56,179l3.26,1.06.42-1.3L384,177.67ZM379,177.49l3.26,1.06.42-1.3-3.26-1.05ZM374.43,176l3.26,1,.42-1.3-3.26-1.05Zm-4.56-1.48,3.26,1.06.42-1.3-3.26-1.06Zm-4.57-1.48,3.27,1.06.42-1.3-3.26-1.06Zm-4.56-1.47,3.26,1,.42-1.3-3.26-1.05Zm-4.56-1.48,3.26,1.06.42-1.3-3.26-1.06Zm-4.57-1.48,3.26,1.06.42-1.3L352,167.33Zm-4.56-1.47,3.26,1.05.42-1.3-3.26-1Zm-4.57-1.48,3.26,1,.42-1.29-3.26-1.06Zm-4.56-1.48,3.26,1.06.42-1.3-3.26-1.06Zm-4.56-1.47,3.26,1.05.42-1.3-3.26-1Zm-4.57-1.48,3.26,1.05.42-1.3L329.21,160Zm-4.56-1.48,3.26,1.06.42-1.3-3.26-1.06Zm-4.57-1.48,3.26,1.06.42-1.3L320.08,157Zm-4.56-1.47,3.26,1.05.42-1.3-3.26-1Zm-4.57-1.48,3.26,1.06.42-1.3L311,154ZM306,153.86l3.26,1.06.42-1.3-3.26-1.05Zm-4.56-1.47,3.26,1.05.42-1.3-3.26-1Zm-4.57-1.48L300.1,152l.42-1.3-3.26-1.06Zm-4.56-1.48,3.26,1.06.42-1.3-3.26-1.06ZM287.71,148l3.26,1,.42-1.3-3.26-1.05Zm-4.56-1.48,3.26,1.05.42-1.29-3.26-1.06ZM278.58,145l3.26,1.06.42-1.3L279,143.7ZM274,143.53l3.26,1.05.42-1.3-3.26-1.05Zm-4.56-1.48,3.26,1,.42-1.3-3.26-1.05Zm-4.57-1.48,3.26,1.06.42-1.3-3.26-1.06Zm-4.56-1.47,3.26,1.05.42-1.3-3.26-1Zm-4.57-1.48,3.26,1,.42-1.3-3.26-1.05Zm-4.56-1.48,3.26,1.06.42-1.3-3.26-1.06Zm-4.57-1.48,3.26,1.06.43-1.3-3.27-1Zm-4.56-1.47,3.26,1.05.42-1.3-3.26-1.05Zm-4.56-1.48,3.26,1.06.42-1.3-3.26-1.06Zm-4.57-1.48,3.26,1.06.42-1.3-3.26-1.06Zm-4.56-1.47,3.26,1.05.42-1.3-3.26-1Zm-4.57-1.48,3.26,1.06.42-1.3L224.23,126Zm-4.56-1.48,3.26,1.06.42-1.3-3.26-1.06Zm-4.57-1.47,3.26,1,.43-1.3-3.26-1Zm-4.56-1.48,3.26,1.05.42-1.29-3.26-1.06Zm-4.56-1.48,3.26,1.06.42-1.3L206,120.07ZM201,119.9l3.26,1,.42-1.3-3.26-1.05Zm-4.56-1.48,3.26,1,.42-1.3-3.26-1Zm-4.57-1.48,3.26,1.06.42-1.3-3.26-1.06Zm-4.56-1.48,3.26,1.06.42-1.3-3.26-1ZM182.73,114,186,115l.43-1.3-3.26-1Zm-4.56-1.48,3.26,1.06.42-1.3-3.26-1.06ZM173.61,111l3.26,1.06.42-1.3L174,109.73ZM169,109.56l3.26,1,.42-1.3-3.26-1Zm-4.56-1.48,3.26,1.06.42-1.3-3.26-1.06Zm-4.57-1.48,3.26,1.06.42-1.3-3.26-1.06Zm-4.56-1.47,3.26,1.05.42-1.3-3.26-1Zm-4.57-1.48,3.27,1,.42-1.29-3.26-1.06Zm-4.56-1.48,3.26,1.06.42-1.3-3.26-1.06Zm-4.56-1.47,3.26,1,.42-1.3-3.26-1Zm-4.57-1.48,3.26,1,.42-1.3-3.26-1Zm-4.56-1.48,3.26,1.06.42-1.3L133,96.44ZM128,96.27l3.26,1,.42-1.3-3.26-1Zm-4.56-1.48,3.26,1,.42-1.3-3.26-1.05Zm-4.56-1.48,3.26,1.06.42-1.3L119.26,92Zm-4.57-1.48,3.26,1.06.42-1.3-3.26-1Zm-4.56-1.47,3.26,1,.42-1.3-3.26-1Zm-4.57-1.48,3.26,1.06.42-1.3-3.26-1.06Zm-4.56-1.48,3.26,1.06.42-1.3L101,86.1ZM96,85.93l3.26,1,.42-1.3-3.26-1.05Zm-4.56-1.48,3.26,1,.42-1.29-3.26-1.06ZM86.89,83,90.15,84l.42-1.3-3.26-1.06ZM82.32,81.5l3.26,1,.42-1.3-3.26-1ZM77.76,80l3.26,1,.42-1.3-3.26-1Zm-4.57-1.48,3.26,1.06.42-1.3-3.26-1.06Zm-4.56-1.47,3.26,1.05.42-1.3-3.26-1Zm-4.57-1.48,3.26,1,.42-1.3-3.26-1ZM59.5,74.11l3.26,1.06.42-1.3-3.26-1.06Zm-4.56-1.48,3.26,1.06.42-1.3-3.26-1Zm-4.57-1.47,3.26,1,.42-1.3-3.26-1Zm-4.56-1.48,3.26,1.06.42-1.3-3.26-1.06ZM41.24,68.2l3.26,1.06.42-1.3L41.66,66.9Zm-4.56-1.47,3.26,1,.42-1.3-3.26-1Zm-4.57-1.48,3.26,1L35.79,65,32.53,64Zm-4.56-1.48,3.26,1.06.42-1.3L28,62.47ZM23,62.3l3.26,1.05.42-1.3-3.26-1Zm-4.57-1.48,3.26,1,.42-1.29-3.26-1.06Zm-4.56-1.48,3.26,1.06.42-1.3L14.28,58Zm-2.94-1,1.63.53.42-1.3-1.63-.53Z"/><path class="cls-3" d="M401.76,38.6h1.7v-.69h-1.7Zm-4.76,0,3.4,0v-.69H397Zm-4.76,0h3.4V37.9l-3.4,0Zm-4.76,0h3.4v-.68h-3.4Zm-4.76,0h3.4v-.68h-3.4Zm-4.77,0,3.4,0v-.69H378Zm-4.76,0h3.4v-.68l-3.41,0Zm-4.76,0h3.4v-.68h-3.4Zm-4.76,0h3.4v-.68h-3.4Zm-4.76,0,3.4,0v-.69h-3.4Zm-4.76,0h3.4v-.68l-3.4,0Zm-4.76,0h3.4v-.68h-3.4Zm-4.77,0H348v-.68h-3.4Zm-4.76,0,3.4,0V37.7h-3.41Zm-4.76,0h3.4v-.68l-3.4,0Zm-4.76,0h3.4v-.68h-3.4Zm-4.76,0H329v-.68h-3.4Zm-4.76,0,3.4,0v-.69h-3.4Zm-4.77,0h3.41v-.68l-3.4,0Zm-4.76,0h3.4V37.6h-3.4Zm-4.76,0,3.4,0v-.69h-3.41Zm-4.76,0h3.4v-.69h-3.4Zm-4.76,0h3.4v-.68l-3.4,0Zm-4.76,0h3.4v-.68h-3.4Zm-4.76,0,3.4,0v-.69h-3.4Zm-4.77,0h3.41V37.5l-3.4,0Zm-4.76,0h3.4v-.68H278Zm-4.76,0h3.4v-.68H273.2Zm-4.76,0,3.4,0v-.69h-3.4Zm-4.76,0h3.4v-.68l-3.4,0Zm-4.76,0h3.4v-.68h-3.4Zm-4.76,0h3.4v-.68h-3.4Zm-4.77,0,3.41,0v-.69h-3.4Zm-4.76,0H248v-.68l-3.4,0Zm-4.76,0h3.4v-.68h-3.41Zm-4.76,0h3.4v-.68h-3.4Zm-4.76,0,3.4,0V37.3h-3.4Zm-4.76,0H229v-.68l-3.4,0Zm-4.76,0h3.4v-.68h-3.4Zm-4.77,0h3.41v-.68h-3.4Zm-4.76,0,3.4,0v-.69h-3.4Zm-4.76,0h3.4v-.68l-3.41,0Zm-4.76,0h3.4V37.2h-3.4Zm-4.76,0h3.4v-.68H197Zm-4.76,0,3.4,0v-.69h-3.4Zm-4.76,0h3.4v-.68l-3.4,0Zm-4.77,0h3.41v-.68h-3.4Zm-4.76,0h3.4v-.68H178Zm-4.76,0,3.4,0v-.69h-3.4Zm-4.76,0h3.4v-.68l-3.4,0Zm-4.76,0h3.4v-.68h-3.4Zm-4.76,0h3.4V37h-3.4Zm-4.76,0,3.4,0V37h-3.4Zm-4.77,0h3.41V37l-3.4,0Zm-4.76,0H148V37h-3.4Zm-4.76,0h3.4V37h-3.4Zm-4.76,0,3.4,0V37h-3.4Zm-4.76,0h3.4v-.68l-3.4,0Zm-4.76,0H129v-.68h-3.4Zm-4.76,0h3.4V36.9h-3.4Zm-4.77,0,3.4,0v-.69h-3.4Zm-4.76,0h3.4v-.68l-3.4,0Zm-4.76,0H110v-.68h-3.4Zm-4.76,0,3.4,0v-.69h-3.4Zm-4.76,0h3.4v-.69H97Zm-4.76,0h3.4V36.8l-3.4,0Zm-4.76,0h3.4v-.68h-3.4Zm-4.77,0,3.4,0v-.69h-3.4Zm-4.76,0h3.4v-.68l-3.41,0Zm-4.76,0h3.4v-.68h-3.4Zm-4.76,0h3.4v-.68h-3.4Zm-4.76,0,3.4,0v-.69H63.7Zm-4.76,0h3.4v-.68l-3.4,0Zm-4.76,0h3.4v-.68h-3.4Zm-4.77,0h3.4v-.68h-3.4Zm-4.76,0,3.4,0v-.69H44.65Zm-4.76,0h3.4v-.68l-3.4,0Zm-4.76,0h3.4v-.68h-3.4Zm-4.76,0h3.4v-.68h-3.4Zm-3.06,0H29v-.69h-1.7Z"/><path class="cls-3" d="M38.68,32l1.6.49.2-.65-1.61-.49ZM34.19,30.6l3.2,1,.2-.65-3.2-1ZM29.7,29.23l3.21,1,.2-.66-3.21-1Zm-4.48-1.36,3.2,1,.2-.65-3.2-1ZM20.73,26.5l3.21,1,.19-.66-3.2-1Zm-4.49-1.36,3.21,1,.2-.65-3.21-1Zm-4.48-1.37,3.2,1,.2-.66-3.2-1Zm-2.89-.88,1.61.49.2-.65-1.61-.49Z"/><path class="cls-3" d="M401.74,216l1.72,0,0-.68-1.72,0Zm-4.8-.13,3.43.09,0-.68-3.44-.1Zm-4.81-.13,3.43.09,0-.68-3.43-.1Zm-4.81-.13,3.43.09,0-.68-3.43-.1Zm-4.81-.14,3.43.1,0-.68-3.43-.1Zm-4.81-.13,3.44.1v-.68l-3.43-.1Zm-4.81-.13,3.44.1v-.69l-3.43-.09Zm-4.81-.13,3.44.1,0-.69-3.44-.09Zm-4.81-.13,3.44.1,0-.69-3.44-.09Zm-4.81-.13,3.44.1,0-.69-3.44-.09Zm-4.8-.13,3.43.1,0-.69-3.44-.09Zm-4.81-.13,3.43.1,0-.69-3.43-.09Zm-4.81-.13,3.43.1,0-.69-3.43-.09Zm-4.81-.13,3.43.1,0-.69-3.43-.09Zm-4.81-.13,3.44.1v-.69l-3.43-.09Zm-4.81-.13,3.44.1,0-.69-3.44-.09Zm-4.81-.13,3.44.09,0-.68-3.44-.09Zm-4.81-.13,3.44.09,0-.68-3.44-.09Zm-4.8-.13,3.43.09,0-.68L315.2,213Zm-4.81-.13,3.43.09,0-.68-3.44-.09Zm-4.81-.13,3.43.09,0-.68-3.43-.09Zm-4.81-.13,3.43.09,0-.68-3.43-.09Zm-4.81-.13,3.43.09,0-.68-3.43-.09Zm-4.81-.13,3.44.09v-.68l-3.43-.09Zm-4.81-.13,3.44.09,0-.68-3.44-.09Zm-4.81-.13,3.44.09,0-.68-3.44-.09Zm-4.81-.13,3.44.09,0-.68-3.44-.09Zm-4.8-.13,3.43.09,0-.68-3.44-.09Zm-4.81-.13,3.43.09,0-.68-3.44-.09Zm-4.81-.13,3.43.09,0-.68-3.43-.09Zm-4.81-.13,3.43.09,0-.68-3.43-.09Zm-4.81-.13,3.43.09,0-.68-3.43-.09Zm-4.81-.13,3.44.09v-.68l-3.43-.09Zm-4.81-.13,3.44.09,0-.68-3.44-.09Zm-4.81-.13,3.44.09,0-.68-3.44-.09Zm-4.81-.13,3.44.09,0-.68-3.44-.1Zm-4.8-.13,3.43.09,0-.68-3.44-.1Zm-4.81-.13,3.43.09,0-.68-3.43-.1Zm-4.81-.13,3.43.09,0-.68-3.43-.1ZM214.2,211l3.43.09,0-.68-3.43-.1Zm-4.81-.13,3.44.09v-.68l-3.43-.1Zm-4.81-.13,3.44.09v-.68l-3.43-.1Zm-4.81-.13,3.44.09,0-.68-3.44-.1Zm-4.81-.13,3.44.09,0-.68-3.44-.1Zm-4.81-.13,3.44.09,0-.68-3.44-.1Zm-4.8-.13,3.43.09,0-.68-3.44-.1Zm-4.81-.14,3.43.1,0-.68-3.43-.1Zm-4.81-.13,3.43.1,0-.68-3.43-.1Zm-4.81-.13,3.43.1,0-.69-3.43-.09Zm-4.81-.13,3.44.1v-.69l-3.43-.09Zm-4.81-.13,3.44.1,0-.69-3.44-.09Zm-4.81-.13,3.44.1,0-.69-3.44-.09Zm-4.81-.13,3.44.1,0-.69-3.44-.09Zm-4.8-.13,3.43.1,0-.69-3.44-.09Zm-4.81-.13,3.43.1,0-.69-3.44-.09Zm-4.81-.13,3.43.1,0-.69-3.43-.09Zm-4.81-.13,3.43.1,0-.69-3.43-.09Zm-4.81-.13,3.43.1,0-.69-3.43-.09Zm-4.81-.13,3.44.1v-.69l-3.43-.09Zm-4.81-.13,3.44.09,0-.68-3.44-.09Zm-4.81-.13,3.44.09,0-.68-3.44-.09Zm-4.81-.13,3.44.09,0-.68-3.44-.09Zm-4.8-.13L107,208l0-.68-3.44-.09Zm-4.81-.13,3.43.09,0-.68-3.44-.09ZM94,207.69l3.43.09,0-.68L94,207Zm-4.81-.13,3.43.09,0-.68-3.43-.09Zm-4.81-.13,3.43.09,0-.68-3.43-.09Zm-4.81-.13,3.44.09v-.68l-3.43-.09Zm-3.09-.08,1.72,0,0-.68-1.72-.05Z"/><path class="cls-5" d="M402.48,238.13l1.7.22.18-1.35-1.7-.23Zm-4.76-.64,3.4.46.18-1.36-3.4-.45Zm-4.76-.63,3.4.45.18-1.35-3.4-.45Zm-4.76-.63,3.4.45.18-1.35-3.4-.45Zm-4.76-.63,3.4.45.18-1.35-3.4-.46Zm-4.76-.64,3.4.46.18-1.36-3.4-.45Zm-4.76-.63,3.4.45.18-1.35-3.4-.45Zm-4.76-.63,3.4.45.18-1.35-3.4-.45Zm-4.76-.63,3.4.45.18-1.35-3.4-.46Zm-4.77-.63,3.41.45.17-1.36-3.4-.45Zm-4.76-.64,3.4.46.18-1.36-3.4-.45Zm-4.76-.63,3.4.45.18-1.35-3.4-.45Zm-4.76-.63,3.4.45.18-1.35-3.4-.45Zm-4.76-.63,3.4.45.18-1.36-3.4-.45Zm-4.76-.64,3.4.46.18-1.36-3.4-.45Zm-4.76-.63,3.4.45.18-1.35-3.4-.45Zm-4.76-.63,3.4.45.18-1.35-3.4-.45Zm-4.76-.63,3.4.45.18-1.35-3.4-.46Zm-4.76-.63,3.4.45.18-1.36-3.4-.45Zm-4.76-.64,3.4.45.18-1.35-3.4-.45Zm-4.76-.63,3.4.45.18-1.35-3.4-.45Zm-4.76-.63,3.4.45.18-1.35-3.4-.45Zm-4.76-.63,3.4.45.18-1.36-3.4-.45Zm-4.76-.64,3.4.46.18-1.36-3.4-.45Zm-4.76-.63,3.4.45.18-1.35-3.4-.45Zm-4.76-.63,3.4.45.18-1.35-3.4-.45Zm-4.76-.63,3.4.45.18-1.35-3.4-.46Zm-4.76-.63,3.4.45.18-1.36-3.4-.45Zm-4.77-.64,3.41.45.18-1.35-3.41-.45Zm-4.76-.63,3.4.45.18-1.35-3.4-.45Zm-4.76-.63,3.4.45.18-1.35-3.4-.46Zm-4.76-.63,3.4.45.18-1.36-3.4-.45Zm-4.76-.64,3.4.46.18-1.36-3.4-.45Zm-4.76-.63,3.4.45.18-1.35-3.4-.45Zm-4.76-.63,3.4.45.18-1.35-3.4-.45Zm-4.76-.63,3.4.45.18-1.35-3.4-.46Zm-4.76-.64,3.4.46.18-1.36-3.4-.45Zm-4.76-.63,3.4.45.18-1.35-3.4-.45Zm-4.76-.63,3.4.45.18-1.35-3.4-.45Zm-4.76-.63,3.4.45.18-1.35-3.4-.46Zm-4.76-.63,3.4.45.18-1.36-3.4-.45Zm-4.76-.64,3.4.46.18-1.36-3.4-.45Zm-4.76-.63,3.4.45.18-1.35-3.4-.45Zm-4.76-.63,3.4.45.18-1.35-3.4-.45Zm-4.76-.63,3.4.45.18-1.36-3.4-.45Zm-4.76-.64,3.4.46.18-1.36-3.4-.45ZM183.5,209l3.4.45.18-1.35-3.4-.45Zm-4.76-.63,3.4.45.18-1.35-3.4-.45Zm-4.77-.63,3.41.45.17-1.35-3.4-.46Zm-4.76-.63,3.4.45.18-1.36-3.4-.45Zm-4.76-.64,3.4.45.18-1.35-3.4-.45Zm-4.76-.63,3.4.45.18-1.35-3.4-.45Zm-4.76-.63,3.4.45.18-1.35-3.4-.45Zm-4.76-.63,3.4.45.18-1.36-3.4-.45Zm-4.76-.64,3.4.46.18-1.36-3.4-.45Zm-4.76-.63,3.4.45.18-1.35-3.4-.45Zm-4.76-.63,3.4.45.18-1.35-3.4-.45Zm-4.76-.63,3.4.45.18-1.35-3.4-.46Zm-4.76-.63,3.4.45.18-1.36-3.4-.45Zm-4.76-.64,3.4.45.18-1.35-3.4-.45Zm-4.76-.63,3.4.45.18-1.35-3.4-.45Zm-4.76-.63,3.4.45.18-1.35-3.4-.45Zm-4.76-.63,3.4.45.18-1.36-3.4-.45Zm-4.76-.64,3.4.46.18-1.36-3.4-.45Zm-4.76-.63,3.4.45.18-1.35-3.4-.45ZM93.05,197l3.4.45.18-1.35-3.4-.45Zm-4.76-.63,3.4.45.18-1.35-3.4-.46Zm-4.76-.63,3.4.45.18-1.36-3.41-.45Zm-4.77-.64,3.4.45.18-1.35-3.4-.45ZM74,194.5l3.4.45.18-1.35-3.4-.45Zm-4.76-.63,3.4.45.18-1.35-3.4-.46Zm-4.76-.63,3.4.45.18-1.36-3.4-.45Zm-4.76-.64,3.4.46.18-1.36-3.4-.45Zm-3.06-.4,1.7.22.18-1.35-1.7-.23Z"/><path class="cls-3" d="M402.45,198.19l1.69.15.06-.68-1.69-.15Zm-4.76-.43,3.4.31.06-.68-3.4-.31Zm-4.76-.42,3.4.3.06-.68-3.4-.3Zm-4.75-.43,3.39.31.06-.68-3.39-.31Zm-4.76-.42,3.4.3.06-.68-3.4-.3Zm-4.76-.43,3.4.31.06-.68-3.4-.31Zm-4.75-.42,3.39.3.07-.68L374,195Zm-4.76-.43,3.4.31.06-.68-3.4-.31Zm-4.76-.42,3.4.3.06-.68-3.39-.3Zm-4.75-.43,3.4.31.06-.68-3.4-.31Zm-4.76-.42,3.4.3.06-.68-3.4-.3Zm-4.75-.43,3.39.31.06-.68-3.39-.31Zm-4.76-.42,3.4.3.06-.68-3.4-.3Zm-4.76-.43,3.4.3.06-.68-3.4-.3Zm-4.75-.42,3.39.3.06-.68-3.39-.3Zm-4.76-.43,3.4.3.06-.68-3.4-.3Zm-4.76-.42,3.4.3.06-.68-3.4-.3Zm-4.75-.43,3.39.3.07-.68-3.4-.3Zm-4.76-.43,3.4.31.06-.68-3.4-.31Zm-4.76-.42,3.4.3.06-.68-3.39-.3Zm-4.75-.43,3.4.31.06-.68-3.4-.31Zm-4.76-.42,3.4.3.06-.68-3.4-.3Zm-4.75-.43,3.39.31.06-.68-3.39-.31Zm-4.76-.42,3.4.3.06-.68-3.4-.3Zm-4.76-.43,3.4.31.06-.68-3.4-.31Zm-4.75-.42,3.39.3.06-.68-3.39-.3Zm-4.76-.43,3.4.31.06-.68-3.4-.31Zm-4.76-.42,3.4.3.06-.68-3.4-.3Zm-4.75-.43,3.4.31.06-.68-3.4-.31Zm-4.76-.42,3.4.3.06-.68-3.4-.3Zm-4.75-.43,3.39.3.06-.68-3.39-.3ZM255,185l3.4.3.06-.68-3.4-.3Zm-4.76-.43,3.4.3.06-.68-3.4-.3Zm-4.75-.42,3.39.3.06-.68-3.39-.3Zm-4.76-.43,3.4.3.06-.68-3.4-.3ZM236,183.3l3.4.31.06-.68-3.4-.31Zm-4.75-.42,3.39.3.06-.68-3.39-.3Zm-4.76-.43,3.4.31.06-.68-3.4-.31ZM221.7,182l3.4.3.06-.68-3.4-.3ZM217,181.6l3.4.31.06-.68-3.4-.31Zm-4.76-.42,3.4.3.06-.68-3.4-.3Zm-4.75-.43,3.39.31.06-.68-3.39-.31Zm-4.76-.42,3.4.3.06-.68-3.4-.3Zm-4.76-.43,3.4.31.06-.68-3.4-.31Zm-4.75-.42,3.39.3.06-.68-3.39-.3Zm-4.76-.43,3.4.31.06-.68-3.4-.31Zm-4.76-.42,3.4.3.06-.68-3.4-.3Zm-4.75-.43,3.39.31.07-.68-3.4-.31Zm-4.76-.42,3.4.3.06-.68-3.4-.3Zm-4.76-.43,3.4.3.06-.68-3.39-.3Zm-4.75-.42,3.4.3.06-.68-3.4-.3Zm-4.76-.43,3.4.3.06-.68-3.4-.3Zm-4.75-.42,3.39.3.06-.68-3.39-.3Zm-4.76-.43,3.4.3.06-.68-3.4-.3Zm-4.76-.43,3.4.31.06-.68-3.4-.31Zm-4.75-.42,3.39.3.06-.68-3.39-.3Zm-4.76-.43,3.4.31.06-.68-3.4-.31Zm-4.76-.42,3.4.3.06-.68-3.4-.3Zm-4.75-.43,3.39.31.07-.68-3.4-.31Zm-4.76-.42,3.4.3.06-.68-3.4-.3Zm-4.76-.43,3.4.31.06-.68-3.39-.31Zm-3-.27,1.7.15.06-.68-1.7-.15Z"/><path class="cls-3" d="M107.18,132.64a2.94,2.94,0,0,1-1.65-.5,3,3,0,0,1-1.1-1.33,2.94,2.94,0,0,1-.16-1.71,2.86,2.86,0,0,1,.81-1.52,2.93,2.93,0,0,1,1.53-.81,2.87,2.87,0,0,1,1.71.17,3,3,0,0,1,1.62,3.87,2.86,2.86,0,0,1-.65,1,3,3,0,0,1-1,.65A3,3,0,0,1,107.18,132.64Zm6.08-9.41c-.17-.17-.35-.33-.53-.48l0,0c-.18-.15-.38-.29-.58-.43l-.16-.11a2.26,2.26,0,0,0-.26-.16,9.26,9.26,0,0,0-4.85-1.5h-.22a9.22,9.22,0,0,0-9,9.22c0,4.41,6.23,12.26,8.49,15a1,1,0,0,0,.36.29,1.06,1.06,0,0,0,.46.1,1,1,0,0,0,.45-.1,1,1,0,0,0,.36-.29c2.23-2.7,8.31-10.49,8.31-14.91a9.06,9.06,0,0,0-2.79-6.56Z"/><path class="cls-3" d="M149,131.68c-1,0-1.45-.86-1.45-1.83S148,128,149,128s1.45.87,1.45,1.84S150,131.68,149,131.68Zm0,.67a2.53,2.53,0,1,0-2.19-2.5A2.23,2.23,0,0,0,149,132.35Zm-3.69-5.75a.51.51,0,1,0-.53-.51A.52.52,0,0,0,145.26,126.6Zm-.38,5.65h.75v-4.84h-.75Zm-1.9.05a.57.57,0,1,0-.57-.57A.58.58,0,0,0,143,132.3Zm-1.75-3.81a1.63,1.63,0,0,0-1.71-1.15c-1,0-1.78.58-1.78,1.4,0,.67.39,1.12,1.28,1.33l.81.19c.49.11.72.34.72.68s-.44.75-1.14.75a1,1,0,0,1-1.12-.78l-.7.18a1.66,1.66,0,0,0,1.84,1.26c1.12,0,1.89-.62,1.89-1.45s-.42-1.1-1.29-1.31l-.72-.18c-.57-.14-.83-.33-.83-.71s.44-.71,1-.71a1,1,0,0,1,1,.69ZM137,127.41h-1.09v-.5c0-.47.21-.73.7-.73a1,1,0,0,1,.41.08l.22-.64a1.75,1.75,0,0,0-.71-.13,1.26,1.26,0,0,0-1.36,1.25v.67h-.78V128h.78v4.21h.74V128H137Zm-6.84,2.42c0-1.09.48-1.82,1.39-1.82s1.41.8,1.41,1.82-.48,1.85-1.41,1.85S130.12,130.92,130.12,129.83Zm-.73,4.23h.75V131.5h.06a1.49,1.49,0,0,0,1.41.85c1.21,0,2.06-1,2.06-2.51s-.85-2.5-2.07-2.5a1.47,1.47,0,0,0-1.4.83h-.09v-.76h-.72Zm-1.72-7.46a.51.51,0,1,0-.53-.51A.52.52,0,0,0,127.67,126.6Zm-.38,5.65H128v-4.84h-.74Zm-1.9.05a.57.57,0,1,0-.57-.57A.57.57,0,0,0,125.39,132.3Zm-1.75-3.81a1.64,1.64,0,0,0-1.72-1.15c-1,0-1.78.58-1.78,1.4,0,.67.4,1.12,1.29,1.33l.81.19c.49.11.72.34.72.68s-.45.75-1.14.75a1,1,0,0,1-1.12-.78l-.71.18a1.67,1.67,0,0,0,1.84,1.26c1.13,0,1.89-.62,1.89-1.45s-.42-1.1-1.28-1.31l-.72-.18c-.57-.14-.83-.33-.83-.71s.44-.71,1-.71a1,1,0,0,1,1,.69Zm-5.17-1.89a.51.51,0,1,0-.53-.51A.52.52,0,0,0,118.47,126.6Zm-.37.81v5.19c0,.49-.2.77-.65.77h-.14v.69h.15a1.29,1.29,0,0,0,1.38-1.46v-5.19Z"/><path class="cls-3" d="M75.78,195.45A3,3,0,0,1,73,193.62a3.07,3.07,0,0,1-.17-1.72,3,3,0,0,1,5.9.58,3,3,0,0,1-3,3ZM81.86,186c-.17-.17-.35-.33-.53-.48l0,0c-.19-.14-.38-.29-.58-.42l-.16-.12-.26-.15a9.18,9.18,0,0,0-4.85-1.51H75.2a9.24,9.24,0,0,0-9,9.23c0,4.4,6.22,12.25,8.49,15a1.12,1.12,0,0,0,.36.29,1.09,1.09,0,0,0,.91,0,1.12,1.12,0,0,0,.36-.29c2.23-2.71,8.31-10.49,8.31-14.91A9.12,9.12,0,0,0,81.86,186Z"/><path class="cls-3" d="M157.73,195.05h.74V192a1.14,1.14,0,0,1,1.23-1.13,1.77,1.77,0,0,1,.45,0v-.76h-.39a1.31,1.31,0,0,0-1.26.8h-.05v-.73h-.72Zm-4.64-2.81a1.44,1.44,0,0,1,1.43-1.42,1.3,1.3,0,0,1,1.32,1.42Zm1.5,2.91a1.87,1.87,0,0,0,1.93-1.22l-.71-.2a1.2,1.2,0,0,1-1.22.76,1.46,1.46,0,0,1-1.5-1.6h3.51v-.32c0-1.8-1.07-2.42-2.08-2.42a2.25,2.25,0,0,0-2.18,2.52A2.22,2.22,0,0,0,154.59,195.15Zm-6.65-.1h.74v-1.81l.52-.48,1.81,2.29h1l-2.2-2.77,2.05-2.07h-.92l-2.12,2.16h-.09V188.6h-.74Zm-3,.1a1.79,1.79,0,0,0,1.9-1.51h-.74a1.13,1.13,0,0,1-1.16.85c-.89,0-1.45-.74-1.45-1.86s.58-1.81,1.45-1.81a1.14,1.14,0,0,1,1.16.84h.74a1.8,1.8,0,0,0-1.92-1.51,2.52,2.52,0,0,0,0,5Zm-6.62-2.91a1.46,1.46,0,0,1,1.44-1.42,1.3,1.3,0,0,1,1.32,1.42Zm1.51,2.91a1.87,1.87,0,0,0,1.93-1.22l-.72-.2a1.18,1.18,0,0,1-1.21.76,1.47,1.47,0,0,1-1.51-1.6h3.52v-.32c0-1.8-1.07-2.42-2.08-2.42a2.25,2.25,0,0,0-2.18,2.52A2.21,2.21,0,0,0,139.84,195.15Zm-6.53-3a1.22,1.22,0,0,1,1.28-1.32,1.07,1.07,0,0,1,1.12,1.21v3h.74V192c0-1.25-.66-1.83-1.65-1.83a1.4,1.4,0,0,0-1.42.82h-.07V188.6h-.74v6.45h.74Zm-1.9-1.52a2.52,2.52,0,0,0-2.6-2.11c-1.65,0-2.85,1.27-2.85,3.32s1.2,3.31,2.85,3.31a2.52,2.52,0,0,0,2.6-2.1h-.78a1.76,1.76,0,0,1-1.82,1.37c-1.17,0-2.09-.91-2.09-2.58s.92-2.59,2.09-2.59a1.76,1.76,0,0,1,1.82,1.38Zm-12.26,6.25a1.45,1.45,0,0,0,1.42-1.11l2.06-5.54h-.81l-1.34,3.86h0l-1.33-3.86h-.81l1.79,4.87-.14.38c-.27.73-.6.8-1.14.66l-.19.66A1.38,1.38,0,0,0,119.15,196.87Zm-3.77-2.37c-.59,0-1-.27-1-.78s.52-.75,1.1-.82a3.86,3.86,0,0,0,1.28-.28v.68A1.24,1.24,0,0,1,115.38,194.5Zm-.11.67a1.52,1.52,0,0,0,1.43-.77h0v.65h.75v-3.19a1.59,1.59,0,0,0-1.79-1.71,2,2,0,0,0-2,1.13l.71.26a1.3,1.3,0,0,1,1.26-.74.91.91,0,0,1,1,1v0c0,.36-.36.33-1.25.44s-1.87.32-1.87,1.43A1.5,1.5,0,0,0,115.27,195.17Zm-7.54-.12h.73l1.06-3.72h.07l1.06,3.72h.73l1.48-4.84h-.78l-1,3.7h0l-1-3.7h-.79l-1,3.71h0l-1-3.71h-.78ZM102,192.24a1.44,1.44,0,0,1,1.43-1.42,1.3,1.3,0,0,1,1.32,1.42Zm1.51,2.91a1.87,1.87,0,0,0,1.92-1.22l-.71-.2a1.2,1.2,0,0,1-1.21.76,1.46,1.46,0,0,1-1.51-1.6h3.51v-.32c0-1.8-1.07-2.42-2.08-2.42a2.25,2.25,0,0,0-2.18,2.52A2.22,2.22,0,0,0,103.5,195.15Zm-3.1-4.94h-1v-1.16h-.75v1.16h-.73v.63h.73v3a1.24,1.24,0,0,0,1.31,1.25,1.51,1.51,0,0,0,.56-.09l-.15-.67a1.71,1.71,0,0,1-.33,0c-.33,0-.64-.1-.64-.73v-2.83h1Zm-5.57,4.29c-.59,0-1-.27-1-.78s.52-.75,1.1-.82a3.86,3.86,0,0,0,1.28-.28v.68A1.24,1.24,0,0,1,94.83,194.5Zm-.11.67a1.52,1.52,0,0,0,1.43-.77h0v.65h.75v-3.19a1.59,1.59,0,0,0-1.79-1.71,2,2,0,0,0-1.94,1.13l.7.26a1.3,1.3,0,0,1,1.26-.74.9.9,0,0,1,1,1v0c0,.36-.36.33-1.25.44s-1.87.32-1.87,1.43A1.5,1.5,0,0,0,94.72,195.17Zm-3.51-4.55H92a2.6,2.6,0,0,0-2.65-2.11c-1.65,0-2.82,1.27-2.82,3.32s1.16,3.31,2.87,3.31a2.49,2.49,0,0,0,2.64-2.62v-.69H89.6v.69h1.7a1.8,1.8,0,0,1-1.88,1.89c-1.2,0-2.12-.91-2.12-2.58s.92-2.59,2.07-2.59A1.84,1.84,0,0,1,91.21,190.62Z"/><path class="cls-3" d="M114.69,159.27a3,3,0,0,1-2.92-3.55,3,3,0,0,1,2.34-2.33,3.06,3.06,0,0,1,1.72.17,2.95,2.95,0,0,1,1.84,2.74,3,3,0,0,1-.23,1.14,2.94,2.94,0,0,1-.64,1,3.15,3.15,0,0,1-1,.64A3,3,0,0,1,114.69,159.27Zm6.08-9.42-.53-.47,0,0c-.18-.15-.38-.29-.58-.43l-.16-.11c-.08-.06-.17-.1-.26-.16a9.26,9.26,0,0,0-4.85-1.5h-.22a9.22,9.22,0,0,0-9,9.23c0,4.4,6.22,12.25,8.49,15a1,1,0,0,0,.36.28,1.07,1.07,0,0,0,.46.11,1,1,0,0,0,.45-.11,1,1,0,0,0,.36-.28c2.23-2.71,8.31-10.49,8.31-14.91a9.11,9.11,0,0,0-.72-3.57A9.38,9.38,0,0,0,120.77,149.85Z"/><path class="cls-3" d="M165.2,158.3c-1,0-1.45-.85-1.45-1.82s.45-1.84,1.45-1.84,1.45.87,1.45,1.84S166.2,158.3,165.2,158.3Zm0,.67a2.52,2.52,0,1,0-2.19-2.49A2.22,2.22,0,0,0,165.2,159Zm-3.69-5.75a.5.5,0,1,0-.53-.5A.51.51,0,0,0,161.51,153.22Zm-.38,5.65h.74V154h-.74Zm-1.91,0a.57.57,0,1,0-.56-.57A.56.56,0,0,0,159.22,158.92Zm-1.75-3.81a1.62,1.62,0,0,0-1.71-1.14c-1,0-1.78.58-1.78,1.4,0,.66.4,1.11,1.29,1.32l.81.19c.48.11.71.35.71.68s-.44.76-1.13.76a1,1,0,0,1-1.12-.78l-.71.17a1.67,1.67,0,0,0,1.84,1.26c1.13,0,1.89-.61,1.89-1.45,0-.67-.42-1.1-1.28-1.31l-.72-.18c-.57-.14-.83-.33-.83-.7s.44-.72,1-.72a1,1,0,0,1,1.05.69ZM153.2,154h-1.08v-.49c0-.48.2-.73.69-.73a1.34,1.34,0,0,1,.42.07l.21-.64a1.69,1.69,0,0,0-.7-.13,1.25,1.25,0,0,0-1.36,1.25V154h-.79v.63h.79v4.21h.74v-4.21h1.08Zm-6.83,2.42c0-1.08.48-1.81,1.39-1.81s1.41.79,1.41,1.81-.48,1.85-1.41,1.85S146.37,157.55,146.37,156.45Zm-.73,4.24h.74v-2.56h.07a1.5,1.5,0,0,0,1.41.84c1.21,0,2-1,2-2.51s-.84-2.49-2.06-2.49a1.47,1.47,0,0,0-1.4.83h-.09V154h-.72Zm-1.73-7.47a.5.5,0,1,0-.53-.5A.51.51,0,0,0,143.91,153.22Zm-.38,5.65h.75V154h-.75Zm-1.9,0a.57.57,0,1,0-.57-.57A.57.57,0,0,0,141.63,158.92ZM140,154h-1v-1.16h-.75V154h-.73v.63h.73v3a1.23,1.23,0,0,0,1.31,1.24,1.84,1.84,0,0,0,.56-.08l-.15-.67a1.71,1.71,0,0,1-.33,0c-.33,0-.64-.11-.64-.74v-2.82h1Zm-3.31,1.08a1.64,1.64,0,0,0-1.72-1.14c-1,0-1.77.58-1.77,1.4,0,.66.39,1.11,1.28,1.32l.81.19c.49.11.72.35.72.68s-.44.76-1.14.76a1,1,0,0,1-1.12-.78l-.71.17a1.68,1.68,0,0,0,1.84,1.26c1.13,0,1.9-.61,1.9-1.45,0-.67-.43-1.1-1.29-1.31l-.72-.18c-.57-.14-.83-.33-.83-.7s.44-.72,1-.72a1,1,0,0,1,1.05.69Zm-5.16-1.89a.5.5,0,1,0-.53-.5A.51.51,0,0,0,131.5,153.22Zm-.38,5.65h.75V154h-.75Zm-3.58-.57c-.93,0-1.41-.82-1.41-1.85s.46-1.81,1.41-1.81,1.39.73,1.39,1.81S128.43,158.3,127.54,158.3Zm-.1.67a1.5,1.5,0,0,0,1.41-.84h.09v.74h.72v-6.45h-.75v2.38h-.06a1.47,1.47,0,0,0-1.4-.83c-1.22,0-2.07,1-2.07,2.49S126.23,159,127.44,159Z"/><path class="cls-4" d="M43.69,121a3,3,0,0,1-2.75-1.84,3,3,0,0,1,.65-3.23,3,3,0,0,1,1.53-.81,3.08,3.08,0,0,1,1.72.17,3,3,0,0,1,1,4.84,3.15,3.15,0,0,1-1,.64A3,3,0,0,1,43.69,121Zm6.08-9.42a6.11,6.11,0,0,0-.53-.47l-.05,0c-.18-.15-.38-.29-.57-.43l-.17-.11c-.08-.06-.17-.1-.26-.16a9.26,9.26,0,0,0-4.85-1.5h-.22a9.24,9.24,0,0,0-9,9.23c0,4.4,6.23,12.25,8.49,15a.93.93,0,0,0,.37.28,1,1,0,0,0,.45.11,1,1,0,0,0,.45-.11.9.9,0,0,0,.36-.28c2.23-2.71,8.32-10.49,8.32-14.91a9.12,9.12,0,0,0-2.8-6.57Z"/><path class="cls-1" d="M99.89,118.25a1.58,1.58,0,0,1-.22.88.61.61,0,0,1-.55.26v1.37a2,2,0,0,0,1.66-.84,2.93,2.93,0,0,0,.48-1.67Zm-.77-1.16a.6.6,0,0,1,.54.26,1.54,1.54,0,0,1,.23.9h1.37a3,3,0,0,0-.48-1.68,2,2,0,0,0-1.66-.85Zm-.76,1.16a1.63,1.63,0,0,1,.22-.9.62.62,0,0,1,.54-.26v-1.37a2,2,0,0,0-1.65.85,3,3,0,0,0-.48,1.68Zm.76,1.14a.61.61,0,0,1-.54-.26,1.58,1.58,0,0,1-.22-.88H97a2.93,2.93,0,0,0,.48,1.67,2,2,0,0,0,1.65.84Zm-2.87-1.14a3.4,3.4,0,0,0,.77,2.26,2.75,2.75,0,0,0,2.1.91v-1.36a1.35,1.35,0,0,1-1.07-.45,2,2,0,0,1-.44-1.36Zm2.87-3.2A2.74,2.74,0,0,0,97,116a3.44,3.44,0,0,0-.77,2.28h1.36a2,2,0,0,1,.44-1.38,1.37,1.37,0,0,1,1.07-.45Zm2.88,3.2a3.44,3.44,0,0,0-.77-2.28,2.78,2.78,0,0,0-2.11-.92v1.37a1.37,1.37,0,0,1,1.08.45,2.08,2.08,0,0,1,.43,1.38Zm-2.88,3.17a2.74,2.74,0,0,0,2.1-.91,3.36,3.36,0,0,0,.78-2.26h-1.37a2.06,2.06,0,0,1-.43,1.36,1.37,1.37,0,0,1-1.08.45Zm-4.9-6.93a1.2,1.2,0,0,0,1.21,1.19v-1.37a.14.14,0,0,1,.1,0,.26.26,0,0,1,0,.14Zm1.21-1.19a1.2,1.2,0,0,0-1.21,1.19h1.36a.26.26,0,0,1,0,.14.21.21,0,0,1-.1,0Zm1.21,1.19a1.2,1.2,0,0,0-1.21-1.19v1.37a.18.18,0,0,1-.1,0,.2.2,0,0,1,0-.14Zm-1.21,1.19a1.2,1.2,0,0,0,1.21-1.19H95.28a.2.2,0,0,1,0-.14.13.13,0,0,1,.1,0Zm-1.06.12v4.84h1.36V115.8Zm1.43-.68h-.75v1.36h.75Zm.68,5.52V115.8H95.11v4.84Zm-1.43.68h.75V120h-.75Zm0-5.52v-.68h-.68v.68Zm.75,0h.68v-.68H95.8Zm0,4.84v.68h.68v-.68Zm-.75,0h-.68v.68h.68Zm-3.15-.52a1.25,1.25,0,0,0,1.25,1.25V120a.11.11,0,0,1,.11.11Zm1.25-1.25a1.26,1.26,0,0,0-1.25,1.25h1.36a.11.11,0,0,1-.11.12Zm1.25,1.25a1.26,1.26,0,0,0-1.25-1.25v1.37a.12.12,0,0,1-.12-.12Zm-1.25,1.25a1.25,1.25,0,0,0,1.25-1.25H93a.11.11,0,0,1,.12-.11Zm-2.23-3.64.67-.19-.38-1.31-.66.19Zm-1.24-.67a.5.5,0,0,1,.3.07.41.41,0,0,1,.11.19l1.28-.49a1.74,1.74,0,0,0-.54-.76,1.8,1.8,0,0,0-1.15-.37Zm-.35,0a.07.07,0,0,1,0,.05s0,0,0,0a.59.59,0,0,1,.35-.09V115.7a2,2,0,0,0-1.12.32A1.31,1.31,0,0,0,88,117.1Zm.32,0-.28-.08-.08,0v0s0,0,0,0,0,0,0,0H88a1.23,1.23,0,0,0,.45,1,2.35,2.35,0,0,0,.9.4Zm.71.18-.71-.18-.33,1.33.72.17Zm1.81,2a1.83,1.83,0,0,0-.51-1.31,2.69,2.69,0,0,0-1.3-.66L90,118.64a1.38,1.38,0,0,1,.64.3.43.43,0,0,1,.12.35Zm-2.57,2.13a2.31,2.31,0,0,0,2.57-2.13H90.8c0,.31-.28.77-1.2.77Zm-2.51-1.8A2.14,2.14,0,0,0,88,121a2.92,2.92,0,0,0,1.61.43v-1.36a1.48,1.48,0,0,1-.85-.21.77.77,0,0,1-.33-.51Zm1.21-1-.71.18.33,1.32.71-.17Zm1.28.76a.64.64,0,0,1-.35-.07.36.36,0,0,1-.11-.19l-1.32.33a1.62,1.62,0,0,0,.66,1,2,2,0,0,0,1.12.32Zm.46-.07c0-.06,0-.06,0,0a.78.78,0,0,1-.44.1v1.37a2.08,2.08,0,0,0,1.22-.35,1.32,1.32,0,0,0,.6-1.09Zm-.19,0,.17.06,0,0,0,0v0H91.4a1.23,1.23,0,0,0-.38-.91,1.8,1.8,0,0,0-.87-.44Zm-.81-.18.8.18.32-1.33-.81-.18Zm-1.82-2a1.83,1.83,0,0,0,.5,1.3,2.71,2.71,0,0,0,1.32.69l.31-1.33a1.33,1.33,0,0,1-.64-.3.48.48,0,0,1-.12-.36Zm2.46-2.09a2.24,2.24,0,0,0-2.46,2.09h1.37c0-.3.28-.72,1.09-.72Zm2.37,1.62a2.37,2.37,0,0,0-.84-1.17,2.56,2.56,0,0,0-1.53-.45v1.37a1.25,1.25,0,0,1,.74.19,1,1,0,0,1,.33.49Zm-1.32.4-.64.25.23.58.6-.17Zm-1.25.73-.16.67h0Zm.72.18-.16.66h0Zm-2.44,1.5-.17-.66L87,119l.14.64Zm.7-.17.66-.17-.16-.66-.66.16Zm1.54-.66-.16.66h0Zm-.81-.19.16-.66h0Zm2.21-1.58.19.66.69-.19-.23-.68Zm-3.59-.45v-.63H86.44v.63Zm-1.77.68h1.09v-1.36H86Zm.69,3.53v-4.21H85.36v4.21Zm-1.43.68H86V120H85.3Zm-.68-4.89v4.21H86v-4.21Zm-.1.68h.78v-1.36h-.78Zm-.68-1.31v.63H85.2v-.63Zm1.46-.68h-.78v1.36h.78Zm-.68,0v.67H86v-.67Zm2-1.93a2.13,2.13,0,0,0-1.37.47,1.82,1.82,0,0,0-.67,1.46H86a.51.51,0,0,1,.17-.41.81.81,0,0,1,.51-.15Zm1,.19a2.29,2.29,0,0,0-1-.19v1.37a1.23,1.23,0,0,1,.43.06Zm.16,1.48.21-.64-1.29-.44-.21.65Zm-1.06.39h.1l.1,0,.43-1.29a1.74,1.74,0,0,0-.63-.11Zm0,0v-.09s0,0,0,0h0s0,0,0,0a.08.08,0,0,1,0,0h.07V113.9a1.37,1.37,0,0,0-1,.4,1.46,1.46,0,0,0-.34,1Zm0,.49v-.49H85.36v.49Zm.4-.68H86v1.36h1.09Zm0,1.31v.68h.68v-.68Zm-1.09,0v-.68h-.68v.68Zm0,4.21v.68h.69v-.68Zm-.74,0h-.68v.68h.68Zm0-4.21H86v-.68H85.3Zm-.78,0h-.68v.68h.68Zm0-.63v-.68h-.68v.68Zm.78,0v.68H86v-.68ZM87.37,114l.64.22.2-.59-.57-.25Zm-.22.64-.21.65.64.22.22-.65ZM86,115.8h-.68v.68H86Zm1.09,0h.68v-.68h-.68Zm-5.45,3.59a.51.51,0,0,1-.47-.23,1.58,1.58,0,0,1-.23-.94H79.61A2.93,2.93,0,0,0,80.1,120a1.89,1.89,0,0,0,1.58.8Zm.73-1.17a1.62,1.62,0,0,1-.23.92.55.55,0,0,1-.5.25v1.37a1.9,1.9,0,0,0,1.61-.83,2.9,2.9,0,0,0,.49-1.71Zm-.73-1.13a.56.56,0,0,1,.51.24,1.57,1.57,0,0,1,.22.89h1.37a2.93,2.93,0,0,0-.48-1.69,2,2,0,0,0-1.62-.81Zm-.7,1.13a1.55,1.55,0,0,1,.22-.91.53.53,0,0,1,.48-.22v-1.37a1.89,1.89,0,0,0-1.58.78,2.89,2.89,0,0,0-.49,1.72Zm-2.1-2.42v6.66h1.37V115.8Zm1.4-.68h-.72v1.36h.72Zm.69,1.45v-.77H79.6v.77Zm-.6-.68h-.09v1.36h.09Zm1.4-.84a2.12,2.12,0,0,0-1.43.49,2.43,2.43,0,0,0-.54.66l1.14.74a1.36,1.36,0,0,1,.28-.36.78.78,0,0,1,.55-.16Zm2.75,3.18a3.49,3.49,0,0,0-.74-2.26,2.56,2.56,0,0,0-2-.92v1.37a1.22,1.22,0,0,1,1,.43,2.12,2.12,0,0,1,.41,1.38Zm-2.74,3.19a2.56,2.56,0,0,0,2-.92,3.47,3.47,0,0,0,.73-2.27H83.15a2.16,2.16,0,0,1-.41,1.4,1.21,1.21,0,0,1-1,.43Zm-2-1.16a2.93,2.93,0,0,0,.56.69,2.19,2.19,0,0,0,1.43.47v-1.36a.82.82,0,0,1-.56-.17,1.46,1.46,0,0,1-.27-.35Zm.52.32h.06v-1.37h-.06Zm.68,1.88V119.9H79.62v2.56Zm-1.43.68h.75v-1.37h-.75Zm0-7.34v-.68h-.68v.68Zm.72,0H81v-.68h-.69Zm0,.77H79.6v.68h.68Zm.09,0v.68h.37l.2-.31Zm0,3.33.58-.36-.2-.33h-.38Zm-.06,0v-.69h-.69v.69Zm0,2.56v.68H81v-.68Zm-.75,0h-.68v.68h.68Zm-2.94-8a1.21,1.21,0,0,0,1.22,1.19v-1.37a.11.11,0,0,1,.09,0,.2.2,0,0,1,.06.14Zm1.22-1.19a1.21,1.21,0,0,0-1.22,1.19H78a.2.2,0,0,1-.06.14.15.15,0,0,1-.09,0Zm1.21,1.19a1.2,1.2,0,0,0-1.21-1.19v1.37a.18.18,0,0,1-.1,0,.2.2,0,0,1-.06-.14Zm-1.21,1.19a1.2,1.2,0,0,0,1.21-1.19H77.68a.2.2,0,0,1,.06-.14.13.13,0,0,1,.1,0Zm-1.06.12v4.84h1.36V115.8Zm1.42-.68h-.74v1.36h.74Zm.68,5.52V115.8H77.52v4.84Zm-1.42.68h.74V120h-.74Zm0-5.52v-.68h-.68v.68Zm.74,0h.68v-.68H78.2Zm0,4.84v.68h.68v-.68Zm-.74,0h-.68v.68h.68Zm-3.15-.52a1.25,1.25,0,0,0,1.25,1.25V120a.11.11,0,0,1,.11.11Zm1.25-1.25a1.26,1.26,0,0,0-1.25,1.25h1.36a.11.11,0,0,1-.11.12Zm1.25,1.25a1.26,1.26,0,0,0-1.25-1.25v1.37a.12.12,0,0,1-.12-.12Zm-1.25,1.25a1.26,1.26,0,0,0,1.25-1.25H75.44a.11.11,0,0,1,.12-.11Zm-2.24-3.64.67-.19-.37-1.31-.67.19Zm-1.23-.67a.46.46,0,0,1,.29.07.52.52,0,0,1,.12.19l1.27-.49a1.71,1.71,0,0,0-.53-.76,1.8,1.8,0,0,0-1.15-.37Zm-.35,0a.43.43,0,0,1,0,.05s0,0,0,0a.57.57,0,0,1,.35-.09V115.7A2,2,0,0,0,71,116a1.3,1.3,0,0,0-.58,1.08Zm.31,0-.27-.08-.09,0,0,0,0,0s0,0,0,0H70.38a1.22,1.22,0,0,0,.44,1,2.33,2.33,0,0,0,.91.4Zm.72.18-.72-.18-.32,1.33.72.17Zm1.81,2a1.8,1.8,0,0,0-.52-1.31,2.61,2.61,0,0,0-1.29-.66l-.32,1.32a1.38,1.38,0,0,1,.64.3.47.47,0,0,1,.12.35ZM72,121.42a2.32,2.32,0,0,0,2.58-2.13H73.21c0,.31-.29.77-1.21.77Zm-2.51-1.8A2.19,2.19,0,0,0,70.4,121a2.87,2.87,0,0,0,1.6.43v-1.36a1.44,1.44,0,0,1-.84-.21.74.74,0,0,1-.33-.51Zm1.21-1-.7.18.33,1.32L71,120Zm1.29.76a.61.61,0,0,1-.35-.07.3.3,0,0,1-.11-.19l-1.32.33a1.65,1.65,0,0,0,.65,1,2,2,0,0,0,1.13.32Zm.45-.07c0-.06,0-.06,0,0a.81.81,0,0,1-.44.1v1.37a2.1,2.1,0,0,0,1.22-.35,1.32,1.32,0,0,0,.6-1.09Zm-.19,0a1.82,1.82,0,0,1,.18.06l0,0,0,0a.08.08,0,0,1,0,0h1.37a1.24,1.24,0,0,0-.39-.91,1.82,1.82,0,0,0-.86-.44Zm-.81-.18.81.18.31-1.33-.8-.18Zm-1.81-2a1.83,1.83,0,0,0,.5,1.3,2.63,2.63,0,0,0,1.31.69l.32-1.33a1.33,1.33,0,0,1-.64-.3.48.48,0,0,1-.12-.36Zm2.46-2.09a2.24,2.24,0,0,0-2.46,2.09H71c0-.3.28-.72,1.09-.72Zm2.36,1.62a2.29,2.29,0,0,0-.83-1.17,2.58,2.58,0,0,0-1.53-.45v1.37a1.21,1.21,0,0,1,.73.19,1,1,0,0,1,.34.49Zm-1.31.4-.64.25.23.58.59-.17Zm-1.25.73-.16.67h0Zm.72.18-.16.66h0Zm-2.45,1.5-.16-.66-.64.16.13.64Zm.71-.17.66-.17-.17-.66-.66.16Zm1.54-.66-.16.66h0Zm-.81-.19.16-.66h0Zm2.21-1.58.18.66.69-.19-.23-.68Zm-9.3,1.37a3.36,3.36,0,0,0,.75,2.23,2.73,2.73,0,0,0,2.13.94v-1.36a1.33,1.33,0,0,1-1.09-.47,2,2,0,0,1-.42-1.34Zm2.86-3.2a2.76,2.76,0,0,0-2.1.94,3.47,3.47,0,0,0-.76,2.26h1.37a2.06,2.06,0,0,1,.43-1.37,1.37,1.37,0,0,1,1.06-.46Zm2.6,2.11a2.49,2.49,0,0,0-2.6-2.11v1.37a1.12,1.12,0,0,1,1.24.92Zm-1.42.77h.74v-1.36h-.74Zm-1.16-.84a.54.54,0,0,1,.35.1.43.43,0,0,1,.14.23l1.33-.34a1.83,1.83,0,0,0-1.82-1.36Zm-.77,1.13a1.39,1.39,0,0,1,.25-.89.63.63,0,0,1,.52-.24v-1.37a2,2,0,0,0-1.59.76,2.76,2.76,0,0,0-.55,1.74Zm.77,1.17a.62.62,0,0,1-.52-.24,1.48,1.48,0,0,1-.25-.93H65.25a2.86,2.86,0,0,0,.54,1.77,2,2,0,0,0,1.6.77Zm.5-.33a.46.46,0,0,1-.5.33v1.37a1.81,1.81,0,0,0,1.82-1.36Zm1.4-.51h-.74v1.36h.74Zm-1.9,2.87A2.48,2.48,0,0,0,70,119.33l-1.36-.2a1.11,1.11,0,0,1-1.22.93Zm1.9-4.17v.68h.78l-.1-.77Zm-.74,0-.67.17.14.51h.53Zm0,2v-.68H68l-.13.51Zm.74,0,.68.1.11-.78h-.79Zm-6.43-1a1.57,1.57,0,0,1-.23.88.6.6,0,0,1-.54.26v1.37a2,2,0,0,0,1.66-.84,2.92,2.92,0,0,0,.47-1.67Zm-.77-1.16a.6.6,0,0,1,.54.26,1.62,1.62,0,0,1,.23.9h1.36a3,3,0,0,0-.47-1.68,2,2,0,0,0-1.66-.85Zm-.77,1.16a1.62,1.62,0,0,1,.23-.9.61.61,0,0,1,.54-.26v-1.37a2,2,0,0,0-1.66.85,3,3,0,0,0-.47,1.68Zm.77,1.14a.6.6,0,0,1-.54-.26,1.57,1.57,0,0,1-.23-.88H60a2.85,2.85,0,0,0,.48,1.67,2,2,0,0,0,1.65.84Zm-2.88-1.14a3.36,3.36,0,0,0,.78,2.26,2.74,2.74,0,0,0,2.1.91v-1.36a1.39,1.39,0,0,1-1.08-.45,2.06,2.06,0,0,1-.43-1.36Zm2.88-3.2A2.74,2.74,0,0,0,60,116a3.39,3.39,0,0,0-.78,2.28h1.37a2,2,0,0,1,.44-1.38,1.35,1.35,0,0,1,1.07-.45Zm2.88,3.2a3.39,3.39,0,0,0-.78-2.28,2.74,2.74,0,0,0-2.1-.92v1.37a1.39,1.39,0,0,1,1.08.45,2.08,2.08,0,0,1,.43,1.38Zm-2.88,3.17a2.74,2.74,0,0,0,2.1-.91,3.36,3.36,0,0,0,.78-2.26H63.6a2.06,2.06,0,0,1-.43,1.36,1.39,1.39,0,0,1-1.08.45Zm-4.85-3.2a1.67,1.67,0,0,1-.22.94.54.54,0,0,1-.48.23v1.37a1.89,1.89,0,0,0,1.58-.8,2.93,2.93,0,0,0,.49-1.74Zm-.7-1.13a.52.52,0,0,1,.48.22,1.55,1.55,0,0,1,.22.91h1.37a3,3,0,0,0-.48-1.72,1.92,1.92,0,0,0-1.59-.78Zm-.73,1.13a1.57,1.57,0,0,1,.22-.89.58.58,0,0,1,.51-.24v-1.37a1.93,1.93,0,0,0-1.61.81,2.85,2.85,0,0,0-.48,1.69Zm.73,1.17a.57.57,0,0,1-.5-.25,1.62,1.62,0,0,1-.23-.92H54.45a3,3,0,0,0,.48,1.71,1.91,1.91,0,0,0,1.61.83Zm-2.84-1.16a3.53,3.53,0,0,0,.73,2.27,2.56,2.56,0,0,0,2,.92v-1.36a1.21,1.21,0,0,1-1-.43,2.22,2.22,0,0,1-.41-1.4Zm2.75-3.18a2.59,2.59,0,0,0-2,.92,3.49,3.49,0,0,0-.74,2.26h1.37a2.12,2.12,0,0,1,.41-1.38,1.23,1.23,0,0,1,1-.43Zm2,1.15a2.43,2.43,0,0,0-.54-.66,2.1,2.1,0,0,0-1.43-.49v1.37a.84.84,0,0,1,.56.16,1.6,1.6,0,0,1,.27.36Zm-.5-.31h-.07v1.36h.07Zm-.69-1.7v2.38H58.6v-2.38Zm1.43-.69h-.74v1.37h.74Zm.68,7.14v-6.45H58v6.45Zm-1.4.68h.72V120h-.72Zm-.68-1.42v.74h1.36v-.74Zm.59.68h.09v-1.37h-.09Zm-1.41.84a2.19,2.19,0,0,0,1.43-.47,2.68,2.68,0,0,0,.56-.69l-1.16-.72a1.25,1.25,0,0,1-.27.35.8.8,0,0,1-.56.17Zm1.41-4.85-.57.37.2.31h.37Zm.07,0v.68h.68v-.68Zm0-2.38v-.69h-.69v.69Zm.74,0h.68v-.69h-.68Zm0,6.45v.68h.68v-.68Zm-.72,0h-.68v.68h.68Zm0-.74h.68v-.69h-.68Zm-.09,0v-.69h-.38l-.2.33Z"/><path class="cls-6" d="M99.12,120.07c-1,0-1.45-.85-1.45-1.82s.46-1.84,1.45-1.84,1.45.87,1.45,1.84S100.12,120.07,99.12,120.07Zm0,.67a2.52,2.52,0,1,0-2.19-2.49A2.23,2.23,0,0,0,99.12,120.74ZM95.43,115a.5.5,0,1,0-.53-.5A.51.51,0,0,0,95.43,115Zm-.38,5.65h.75V115.8h-.75Zm-1.9,0a.57.57,0,1,0-.57-.57A.57.57,0,0,0,93.15,120.69Zm-1.75-3.81a1.64,1.64,0,0,0-1.72-1.14c-1,0-1.77.58-1.77,1.4,0,.66.39,1.11,1.28,1.32l.81.19c.49.11.72.35.72.68s-.44.76-1.14.76a1,1,0,0,1-1.12-.78l-.7.17a1.66,1.66,0,0,0,1.84,1.26c1.12,0,1.89-.61,1.89-1.45,0-.67-.42-1.1-1.29-1.31l-.72-.18c-.57-.14-.83-.33-.83-.7s.44-.72,1-.72a1,1,0,0,1,1,.69Zm-4.27-1.08H86v-.49c0-.48.21-.73.7-.73a1.26,1.26,0,0,1,.41.07l.22-.64a1.75,1.75,0,0,0-.71-.13,1.26,1.26,0,0,0-1.36,1.25v.67h-.78v.63h.78v4.21H86v-4.21h1.09Zm-6.84,2.42c0-1.08.48-1.81,1.39-1.81s1.41.79,1.41,1.81-.48,1.85-1.41,1.85S80.29,119.32,80.29,118.22Zm-.73,4.24h.75V119.9h.06a1.5,1.5,0,0,0,1.41.84c1.21,0,2.06-1,2.06-2.51s-.85-2.49-2.07-2.49a1.47,1.47,0,0,0-1.4.83h-.09v-.77h-.72ZM77.84,115a.5.5,0,1,0-.53-.5A.51.51,0,0,0,77.84,115Zm-.38,5.65h.74V115.8h-.74Zm-1.9,0a.57.57,0,1,0-.57-.57A.56.56,0,0,0,75.56,120.69Zm-1.75-3.81a1.64,1.64,0,0,0-1.72-1.14c-1,0-1.78.58-1.78,1.4,0,.66.4,1.11,1.29,1.32l.81.19c.49.11.72.35.72.68s-.45.76-1.14.76a1,1,0,0,1-1.12-.78l-.71.17A1.67,1.67,0,0,0,72,120.74c1.13,0,1.89-.61,1.89-1.45,0-.67-.42-1.1-1.28-1.31l-.72-.18c-.57-.14-.83-.33-.83-.7s.44-.72,1-.72a1,1,0,0,1,1,.69Zm-6.42,3.86a1.79,1.79,0,0,0,1.9-1.51h-.74a1.12,1.12,0,0,1-1.16.84c-.89,0-1.45-.73-1.45-1.85s.58-1.81,1.45-1.81a1.14,1.14,0,0,1,1.16.84h.74a1.81,1.81,0,0,0-1.92-1.51,2.52,2.52,0,0,0,0,5Zm-5.3-.67c-1,0-1.45-.85-1.45-1.82s.45-1.84,1.45-1.84,1.45.87,1.45,1.84S63.09,120.07,62.09,120.07Zm0,.67a2.52,2.52,0,1,0-2.19-2.49A2.22,2.22,0,0,0,62.09,120.74Zm-5.55-.67c-.93,0-1.41-.82-1.41-1.85s.47-1.81,1.41-1.81,1.39.73,1.39,1.81S57.44,120.07,56.54,120.07Zm-.1.67a1.5,1.5,0,0,0,1.41-.84h.09v.74h.72v-6.45h-.74v2.38h-.07a1.47,1.47,0,0,0-1.4-.83c-1.22,0-2.06,1-2.06,2.49S55.23,120.74,56.44,120.74Z"/><path class="cls-4" d="M11.61,45.26a3.05,3.05,0,0,1-1.66-.5,3,3,0,0,1-1.09-1.33,3,3,0,0,1-.17-1.72,3,3,0,0,1,4.06-2.16,3.06,3.06,0,0,1,1.34,1.1,2.94,2.94,0,0,1,.27,2.78,2.86,2.86,0,0,1-.65,1,2.7,2.7,0,0,1-1,.64A3,3,0,0,1,11.61,45.26Zm6.08-9.41c-.17-.17-.35-.33-.53-.48l-.06,0a6.07,6.07,0,0,0-.57-.43l-.16-.12-.26-.15a9.24,9.24,0,0,0-4.85-1.51H11a9.24,9.24,0,0,0-9,9.23c0,4.4,6.22,12.25,8.49,15a1,1,0,0,0,.81.39,1,1,0,0,0,.45-.1,1.06,1.06,0,0,0,.37-.29c2.22-2.71,8.31-10.49,8.31-14.91a9.16,9.16,0,0,0-2.79-6.56Z"/><path class="cls-4" d="M82.26,40H83a2.25,2.25,0,0,0-4.38.1c0,.87.63,1.39,1.64,1.68l.79.23c.68.19,1.29.43,1.29,1.07s-.69,1.17-1.58,1.17-1.45-.34-1.51-1.07h-.81c.08,1.06.93,1.78,2.32,1.78s2.33-.82,2.33-1.87c0-1.21-1.15-1.6-1.81-1.78l-.66-.17c-.48-.13-1.25-.38-1.25-1.07S80,39,80.81,39,82.18,39.39,82.26,40Zm-8.74,4.84h.78V42h2.8v-.7H74.3V39.1h3.09v-.69H73.52Zm-4.85-3V39.1H70c1,0,1.45.58,1.45,1.35a1.26,1.26,0,0,1-1.44,1.36Zm-.78,3h.78V42.51h1.41a2.05,2.05,0,1,0,0-4.1H67.89Zm-1.57-6.45h-.78v6.45h.78Zm-8,3.64a1.45,1.45,0,0,1,1.44-1.42,1.3,1.3,0,0,1,1.32,1.42ZM59.8,45a1.88,1.88,0,0,0,1.93-1.23l-.72-.2a1.18,1.18,0,0,1-1.21.76,1.47,1.47,0,0,1-1.51-1.6h3.52v-.32c0-1.8-1.07-2.42-2.08-2.42a2.25,2.25,0,0,0-2.18,2.52A2.22,2.22,0,0,0,59.8,45Zm-9.74-.11h.74v-3a1.15,1.15,0,0,1,1.1-1.21.89.89,0,0,1,1,.92v3.31h.76V41.71a1,1,0,0,1,1.07-1.08.9.9,0,0,1,1,1v3.24h.74V41.62c0-1.13-.61-1.66-1.47-1.66a1.54,1.54,0,0,0-1.45.82h-.05a1.33,1.33,0,0,0-1.3-.82,1.3,1.3,0,0,0-1.3.82h-.06V40h-.72Zm-3.33-.56c-1,0-1.45-.86-1.45-1.83s.46-1.84,1.45-1.84,1.45.87,1.45,1.84S47.73,44.3,46.73,44.3Zm0,.67a2.24,2.24,0,0,0,2.2-2.5,2.21,2.21,0,1,0-4.39,0A2.23,2.23,0,0,0,46.73,45Zm-3.17-3.86A1.64,1.64,0,0,0,41.84,40c-1,0-1.77.58-1.77,1.4s.39,1.12,1.28,1.32l.81.19c.49.12.72.35.72.68s-.44.76-1.14.76a1,1,0,0,1-1.12-.78l-.71.17A1.67,1.67,0,0,0,41.75,45c1.13,0,1.9-.62,1.9-1.45s-.43-1.1-1.29-1.32L41.64,42c-.57-.14-.83-.34-.83-.71s.44-.72,1-.72a1,1,0,0,1,1,.7Zm-8.08.94a1.45,1.45,0,0,1,1.44-1.42,1.31,1.31,0,0,1,1.32,1.42ZM37,45a1.89,1.89,0,0,0,1.93-1.23l-.72-.2A1.18,1.18,0,0,1,37,44.3a1.47,1.47,0,0,1-1.51-1.6H39v-.32c0-1.8-1.07-2.42-2.08-2.42a2.25,2.25,0,0,0-2.18,2.52A2.22,2.22,0,0,0,37,45Zm-8-.11h.73l1.06-3.71h.08l1.06,3.71h.73L34.14,40h-.78l-1,3.7h0l-1-3.7h-.8l-1,3.71h-.05L28.32,40h-.78Zm-5.22-2.52,1-2.91h.05l1,2.91Zm-.9,2.52L23.54,43h2.61l.65,1.82h.82l-2.37-6.45h-.81l-2.37,6.45Z"/><path class="cls-5" d="M57.35,179.75a3.05,3.05,0,0,1-1.66-.5,2.92,2.92,0,0,1-1.09-1.34,2.87,2.87,0,0,1-.17-1.71,3,3,0,0,1,.82-1.52,2.93,2.93,0,0,1,1.52-.81,3,3,0,0,1,3.06,1.26,3,3,0,0,1,.5,1.65,3,3,0,0,1-1.84,2.74A3,3,0,0,1,57.35,179.75Zm6.07-9.42c-.16-.16-.34-.32-.52-.47l-.06,0c-.18-.15-.37-.29-.57-.43l-.16-.11-.26-.16a9.32,9.32,0,0,0-4.85-1.5h-.23a9.27,9.27,0,0,0-6.37,2.79,9.18,9.18,0,0,0-2.61,6.44c0,4.4,6.22,12.25,8.49,15a.9.9,0,0,0,.36.28,1,1,0,0,0,.9,0,.93.93,0,0,0,.37-.28c2.22-2.71,8.31-10.49,8.31-14.91a9.12,9.12,0,0,0-.73-3.57A9.22,9.22,0,0,0,63.42,170.33Z"/><path class="cls-1" d="M120.66,174.51v4.84H122v-4.84Zm1.4-.68h-.72v1.36h.72Zm.68,1.41v-.73h-1.36v.73Zm-.63-.68h0v1.36h0Zm1.26-.81a2,2,0,0,0-1.9,1.26l1.28.47a.64.64,0,0,1,.62-.36Zm.44,0-.44,0v1.37h.34Zm.63,1.43v-.75h-1.36v.75Zm-1.13.64h.19l.1,0,.33-1.33a3.32,3.32,0,0,0-.62-.07Zm-.54.45c0-.23.16-.45.54-.45v-1.37a1.83,1.83,0,0,0-1.91,1.82Zm0,3.06v-3.06H121.4v3.06Zm-1.43.68h.74v-1.36h-.74Zm0-5.52v-.68h-.68v.68Zm.72,0h.68v-.68h-.68Zm0,.73h-.68v.68h.68Zm0,0v.68h.48l.16-.44Zm1.65-.79h.68v-.64l-.63,0Zm0,.75-.16.67.84.21v-.88Zm-1.68,4.15V180h.69v-.68Zm-.74,0h-.68V180h.68Zm-1.89-3.49H116.7v1.36h2.75Zm-1.32-.06a.6.6,0,0,1,.46.18.81.81,0,0,1,.18.56h1.37a2.2,2.2,0,0,0-.54-1.48,2,2,0,0,0-1.47-.63Zm-.75.79a.76.76,0,0,1,.75-.79v-1.37a2.14,2.14,0,0,0-2.12,2.06Zm-2.11.38a3.32,3.32,0,0,0,.77,2.25,2.83,2.83,0,0,0,2.17.92v-1.37a1.46,1.46,0,0,1-1.15-.46,2,2,0,0,1-.43-1.34Zm2.86-3.2a2.7,2.7,0,0,0-2.1.94,3.41,3.41,0,0,0-.76,2.26h1.36a2,2,0,0,1,.44-1.37,1.33,1.33,0,0,1,1.06-.47Zm2.76,3.1a3.18,3.18,0,0,0-.87-2.38,2.68,2.68,0,0,0-1.89-.72v1.36a1.31,1.31,0,0,1,.94.34,1.87,1.87,0,0,1,.46,1.4Zm0,.31v-.31h-1.36v.31Zm-4.19.69h3.51V176.5H116.7Zm1.51.23a.83.83,0,0,1-.59-.2,1.11,1.11,0,0,1-.24-.74l-1.37.05a2.41,2.41,0,0,0,.64,1.64,2.14,2.14,0,0,0,1.56.62Zm.57-.31c-.07.18-.21.31-.57.31v1.37a1.86,1.86,0,0,0,1.84-1.2Zm1.54-.22-.72-.2-.37,1.32.72.2Zm-2.11,2.57a2.57,2.57,0,0,0,2.58-1.71l-1.31-.4a1.21,1.21,0,0,1-1.27.74Zm1.24-3.6v.68h.69v-.68Zm-2.75,0-.69,0,0,.73h.73Zm3.51.64v.69h.68v-.69Zm-3.51,0v-.68H116l0,.71Zm2.72.85.18-.66-.6-.17-.22.59Zm.71.2.66.2.2-.67-.67-.19Zm-7.79-3.72v4.84h1.36v-4.84Zm1.4-.68H113v1.36h.72Zm.68,1.41v-.73h-1.36v.73Zm-.63-.68h-.05v1.36h.05Zm1.26-.81a2,2,0,0,0-1.9,1.26l1.28.47a.64.64,0,0,1,.62-.36Zm.44,0-.44,0v1.37h.34Zm.63,1.43v-.75h-1.36v.75Zm-1.13.64h.19l.1,0,.33-1.33a3.32,3.32,0,0,0-.62-.07Zm-.54.45c0-.23.16-.45.54-.45v-1.37a1.83,1.83,0,0,0-1.91,1.82Zm0,3.06v-3.06h-1.37v3.06ZM113,180h.74v-1.36H113Zm0-5.52v-.68h-.68v.68Zm.72,0h.68v-.68h-.68Zm0,.73h-.68v.68h.68Zm.05,0v.68h.48l.16-.44Zm1.65-.79h.68v-.64l-.63,0Zm0,.75-.16.67.84.21v-.88Zm-1.68,4.15V180h.69v-.68Zm-.74,0h-.68V180H113ZM110.46,177a1.49,1.49,0,0,1-.23.88.6.6,0,0,1-.54.26v1.37a2,2,0,0,0,1.66-.84,2.92,2.92,0,0,0,.47-1.67Zm-.77-1.16a.6.6,0,0,1,.54.26,1.56,1.56,0,0,1,.23.9h1.36a3,3,0,0,0-.47-1.68,2,2,0,0,0-1.66-.85Zm-.77,1.16a1.65,1.65,0,0,1,.23-.9.61.61,0,0,1,.54-.26v-1.37a2,2,0,0,0-1.65.85,2.88,2.88,0,0,0-.48,1.68Zm.77,1.14a.6.6,0,0,1-.54-.26,1.57,1.57,0,0,1-.23-.88h-1.36a2.85,2.85,0,0,0,.48,1.67,2,2,0,0,0,1.65.84ZM106.82,177a3.4,3.4,0,0,0,.77,2.26,2.74,2.74,0,0,0,2.1.92v-1.37a1.35,1.35,0,0,1-1.07-.45,2,2,0,0,1-.44-1.36Zm2.87-3.19a2.74,2.74,0,0,0-2.1.91,3.44,3.44,0,0,0-.77,2.28h1.36a2,2,0,0,1,.44-1.37,1.33,1.33,0,0,1,1.07-.46Zm2.88,3.19a3.39,3.39,0,0,0-.78-2.28,2.74,2.74,0,0,0-2.1-.91v1.36a1.36,1.36,0,0,1,1.08.46,2,2,0,0,1,.43,1.37Zm-2.88,3.18a2.74,2.74,0,0,0,2.1-.92,3.36,3.36,0,0,0,.78-2.26H111.2a2,2,0,0,1-.43,1.36,1.39,1.39,0,0,1-1.08.45Zm-2.64-.79V172.9h-1.37v6.45Zm-1.43.68h.74v-1.36h-.74Zm-.68-7.13v6.45h1.36V172.9Zm1.42-.69h-.74v1.37h.74Zm0,7.14V180h.69v-.68Zm-.74,0h-.68V180h.68Zm0-6.45v-.69h-.68v.69Zm.74,0h.69v-.69h-.69Zm-4,5.2a.54.54,0,0,1-.48-.23,1.67,1.67,0,0,1-.22-.94h-1.37a2.93,2.93,0,0,0,.49,1.74,1.89,1.89,0,0,0,1.58.8Zm.73-1.17a1.62,1.62,0,0,1-.23.92.57.57,0,0,1-.5.25v1.37a1.91,1.91,0,0,0,1.61-.83,3,3,0,0,0,.48-1.71Zm-.73-1.13a.58.58,0,0,1,.51.24,1.57,1.57,0,0,1,.22.89h1.36a2.85,2.85,0,0,0-.48-1.69,1.93,1.93,0,0,0-1.61-.81Zm-.7,1.13a1.55,1.55,0,0,1,.22-.91.54.54,0,0,1,.48-.22v-1.37a1.92,1.92,0,0,0-1.59.78,3,3,0,0,0-.48,1.72Zm-2.1-2.42v6.66h1.36v-6.66Zm1.4-.68h-.72v1.36h.72Zm.68,1.45v-.77h-1.36v.77Zm-.59-.68h-.09V176H101Zm1.4-.83a2.1,2.1,0,0,0-1.43.48,2.43,2.43,0,0,0-.54.66l1.14.74a1.6,1.6,0,0,1,.27-.36.84.84,0,0,1,.56-.16Zm2.75,3.17a3.49,3.49,0,0,0-.74-2.26,2.58,2.58,0,0,0-2-.91v1.36a1.23,1.23,0,0,1,1,.43,2.12,2.12,0,0,1,.41,1.38Zm-2.74,3.2a2.56,2.56,0,0,0,2-.93,3.53,3.53,0,0,0,.73-2.27H103.8a2.22,2.22,0,0,1-.41,1.4,1.21,1.21,0,0,1-1,.43Zm-2-1.17a2.68,2.68,0,0,0,.56.69,2.19,2.19,0,0,0,1.43.48v-1.37a.8.8,0,0,1-.56-.17,1.25,1.25,0,0,1-.27-.35Zm.52.32H101v-1.36H101Zm.68,1.88v-2.56h-1.37v2.56Zm-1.43.68H101v-1.37h-.75Zm0-7.34v-.68h-.68v.68Zm.72,0h.68v-.68h-.68Zm0,.77h-.68V176h.68Zm.09,0V176h.37l.2-.31Zm0,3.33.58-.36-.2-.32H101Zm-.06,0v-.68h-.69v.68Zm0,2.56v.68h.68v-.68Zm-.75,0h-.68v.68h.68Zm-2.49-5-1.16-2-1.18.69,1.16,2Zm0-2-1.16,2,1.18.7,1.16-2Zm1.45-.34h-.86v1.36h.86Zm-1,3.47,1.56-2.42-1.14-.74L97,176.56ZM99.72,179l-1.56-2.42L97,177.3l1.57,2.42ZM98.29,180h.86v-1.36h-.86Zm-1.74-2.2,1.16,1.88,1.16-.72-1.16-1.88Zm0,1.88,1.16-1.88-1.16-.72L95.39,179Zm-1.43.32H96v-1.36h-.85Zm1-3.46L94.54,179l1.15.73,1.54-2.42Zm-1.54-1.69,1.54,2.42,1.15-.73-1.54-2.43Zm1.43-1h-.85v1.36H96Zm1.16,2.66-.59.35.59,1,.59-1Zm1.16-2v-.68H97.9l-.2.34Zm.86,0,.57.37.68-1H99.15Zm-1.56,2.42-.58-.37-.24.37.24.37Zm1.56,2.42V180h1.25L99.72,179Zm-.86,0-.58.36.2.32h.38Zm-1.16-1.88.58-.36-.58-.94-.58.94ZM96,179.35V180h.38l.2-.32Zm-.85,0-.58-.36-.67,1h1.25Zm1.53-2.42.58.37.23-.37-.23-.36Zm-1.53-2.42v-.68H93.87l.67,1Zm.85,0,.59-.34-.2-.34H96Zm-6.44-1.61v6.45H90.9V172.9Zm4.58-.69H90.22v1.37h3.89Zm.68,1.38v-.69H93.43v.69Zm-3.79.68h3.11v-1.36H91Zm.68,1.5v-2.18H90.31v2.18Zm2.23-.68H91v1.36h2.91Zm.68,1.37v-.69H93.23v.69Zm-3.59.69h2.91v-1.37H91Zm.68,1.51v-2.2H90.31v2.2Zm2.48-.68H91v1.36h3.16Zm.68,1.37v-.69H93.48v.69Zm-4.62.68h3.94v-1.36H90.22Zm0-7.13v-.69h-.69v.69Zm3.89,0h.68v-.69h-.68Zm0,.69v.68h.68v-.68Zm-3.11,0v-.68h-.69v.68Zm0,2.18h-.69v.68H91Zm2.91,0h.68v-.68h-.68Zm0,.69v.69h.68v-.69Zm-2.91,0v-.68h-.69v.68Zm0,2.2h-.69v.68H91Zm3.16,0h.68V178h-.68Zm0,.69V180h.68v-.68Zm-3.94,0h-.69V180h.69ZM83.28,178H82.12v1.36h1.16ZM85,176.11a2.08,2.08,0,0,1-.41,1.41,1.61,1.61,0,0,1-1.28.46v1.36a3,3,0,0,0,2.3-.91,3.41,3.41,0,0,0,.75-2.32Zm-1.6-1.84a1.52,1.52,0,0,1,1.2.44,2.12,2.12,0,0,1,.4,1.4h1.36a3.4,3.4,0,0,0-.74-2.3,2.84,2.84,0,0,0-2.22-.9Zm-1.25,0h1.25v-1.36H82.12Zm.68,4.39v-5.07H81.44v5.07ZM81.34,180h2v-1.36h-2Zm-.68-7.13v6.45H82V172.9Zm2.76-.69H81.34v1.37h2.08Zm3.67,3.9a4,4,0,0,0-1-2.82,3.57,3.57,0,0,0-2.7-1.08v1.37a2.2,2.2,0,0,1,1.7.64,2.71,2.71,0,0,1,.61,1.89ZM83.33,180A3.7,3.7,0,0,0,86.11,179a4.09,4.09,0,0,0,1-2.85H85.73a2.72,2.72,0,0,1-.62,1.91,2.34,2.34,0,0,1-1.78.65Zm-1.21-6.44v-.68h-.68v.68Zm0,5.07h-.68v.68h.68Zm-.78.69h-.68V180h.68Zm0-6.45v-.69h-.68v.69Zm-5.67,0v6.45H77V172.9Zm1.46-.69h-.78v1.37h.78Zm.68,6.45V172.9H76.45v5.76Zm2.32-.68h-3v1.36h3Zm.68,1.37v-.69H79.45v.69Zm-4.46.68h3.78v-1.36H76.35Zm0-7.13v-.69h-.68v.69Zm.78,0h.68v-.69h-.68Zm0,5.76h-.68v.68h.68Zm3,0h.68V178h-.68Zm0,.69V180h.68v-.68Zm-3.78,0h-.68V180h.68Zm-3.47-3.73H71.5V177h1.38Zm.76-.68a.65.65,0,0,1-.15.5c-.06.07-.22.18-.61.18V177a2.13,2.13,0,0,0,1.61-.6,2.08,2.08,0,0,0,.51-1.44Zm-.77-.67a.84.84,0,0,1,.63.18.67.67,0,0,1,.14.49H75a2,2,0,0,0-.52-1.44,2.17,2.17,0,0,0-1.61-.59Zm-1.37,0h1.37v-1.36H71.5Zm.68,2v-2.71H70.81v2.71ZM70,172.9v6.45H71.4V172.9Zm2.87-.69H70.72v1.37H72.9Zm2.87,2.73a2.73,2.73,0,0,0-.72-1.93,2.91,2.91,0,0,0-2.15-.8v1.37a1.53,1.53,0,0,1,1.17.39,1.32,1.32,0,0,1,.34,1Zm-2.86,2.74a2.88,2.88,0,0,0,2.14-.81,2.73,2.73,0,0,0,.72-1.93H74.41a1.35,1.35,0,0,1-.34,1,1.52,1.52,0,0,1-1.16.39Zm-1.41,0h1.41v-1.37H71.5Zm.68,1.67V177H70.81v2.36Zm-1.46.68h.78v-1.36h-.78Zm.78-6.44v-.68h-.69v.68Zm0,2.71h-.69V177h.69Zm-.78-3.4v-.69H70v.69ZM71.5,177v-.68h-.69V177Zm0,2.36V180h.68v-.68Zm-.78,0H70V180h.69Zm-.89,0V172.9H68.47v6.45Zm-1.46.68h.78v-1.36h-.78Zm-.69-7.13v6.45h1.37V172.9Zm1.47-.69h-.78v1.37h.78Zm0,7.14V180h.68v-.68Zm-.78,0h-.69V180h.69Zm0-6.45v-.69h-.69v.69Zm.78,0h.68v-.69h-.68Z"/><path class="cls-6" d="M121.34,179.35h.74v-3.06a1.15,1.15,0,0,1,1.23-1.14,2.43,2.43,0,0,1,.45,0v-.75h-.39a1.31,1.31,0,0,0-1.26.8h0v-.73h-.72Zm-4.64-2.81a1.44,1.44,0,0,1,1.43-1.42,1.3,1.3,0,0,1,1.32,1.42Zm1.51,2.91a1.87,1.87,0,0,0,1.92-1.22l-.71-.2a1.19,1.19,0,0,1-1.21.75,1.46,1.46,0,0,1-1.51-1.6h3.51v-.31c0-1.8-1.07-2.42-2.08-2.42A2.25,2.25,0,0,0,116,177,2.22,2.22,0,0,0,118.21,179.45Zm-5.19-.1h.74v-3.06a1.15,1.15,0,0,1,1.23-1.14,2.43,2.43,0,0,1,.45,0v-.75h-.39a1.31,1.31,0,0,0-1.26.8h-.05v-.73H113Zm-3.33-.57c-1,0-1.45-.85-1.45-1.82s.46-1.84,1.45-1.84,1.45.87,1.45,1.84S110.69,178.78,109.69,178.78Zm0,.67A2.52,2.52,0,1,0,107.5,177,2.23,2.23,0,0,0,109.69,179.45Zm-3.33-6.55h-.74v6.45h.74Zm-5.42,4c0-1.08.48-1.81,1.39-1.81s1.41.79,1.41,1.81-.48,1.85-1.41,1.85S100.94,178,100.94,176.93Zm-.73,4.24H101v-2.56H101a1.5,1.5,0,0,0,1.41.84c1.21,0,2-1,2-2.51s-.84-2.49-2.06-2.49a1.47,1.47,0,0,0-1.4.83h-.09v-.77h-.72ZM96,174.51h-.85l1.53,2.42-1.53,2.42H96l1.16-1.88,1.16,1.88h.86l-1.56-2.42,1.56-2.42h-.86l-1.16,2Zm-5.75,4.84h3.94v-.69H91v-2.2h2.91v-.69H91v-2.18h3.11v-.69H90.22Zm-8.1-.69v-5.07h1.25c1.51,0,2.28,1,2.28,2.52s-.77,2.55-2.37,2.55Zm1.21.69c2,0,3.08-1.22,3.08-3.24s-1.11-3.21-3-3.21H81.34v6.45Zm-7,0h3.78v-.69h-3V172.9h-.78Zm-4.85-3v-2.71h1.37c1,0,1.45.57,1.45,1.35a1.26,1.26,0,0,1-1.44,1.36Zm-.78,3h.78V177h1.41a2,2,0,1,0,0-4.09H70.72Zm-1.57-6.45h-.78v6.45h.78Z"/><path class="cls-5" d="M41,69.84a3,3,0,0,1-1.65-.51A3,3,0,0,1,38.21,68a2.94,2.94,0,0,1-.16-1.71,2.9,2.9,0,0,1,.81-1.52,3,3,0,0,1,3.25-.64,3,3,0,0,1,1,4.84,3.15,3.15,0,0,1-1,.64A3,3,0,0,1,41,69.84ZM47,60.42l-.53-.48,0,0c-.18-.15-.38-.29-.57-.43l-.17-.11a2.26,2.26,0,0,0-.26-.16,9.26,9.26,0,0,0-4.85-1.5h-.22a9.22,9.22,0,0,0-9,9.22c0,4.41,6.23,12.26,8.49,15a1,1,0,0,0,.36.28,1.07,1.07,0,0,0,.46.11,1,1,0,0,0,.45-.11.9.9,0,0,0,.36-.28c2.23-2.71,8.32-10.49,8.32-14.91a9.3,9.3,0,0,0-.73-3.57A9.16,9.16,0,0,0,47,60.42Z"/><path class="cls-6" d="M82.09,67c0-1.08.48-1.81,1.38-1.81S84.89,66,84.89,67s-.48,1.85-1.42,1.85S82.09,68.12,82.09,67Zm-.73,4.24h.74V68.7h.06a1.52,1.52,0,0,0,1.42.84c1.21,0,2-1,2-2.51s-.84-2.49-2.07-2.49a1.49,1.49,0,0,0-1.4.83h-.08V64.6h-.72ZM78,68.87c-1,0-1.45-.85-1.45-1.82S77,65.21,78,65.21s1.45.86,1.45,1.84S79,68.87,78,68.87Zm0,.67a2.52,2.52,0,1,0-2.2-2.49A2.22,2.22,0,0,0,78,69.54ZM75,64.6H74V63.44h-.74V64.6h-.73v.63h.73v3a1.23,1.23,0,0,0,1.31,1.24,1.76,1.76,0,0,0,.55-.08l-.15-.67a1.5,1.5,0,0,1-.33,0c-.32,0-.64-.11-.64-.74V65.23h1Zm-6.93,4.84h.75V67.63l.52-.48,1.81,2.29h.94l-2.19-2.77,2-2.07H71l-2.12,2.16h-.08V63h-.75Zm-1.21-3.76a1.62,1.62,0,0,0-1.71-1.14c-1,0-1.78.58-1.78,1.4,0,.66.4,1.11,1.29,1.32l.81.19c.48.11.71.35.71.68s-.44.76-1.13.76a1,1,0,0,1-1.12-.79l-.71.18a1.66,1.66,0,0,0,1.84,1.26c1.13,0,1.89-.61,1.89-1.45,0-.67-.42-1.1-1.28-1.31l-.72-.18c-.58-.14-.83-.33-.83-.7s.44-.72,1-.72a1,1,0,0,1,1,.69Zm-8.07.95a1.44,1.44,0,0,1,1.43-1.42,1.31,1.31,0,0,1,1.33,1.42Zm1.51,2.91a1.89,1.89,0,0,0,1.93-1.22l-.72-.2a1.19,1.19,0,0,1-1.21.75,1.46,1.46,0,0,1-1.51-1.6h3.51V67c0-1.81-1.07-2.42-2.08-2.42A2.25,2.25,0,0,0,58,67.06,2.22,2.22,0,0,0,60.29,69.54Zm-7.53-.79V63.68H54c1.51,0,2.28,1,2.28,2.52s-.77,2.55-2.37,2.55Zm1.21.69c2,0,3.08-1.22,3.08-3.24S55.94,63,54.06,63H52v6.45Z"/><path class="cls-5" d="M59.39,82.81a3,3,0,0,1-1.65-.5A2.92,2.92,0,0,1,56.65,81a2.86,2.86,0,0,1-.17-1.71,3,3,0,0,1,.81-1.52,3,3,0,0,1,1.53-.81,3.07,3.07,0,0,1,1.72.17,3,3,0,0,1,1,4.84,3,3,0,0,1-1,.64A2.94,2.94,0,0,1,59.39,82.81Zm6.08-9.42a6.11,6.11,0,0,0-.53-.47l0,0c-.18-.15-.37-.29-.57-.43l-.17-.11-.25-.16A9.33,9.33,0,0,0,59,70.68h-.22a9.22,9.22,0,0,0-9,9.23c0,4.4,6.22,12.25,8.48,15a1,1,0,0,0,.37.28,1,1,0,0,0,.9,0,1,1,0,0,0,.37-.28c2.22-2.71,8.31-10.49,8.31-14.91a9.12,9.12,0,0,0-.73-3.57A9.22,9.22,0,0,0,65.47,73.39Z"/><path class="cls-1" d="M99.6,82.41V76H98.24v6.45Zm-1.46.68h.78V81.73h-.78ZM97.46,76v6.45h1.36V76Zm1.46-.69h-.78v1.37h.78Zm0,7.14v.68h.68v-.68Zm-.78,0h-.68v.68h.68Zm0-6.45v-.69h-.68V76Zm.78,0h.68v-.69h-.68Zm-2.34-.69H95.8v1.37h.78Zm.68,5V76H95.9v4.27Zm-3.19,3a3.26,3.26,0,0,0,2.29-.84,2.88,2.88,0,0,0,.9-2.14H95.9a1.54,1.54,0,0,1-.47,1.15,2,2,0,0,1-1.36.46Zm-3.19-3a2.88,2.88,0,0,0,.9,2.14,3.26,3.26,0,0,0,2.29.84V81.84a2,2,0,0,1-1.36-.46,1.54,1.54,0,0,1-.47-1.15Zm0-4.27v4.27h1.36V76Zm1.46-.69h-.78v1.37h.78Zm.69,4.9V76H91.66v4.21Zm1,.94a1.12,1.12,0,0,1-.79-.26.92.92,0,0,1-.25-.68H91.66a2.28,2.28,0,0,0,.67,1.66,2.45,2.45,0,0,0,1.74.65Zm1-.94a.92.92,0,0,1-.25.68,1.12,1.12,0,0,1-.79.26v1.37a2.44,2.44,0,0,0,1.74-.65,2.28,2.28,0,0,0,.67-1.66Zm0-4.21v4.21h1.37V76Zm1.47,0h.68v-.69h-.68Zm-5,0v-.69h-.68V76Zm.78,0H93v-.69h-.69Zm3.46,0v-.69h-.69V76Zm-10.13,5.2a.51.51,0,0,1-.47-.23A1.58,1.58,0,0,1,85,80H83.6a2.93,2.93,0,0,0,.49,1.74,1.89,1.89,0,0,0,1.58.8ZM86.4,80a1.62,1.62,0,0,1-.23.92.55.55,0,0,1-.5.25v1.37a1.91,1.91,0,0,0,1.61-.83A2.9,2.9,0,0,0,87.77,80Zm-.73-1.13a.58.58,0,0,1,.51.24,1.57,1.57,0,0,1,.22.89h1.37a2.93,2.93,0,0,0-.48-1.69,2,2,0,0,0-1.62-.81ZM85,80a1.55,1.55,0,0,1,.22-.91.55.55,0,0,1,.48-.22V77.49a1.89,1.89,0,0,0-1.58.78A2.89,2.89,0,0,0,83.6,80Zm-2.1-4v6.45h1.37V76Zm1.43-.69h-.75v1.37h.75ZM85,78.34V76H83.61v2.38Zm-.62-.68H84.3V79h.06Zm1.4-.83a2.12,2.12,0,0,0-1.43.48,2.43,2.43,0,0,0-.54.66l1.14.74a1.6,1.6,0,0,1,.27-.36.84.84,0,0,1,.56-.16ZM88.51,80a3.49,3.49,0,0,0-.74-2.26,2.55,2.55,0,0,0-2-.91v1.36a1.22,1.22,0,0,1,1,.43A2.12,2.12,0,0,1,87.14,80Zm-2.74,3.2a2.56,2.56,0,0,0,2-.93A3.53,3.53,0,0,0,88.51,80H87.14a2.16,2.16,0,0,1-.41,1.4,1.21,1.21,0,0,1-1,.43Zm-2-1.17a2.93,2.93,0,0,0,.56.69,2.19,2.19,0,0,0,1.43.48V81.83a.82.82,0,0,1-.56-.17,1.46,1.46,0,0,1-.27-.35Zm.49.32h.09V81h-.09Zm.68.06v-.74H83.59v.74Zm-1.4.68h.72V81.73h-.72Zm0-7.13v-.69h-.68V76Zm.75,0H85v-.69H84.3Zm0,2.38h-.69V79h.69Zm.06,0V79h.37l.2-.31Zm0,3.33.58-.36-.2-.32h-.38Zm-.09,0V81h-.68v.68Zm0,.74v.68H85v-.68Zm-.72,0h-.68v.68h.68Zm-2-3.49H78.81v1.36h2.75Zm-1.32-.06a.6.6,0,0,1,.46.18.81.81,0,0,1,.18.56h1.37a2.2,2.2,0,0,0-.54-1.48,2,2,0,0,0-1.47-.63Zm-.75.79a.76.76,0,0,1,.75-.79V77.49a2.12,2.12,0,0,0-2.11,2.06ZM77.38,80a3.28,3.28,0,0,0,.78,2.25,2.81,2.81,0,0,0,2.16.92V81.83a1.46,1.46,0,0,1-1.15-.46A2,2,0,0,1,78.74,80Zm2.86-3.2a2.71,2.71,0,0,0-2.1.94A3.41,3.41,0,0,0,77.38,80h1.36a2,2,0,0,1,.44-1.37,1.33,1.33,0,0,1,1.06-.47ZM83,79.93a3.18,3.18,0,0,0-.87-2.38,2.68,2.68,0,0,0-1.89-.72v1.36a1.35,1.35,0,0,1,1,.34,1.88,1.88,0,0,1,.45,1.4Zm0,.31v-.31H81.64v.31Zm-4.19.69h3.51V79.56H78.81Zm1.51.23a.78.78,0,0,1-.58-.2,1.06,1.06,0,0,1-.25-.74l-1.37,0a2.46,2.46,0,0,0,.64,1.64,2.14,2.14,0,0,0,1.56.62Zm.57-.31c-.07.18-.21.31-.57.31v1.37a1.88,1.88,0,0,0,1.85-1.2Zm1.54-.22-.72-.2-.37,1.32.72.2ZM80.32,83.2a2.57,2.57,0,0,0,2.58-1.71l-1.31-.4a1.21,1.21,0,0,1-1.27.74Zm1.24-3.6v.68h.69V79.6Zm-2.75,0-.68,0,0,.73h.73Zm3.51.64v.69H83v-.69Zm-3.51,0v-.68H78.1l0,.71Zm2.72.85.18-.66-.6-.17-.22.59Zm.72.2.65.2.21-.67-.68-.19ZM69.16,76.14l1.77,6.45,1.32-.36-1.77-6.45Zm1.46-.87h-.8v1.37h.8Zm2,5.77-1.35-5.25L70,76.13l1.34,5.25Zm-.6-.51H72V81.9H72Zm.71-4.75L71.37,81l1.32.35,1.37-5.26Zm1.54-.51H73.4v1.37h.88Zm2,5.77L75,75.78l-1.33.35L75,81.39Zm-.6-.51h-.06V81.9h.06Zm.69-4.74L75.06,81l1.32.34,1.35-5.25Zm1.45-.52h-.79v1.37h.79Zm-1.1,7.32,1.76-6.45-1.31-.36-1.77,6.45Zm-1.47.5h.81V81.73h-.81Zm-2.08-5.64,1.43,5.14L76,82.23l-1.42-5.14Zm.61.5h.05V76.59h-.05Zm-.77,4.64,1.43-5.14-1.32-.36-1.42,5.14Zm-1.46.5h.8V81.73h-.8ZM69.82,76v-.69h-.89l.23.87Zm.8,0,.66-.17-.13-.52h-.53ZM72,81.21l-.67.17.14.52H72Zm.06,0v.69h.53l.13-.51ZM73.4,76v-.69h-.52l-.14.51Zm.88,0,.67-.18-.14-.51h-.53Zm1.38,5.25-.66.18.13.51h.53Zm.06,0v.69h.53l.13-.52ZM77.07,76v-.69h-.53l-.13.52Zm.79,0,.66.18.24-.87h-.9ZM76.1,82.41v.68h.52l.14-.5Zm-.81,0-.65.18.13.5h.52Zm-1.42-5.14.66-.18-.14-.5h-.52Zm-.05,0v-.68H73.3l-.14.5Zm-1.43,5.14v.68h.52l.14-.5Zm-.8,0-.66.18.14.5h.52Z"/><path class="cls-6" d="M98.92,76h-.78v6.45h.78ZM95.8,76v4.21a1.73,1.73,0,0,1-3.46,0V76h-.78v4.27a2.52,2.52,0,0,0,5,0V76ZM84.28,80c0-1.08.48-1.81,1.39-1.81S87.08,79,87.08,80s-.48,1.85-1.41,1.85S84.28,81.09,84.28,80Zm-.73,2.42h.72v-.74h.09a1.5,1.5,0,0,0,1.41.84c1.21,0,2.06-1,2.06-2.51s-.85-2.49-2.07-2.49a1.47,1.47,0,0,0-1.4.83H84.3V76h-.75ZM78.81,79.6a1.44,1.44,0,0,1,1.43-1.42,1.3,1.3,0,0,1,1.32,1.42Zm1.51,2.91a1.89,1.89,0,0,0,1.93-1.22l-.72-.2a1.19,1.19,0,0,1-1.21.75,1.46,1.46,0,0,1-1.51-1.6h3.51v-.31c0-1.8-1.07-2.42-2.08-2.42A2.25,2.25,0,0,0,78.06,80,2.22,2.22,0,0,0,80.32,82.51Zm-8.73-.1h.8l1.43-5.14h.05l1.42,5.14h.81L77.86,76h-.79l-1.35,5.25h-.06L74.28,76H73.4L72,81.21H72L70.62,76h-.8Z"/><path class="cls-5" d="M75.78,98.51a3,3,0,0,1-1.65-.5A2.94,2.94,0,0,1,73,96.67a3,3,0,0,1,2.17-4,3,3,0,0,1,3.56,2.91,3,3,0,0,1-3,3Zm6.08-9.41c-.17-.17-.35-.33-.53-.48l0,0c-.19-.15-.38-.29-.58-.42L80.54,88l-.26-.15a9.18,9.18,0,0,0-4.85-1.51H75.2a9.24,9.24,0,0,0-9,9.23c0,4.4,6.22,12.25,8.49,15a1.12,1.12,0,0,0,.36.29,1.09,1.09,0,0,0,.91,0,1.12,1.12,0,0,0,.36-.29c2.23-2.71,8.31-10.49,8.31-14.91a9.12,9.12,0,0,0-2.79-6.56Z"/><path class="cls-1" d="M130.59,98.11V95.2h-1.36v2.91Zm-1.42.69h.74V97.43h-.74Zm-.69-5.53v4.84h1.37V93.27Zm1.4-.68h-.71V94h.71Zm.69,1.44v-.76H129.2V94Zm-.62-.68h-.07v1.36H130Zm1.41-.82a2.33,2.33,0,0,0-1.25.32,2,2,0,0,0-.78.89l1.24.57a.66.66,0,0,1,.25-.29,1,1,0,0,1,.54-.13ZM133.68,95a2.62,2.62,0,0,0-.64-1.85,2.25,2.25,0,0,0-1.68-.66v1.36a.89.89,0,0,1,.69.24,1.3,1.3,0,0,1,.26.91Zm0,3.07V95h-1.37v3.07Zm-1.43.69H133V97.43h-.75Zm-.68-3.71v3h1.37v-3Zm-.43-.53a.41.41,0,0,1,.32.1.67.67,0,0,1,.11.43h1.37a1.93,1.93,0,0,0-.48-1.35,1.73,1.73,0,0,0-1.32-.55Zm-.55.64a.69.69,0,0,1,.16-.5.49.49,0,0,1,.39-.14V93.19a1.88,1.88,0,0,0-1.37.56,2,2,0,0,0-.54,1.45Zm-.68,2.91v.69h.68v-.69Zm-.74,0h-.69v.69h.69Zm0-4.84v-.68h-.69v.68Zm.71,0h.69v-.68h-.69Zm0,.76h-.68v.68h.68Zm.07,0v.68h.43l.19-.4ZM133,98.11v.69h.68v-.69Zm-.75,0h-.68v.69h.68Zm-5.65-2.39a1.58,1.58,0,0,1-.22.88.61.61,0,0,1-.54.26v1.37a2,2,0,0,0,1.65-.84,2.83,2.83,0,0,0,.48-1.67Zm-.76-1.16a.6.6,0,0,1,.54.27,1.61,1.61,0,0,1,.22.89H128a2.88,2.88,0,0,0-.48-1.68,2,2,0,0,0-1.65-.85Zm-.77,1.16a1.53,1.53,0,0,1,.23-.89.58.58,0,0,1,.54-.27V93.19a2,2,0,0,0-1.66.85,3,3,0,0,0-.48,1.68Zm.77,1.14a.61.61,0,0,1-.55-.26,1.58,1.58,0,0,1-.22-.88H123.7a2.91,2.91,0,0,0,.48,1.67,2,2,0,0,0,1.66.84ZM123,95.72a3.36,3.36,0,0,0,.78,2.26,2.74,2.74,0,0,0,2.1.92V97.53a1.37,1.37,0,0,1-1.08-.45,2,2,0,0,1-.43-1.36Zm2.88-3.19a2.75,2.75,0,0,0-2.11.92,3.39,3.39,0,0,0-.77,2.27h1.37a2.05,2.05,0,0,1,.43-1.37,1.38,1.38,0,0,1,1.08-.46Zm2.87,3.19a3.39,3.39,0,0,0-.77-2.27,2.71,2.71,0,0,0-2.1-.92v1.36a1.37,1.37,0,0,1,1.07.46,2,2,0,0,1,.44,1.37Zm-2.87,3.18a2.76,2.76,0,0,0,2.1-.92,3.4,3.4,0,0,0,.77-2.26h-1.36a2,2,0,0,1-.44,1.36,1.35,1.35,0,0,1-1.07.45ZM120.93,92a1.2,1.2,0,0,0,1.21,1.19V91.78a.18.18,0,0,1,.1,0,.2.2,0,0,1,.06.14Zm1.21-1.19A1.2,1.2,0,0,0,120.93,92h1.37a.2.2,0,0,1-.06.14.13.13,0,0,1-.1,0ZM123.35,92a1.2,1.2,0,0,0-1.21-1.19v1.37a.14.14,0,0,1-.1,0A.26.26,0,0,1,122,92Zm-1.21,1.19A1.2,1.2,0,0,0,123.35,92H122a.26.26,0,0,1,.05-.14.21.21,0,0,1,.1,0Zm-1.06.12v4.84h1.37V93.27Zm1.43-.68h-.75V94h.75Zm.68,5.52V93.27h-1.37v4.84Zm-1.43.69h.75V97.43h-.75Zm0-5.53v-.68h-.68v.68Zm.75,0h.68v-.68h-.68Zm0,4.84v.69h.68v-.69Zm-.75,0h-.68v.69h.68Zm-3.76,0V95.2h-1.37v2.91Zm-1.43.69h.75V97.43h-.75Zm-.68-5.53v4.84h1.37V93.27Zm1.4-.68h-.72V94h.72ZM118,94v-.76h-1.36V94Zm-.62-.68h-.06v1.36h.06Zm1.42-.82a2.39,2.39,0,0,0-1.26.32,2.08,2.08,0,0,0-.78.89l1.24.57a.67.67,0,0,1,.26-.29,1,1,0,0,1,.54-.13ZM121.09,95a2.62,2.62,0,0,0-.64-1.85,2.27,2.27,0,0,0-1.68-.66v1.36a.89.89,0,0,1,.69.24,1.3,1.3,0,0,1,.26.91Zm0,3.07V95h-1.37v3.07Zm-1.43.69h.74V97.43h-.74ZM119,95.09v3h1.36v-3Zm-.43-.53a.4.4,0,0,1,.31.1.6.6,0,0,1,.12.43h1.36a2,2,0,0,0-.47-1.35,1.75,1.75,0,0,0-1.32-.55Zm-.55.64a.64.64,0,0,1,.16-.5.49.49,0,0,1,.39-.14V93.19a1.86,1.86,0,0,0-1.37.56,2,2,0,0,0-.55,1.45Zm-.68,2.91v.69H118v-.69Zm-.75,0h-.68v.69h.68Zm0-4.84v-.68h-.68v.68Zm.72,0H118v-.68h-.68Zm0,.76h-.68v.68h.68Zm.06,0v.68h.44l.18-.4Zm3.05,4.08v.69h.69v-.69Zm-.74,0H119v.69h.68Zm-5.87-1.75a.51.51,0,0,1-.14.34.79.79,0,0,1-.54.18v1.36a1.92,1.92,0,0,0,2-1.88Zm0-.68v.68h1.36v-.68Zm-.52,1,.74-.11a2.85,2.85,0,0,0,.44-.09,1.09,1.09,0,0,0,.23-.09,1,1,0,0,0,.32-.23l-1-.88a.47.47,0,0,1,.11-.1l0,0h0l-.29.06-.68.09Zm-.5.14s0,0,0,0h0a1,1,0,0,1,.17-.06,2.21,2.21,0,0,1,.32-.07l-.17-1.35a2.71,2.71,0,0,0-1,.32,1.34,1.34,0,0,0-.65,1.18Zm.34.1a.55.55,0,0,1-.33-.07s0,0,0,0,0,0,0,0h-1.36a1.36,1.36,0,0,0,.57,1.13,1.85,1.85,0,0,0,1.13.33Zm-2.45-.14a2.11,2.11,0,0,0,.72,1.62,2.49,2.49,0,0,0,1.62.55V97.54a1.09,1.09,0,0,1-.73-.22.72.72,0,0,1-.24-.58Zm2.48-2.1a4.05,4.05,0,0,0-1.53.42,1.83,1.83,0,0,0-.68.65,2,2,0,0,0-.27,1H112a.53.53,0,0,1,.07-.32.43.43,0,0,1,.18-.17,3,3,0,0,1,1-.26Zm.65.23a.4.4,0,0,1,.12-.27c.08-.08.16-.09.1-.08a1.59,1.59,0,0,1-.3,0l-.57.07.17,1.35.56-.06a3.7,3.7,0,0,0,.48-.08,1.14,1.14,0,0,0,.54-.3,1,1,0,0,0,.26-.68Zm0,0v0h1.36v0Zm-.34-.3a.48.48,0,0,1,.29.06s.05,0,.05.24h1.36a1.64,1.64,0,0,0-.45-1.21,1.71,1.71,0,0,0-1.25-.46Zm-.64.33a.53.53,0,0,1,.19-.22.83.83,0,0,1,.45-.11V93.18a2,2,0,0,0-1.88,1.13Zm-1.56.11.71.25.46-1.29-.71-.25Zm2.17-2.46a2.63,2.63,0,0,0-2.56,1.54l1.25.54a1.29,1.29,0,0,1,1.31-.72Zm2.48,2.39a2.25,2.25,0,0,0-1-2,2.81,2.81,0,0,0-1.5-.38v1.36a1.36,1.36,0,0,1,.76.18c.15.09.35.29.35.85Zm0,3.19V94.92h-1.37v3.19Zm-1.43.69h.74V97.43h-.74Zm-.68-1.34v.65h1.36v-.65Zm.64.68h0V96.77h0Zm-1.43.77a2.2,2.2,0,0,0,2-1.16l-1.23-.59a.86.86,0,0,1-.82.38Zm1.47-3.23h.68V93.79L114,95.24Zm-1.28.28-.09-.68h0Zm0-.65-.08-.67h0Zm-1-.71-.23.64.59.21.26-.57Zm-.71-.26-.62-.27-.29.67.68.25Zm3.73,3.77v.69h.69v-.69Zm-.74,0h-.68v.69h.68Zm0-.65h.68v-.69h-.68Zm0,0v-.69H114l-.18.39Zm-6.15-.6a.51.51,0,0,1-.47-.23,1.58,1.58,0,0,1-.23-.94h-1.37a2.93,2.93,0,0,0,.49,1.74,1.89,1.89,0,0,0,1.58.8Zm.73-1.17a1.6,1.6,0,0,1-.23.92.55.55,0,0,1-.5.25v1.37a1.91,1.91,0,0,0,1.61-.83,2.9,2.9,0,0,0,.49-1.71Zm-.73-1.13a.58.58,0,0,1,.51.24,1.6,1.6,0,0,1,.22.89h1.37A2.93,2.93,0,0,0,109.9,94a2,2,0,0,0-1.62-.81Zm-.7,1.13a1.55,1.55,0,0,1,.22-.91.55.55,0,0,1,.48-.22V93.19a1.89,1.89,0,0,0-1.58.78,2.89,2.89,0,0,0-.49,1.72Zm-2.1-2.42v6.66h1.37V93.27Zm1.4-.68h-.72V94h.72Zm.68,1.45v-.77H106.2V94Zm-.59-.68h-.09v1.36H107Zm1.4-.83a2.17,2.17,0,0,0-1.43.48,2.6,2.6,0,0,0-.54.66l1.14.74a1.6,1.6,0,0,1,.27-.36.84.84,0,0,1,.56-.16Zm2.75,3.18a3.45,3.45,0,0,0-.74-2.26,2.53,2.53,0,0,0-2-.92v1.36a1.22,1.22,0,0,1,1,.43,2.13,2.13,0,0,1,.41,1.39Zm-2.74,3.19a2.56,2.56,0,0,0,2-.93,3.47,3.47,0,0,0,.73-2.26h-1.37a2.15,2.15,0,0,1-.41,1.39,1.21,1.21,0,0,1-1,.43Zm-2-1.17a2.74,2.74,0,0,0,.56.69,2.19,2.19,0,0,0,1.43.48V97.53a.82.82,0,0,1-.56-.17,1.46,1.46,0,0,1-.27-.35Zm.52.32H107V96.69h-.06Zm.68,1.88V97.37h-1.37v2.56Zm-1.43.68h.75V99.25h-.75Zm0-7.34v-.68h-.68v.68Zm.72,0h.68v-.68h-.68Zm0,.77h-.68v.68h.68Zm.09,0v.68h.37l.2-.31Zm0,3.33.58-.36-.2-.32H107Zm-.06,0v-.68h-.69v.68Zm0,2.56v.68h.68v-.68Zm-.75,0h-.68v.68h.68Zm-8.39-6.66v4.84h1.36V93.27Zm1.4-.68h-.72V94h.72ZM99.85,94v-.76H98.49V94Zm-.62-.68h-.06v1.36h.06Zm1.3-.82a2,2,0,0,0-1.93,1.25l1.27.5a.62.62,0,0,1,.66-.39Zm1.92,1.21a2.22,2.22,0,0,0-.75-.89,2.12,2.12,0,0,0-1.17-.32v1.36A.74.74,0,0,1,101,94a.8.8,0,0,1,.25.32Zm-.57-.39h0v1.36h0Zm1.45-.82a2.22,2.22,0,0,0-2.06,1.19l1.22.61a.85.85,0,0,1,.84-.44Zm2.16,2.34a2.44,2.44,0,0,0-.61-1.73,2.06,2.06,0,0,0-1.55-.61v1.36a.76.76,0,0,1,.57.2,1.11,1.11,0,0,1,.22.78Zm0,3.24V94.87h-1.37v3.24Zm-1.43.69h.74V97.43h-.74Zm-.68-3.93v3.24h1.36V94.87Zm-.3-.31a.32.32,0,0,1,.23.06l0,0a.63.63,0,0,1,0,.2h1.36a1.61,1.61,0,0,0-.52-1.27,1.67,1.67,0,0,0-1.14-.41Zm-.39.4a.47.47,0,0,1,.09-.31.45.45,0,0,1,.3-.09V93.19a1.74,1.74,0,0,0-1.29.53,1.8,1.8,0,0,0-.47,1.24Zm0,3.15V95h-1.37v3.15Zm-1.44.69H102V97.43h-.76Zm-.68-4v3.31h1.36V94.8Zm-.28-.24a.33.33,0,0,1,.22.06.26.26,0,0,1,.06.18h1.36a1.55,1.55,0,0,0-.48-1.16,1.66,1.66,0,0,0-1.16-.45Zm-.41.53c0-.37.24-.53.41-.53V93.19a1.84,1.84,0,0,0-1.78,1.9Zm0,3v-3H98.51v3Zm-1.43.69h.74V97.43h-.74Zm0-5.53v-.68h-.68v.68Zm.72,0h.68v-.68h-.68Zm0,.76h-.68v.68h.68Zm.06,0v.68h.47l.17-.43Zm2.6,0-.62.29.18.39h.44Zm0,0v.68h.42l.19-.38Zm2.92,4.08v.69h.69v-.69Zm-.74,0h-.68v.69h.68Zm-2,0v.69h.68v-.69Zm-.76,0h-.68v.69h.68Zm-2.06,0v.69h.69v-.69Zm-.74,0h-.68v.69h.68Zm-2.56-2.39a1.57,1.57,0,0,1-.23.88.6.6,0,0,1-.54.26v1.37a2,2,0,0,0,1.66-.84,2.9,2.9,0,0,0,.47-1.67Zm-.77-1.16a.58.58,0,0,1,.54.27,1.61,1.61,0,0,1,.23.89h1.36A3,3,0,0,0,96.78,94a2,2,0,0,0-1.66-.85Zm-.77,1.16a1.61,1.61,0,0,1,.23-.89.59.59,0,0,1,.54-.27V93.19a2,2,0,0,0-1.66.85A3,3,0,0,0,93,95.72Zm.77,1.14a.6.6,0,0,1-.54-.26,1.57,1.57,0,0,1-.23-.88H93a2.83,2.83,0,0,0,.48,1.67,2,2,0,0,0,1.65.84Zm-2.87-1.14A3.4,3.4,0,0,0,93,98a2.74,2.74,0,0,0,2.1.92V97.53a1.35,1.35,0,0,1-1.07-.45,2,2,0,0,1-.44-1.36Zm2.87-3.19a2.71,2.71,0,0,0-2.1.92,3.34,3.34,0,0,0-.77,2.27h1.36a2,2,0,0,1,.44-1.37,1.36,1.36,0,0,1,1.07-.46ZM98,95.72a3.35,3.35,0,0,0-.78-2.27,2.71,2.71,0,0,0-2.1-.92v1.36a1.4,1.4,0,0,1,1.08.46,2.05,2.05,0,0,1,.43,1.37ZM95.12,98.9a2.74,2.74,0,0,0,2.1-.92A3.36,3.36,0,0,0,98,95.72H96.63a2,2,0,0,1-.43,1.36,1.39,1.39,0,0,1-1.08.45Zm-3.91-4.54H92V93h-.78ZM89.4,93a1.07,1.07,0,0,1,1.14.84l1.34-.29a2.44,2.44,0,0,0-2.48-1.91ZM88,94.89a2.21,2.21,0,0,1,.44-1.48,1.23,1.23,0,0,1,1-.43V91.62a2.6,2.6,0,0,0-2,.9,3.55,3.55,0,0,0-.77,2.37Zm1.41,1.9a1.23,1.23,0,0,1-1-.43A2.18,2.18,0,0,1,88,94.89H86.62a3.53,3.53,0,0,0,.77,2.36,2.6,2.6,0,0,0,2,.9ZM90.54,96a1.07,1.07,0,0,1-1.14.84v1.36a2.44,2.44,0,0,0,2.48-1.91ZM92,95.41h-.78v1.37H92ZM89.4,98.88a3.18,3.18,0,0,0,3.26-2.66L91.32,96a1.83,1.83,0,0,1-1.92,1.55Zm-3.54-4a4.25,4.25,0,0,0,1,2.87,3.32,3.32,0,0,0,2.56,1.12V97.52a2,2,0,0,1-1.54-.66,3,3,0,0,1-.63-2Zm3.54-4A3.32,3.32,0,0,0,86.84,92a4.26,4.26,0,0,0-1,2.88h1.37a3,3,0,0,1,.63-2,2,2,0,0,1,1.54-.66Zm3.26,2.66a3.18,3.18,0,0,0-3.26-2.66v1.36a1.83,1.83,0,0,1,1.92,1.55Zm-1.45.13-.67.14.12.54h.55Zm0,2.42v-.69h-.55l-.12.54Zm.78,0,.67.12.15-.81H92Zm0-2.42v.68h.82l-.15-.81Z"/><path class="cls-6" d="M129.91,95.2a1.2,1.2,0,0,1,1.23-1.32,1.07,1.07,0,0,1,1.11,1.21v3H133V95c0-1.24-.66-1.83-1.64-1.83A1.42,1.42,0,0,0,130,94h-.07v-.76h-.71v4.84h.74Zm-4.07,2.35c-1,0-1.45-.86-1.45-1.83s.45-1.84,1.45-1.84,1.45.87,1.45,1.84S126.83,97.55,125.84,97.55Zm0,.66a2.52,2.52,0,1,0-2.2-2.49A2.22,2.22,0,0,0,125.84,98.21Zm-3.7-5.74a.52.52,0,0,0,.53-.51.53.53,0,0,0-1.06,0A.52.52,0,0,0,122.14,92.47Zm-.38,5.64h.75V93.27h-.75Zm-4.44-2.91a1.2,1.2,0,0,1,1.23-1.32,1.07,1.07,0,0,1,1.11,1.21v3h.74V95c0-1.24-.65-1.83-1.63-1.83a1.44,1.44,0,0,0-1.42.82h-.06v-.76h-.72v4.84h.75Zm-4.21,2.36c-.59,0-1-.27-1-.78s.52-.75,1.1-.82a3.92,3.92,0,0,0,1.28-.28v.68A1.24,1.24,0,0,1,113.11,97.56Zm-.11.67a1.52,1.52,0,0,0,1.43-.77h0v.65h.74V94.92a1.59,1.59,0,0,0-1.79-1.71,2,2,0,0,0-1.94,1.13l.71.26a1.3,1.3,0,0,1,1.26-.74.91.91,0,0,1,1,1v0c0,.36-.36.33-1.25.44s-1.88.32-1.88,1.43A1.51,1.51,0,0,0,113,98.23Zm-6.11-2.54c0-1.08.48-1.81,1.39-1.81s1.41.79,1.41,1.81-.48,1.86-1.41,1.86S106.89,96.79,106.89,95.69Zm-.73,4.24h.75V97.37H107a1.5,1.5,0,0,0,1.41.84c1.21,0,2.06-1,2.06-2.5s-.85-2.5-2.07-2.5A1.47,1.47,0,0,0,107,94h-.09v-.77h-.72Zm-7.71-1.82h.74v-3a1.15,1.15,0,0,1,1.1-1.21.9.9,0,0,1,1,.92v3.31H102V95a1,1,0,0,1,1.07-1.08.9.9,0,0,1,1,1v3.24h.74V94.87c0-1.13-.61-1.66-1.47-1.66a1.54,1.54,0,0,0-1.45.82h0a1.33,1.33,0,0,0-1.3-.82,1.3,1.3,0,0,0-1.3.82h-.06v-.76h-.72Zm-3.33-.56c-1,0-1.45-.86-1.45-1.83s.46-1.84,1.45-1.84,1.45.87,1.45,1.84S96.12,97.55,95.12,97.55Zm0,.66a2.52,2.52,0,1,0-2.19-2.49A2.22,2.22,0,0,0,95.12,98.21ZM92,93.68a2.51,2.51,0,0,0-2.59-2.11c-1.66,0-2.85,1.27-2.85,3.32s1.19,3.31,2.85,3.31A2.51,2.51,0,0,0,92,96.1h-.78a1.76,1.76,0,0,1-1.81,1.37c-1.18,0-2.1-.91-2.1-2.58s.92-2.59,2.1-2.59a1.76,1.76,0,0,1,1.81,1.38Z"/></g></g></svg>