<svg xmlns="http://www.w3.org/2000/svg" viewBox="0 0 411.65 417.8"><defs><style>.cls-1{fill:#fff;}.cls-2{fill:#808492;}.cls-3{fill:#b7bbc8;}.cls-4{fill:#6bc4cd;}.cls-5{fill:#398186;}.cls-6{fill:#010101;}</style></defs><g id="Layer_2" data-name="Layer 2"><g id="Layer_1-2" data-name="Layer 1"><rect class="cls-1" x="2.05" y="8.19" width="409.61" height="409.61"/><path class="cls-2" d="M52.4,411.19l1.5-1.72H47.76v-.55h6.13L52.4,407.2H53l1.77,2-1.77,2Zm-13.1-2.82A1.24,1.24,0,0,0,38,409.44h2.54a1.2,1.2,0,0,0-.42-.77A1.24,1.24,0,0,0,39.3,408.37ZM42,409.91s0,.15,0,.4H38a1.24,1.24,0,0,0,.5.76,1.69,1.69,0,0,0,1,.27,2.14,2.14,0,0,0,.7-.11,1.8,1.8,0,0,0,.59-.38l.79.86a2.67,2.67,0,0,1-2.12.83,3.3,3.3,0,0,1-1.54-.34,2.48,2.48,0,0,1-1-.94,2.54,2.54,0,0,1-.37-1.37,2.61,2.61,0,0,1,.36-1.36,2.53,2.53,0,0,1,1-.94,2.89,2.89,0,0,1,1.41-.35,2.79,2.79,0,0,1,1.36.33,2.32,2.32,0,0,1,1,.93A2.81,2.81,0,0,1,42,409.91Zm-8.53-2.67a2,2,0,0,1,1.53.58,2.28,2.28,0,0,1,.57,1.7v2.94H34v-2.71a1.32,1.32,0,0,0-.26-.91.87.87,0,0,0-.71-.31,1.05,1.05,0,0,0-.83.35,1.39,1.39,0,0,0-.31,1v2.58H30.44v-2.71c0-.81-.33-1.22-1-1.22a1.06,1.06,0,0,0-.82.35,1.44,1.44,0,0,0-.3,1v2.58H26.85v-5.14h1.42v.59a1.85,1.85,0,0,1,.7-.49,2.36,2.36,0,0,1,1.9,0,1.77,1.77,0,0,1,.71.62,2.21,2.21,0,0,1,.79-.62A2.64,2.64,0,0,1,33.43,407.24Zm-8.71-.64a.93.93,0,0,1-.67-.24.77.77,0,0,1-.26-.59.79.79,0,0,1,.26-.59.93.93,0,0,1,.67-.24,1,1,0,0,1,.67.23.72.72,0,0,1,.25.57.81.81,0,0,1-.25.62A1,1,0,0,1,24.72,406.6Zm-.75.72h1.49v5.14H24Zm-4.3-.29H17.52v-1.26h5.84V407H21.21v5.43H19.67Z"/><path class="cls-2" d="M8.66,410.81l1.72,1.5v-6.15h.55v6.14l1.71-1.49v.64l-2,1.77-2-1.77Zm2.81-10.61a1.28,1.28,0,0,0-.28-.85,1.2,1.2,0,0,0-.79-.42v2.53a1.2,1.2,0,0,0,.78-.42A1.23,1.23,0,0,0,11.47,400.2Zm-1.53,2.67-.41,0V399a1.22,1.22,0,0,0-.75.5,1.59,1.59,0,0,0-.28,1,1.92,1.92,0,0,0,.12.71,1.76,1.76,0,0,0,.38.58l-.86.8a2.67,2.67,0,0,1-.83-2.13,3.38,3.38,0,0,1,.33-1.53,2.59,2.59,0,0,1,1-1,2.62,2.62,0,0,1,1.37-.36,2.66,2.66,0,0,1,1.35.35,2.51,2.51,0,0,1,.95,1,2.87,2.87,0,0,1,.34,1.4,2.94,2.94,0,0,1-.32,1.37,2.35,2.35,0,0,1-.94,1A2.77,2.77,0,0,1,9.94,402.87Zm-2.63-8.39a5.28,5.28,0,0,1,.15-1.25,3.29,3.29,0,0,1,.4-1l1.07.49a3.66,3.66,0,0,0-.36.84,3.51,3.51,0,0,0-.13,1c0,.63.15.95.46.95a.33.33,0,0,0,.32-.26,3.82,3.82,0,0,0,.16-.79,9.88,9.88,0,0,1,.22-1.05,1.61,1.61,0,0,1,.44-.71,1.25,1.25,0,0,1,.9-.3,1.39,1.39,0,0,1,.86.28,1.83,1.83,0,0,1,.59.82,3.54,3.54,0,0,1,.21,1.28,5,5,0,0,1-.12,1.08,3.14,3.14,0,0,1-.33.9l-1.06-.5a2.89,2.89,0,0,0,.38-1.48,1.52,1.52,0,0,0-.13-.72.4.4,0,0,0-.34-.23.35.35,0,0,0-.34.25,5.51,5.51,0,0,0-.18.83,8.66,8.66,0,0,1-.23,1,1.47,1.47,0,0,1-.43.7,1.26,1.26,0,0,1-.88.29,1.36,1.36,0,0,1-.85-.28,1.92,1.92,0,0,1-.58-.85A3.59,3.59,0,0,1,7.31,394.48Zm5.93-3.85a.93.93,0,0,1,.24-.67.81.81,0,0,1,1.19,0,.93.93,0,0,1,.24.67,1,1,0,0,1-.23.66.73.73,0,0,1-.58.26.8.8,0,0,1-.62-.26A.92.92,0,0,1,13.24,390.63Zm-.71-.75v1.49H7.38v-1.49ZM7.63,389a1.59,1.59,0,0,1-.25-.54,2.87,2.87,0,0,1-.07-.67,2,2,0,0,1,.47-1.42,1.76,1.76,0,0,1,1.37-.5h2.11v-.8h1.15v.8h1.25v1.49H12.41v1.28H11.26V387.4H9.17a.7.7,0,0,0-.5.16.65.65,0,0,0-.18.48,1,1,0,0,0,.19.6Zm4.22-6.15a1.68,1.68,0,0,1,.56.72,2.69,2.69,0,0,1,.19,1.05H11.23c0-.16,0-.27,0-.33a1.39,1.39,0,0,0-.37-1A1.43,1.43,0,0,0,9.81,383H7.38v-1.49h5.15v1.42Zm-.38-5.08a1.28,1.28,0,0,0-.28-.85,1.2,1.2,0,0,0-.79-.42v2.53a1.2,1.2,0,0,0,.78-.42A1.23,1.23,0,0,0,11.47,377.81Zm-1.53,2.67-.41,0v-3.89a1.22,1.22,0,0,0-.75.5,1.59,1.59,0,0,0-.28,1,2,2,0,0,0,.12.71,1.76,1.76,0,0,0,.38.58l-.86.79A2.64,2.64,0,0,1,7.31,378a3.45,3.45,0,0,1,.33-1.54,2.56,2.56,0,0,1,1-1,2.62,2.62,0,0,1,1.37-.36,2.66,2.66,0,0,1,1.35.35,2.45,2.45,0,0,1,.95,1,2.87,2.87,0,0,1,.34,1.4,2.94,2.94,0,0,1-.32,1.37,2.32,2.32,0,0,1-.94.95A2.68,2.68,0,0,1,9.94,380.48Zm-1.41-8.86a1.24,1.24,0,0,0,.38.94,1.45,1.45,0,0,0,1.05.37,1.42,1.42,0,0,0,1-.37,1.21,1.21,0,0,0,.39-.94,1.24,1.24,0,0,0-.39-.94,1.46,1.46,0,0,0-1-.37,1.49,1.49,0,0,0-1.05.37A1.27,1.27,0,0,0,8.53,371.62Zm4.07.26a2.59,2.59,0,0,1-.33,1.3,2.31,2.31,0,0,1-.93.93,2.79,2.79,0,0,1-1.38.33,2.87,2.87,0,0,1-1.4-.33,2.38,2.38,0,0,1-.93-.93,2.69,2.69,0,0,1-.32-1.3,2,2,0,0,1,.62-1.55H5.53v-1.49h7v1.43h-.6A2,2,0,0,1,12.6,371.88Zm-5.22-5.45L9,365.3l-1.58-1.17v-1.62l2.59,2,2.56-1.91v1.67L11,365.34l1.5,1.12V368L10,366.13l-2.63,2Zm1.25-4.33H7.38v-5.18h6.69V362H12.83v-3.51H11.38v3.1h-1.2v-3.1H8.63Z"/><rect class="cls-2" y="212.31" width="409.61" height="0.68"/><rect class="cls-2" x="204.8" y="8.19" width="0.68" height="409.61"/><path class="cls-3" d="M27.31,27.14a3,3,0,0,1-2.75-1.83,3,3,0,0,1-.17-1.71,3,3,0,0,1,2.34-2.33,3,3,0,0,1,3.06,1.26,3,3,0,0,1,.5,1.65,2.93,2.93,0,0,1-.23,1.13,2.89,2.89,0,0,1-1.61,1.61A2.79,2.79,0,0,1,27.31,27.14Zm6.08-9.41-.53-.48,0,0-.58-.43-.16-.11a2.26,2.26,0,0,0-.26-.16A9.26,9.26,0,0,0,27,15h-.23a9.22,9.22,0,0,0-9,9.22c0,4.41,6.22,12.26,8.49,15a1,1,0,0,0,.36.28,1,1,0,0,0,.45.11,1.07,1.07,0,0,0,.46-.11,1,1,0,0,0,.36-.28c2.23-2.71,8.31-10.49,8.31-14.91a9.16,9.16,0,0,0-2.79-6.57Z"/><path class="cls-3" d="M97.19,20.3h-.75v6.45h.75Zm-8.46,6.45h.74v-3a1.15,1.15,0,0,1,1.1-1.21.9.9,0,0,1,1,.92v3.32h.75V23.6a1,1,0,0,1,1.08-1.09.91.91,0,0,1,1,1v3.24h.74V23.51c0-1.14-.61-1.66-1.47-1.66a1.51,1.51,0,0,0-1.45.82h0a1.33,1.33,0,0,0-1.3-.82,1.3,1.3,0,0,0-1.3.82h-.06v-.76h-.72Zm-1.12-4.84h-1V20.75h-.75v1.16H85.1v.63h.73v3a1.24,1.24,0,0,0,1.31,1.25,1.51,1.51,0,0,0,.56-.09l-.15-.66a1.94,1.94,0,0,1-.33,0c-.33,0-.64-.1-.64-.73V22.54h1ZM81,23.84a1.21,1.21,0,0,1,1.27-1.33,1.07,1.07,0,0,1,1.12,1.21v3h.74V23.67c0-1.24-.66-1.82-1.65-1.82a1.39,1.39,0,0,0-1.42.82H81V20.3h-.75v6.45H81ZM79,23.64H76.13v.69H79Zm-6.81-1.73h-.86l1.54,2.42-1.54,2.42h.86l1.16-1.88,1.16,1.88h.86l-1.57-2.42,1.57-2.42h-.86l-1.16,2Zm-5.07,2a1.45,1.45,0,0,1,1.43-1.43,1.32,1.32,0,0,1,1.33,1.43Zm1.51,2.91a1.89,1.89,0,0,0,1.93-1.22l-.72-.2a1.19,1.19,0,0,1-1.21.75,1.47,1.47,0,0,1-1.51-1.6h3.51v-.31c0-1.81-1.07-2.42-2.08-2.42a2.25,2.25,0,0,0-2.18,2.52A2.23,2.23,0,0,0,68.58,26.85ZM63,26.18c-.94,0-1.41-.82-1.41-1.85S62,22.51,63,22.51s1.38.73,1.38,1.82S63.86,26.18,63,26.18Zm-.1.67A1.51,1.51,0,0,0,64.28,26h.09v.74h.72V20.3h-.75v2.38h-.06a1.49,1.49,0,0,0-1.4-.83c-1.22,0-2.07,1-2.07,2.49S61.66,26.85,62.87,26.85Zm-6.28-3a1.2,1.2,0,0,1,1.24-1.33,1.07,1.07,0,0,1,1.11,1.21v3h.74V23.67c0-1.23-.66-1.82-1.64-1.82a1.42,1.42,0,0,0-1.41.82h-.06v-.76h-.72v4.84h.74ZM54.12,21.1a.51.51,0,0,0,.53-.5.53.53,0,0,0-1.06,0A.51.51,0,0,0,54.12,21.1Zm-.38,5.65h.74V21.91h-.74Zm-1.31-3.11H49.61v.69h2.82Zm-5.72,3.11h.75V23.69a1.14,1.14,0,0,1,1.22-1.14,2.43,2.43,0,0,1,.45.05v-.75l-.39,0a1.32,1.32,0,0,0-1.26.81h0v-.73h-.72ZM45,21.1a.51.51,0,0,0,.53-.5.52.52,0,0,0-.53-.51.51.51,0,0,0-.52.51A.51.51,0,0,0,45,21.1Zm-.37,5.65h.74V21.91h-.74Zm-5.5-.69V21h1.25c1.51,0,2.28,1,2.28,2.52s-.77,2.55-2.37,2.55Zm1.21.69c2,0,3.08-1.22,3.08-3.24s-1.11-3.21-3-3.21H38.33v6.45Z"/><path class="cls-3" d="M10.92,12.13a3,3,0,0,1-1.65-.51A3,3,0,0,1,8,8.58a3,3,0,0,1,.81-1.52,3,3,0,0,1,3.25-.64A2.9,2.9,0,0,1,13.4,7.51,2.94,2.94,0,0,1,13,11.26a3,3,0,0,1-1,.64A2.94,2.94,0,0,1,10.92,12.13ZM17,2.71c-.16-.16-.34-.32-.53-.48l0,0c-.18-.15-.37-.29-.57-.43l-.17-.11-.25-.16A9.33,9.33,0,0,0,10.57,0h-.22a9.22,9.22,0,0,0-9,9.22c0,4.41,6.22,12.26,8.48,15a1,1,0,0,0,.37.28,1,1,0,0,0,.9,0,1,1,0,0,0,.37-.28C13.71,21.48,19.8,13.7,19.8,9.28a9.12,9.12,0,0,0-.73-3.57A9,9,0,0,0,17,2.71Z"/><path class="cls-3" d="M43.51,11.16c-1,0-1.45-.85-1.45-1.82s.45-1.85,1.45-1.85S45,8.36,45,9.34,44.51,11.16,43.51,11.16Zm0,.67A2.22,2.22,0,0,0,45.7,9.34a2.21,2.21,0,1,0-4.38,0A2.22,2.22,0,0,0,43.51,11.83ZM39.82,6.08a.51.51,0,0,0,.52-.5.51.51,0,0,0-.52-.51.52.52,0,0,0-.53.51A.51.51,0,0,0,39.82,6.08Zm-.38,5.65h.74V6.89h-.74Zm-1.91,0a.57.57,0,1,0-.56-.57A.56.56,0,0,0,37.53,11.78ZM35.79,8a1.64,1.64,0,0,0-1.72-1.14c-1,0-1.78.58-1.78,1.4,0,.66.4,1.11,1.29,1.32l.81.19c.48.11.71.35.71.68s-.44.76-1.13.76a1,1,0,0,1-1.12-.79l-.71.18A1.67,1.67,0,0,0,34,11.83c1.13,0,1.89-.61,1.89-1.45,0-.67-.42-1.1-1.28-1.31l-.72-.18c-.57-.14-.83-.33-.83-.7s.44-.72,1-.72a1,1,0,0,1,1,.69ZM31.51,6.89H30.43V6.4c0-.48.2-.73.69-.73a1.34,1.34,0,0,1,.42.07l.21-.64a1.69,1.69,0,0,0-.7-.13,1.25,1.25,0,0,0-1.36,1.25v.67H28.9v.63h.79v4.21h.74V7.52h1.08ZM24.68,9.31c0-1.08.48-1.82,1.39-1.82s1.41.8,1.41,1.82-.48,1.85-1.41,1.85S24.68,10.41,24.68,9.31ZM24,13.55h.74V11h.07a1.5,1.5,0,0,0,1.41.84c1.21,0,2-1,2-2.51s-.84-2.49-2.06-2.49a1.47,1.47,0,0,0-1.4.83h-.09V6.89H24ZM22.22,6.08a.51.51,0,0,0,.53-.5.53.53,0,0,0-1.06,0A.51.51,0,0,0,22.22,6.08Zm-.38,5.65h.75V6.89h-.75Z"/><path class="cls-3" d="M15.56,48.62a3,3,0,0,1-2.75-1.84,3,3,0,0,1-.17-1.71A3,3,0,0,1,15,42.74a3.06,3.06,0,0,1,1.72.17A2.92,2.92,0,0,1,18,44a3,3,0,0,1,.5,1.65,3,3,0,0,1-.23,1.14,3.1,3.1,0,0,1-.64,1,3.15,3.15,0,0,1-1,.64A3,3,0,0,1,15.56,48.62Zm6.08-9.42-.53-.47-.05,0-.58-.43-.16-.11c-.08-.06-.17-.1-.26-.16a9.26,9.26,0,0,0-4.85-1.5H15a9.22,9.22,0,0,0-9,9.23c0,4.4,6.22,12.25,8.49,15a1,1,0,0,0,.36.28,1,1,0,0,0,.91,0,1,1,0,0,0,.36-.28c2.23-2.71,8.31-10.49,8.31-14.91a9.12,9.12,0,0,0-.73-3.57A9.35,9.35,0,0,0,21.64,39.2Z"/><path class="cls-3" d="M74.81,47.65c-1,0-1.45-.85-1.45-1.82S73.82,44,74.81,44s1.45.87,1.45,1.84S75.81,47.65,74.81,47.65Zm0,.67A2.23,2.23,0,0,0,77,45.83a2.21,2.21,0,1,0-4.39,0A2.22,2.22,0,0,0,74.81,48.32Zm-3.69-5.75a.5.5,0,1,0-.53-.5A.51.51,0,0,0,71.12,42.57Zm-.38,5.65h.74V43.38h-.74Zm-1.9.05a.57.57,0,1,0-.57-.57A.57.57,0,0,0,68.84,48.27Zm-1.75-3.81a1.64,1.64,0,0,0-1.72-1.14c-1,0-1.77.58-1.77,1.4,0,.66.39,1.11,1.28,1.32l.81.19c.49.11.72.35.72.68s-.44.76-1.14.76a1,1,0,0,1-1.12-.79l-.71.18a1.68,1.68,0,0,0,1.85,1.26c1.12,0,1.89-.61,1.89-1.45,0-.67-.43-1.1-1.29-1.31l-.72-.18c-.57-.14-.83-.33-.83-.7s.44-.72,1-.72a1,1,0,0,1,1,.69Zm-4.27-1.08H61.73v-.49c0-.48.2-.73.7-.73a1.26,1.26,0,0,1,.41.07l.22-.64a1.75,1.75,0,0,0-.71-.13A1.26,1.26,0,0,0,61,42.71v.67h-.78V44H61v4.21h.74V44h1.09ZM56,45.8c0-1.08.48-1.81,1.39-1.81s1.41.79,1.41,1.81-.48,1.85-1.41,1.85S56,46.9,56,45.8ZM55.25,50H56V47.48h.06a1.5,1.5,0,0,0,1.41.84c1.21,0,2.06-1,2.06-2.51s-.85-2.49-2.07-2.49a1.47,1.47,0,0,0-1.4.83H56v-.77h-.72Zm-1.73-7.47a.5.5,0,1,0-.53-.5A.51.51,0,0,0,53.52,42.57Zm-.37,5.65h.74V43.38h-.74Zm-1.91.05a.57.57,0,1,0-.56-.57A.56.56,0,0,0,51.24,48.27Zm-5.18-2.86A1.44,1.44,0,0,1,47.49,44a1.3,1.3,0,0,1,1.32,1.42Zm1.51,2.91A1.89,1.89,0,0,0,49.5,47.1l-.72-.2a1.19,1.19,0,0,1-1.21.75,1.46,1.46,0,0,1-1.51-1.6h3.51v-.31c0-1.8-1.07-2.42-2.08-2.42a2.25,2.25,0,0,0-2.18,2.52A2.22,2.22,0,0,0,47.57,48.32Zm-5.19-.1h.75V45.16A1.14,1.14,0,0,1,44.35,44a2.43,2.43,0,0,1,.45,0v-.75l-.39,0a1.32,1.32,0,0,0-1.26.81h0v-.73h-.72Zm-3.46-.55c-.59,0-1-.27-1-.79s.52-.74,1.09-.81a3.92,3.92,0,0,0,1.29-.28v.68A1.25,1.25,0,0,1,38.92,47.67Zm-.11.66a1.52,1.52,0,0,0,1.43-.76h0v.65H41V45a1.58,1.58,0,0,0-1.79-1.71,2,2,0,0,0-1.94,1.13l.71.25A1.31,1.31,0,0,1,39.26,44a.91.91,0,0,1,1,1v0c0,.36-.36.33-1.25.44s-1.88.32-1.88,1.43A1.5,1.5,0,0,0,38.81,48.33Zm-5.93-3A1.21,1.21,0,0,1,34.15,44a1.07,1.07,0,0,1,1.13,1.21v3H36V45.15c0-1.25-.66-1.83-1.65-1.83a1.42,1.42,0,0,0-1.43.82h-.06V41.77h-.74v6.45h.74Zm-2.77-1.93h.76a2,2,0,0,0-2.19-1.7,2,2,0,0,0-2.2,1.8c0,.87.63,1.39,1.64,1.68l.79.22c.68.19,1.29.43,1.29,1.08s-.68,1.17-1.58,1.17-1.45-.34-1.51-1.07H26.3c.08,1.06.93,1.77,2.32,1.77S31,47.52,31,46.47c0-1.21-1.14-1.6-1.81-1.78l-.66-.17c-.48-.13-1.25-.38-1.25-1.08s.57-1.07,1.43-1.07S30,42.74,30.11,43.38Z"/><path class="cls-4" d="M405.06,258.71l1.67.33.27-1.34-1.67-.33Zm-4.66-.94,3.33.67.27-1.34-3.33-.67Zm-4.67-.94,3.33.67.27-1.34-3.33-.67Zm-4.67-.93,3.34.67.27-1.34-3.34-.67ZM386.4,255l3.33.67.27-1.34-3.33-.67Zm-4.67-.94,3.33.67.27-1.34-3.33-.67Zm-4.67-.94,3.34.67.27-1.34-3.34-.67Zm-4.66-.93,3.33.67.27-1.34-3.33-.67Zm-4.67-.94,3.33.67.27-1.34-3.33-.67Zm-4.67-.94,3.34.67.27-1.34-3.34-.67Zm-4.66-.94,3.33.67.27-1.34-3.33-.66Zm-4.67-.93,3.33.67.27-1.34-3.33-.67Zm-4.67-.94,3.34.67.27-1.34-3.34-.67Zm-4.66-.94,3.33.67.27-1.34-3.33-.67Zm-4.67-.94,3.33.67.27-1.33-3.33-.67Zm-4.67-.93,3.34.67.27-1.34-3.34-.67Zm-4.66-.94,3.33.67L334,243l-3.33-.67Zm-4.67-.94,3.33.67.27-1.34-3.33-.67Zm-4.67-.94,3.34.67.27-1.33-3.34-.67Zm-4.66-.93,3.33.67.27-1.34-3.33-.67Zm-4.67-.94,3.33.67.27-1.34-3.33-.67Zm-4.67-.94,3.34.67.27-1.34-3.34-.67Zm-4.66-.94,3.33.67.27-1.33-3.33-.67Zm-4.67-.93,3.33.67.27-1.34-3.33-.67Zm-4.67-.94,3.34.67.27-1.34-3.34-.67Zm-4.66-.94,3.33.67.27-1.34-3.33-.67Zm-4.67-.93,3.33.66.27-1.33L284,233Zm-4.67-.94,3.34.67.27-1.34-3.34-.67Zm-4.66-.94,3.33.67.27-1.34-3.33-.67Zm-4.67-.94,3.33.67.27-1.34-3.33-.67Zm-4.67-.93,3.34.67.27-1.34-3.34-.67Zm-4.66-.94,3.33.67L264,229l-3.33-.67Zm-4.67-.94,3.33.67.27-1.34-3.33-.67Zm-4.67-.94,3.34.67.27-1.34-3.34-.67Zm-4.66-.93,3.33.67.27-1.34-3.33-.67Zm-4.67-.94,3.33.67.27-1.34-3.33-.67Zm-4.67-.94,3.34.67.27-1.34-3.34-.67ZM232.4,224l3.33.67.27-1.34-3.33-.66Zm-4.67-.93,3.33.67.27-1.34-3.33-.67Zm-4.67-.94,3.34.67.27-1.34-3.34-.67Zm-4.66-.94,3.33.67.27-1.34-3.33-.67Zm-4.67-.94,3.33.67.27-1.33-3.33-.67Zm-4.67-.93,3.34.67.27-1.34-3.34-.67Zm-4.66-.94,3.33.67.27-1.34-3.33-.67Zm-4.67-.94,3.33.67.27-1.34-3.33-.67Zm-4.67-.94,3.34.67.27-1.33-3.34-.67Zm-4.66-.93,3.33.67.27-1.34-3.33-.67Zm-4.67-.94,3.33.67.27-1.34-3.33-.67Zm-4.67-.94,3.34.67.27-1.34-3.34-.67Zm-4.66-.94,3.33.67.27-1.33-3.33-.67Zm-4.67-.93,3.33.67.27-1.34L172,210.5Zm-4.67-.94,3.34.67.27-1.34-3.34-.67ZM162.4,210l3.33.67.27-1.34-3.33-.67Zm-4.67-.93,3.33.67.27-1.34-3.33-.67Zm-4.67-.94,3.34.67.27-1.34-3.34-.67Zm-4.66-.94,3.33.67.27-1.34-3.33-.67Zm-4.67-.94,3.33.67.27-1.34-3.33-.67Zm-4.67-.93,3.34.67.27-1.34-3.34-.67Zm-4.66-.94,3.33.67.27-1.34-3.33-.67Zm-4.67-.94,3.33.67.27-1.34-3.33-.67Zm-4.67-.94,3.34.67.27-1.34-3.34-.67Zm-4.66-.93,3.33.67.27-1.34-3.33-.67Zm-4.67-.94,3.33.67.27-1.34-3.33-.67Zm-4.67-.94,3.34.67.27-1.34-3.34-.67Zm-4.66-.94,3.33.67L110,198l-3.33-.66Zm-4.67-.93,3.33.67.27-1.34-3.33-.67Zm-4.67-.94,3.34.67.27-1.34-3.34-.67Zm-3-.6,1.67.33.27-1.34-1.67-.33Z"/><path class="cls-4" d="M405,177.7l1.7.1.08-1.36-1.69-.1Zm-4.76-.29,3.4.21.09-1.37-3.4-.21Zm-4.75-.3,3.4.21L399,176l-3.4-.21Zm-4.76-.29,3.4.21.08-1.36-3.4-.21Zm-4.76-.29,3.4.21.09-1.36-3.4-.21Zm-4.75-.29,3.39.21.09-1.37-3.4-.21Zm-4.76-.3,3.4.21.08-1.36-3.4-.21Zm-4.76-.29,3.4.21.08-1.36-3.39-.21Zm-4.75-.29,3.39.21.09-1.36-3.4-.21Zm-4.76-.29,3.4.21.08-1.37-3.4-.21Zm-4.76-.3,3.4.21.08-1.36-3.4-.21Zm-4.76-.29,3.4.21.09-1.36-3.4-.21Zm-4.75-.29,3.39.21.09-1.37-3.4-.2Zm-4.76-.29,3.4.21.08-1.37-3.4-.21Zm-4.76-.3,3.4.21.08-1.36-3.39-.21Zm-4.75-.29,3.39.21.09-1.36-3.4-.21Zm-4.76-.29,3.4.21.08-1.37-3.4-.2Zm-4.76-.29,3.4.2.08-1.36-3.39-.21Zm-4.76-.3,3.4.21.09-1.36-3.4-.21Zm-4.75-.29,3.4.21.08-1.36-3.4-.21Zm-4.76-.29,3.4.21.08-1.37-3.4-.2Zm-4.76-.29,3.4.2.09-1.36-3.4-.21Zm-4.75-.3,3.39.21.09-1.36-3.4-.21Zm-4.76-.29,3.4.21.08-1.36-3.4-.21Zm-4.76-.29,3.4.21.08-1.37-3.39-.2Zm-4.75-.29,3.39.2.09-1.36-3.4-.21Zm-4.76-.3,3.4.21.08-1.36-3.4-.21Zm-4.76-.29,3.4.21.08-1.36-3.4-.21Zm-4.76-.29,3.4.21.09-1.37-3.4-.21Zm-4.75-.29,3.39.2.09-1.36-3.4-.21Zm-4.76-.3,3.4.21.08-1.36-3.4-.21Zm-4.76-.29,3.4.21.08-1.36-3.39-.21Zm-4.75-.29,3.39.21.09-1.37-3.4-.21Zm-4.76-.3,3.4.21.08-1.36-3.4-.21Zm-4.76-.29,3.4.21.08-1.36-3.39-.21Zm-4.76-.29,3.4.21.09-1.36-3.4-.21Zm-4.75-.29,3.4.21.08-1.37-3.4-.21Zm-4.76-.3,3.4.21.08-1.36-3.4-.21Zm-4.76-.29,3.4.21.09-1.36-3.4-.21Zm-4.75-.29,3.39.21.09-1.36-3.4-.21Zm-4.76-.29,3.4.21.08-1.37-3.4-.21Zm-4.76-.3,3.4.21.08-1.36-3.39-.21Zm-4.75-.29,3.39.21.09-1.36-3.4-.21Zm-4.76-.29,3.4.21L204,164l-3.4-.21Zm-4.76-.29,3.4.21.08-1.37-3.39-.21Zm-4.76-.3,3.4.21.09-1.36-3.4-.21Zm-4.75-.29,3.4.21.08-1.36-3.4-.21Zm-4.76-.29,3.4.21.08-1.37-3.4-.2Zm-4.76-.29,3.4.21.08-1.37-3.39-.21Zm-4.75-.3,3.39.21.09-1.36L172,162Zm-4.76-.29,3.4.21.08-1.36-3.4-.21Zm-4.76-.29,3.4.21.08-1.37-3.39-.2Zm-4.76-.29,3.4.2.09-1.36-3.4-.21Zm-4.75-.3,3.4.21.08-1.36-3.4-.21Zm-4.76-.29,3.4.21.08-1.36-3.4-.21Zm-4.76-.29,3.4.21.09-1.37-3.4-.2Zm-4.75-.29,3.39.2.09-1.36-3.4-.21Zm-4.76-.3,3.4.21.08-1.36-3.4-.21Zm-4.76-.29,3.4.21.08-1.36-3.39-.21Zm-4.75-.29,3.39.21.09-1.37-3.4-.2Zm-4.76-.29,3.4.2.08-1.36-3.4-.21Zm-4.76-.3,3.4.21.08-1.36-3.39-.21Zm-4.76-.29,3.4.21.09-1.36-3.4-.21Zm-3-.19,1.7.11.08-1.37-1.7-.1Z"/><path class="cls-4" d="M405,159.43l1.69.1.08-1.37-1.69-.1Zm-4.75-.28,3.39.2.08-1.37-3.39-.19Zm-4.75-.28,3.39.2.08-1.36-3.39-.2Zm-4.75-.28,3.39.2.08-1.36-3.39-.2Zm-4.75-.27,3.4.19.08-1.36-3.4-.2Zm-4.74-.28,3.39.2.08-1.37-3.39-.19Zm-4.75-.28,3.39.2.08-1.36-3.39-.2Zm-4.75-.28,3.39.2.08-1.36-3.39-.2Zm-4.75-.27,3.39.2.08-1.37-3.39-.2Zm-4.75-.28,3.4.2.08-1.37-3.4-.19Zm-4.74-.28,3.39.2.08-1.36-3.39-.2Zm-4.75-.28,3.39.2.08-1.36-3.39-.2Zm-4.75-.27,3.39.2.08-1.37-3.39-.2Zm-4.75-.28,3.39.2.08-1.36-3.39-.2Zm-4.75-.28,3.4.2.07-1.36-3.39-.2Zm-4.74-.27,3.39.19.08-1.36-3.39-.2Zm-4.75-.28,3.39.2.08-1.37-3.39-.2Zm-4.75-.28,3.39.2.08-1.36-3.39-.2Zm-4.75-.28,3.39.2.08-1.36-3.39-.2Zm-4.75-.27,3.4.19.07-1.36-3.39-.2Zm-4.74-.28,3.39.2.08-1.37-3.39-.19Zm-4.75-.28,3.39.2.08-1.36-3.39-.2Zm-4.75-.28,3.39.2.08-1.36-3.39-.2Zm-4.75-.27,3.39.19.08-1.36-3.39-.2Zm-4.75-.28,3.39.2.08-1.37-3.39-.19Zm-4.74-.28,3.39.2.08-1.36-3.39-.2Zm-4.75-.28,3.39.2.08-1.36-3.39-.2Zm-4.75-.27,3.39.19.08-1.36-3.39-.2Zm-4.75-.28,3.39.2.08-1.37-3.39-.19Zm-4.75-.28,3.39.2.08-1.36-3.39-.2Zm-4.74-.28,3.39.2.08-1.36-3.4-.2Zm-4.75-.27,3.39.2.08-1.37-3.39-.2Zm-4.75-.28,3.39.2.08-1.37-3.39-.19Zm-4.75-.28,3.39.2.08-1.36-3.39-.2Zm-4.75-.28,3.39.2.08-1.36-3.39-.2Zm-4.75-.27,3.4.2.08-1.37-3.4-.2Zm-4.74-.28,3.39.2.08-1.36-3.39-.2Zm-4.75-.28,3.39.2.08-1.36-3.39-.2Zm-4.75-.27,3.39.19.08-1.36-3.39-.2Zm-4.75-.28,3.39.2.08-1.37-3.39-.2Zm-4.75-.28,3.4.2.08-1.36-3.4-.2Zm-4.74-.28,3.39.2.08-1.36-3.39-.2Zm-4.75-.27L209,148l.08-1.36-3.39-.2Zm-4.75-.28,3.39.2.08-1.37-3.39-.19Zm-4.75-.28,3.39.2.08-1.36-3.39-.2Zm-4.75-.28,3.4.2.08-1.36-3.4-.2Zm-4.74-.27,3.39.19.08-1.36-3.39-.2Zm-4.75-.28,3.39.2.08-1.37L182,145Zm-4.75-.28,3.39.2.08-1.36-3.39-.2Zm-4.75-.28,3.39.2.08-1.36-3.39-.2Zm-4.75-.27,3.4.19.08-1.36-3.4-.2Zm-4.74-.28,3.39.2.08-1.37-3.39-.19Zm-4.75-.28,3.39.2.08-1.36-3.39-.2Zm-4.75-.28,3.39.2.08-1.36-3.39-.2Zm-4.75-.27,3.39.2.08-1.37-3.39-.2Zm-4.75-.28,3.4.2.08-1.37-3.4-.19Zm-4.74-.28,3.39.2.08-1.36-3.39-.2Zm-4.75-.28,3.39.2.08-1.36-3.39-.2Zm-4.75-.27,3.39.2.08-1.37-3.39-.2Zm-4.75-.28,3.39.2.08-1.36-3.39-.2Zm-4.75-.28,3.4.2.08-1.36-3.4-.2Zm-4.74-.27,3.39.19.08-1.36-3.39-.2Zm-4.75-.28,3.39.2.08-1.37-3.39-.2ZM105.9,142l3.39.2.08-1.36-3.39-.2Zm-4.75-.28,3.39.2.08-1.36-3.39-.2Zm-4.75-.27,3.4.19.07-1.36-3.39-.2Zm-4.74-.28,3.39.2.08-1.37-3.39-.19Zm-3.06-.18,1.7.1.08-1.36-1.7-.1Z"/><path class="cls-4" d="M405,141.83l1.7.1.08-1.37-1.7-.1Zm-4.77-.28,3.41.2.08-1.36-3.41-.2Zm-4.77-.28,3.41.2.08-1.36-3.41-.2ZM390.7,141l3.41.19.08-1.36-3.41-.2Zm-4.76-.28,3.4.2.08-1.37-3.4-.2Zm-4.77-.28,3.4.2.08-1.36-3.4-.2Zm-4.77-.28,3.4.2.08-1.36-3.4-.2Zm-4.77-.27,3.41.19.08-1.36-3.41-.2Zm-4.77-.28,3.41.2.08-1.37-3.41-.19Zm-4.77-.28,3.41.2.08-1.36-3.41-.2Zm-4.77-.28,3.41.2.08-1.36-3.41-.2Zm-4.77-.27L356,139l.08-1.36-3.41-.2Zm-4.76-.28,3.4.2.08-1.37-3.4-.19Zm-4.77-.28,3.4.2.08-1.36-3.4-.2Zm-4.77-.28,3.4.2.08-1.36-3.4-.2Zm-4.77-.27,3.41.19.08-1.36-3.41-.2Zm-4.77-.28,3.41.2.08-1.37-3.41-.19Zm-4.77-.28,3.41.2.08-1.36-3.41-.2Zm-4.77-.28,3.41.2.08-1.36-3.41-.2Zm-4.76-.27,3.4.19.08-1.36-3.41-.2Zm-4.77-.28,3.4.2.08-1.37-3.4-.19Zm-4.77-.28,3.4.2.08-1.36-3.4-.2Zm-4.77-.28,3.41.2.07-1.36-3.4-.2Zm-4.77-.27,3.41.2.08-1.37-3.41-.2Zm-4.77-.28,3.41.2.08-1.37-3.41-.19Zm-4.77-.28,3.41.2.08-1.36-3.41-.2Zm-4.77-.28,3.41.2.08-1.36-3.41-.2Zm-4.76-.27,3.4.2.08-1.37-3.41-.2Zm-4.77-.28,3.4.2.08-1.36-3.4-.2Zm-4.77-.28,3.4.2.08-1.36-3.4-.2Zm-4.77-.27,3.41.19.07-1.36-3.4-.2Zm-4.77-.28,3.41.2.08-1.37-3.41-.2Zm-4.77-.28,3.41.2.08-1.36-3.41-.2Zm-4.77-.28,3.41.2.08-1.36-3.41-.2Zm-4.77-.27,3.41.19.08-1.36L243,131Zm-4.76-.28,3.4.2.08-1.37-3.41-.19Zm-4.77-.28,3.4.2.08-1.36-3.4-.2Zm-4.77-.28,3.4.2.08-1.36-3.4-.2Zm-4.77-.27,3.41.19.07-1.36-3.4-.2ZM219,131l3.41.2.08-1.37-3.41-.19Zm-4.77-.28,3.41.2.08-1.36-3.41-.2Zm-4.77-.28,3.41.2.08-1.36-3.41-.2Zm-4.77-.27,3.41.19.08-1.36-3.41-.2ZM200,129.9l3.4.2.08-1.37-3.41-.19Zm-4.77-.28,3.4.2.08-1.36-3.4-.2Zm-4.77-.28,3.4.2.08-1.36-3.4-.2Zm-4.77-.27,3.41.19.07-1.36-3.4-.2Zm-4.77-.28,3.41.2.08-1.37-3.41-.19Zm-4.77-.28,3.41.2.08-1.36-3.41-.2Zm-4.77-.28,3.41.2.08-1.36-3.41-.2Zm-4.77-.27,3.41.19.08-1.36-3.41-.2Zm-4.76-.28,3.4.2.08-1.37-3.41-.19ZM157,127.4l3.4.2.08-1.36-3.4-.2Zm-4.77-.28,3.4.2.08-1.36-3.4-.2Zm-4.77-.27,3.41.2.07-1.37-3.4-.2Zm-4.77-.28,3.41.2.08-1.37-3.41-.19Zm-4.77-.28,3.41.2.08-1.36-3.41-.2Zm-4.77-.28,3.41.2.08-1.36-3.41-.2Zm-4.77-.27,3.41.2.08-1.37-3.41-.2Zm-4.76-.28,3.4.2.08-1.36-3.41-.2Zm-4.77-.28,3.4.2.08-1.36-3.4-.2Zm-4.77-.27,3.4.19.08-1.36-3.4-.2Zm-4.77-.28,3.41.2.07-1.37-3.4-.2Zm-4.77-.28,3.41.2.08-1.36-3.41-.2Zm-4.77-.28,3.41.2.08-1.36-3.41-.2ZM95,123.8l3.41.19.08-1.36-3.41-.2Zm-4.77-.28,3.41.2.08-1.37-3.41-.19Zm-4.76-.28,3.4.2.08-1.36-3.41-.2ZM80.74,123l3.4.2.08-1.36-3.4-.2ZM76,122.69l3.4.19.08-1.36-3.4-.2Zm-3.07-.18,1.71.1.07-1.37-1.7-.1Z"/><path class="cls-5" d="M401.21,328.43l1.42.93.75-1.15-1.42-.92Zm-4-2.6,2.85,1.86.75-1.15L398,324.69Zm-4-2.6,2.85,1.86.75-1.15L394,322.08Zm-4-2.6,2.85,1.86.75-1.15L390,319.48Zm-4-2.6,2.84,1.86.75-1.15L386,316.88Zm-4-2.6,2.85,1.86.74-1.15L382,314.28Zm-4-2.6,2.85,1.85.74-1.14L378,311.68Zm-4-2.6,2.85,1.85.74-1.14L374,309.08Zm-4-2.6,2.85,1.85.75-1.14-2.85-1.86Zm-4-2.6,2.85,1.85.75-1.14-2.85-1.86Zm-4-2.6,2.85,1.85.75-1.14-2.85-1.86Zm-4-2.6,2.85,1.85.75-1.14-2.85-1.86Zm-4-2.6,2.85,1.85.74-1.14-2.85-1.86Zm-4-2.6,2.85,1.85.74-1.14-2.85-1.86Zm-4-2.6,2.85,1.85.74-1.14-2.85-1.86Zm-4-2.61,2.85,1.86.74-1.14-2.84-1.86Zm-4-2.6,2.85,1.86.75-1.14-2.85-1.86Zm-4-2.6,2.85,1.86.75-1.14-2.85-1.86Zm-4-2.6,2.85,1.86.75-1.14-2.85-1.86Zm-4-2.6,2.84,1.86.75-1.14-2.85-1.86Zm-4-2.6,2.85,1.86.74-1.14-2.85-1.86Zm-4-2.6,2.85,1.86.74-1.14-2.85-1.86Zm-4-2.6,2.85,1.86.74-1.14-2.84-1.86Zm-4-2.6,2.85,1.86.75-1.14-2.85-1.86Zm-4-2.6,2.85,1.86.75-1.14-2.85-1.86Zm-4-2.6,2.85,1.86.75-1.14-2.85-1.86Zm-4-2.6,2.85,1.86.75-1.14-2.85-1.86Zm-4-2.6,2.84,1.86.75-1.15-2.85-1.85Zm-4-2.6,2.85,1.86.74-1.15-2.85-1.85Zm-4-2.6,2.85,1.86.74-1.15-2.85-1.85Zm-4-2.6,2.85,1.86.74-1.15-2.84-1.85Zm-4-2.6,2.85,1.86.75-1.15-2.85-1.85Zm-4-2.6,2.85,1.86.75-1.15-2.85-1.85Zm-4-2.6,2.85,1.86.75-1.15-2.85-1.85Zm-4-2.6,2.84,1.86.75-1.15-2.85-1.85Zm-4-2.6,2.85,1.86.74-1.15-2.85-1.86Zm-4-2.6,2.85,1.86.74-1.15-2.85-1.86Zm-4-2.6,2.85,1.86.74-1.15-2.85-1.86Zm-4-2.6,2.85,1.86.75-1.15-2.85-1.86Zm-4-2.6,2.85,1.85.75-1.14-2.85-1.86Zm-4-2.6,2.85,1.85.75-1.14-2.85-1.86Zm-4-2.6,2.85,1.85.75-1.14-2.85-1.86Zm-4-2.6,2.84,1.85.75-1.14-2.85-1.86Zm-4-2.6,2.85,1.85.74-1.14-2.85-1.86Zm-4-2.6,2.85,1.85.74-1.14-2.85-1.86Zm-4-2.6,2.85,1.85.74-1.14-2.84-1.86Zm-4-2.6,2.85,1.85.75-1.14-2.85-1.86Zm-4-2.6,2.85,1.85.75-1.14-2.85-1.86Zm-4-2.61,2.85,1.86.75-1.14-2.85-1.86Zm-4-2.6,2.84,1.86.75-1.14-2.85-1.86Zm-4-2.6,2.85,1.86.74-1.14-2.85-1.86Zm-4-2.6,2.85,1.86.74-1.14-2.85-1.86Zm-4-2.6,2.85,1.86.74-1.14-2.85-1.86Zm-4-2.6,2.85,1.86.75-1.14-2.85-1.86Zm-4-2.6,2.85,1.86.75-1.14-2.85-1.86Zm-4-2.6,2.85,1.86.75-1.14-2.85-1.86Zm-4-2.6,2.85,1.86.75-1.14-2.85-1.86Zm-4-2.6,2.84,1.86.75-1.14-2.85-1.86Zm-4-2.6,2.85,1.86.74-1.14-2.85-1.86Zm-4-2.6,2.85,1.86.74-1.14-2.85-1.86Zm-4-2.6,2.85,1.86.74-1.15-2.84-1.85Zm-4-2.6,2.85,1.86.75-1.15-2.85-1.85Zm-4-2.6,2.85,1.86.75-1.15-2.85-1.85Zm-4-2.6,2.85,1.86.75-1.15-2.85-1.85Zm-4-2.6,2.84,1.86.75-1.15-2.85-1.85Zm-4-2.6,2.85,1.86.74-1.15-2.85-1.85Zm-4-2.6,2.85,1.86.74-1.15-2.85-1.85Zm-4-2.6,2.85,1.86.74-1.15-2.85-1.85Zm-4-2.6,2.85,1.86.75-1.15-2.85-1.86Zm-4-2.6,2.85,1.86.75-1.15-2.85-1.86Zm-4-2.6,2.85,1.86.75-1.15-2.85-1.86Zm-4-2.6,2.85,1.86.75-1.15-2.85-1.86Zm-4-2.6,2.84,1.85.75-1.14-2.85-1.86Zm-4-2.6,2.85,1.85.74-1.14-2.85-1.86Zm-4-2.6,2.85,1.85.74-1.14-2.85-1.86Zm-4-2.6,2.85,1.85.74-1.14-2.84-1.86Zm-4-2.6,2.85,1.85.75-1.14-2.85-1.86Zm-4-2.6,2.85,1.85.75-1.14-2.85-1.86Zm-4-2.6,2.85,1.85.75-1.14-2.85-1.86Zm-4-2.6L89,124.86l.75-1.14-2.85-1.86Zm-4-2.6L85,122.26l.74-1.14-2.85-1.86Zm-4-2.61L81,119.66l.74-1.14-2.85-1.86Zm-4-2.6L77,117.06l.74-1.14-2.85-1.86Zm-4-2.6L73,114.46l.75-1.14-2.85-1.86Zm-4-2.6L69,111.86l.75-1.14-2.85-1.86Zm-4-2.6L65,109.26l.75-1.14-2.85-1.86Zm-4-2.6L61,106.66l.75-1.14-2.85-1.86Zm-4-2.6L57,104.06l.75-1.14-2.85-1.86Zm-4-2.6,2.85,1.86.74-1.14L51,98.46Zm-2.57-1.67,1.43.93.74-1.14-1.42-.93Z"/><path class="cls-5" d="M245.45,189.32l1.53.77.62-1.22-1.53-.77Zm-4.3-2.17,3.07,1.55.62-1.22-3.07-1.55ZM236.86,185l3.07,1.55.61-1.22-3.07-1.55Zm-4.3-2.17,3.07,1.55.61-1.22-3.07-1.55Zm-4.3-2.17,3.07,1.55L232,181l-3.07-1.54ZM224,178.48,227,180l.61-1.21-3.07-1.55Zm-4.3-2.17,3.07,1.55.61-1.22-3.07-1.55Zm-4.3-2.17,3.07,1.55.62-1.22L216,172.92ZM211.08,172l3.06,1.55.62-1.22-3.07-1.55Zm-4.3-2.17,3.07,1.55.61-1.22-3.07-1.55Zm-4.3-2.17,3.07,1.55.62-1.22-3.07-1.55Zm-4.3-2.17,3.07,1.55.62-1.22-3.07-1.54Zm-4.29-2.16,3.07,1.55.61-1.22-3.07-1.55Zm-4.3-2.17,3.07,1.55.62-1.22-3.07-1.55Zm-4.3-2.17,3.07,1.55.62-1.22-3.07-1.55ZM181,156.79l3.07,1.55.61-1.22-3.07-1.55Zm-4.3-2.17,3.07,1.55.62-1.22-3.07-1.55Zm-4.3-2.17,3.07,1.55.62-1.22L173,151.23Zm-4.29-2.16,3.07,1.54.61-1.21-3.07-1.55Zm-4.3-2.17,3.07,1.55.61-1.22-3.06-1.55Zm-4.3-2.17,3.07,1.55.62-1.22-3.07-1.55Zm-4.29-2.17,3.07,1.55.61-1.22-3.07-1.55Zm-4.3-2.17,3.07,1.55.61-1.22-3.07-1.55Zm-4.3-2.17,3.07,1.55.62-1.22-3.07-1.55Zm-4.29-2.17,3.07,1.55.61-1.22-3.07-1.54Zm-4.3-2.16,3.07,1.54.61-1.21-3.07-1.55Zm-4.3-2.17,3.07,1.55.62-1.22-3.07-1.55Zm-4.29-2.17,3.06,1.55.62-1.22-3.07-1.55Zm-4.3-2.17,3.07,1.55.61-1.22-3.07-1.55Zm-4.3-2.17,3.07,1.55.62-1.22-3.07-1.55Zm-4.3-2.17,3.07,1.55.62-1.22L117.16,123Zm-4.29-2.17,3.07,1.55.61-1.22-3.07-1.54Zm-4.3-2.16,3.07,1.54.62-1.21-3.07-1.55Zm-4.3-2.17,3.07,1.55.62-1.22-3.07-1.55Zm-4.29-2.17,3.07,1.55.61-1.22L100,114.37Zm-4.3-2.17L98.13,115l.61-1.22-3.06-1.55Zm-4.3-2.17,3.07,1.55.62-1.22L91.38,110Zm-4.29-2.17,3.07,1.55.61-1.22-3.07-1.55Zm-4.3-2.16,3.07,1.54.61-1.21-3.06-1.55Zm-4.3-2.17,3.07,1.55.62-1.22-3.07-1.55Zm-4.29-2.17,3.07,1.55.61-1.22-3.07-1.55Zm-4.3-2.17L72.35,102l.61-1.22-3.07-1.55ZM65,98.24l3.07,1.55.62-1.22L65.6,97Zm-4.29-2.17,3.07,1.55.61-1.22L61.3,94.85Zm-4.3-2.17,3.07,1.55.61-1.22L57,92.69Zm-4.3-2.16,3.07,1.54.62-1.21-3.07-1.55ZM47.8,89.57l3.06,1.55.62-1.22-3.07-1.55ZM43.5,87.4,46.57,89l.61-1.22-3.07-1.55Zm-4.3-2.17,3.07,1.55.62-1.22L39.82,84Zm-4.3-2.17L38,84.61l.62-1.22-3.07-1.55Zm-4.29-2.17,3.07,1.55.61-1.22-3.07-1.55ZM27.85,79.5l1.53.77L30,79.05l-1.54-.77Z"/><path class="cls-3" d="M61.61,61.07h1.73v-.69H61.61Zm-4.84,0h3.46v-.69H56.77Zm-4.85,0h3.46v-.69H51.92Zm-4.85,0h3.46v-.69H47.07Zm-4.84,0h3.46v-.69H42.23Zm-4.85,0h3.46v-.69H37.38Zm-4.85,0H36v-.69H32.53Zm-4.85,0h3.47v-.69H27.68Zm-4.84,0H26.3v-.69H22.84Zm-4.85,0h3.46v-.69H18Zm-3.12,0h1.74v-.69H14.87Z"/><path class="cls-3" d="M405,39.22h1.7v-.68H405Zm-4.75,0h3.39v-.68h-3.39Zm-4.75,0h3.39v-.68h-3.39Zm-4.76,0h3.4v-.68h-3.4Zm-4.75,0h3.4v-.68H386Zm-4.75,0h3.39v-.68h-3.39Zm-4.76,0h3.4v-.68h-3.4Zm-4.75,0h3.4v-.68h-3.4Zm-4.75,0h3.39v-.68H367Zm-4.76,0h3.4v-.68h-3.4Zm-4.75,0h3.4v-.68h-3.4Zm-4.75,0h3.39v-.68h-3.39Zm-4.75,0h3.39v-.68H348Zm-4.76,0h3.4v-.68h-3.4Zm-4.75,0h3.39v-.68h-3.39Zm-4.75,0h3.39v-.68h-3.39Zm-4.76,0h3.4v-.68H329Zm-4.75,0h3.4v-.68h-3.4Zm-4.75,0h3.39v-.68h-3.39Zm-4.76,0h3.4v-.68h-3.4Zm-4.75,0h3.4v-.68H310Zm-4.75,0h3.39v-.68h-3.39Zm-4.76,0h3.4v-.68h-3.4Zm-4.75,0h3.4v-.68h-3.4Zm-4.75,0h3.39v-.68H291Zm-4.75,0h3.39v-.68h-3.39Zm-4.76,0h3.4v-.68h-3.4Zm-4.75,0h3.39v-.68H276.7Zm-4.75,0h3.39v-.68H272Zm-4.76,0h3.4v-.68h-3.4Zm-4.75,0h3.39v-.68h-3.39Zm-4.75,0h3.39v-.68h-3.39Zm-4.76,0h3.4v-.68h-3.4Zm-4.75,0h3.4v-.68h-3.4Zm-4.75,0h3.39v-.68h-3.39Zm-4.76,0h3.4v-.68h-3.4Zm-4.75,0h3.4v-.68h-3.4Zm-4.75,0h3.39v-.68h-3.39Zm-4.76,0h3.4v-.68h-3.4Zm-4.75,0h3.4v-.68h-3.4Zm-4.75,0h3.39v-.68h-3.39Zm-4.75,0h3.39v-.68h-3.39Zm-4.76,0h3.4v-.68h-3.4Zm-4.75,0H204v-.68h-3.39Zm-4.75,0h3.39v-.68H195.9Zm-4.76,0h3.4v-.68h-3.4Zm-4.75,0h3.39v-.68h-3.39Zm-4.75,0H185v-.68h-3.39Zm-4.76,0h3.4v-.68h-3.4Zm-4.75,0h3.4v-.68h-3.4Zm-4.75,0h3.39v-.68h-3.39Zm-4.76,0H166v-.68h-3.4Zm-4.75,0h3.4v-.68h-3.4Zm-4.75,0h3.39v-.68h-3.39Zm-4.76,0h3.4v-.68h-3.4Zm-4.75,0H147v-.68h-3.4Zm-4.75,0h3.39v-.68h-3.39Zm-4.76,0h3.4v-.68h-3.4Zm-4.75,0h3.4v-.68h-3.4Zm-4.75,0H128v-.68H124.6Zm-4.75,0h3.39v-.68h-3.39Zm-4.76,0h3.4v-.68h-3.4Zm-4.75,0h3.39v-.68h-3.39Zm-4.75,0H109v-.68h-3.39Zm-4.76,0h3.4v-.68h-3.4Zm-4.75,0h3.39v-.68H96.08Zm-4.75,0h3.39v-.68H91.33Zm-4.76,0H90v-.68h-3.4Zm-4.75,0h3.4v-.68h-3.4Zm-4.75,0h3.39v-.68H77.07Zm-4.76,0h3.4v-.68h-3.4Zm-4.75,0H71v-.68h-3.4Zm-4.75,0H66.2v-.68H62.81Zm-4.76,0h3.4v-.68h-3.4Zm-4.75,0h3.4v-.68H53.3Zm-4.75,0h3.39v-.68H48.55Zm-4.75,0h3.39v-.68H43.8Zm-4.76,0h3.4v-.68H39Zm-4.75,0h3.39v-.68H34.29Zm-4.75,0h3.39v-.68H29.54Zm-3.06,0h1.7v-.68h-1.7Z"/><path class="cls-3" d="M35.78,32.55l1.62.53.21-.65L36,31.9Zm-4.55-1.48,3.25,1.06.21-.65-3.25-1.06Zm-4.55-1.48,3.25,1.06.21-.65-3.25-1.06Zm-4.56-1.48,3.26,1.06.21-.65-3.25-1.06Zm-4.55-1.48,3.25,1.06L21,27,17.78,26ZM13,25.15l3.25,1.06.21-.65L13.23,24.5ZM10.1,24.2l1.62.53.21-.65-1.62-.53Z"/><path class="cls-5" d="M28.53,67.05a3,3,0,0,1-2.75-1.83,3.07,3.07,0,0,1-.17-1.72A3,3,0,0,1,26.43,62,3.09,3.09,0,0,1,28,61.17,3,3,0,0,1,31,62.43a3,3,0,0,1-2.48,4.62Zm6.08-9.41c-.17-.17-.35-.33-.53-.48l0,0c-.19-.14-.38-.29-.58-.42l-.16-.12L33,56.43a9.18,9.18,0,0,0-4.85-1.51H28a9.24,9.24,0,0,0-9,9.23c0,4.4,6.22,12.25,8.49,15a1.12,1.12,0,0,0,.36.29,1.09,1.09,0,0,0,.91,0,1.12,1.12,0,0,0,.36-.29C31.32,76.4,37.4,68.62,37.4,64.2a9,9,0,0,0-.73-3.56A9.13,9.13,0,0,0,34.61,57.64Z"/><path class="cls-6" d="M99.18,61.81h.76a2.25,2.25,0,0,0-4.39.1c0,.87.63,1.39,1.64,1.68l.79.23c.68.19,1.29.43,1.29,1.07s-.68,1.17-1.58,1.17-1.45-.34-1.51-1.07h-.81c.08,1.06.94,1.78,2.32,1.78S100,66,100,64.9c0-1.21-1.14-1.6-1.81-1.78L97.55,63c-.48-.13-1.24-.38-1.24-1.07s.56-1.08,1.42-1.08S99.1,61.18,99.18,61.81Zm-8.74,4.84h.78V63.77H94v-.7h-2.8V60.89h3.09V60.2H90.44ZM85.59,63.6V60.89H87c1.05,0,1.45.58,1.45,1.35A1.25,1.25,0,0,1,87,63.6Zm-.78,3.05h.78V64.3H87a2.05,2.05,0,1,0,0-4.1H84.81ZM83.24,60.2h-.78v6.45h.78Zm-8,3.64a1.44,1.44,0,0,1,1.43-1.42A1.3,1.3,0,0,1,78,63.84Zm1.51,2.91a1.89,1.89,0,0,0,1.93-1.22l-.72-.2a1.2,1.2,0,0,1-1.21.76,1.46,1.46,0,0,1-1.51-1.6h3.51v-.32c0-1.8-1.07-2.42-2.08-2.42a2.25,2.25,0,0,0-2.18,2.52A2.22,2.22,0,0,0,76.73,66.75ZM67,66.65h.75v-3a1.14,1.14,0,0,1,1.09-1.21.89.89,0,0,1,1,.92v3.31h.76V63.5a1,1,0,0,1,1.07-1.08.9.9,0,0,1,1,1v3.24h.75V63.41c0-1.13-.61-1.66-1.48-1.66a1.54,1.54,0,0,0-1.45.82h0a1.33,1.33,0,0,0-1.3-.82,1.31,1.31,0,0,0-1.3.82H67.7v-.76H67Zm-3.33-.56c-1,0-1.45-.86-1.45-1.83s.46-1.84,1.45-1.84,1.45.87,1.45,1.84S64.65,66.09,63.65,66.09Zm0,.66a2.52,2.52,0,1,0-2.19-2.49A2.22,2.22,0,0,0,63.65,66.75ZM60.48,62.9a1.63,1.63,0,0,0-1.71-1.15c-1,0-1.78.58-1.78,1.4s.4,1.11,1.28,1.32l.81.19c.49.11.72.35.72.68s-.44.76-1.14.76a1,1,0,0,1-1.12-.78l-.7.17a1.65,1.65,0,0,0,1.84,1.26c1.12,0,1.89-.61,1.89-1.45,0-.67-.42-1.1-1.29-1.31l-.72-.17c-.57-.14-.83-.34-.83-.71s.44-.72,1-.72a1,1,0,0,1,1,.7Zm-8.07.94a1.44,1.44,0,0,1,1.43-1.42,1.3,1.3,0,0,1,1.32,1.42Zm1.51,2.91a1.87,1.87,0,0,0,1.92-1.22l-.71-.2a1.2,1.2,0,0,1-1.21.76,1.46,1.46,0,0,1-1.51-1.6h3.51v-.32c0-1.8-1.07-2.42-2.08-2.42a2.25,2.25,0,0,0-2.18,2.52A2.22,2.22,0,0,0,53.92,66.75Zm-8-.1h.73l1.06-3.72h.07l1.06,3.72h.73l1.48-4.84h-.78l-1,3.7h-.05l-1-3.7h-.8l-1,3.71h-.05l-1-3.71h-.78Zm-5.23-2.52,1-2.91h0l1,2.91Zm-.9,2.52.65-1.82h2.61l.65,1.82h.82L42.17,60.2h-.81L39,66.65Z"/><path class="cls-5" d="M48.33,85.48a3,3,0,0,1-.58-5.88,3,3,0,0,1,3.06,1.27,2.94,2.94,0,0,1,.27,2.78,3.07,3.07,0,0,1-1.61,1.61A3,3,0,0,1,48.33,85.48Zm6.08-9.41c-.17-.17-.35-.33-.53-.48l-.05,0c-.19-.15-.38-.3-.58-.43L53.09,75l-.26-.15A9.21,9.21,0,0,0,48,73.35h-.23a9.24,9.24,0,0,0-9,9.23c0,4.4,6.22,12.26,8.49,15a1,1,0,0,0,.81.39,1.06,1.06,0,0,0,.46-.1,1.12,1.12,0,0,0,.36-.29c2.23-2.7,8.31-10.49,8.31-14.91a9.16,9.16,0,0,0-2.79-6.56Z"/><path class="cls-6" d="M103.76,84.52c-1,0-1.45-.86-1.45-1.83s.45-1.84,1.45-1.84,1.45.87,1.45,1.84S104.75,84.52,103.76,84.52Zm0,.67a2.53,2.53,0,1,0-2.19-2.5A2.23,2.23,0,0,0,103.76,85.19Zm-3.7-5.75a.51.51,0,1,0-.53-.51A.52.52,0,0,0,100.06,79.44Zm-.37,5.65h.74V80.24h-.74Zm-1.91,0a.57.57,0,1,0-.56-.57A.57.57,0,0,0,97.78,85.14ZM96,81.33a1.62,1.62,0,0,0-1.71-1.15c-1,0-1.78.58-1.78,1.4s.4,1.12,1.29,1.32l.8.19c.49.12.72.35.72.68s-.44.76-1.13.76a1,1,0,0,1-1.12-.78l-.71.18a1.66,1.66,0,0,0,1.84,1.26c1.13,0,1.89-.62,1.89-1.45,0-.68-.42-1.1-1.28-1.31l-.72-.18c-.58-.14-.83-.33-.83-.71s.44-.72,1-.72a1,1,0,0,1,1.05.7Zm-4.27-1.09H90.68v-.49c0-.48.2-.73.69-.73a1,1,0,0,1,.42.08l.21-.65a1.74,1.74,0,0,0-.7-.12,1.25,1.25,0,0,0-1.37,1.25v.66h-.78v.64h.78v4.21h.75V80.88h1.08Zm-6.83,2.43c0-1.09.48-1.82,1.39-1.82s1.41.79,1.41,1.82-.48,1.85-1.41,1.85S84.93,83.76,84.93,82.67ZM84.2,86.9h.74V84.34H85a1.47,1.47,0,0,0,1.41.85c1.21,0,2-1,2-2.51s-.84-2.5-2.07-2.5A1.46,1.46,0,0,0,85,81h-.09v-.77H84.2Zm-1.73-7.46a.51.51,0,1,0-.53-.51A.52.52,0,0,0,82.47,79.44Zm-.38,5.65h.75V80.24h-.75Zm-1.9,0a.57.57,0,1,0-.57-.57A.58.58,0,0,0,80.19,85.14Zm-1.75-3.81a1.63,1.63,0,0,0-1.71-1.15c-1,0-1.78.58-1.78,1.4s.4,1.12,1.28,1.32l.81.19c.49.12.72.35.72.68s-.44.76-1.13.76a1,1,0,0,1-1.13-.78l-.7.18a1.66,1.66,0,0,0,1.84,1.26c1.12,0,1.89-.62,1.89-1.45,0-.68-.42-1.1-1.29-1.31l-.72-.18c-.57-.14-.83-.33-.83-.71s.44-.72,1-.72a1,1,0,0,1,1,.7ZM72,85.19a1.79,1.79,0,0,0,1.9-1.52h-.74a1.13,1.13,0,0,1-1.16.85c-.88,0-1.45-.73-1.45-1.85s.58-1.82,1.45-1.82a1.13,1.13,0,0,1,1.16.84h.74A1.8,1.8,0,0,0,72,80.18a2.53,2.53,0,0,0,0,5Zm-5.29-.67c-1,0-1.45-.86-1.45-1.83s.45-1.84,1.45-1.84,1.44.87,1.44,1.84S67.72,84.52,66.73,84.52Zm0,.67a2.53,2.53,0,1,0-2.2-2.5A2.23,2.23,0,0,0,66.73,85.19Zm-5.55-.67c-.94,0-1.42-.82-1.42-1.85s.47-1.82,1.42-1.82,1.38.73,1.38,1.82S62.07,84.52,61.18,84.52Zm-.11.67a1.5,1.5,0,0,0,1.42-.85h.08v.75h.72V78.63h-.74V81h-.06a1.49,1.49,0,0,0-1.4-.83c-1.23,0-2.07,1-2.07,2.5S59.86,85.19,61.07,85.19Z"/><path class="cls-4" d="M72.9,110.06a3,3,0,0,1-1.65-.5,2.92,2.92,0,0,1-1.09-1.34,2.86,2.86,0,0,1-.17-1.71A3,3,0,0,1,70.8,105a3,3,0,0,1,3.25-.64,3,3,0,0,1,1.33,1.09,2.94,2.94,0,0,1-.37,3.75,2.88,2.88,0,0,1-1,.64A3,3,0,0,1,72.9,110.06ZM79,100.64a6.11,6.11,0,0,0-.53-.47l0,0c-.18-.15-.37-.29-.57-.43l-.17-.11-.25-.16a9.33,9.33,0,0,0-4.86-1.5h-.22a9.26,9.26,0,0,0-9,9.23c0,4.4,6.23,12.25,8.49,15a1.16,1.16,0,0,0,.37.29,1.06,1.06,0,0,0,.9,0,1.16,1.16,0,0,0,.37-.29c2.22-2.71,8.31-10.49,8.31-14.91a9.12,9.12,0,0,0-.73-3.57A9.22,9.22,0,0,0,79,100.64Z"/><path class="cls-1" d="M115.42,108.41a.54.54,0,0,1-.48-.23,1.66,1.66,0,0,1-.23-.94h-1.36a3,3,0,0,0,.48,1.74,1.92,1.92,0,0,0,1.59.8Zm.73-1.17a1.54,1.54,0,0,1-.24.92.55.55,0,0,1-.49.25v1.37A1.92,1.92,0,0,0,117,109a3,3,0,0,0,.48-1.71Zm-.73-1.13a.55.55,0,0,1,.5.24,1.49,1.49,0,0,1,.23.89h1.36a2.85,2.85,0,0,0-.48-1.69,1.93,1.93,0,0,0-1.61-.81Zm-.71,1.13a1.55,1.55,0,0,1,.22-.91.56.56,0,0,1,.49-.22v-1.37a1.91,1.91,0,0,0-1.59.78,2.89,2.89,0,0,0-.48,1.72Zm-2.09-2.42v6.66H114v-6.66Zm1.4-.68h-.72v1.36H114Zm.68,1.45v-.77h-1.37v.77Zm-.59-.68H114v1.36h.09Zm1.39-.83a2.14,2.14,0,0,0-1.43.48,2.66,2.66,0,0,0-.54.66l1.15.74a1.6,1.6,0,0,1,.27-.36.82.82,0,0,1,.55-.16Zm2.75,3.17a3.48,3.48,0,0,0-.73-2.26,2.58,2.58,0,0,0-2-.91v1.36a1.22,1.22,0,0,1,1,.43,2.12,2.12,0,0,1,.42,1.38Zm-2.73,3.2a2.53,2.53,0,0,0,2-.93,3.47,3.47,0,0,0,.73-2.27h-1.36a2.16,2.16,0,0,1-.42,1.4,1.19,1.19,0,0,1-1,.43Zm-2-1.17a2.79,2.79,0,0,0,.57.69,2.17,2.17,0,0,0,1.43.48v-1.37a.8.8,0,0,1-.56-.17,1.09,1.09,0,0,1-.27-.35Zm.52.32h.07v-1.36H114Zm.68,1.88v-2.56h-1.36v2.56Zm-1.42.68H114v-1.37h-.74Zm0-7.34v-.68h-.68v.68Zm.72,0h.68v-.68H114Zm0,.77h-.69v.68H114Zm.09,0v.68h.37l.2-.31Zm0,3.33.58-.36-.2-.32h-.38Zm-.07,0v-.68h-.68v.68Zm0,2.56v.68h.68v-.68Zm-.74,0h-.68v.68h.68Zm-2.56-4.21a1.57,1.57,0,0,1-.23.88.6.6,0,0,1-.54.26v1.37a2,2,0,0,0,1.65-.84,2.85,2.85,0,0,0,.48-1.67Zm-.77-1.16a.61.61,0,0,1,.54.26,1.67,1.67,0,0,1,.23.9h1.36a3,3,0,0,0-.47-1.68,2,2,0,0,0-1.66-.85Zm-.77,1.16a1.67,1.67,0,0,1,.23-.9.6.6,0,0,1,.54-.26v-1.37a2,2,0,0,0-1.66.85,3,3,0,0,0-.47,1.68Zm.77,1.14a.6.6,0,0,1-.54-.26,1.57,1.57,0,0,1-.23-.88h-1.36a2.92,2.92,0,0,0,.47,1.67,2,2,0,0,0,1.66.84Zm-2.88-1.14a3.36,3.36,0,0,0,.78,2.26,2.74,2.74,0,0,0,2.1.92v-1.37a1.39,1.39,0,0,1-1.08-.45,2,2,0,0,1-.43-1.36Zm2.88-3.19a2.74,2.74,0,0,0-2.1.91,3.39,3.39,0,0,0-.78,2.28h1.37a2,2,0,0,1,.43-1.37,1.36,1.36,0,0,1,1.08-.46Zm2.88,3.19a3.39,3.39,0,0,0-.78-2.28,2.74,2.74,0,0,0-2.1-.91v1.36a1.33,1.33,0,0,1,1.07.46,2,2,0,0,1,.44,1.37ZM110,110.45a2.74,2.74,0,0,0,2.1-.92,3.36,3.36,0,0,0,.78-2.26h-1.37a2,2,0,0,1-.43,1.36,1.39,1.39,0,0,1-1.08.45Zm-2.35-5v-.63h-1.37v.63Zm-1.72.68h1v-1.36h-1Zm.69,2.15v-2.83h-1.37v2.83Zm0,0h0l0,0,0,0a0,0,0,0,1,0,0,.1.1,0,0,0,0,0v-.11h-1.37a1.4,1.4,0,0,0,.43,1.11,1.37,1.37,0,0,0,.9.3Zm.19,0-.09,0h-.1v1.37a2.23,2.23,0,0,0,.46,0Zm1,1.19-.15-.67-1.33.3.15.67Zm-1.22.92a2.28,2.28,0,0,0,.79-.13l-.48-1.28a.93.93,0,0,1-.31,0Zm-2-1.93a1.86,1.86,0,0,0,.66,1.46,2.06,2.06,0,0,0,1.33.47V109a.75.75,0,0,1-.46-.15.48.48,0,0,1-.17-.41Zm0-3v3h1.36v-3Zm0,.68h.73v-1.36h-.73Zm-.69-1.31v.63h1.37v-.63Zm1.42-.68h-.73v1.36h.73Zm-.68-.48v1.16h1.36v-1.16Zm1.42-.68h-.74v1.36h.74Zm.69,1.84v-1.16h-1.37v1.16Zm.35-.68h-1v1.36h1Zm0,1.31v.68h.68v-.68Zm-1,0v-.68h-.68v.68Zm1,3.52.67-.15-.15-.65-.65.13Zm.15.67.24.64.56-.21-.13-.58Zm-1.86-4.19h.68v-.68h-.68Zm-.73,0h-.69v.68h.69Zm0-.63v-.68h-.69v.68Zm.73,0v.68h.68v-.68Zm0-1.16V103h-.68v.68Zm.74,0h.69V103h-.69Zm0,1.16h-.68v.68h.68Zm1,0h.68v-.68h-.68Zm-7.62-1.61v6.45h1.37v-6.45Zm1.43-.69H100v1.37h.75Zm.68,4.46v-3.77h-1.37V107Zm-.59-.69h-.09v1.37h.09Zm1.63-2-2.12,2.16,1,1,2.12-2.16Zm1.4-.2H103v1.36h.92Zm-1.56,3.23,2-2.07-1-1-2,2.07Zm2.25,1.87-2.2-2.78-1.07.85,2.2,2.78Zm-1.48,1.1h1V109h-1Zm-2.35-2.55,1.81,2.3,1.08-.85-1.82-2.3Zm.48.56.52-.48-.93-1-.52.48Zm.22,1.31v-1.81h-1.37v1.81Zm-1.43.68h.75V109H100Zm0-7.13v-.69h-.68v.69Zm.75,0h.68v-.69h-.68Zm0,3.77h-.69v.68h.69Zm.09,0v.68h.28l.2-.2Zm2.11-2.16v-.68h-.28l-.2.2Zm.92,0,.49.48,1.15-1.16h-1.64Zm-2,2.07-.49-.48-.42.43.37.47Zm2.2,2.77v.68h1.41l-.88-1.1Zm-1,0-.54.43.21.25h.33Zm-1.81-2.29.53-.43-.45-.58-.55.51Zm-.52.48-.47-.5-.22.2v.3Zm0,1.81v.68h.68v-.68Zm-.75,0h-.68v.68H100Zm-1.69-2.91.67-.19-.37-1.31-.67.19Zm-1.23-.67a.38.38,0,0,1,.29.08.39.39,0,0,1,.12.18l1.27-.49a1.71,1.71,0,0,0-.53-.76,1.8,1.8,0,0,0-1.15-.37Zm-.35,0s0,0,0,.06,0,0,0,0a.57.57,0,0,1,.35-.09v-1.36A2,2,0,0,0,96,105a1.31,1.31,0,0,0-.59,1.08Zm.31,0-.27-.08-.09,0,0,0s0,0,0,0,0,0,0,0H95.36a1.23,1.23,0,0,0,.45,1,2.33,2.33,0,0,0,.91.4Zm.72.18-.72-.18-.32,1.33.72.17Zm1.81,2a1.76,1.76,0,0,0-.52-1.3,2.55,2.55,0,0,0-1.29-.67l-.32,1.33a1.3,1.3,0,0,1,.64.29.47.47,0,0,1,.12.35ZM97,110.45a2.32,2.32,0,0,0,2.58-2.14H98.2c0,.31-.29.77-1.21.77Zm-2.51-1.81a2.19,2.19,0,0,0,.91,1.37,2.79,2.79,0,0,0,1.6.44v-1.37a1.44,1.44,0,0,1-.84-.21.74.74,0,0,1-.33-.51Zm1.21-1-.7.18.33,1.32L96,109Zm1.29.76a.61.61,0,0,1-.35-.07.3.3,0,0,1-.11-.19l-1.32.33a1.65,1.65,0,0,0,.65,1,2,2,0,0,0,1.13.32Zm.45-.07c0-.06,0-.06,0,0a.81.81,0,0,1-.44.1v1.37a2.18,2.18,0,0,0,1.22-.34,1.36,1.36,0,0,0,.6-1.1Zm-.19,0a.84.84,0,0,1,.18,0l0,0s0,0,0,0a.08.08,0,0,1,0,0H98.8a1.24,1.24,0,0,0-.39-.91,1.8,1.8,0,0,0-.86-.43Zm-.81-.19.81.18.31-1.32-.8-.19Zm-1.81-2a1.83,1.83,0,0,0,.5,1.3,2.63,2.63,0,0,0,1.31.69l.32-1.33a1.27,1.27,0,0,1-.64-.3.48.48,0,0,1-.12-.36Zm2.46-2.08a2.24,2.24,0,0,0-2.46,2.08H96c0-.3.28-.72,1.09-.72Zm2.36,1.61a2.29,2.29,0,0,0-.83-1.17,2.58,2.58,0,0,0-1.53-.44v1.36a1.21,1.21,0,0,1,.73.19,1,1,0,0,1,.34.49Zm-1.31.4-.64.25.23.58.59-.17Zm-1.25.74-.16.66h0Zm.72.17-.16.66h0Zm-2.45,1.5-.16-.66-.64.16.13.64Zm.71-.17.66-.17-.17-.66-.66.16Zm1.54-.66-.16.66h0Zm-.81-.19.16-.66h0Zm2.21-1.57.18.65.69-.19-.23-.68Zm-5.32.26H90.72v1.36h2.76Zm-1.32-.06a.57.57,0,0,1,.45.18.81.81,0,0,1,.19.56h1.36a2.19,2.19,0,0,0-.53-1.48,2,2,0,0,0-1.47-.63Zm-.76.79a.77.77,0,0,1,.76-.79v-1.37A2.14,2.14,0,0,0,90,106.81Zm-2.11.38a3.28,3.28,0,0,0,.78,2.25,2.81,2.81,0,0,0,2.16.92v-1.37a1.42,1.42,0,0,1-1.14-.46,1.91,1.91,0,0,1-.43-1.34Zm2.87-3.2a2.7,2.7,0,0,0-2.1.94,3.42,3.42,0,0,0-.77,2.26h1.37a2.09,2.09,0,0,1,.43-1.37,1.35,1.35,0,0,1,1.07-.47Zm2.76,3.1a3.18,3.18,0,0,0-.87-2.38,2.7,2.7,0,0,0-1.89-.72v1.36a1.33,1.33,0,0,1,.94.34,1.88,1.88,0,0,1,.45,1.4Zm0,.31v-.31H93.55v.31Zm-4.2.69h3.52v-1.37H90.72Zm1.51.23a.82.82,0,0,1-.58-.2,1.11,1.11,0,0,1-.25-.74l-1.36,0a2.4,2.4,0,0,0,.63,1.64,2.16,2.16,0,0,0,1.56.62Zm.57-.31c-.07.18-.2.31-.57.31v1.37a1.86,1.86,0,0,0,1.85-1.2Zm1.54-.22-.71-.2L93.26,109l.72.2Zm-2.11,2.57a2.56,2.56,0,0,0,2.58-1.71l-1.3-.4a1.21,1.21,0,0,1-1.28.74Zm1.25-3.6v.68h.68v-.68Zm-2.76,0-.68,0-.05.72h.73Zm3.52.64v.69h.68v-.69Zm-3.52,0v-.68H90l0,.71Zm2.72.85.19-.66-.61-.17-.22.59Zm.72.2.65.2.21-.67-.68-.19Zm-8.3-.25H84.71v1.36h1.15Zm1.69-1.87a2.08,2.08,0,0,1-.41,1.41,1.61,1.61,0,0,1-1.28.46v1.36a3,3,0,0,0,2.3-.91,3.42,3.42,0,0,0,.76-2.32ZM86,104.58a1.49,1.49,0,0,1,1.2.45,2.09,2.09,0,0,1,.4,1.39h1.37a3.37,3.37,0,0,0-.75-2.29,2.8,2.8,0,0,0-2.22-.91Zm-1.24,0H86v-1.36H84.71Zm.68,4.39V103.9H84V109Zm-1.47,1.37h2V109h-2Zm-.68-7.13v6.45h1.37v-6.45Zm2.76-.69H83.92v1.37H86Zm3.67,3.9a4,4,0,0,0-1-2.82,3.56,3.56,0,0,0-2.7-1.08v1.37a2.2,2.2,0,0,1,1.7.64,2.67,2.67,0,0,1,.61,1.89Zm-3.75,3.92a3.69,3.69,0,0,0,2.77-1.07,4.09,4.09,0,0,0,1-2.85H88.31a2.68,2.68,0,0,1-.62,1.91,2.31,2.31,0,0,1-1.77.65Zm-1.21-6.44v-.68H84v.68Zm0,5.07H84v.68h.69Zm-.79.69h-.68v.68h.68Zm0-6.45v-.69h-.68v.69Z"/><path class="cls-6" d="M114,107.24c0-1.08.48-1.81,1.39-1.81s1.41.79,1.41,1.81-.48,1.85-1.41,1.85S114,108.34,114,107.24Zm-.73,4.24H114v-2.56h.07a1.49,1.49,0,0,0,1.41.84c1.21,0,2-1,2-2.51s-.84-2.49-2.07-2.49a1.46,1.46,0,0,0-1.39.83H114v-.77h-.72ZM110,109.09c-1,0-1.45-.85-1.45-1.82s.45-1.84,1.45-1.84,1.45.87,1.45,1.84S111,109.09,110,109.09Zm0,.67a2.52,2.52,0,1,0-2.19-2.49A2.22,2.22,0,0,0,110,109.76Zm-3-4.94h-1v-1.16h-.74v1.16h-.73v.63h.73v3a1.23,1.23,0,0,0,1.31,1.24,1.76,1.76,0,0,0,.55-.08l-.15-.67a1.48,1.48,0,0,1-.32,0c-.33,0-.65-.1-.65-.73v-2.83h1ZM100,109.66h.75v-1.81l.52-.48,1.81,2.29h1l-2.2-2.77,2-2.07H103L100.84,107h-.09v-3.77H100Zm-1.2-3.75a1.64,1.64,0,0,0-1.72-1.15c-1,0-1.78.58-1.78,1.4s.4,1.11,1.29,1.32l.81.19c.49.11.72.35.72.68s-.45.76-1.14.76a1,1,0,0,1-1.12-.78l-.71.17A1.67,1.67,0,0,0,97,109.76c1.13,0,1.89-.61,1.89-1.45,0-.67-.42-1.1-1.28-1.31l-.72-.17c-.57-.15-.83-.34-.83-.71s.44-.72,1-.72a1,1,0,0,1,1,.69Zm-8.08.94a1.44,1.44,0,0,1,1.44-1.42,1.31,1.31,0,0,1,1.32,1.42Zm1.51,2.91a1.89,1.89,0,0,0,1.93-1.22l-.72-.2a1.19,1.19,0,0,1-1.21.75,1.47,1.47,0,0,1-1.51-1.6h3.52v-.31c0-1.8-1.08-2.42-2.08-2.42A2.25,2.25,0,0,0,90,107.28,2.22,2.22,0,0,0,92.23,109.76ZM84.71,109V103.9H86c1.52,0,2.28,1,2.28,2.52S87.47,109,85.86,109Zm1.21.69c2,0,3.07-1.22,3.07-3.24s-1.11-3.21-3-3.21H83.92v6.45Z"/><path class="cls-4" d="M89.29,128.49a3.05,3.05,0,0,1-1.66-.5,3,3,0,0,1-1.09-1.33,3,3,0,0,1-.17-1.72,3,3,0,0,1,5.4-1.06,3,3,0,0,1-.37,3.74,2.83,2.83,0,0,1-1,.64A3,3,0,0,1,89.29,128.49Zm6.08-9.41c-.17-.17-.35-.33-.53-.48l0,0c-.19-.15-.38-.3-.58-.43l-.16-.12-.26-.15a9.21,9.21,0,0,0-4.85-1.51h-.23a9.24,9.24,0,0,0-9,9.23c0,4.4,6.22,12.25,8.49,15a1.12,1.12,0,0,0,.36.29,1.18,1.18,0,0,0,.45.1,1.23,1.23,0,0,0,.46-.1,1.12,1.12,0,0,0,.36-.29c2.23-2.71,8.31-10.49,8.31-14.91a9.16,9.16,0,0,0-2.79-6.56Z"/><path class="cls-1" d="M129.5,128.09v-6.45h-1.37v6.45Zm-1.47.69h.78v-1.37H128Zm-.68-7.14v6.45h1.37v-6.45Zm1.46-.68H128v1.36h.78Zm0,7.13v.69h.69v-.69Zm-.78,0h-.68v.69H128Zm0-6.45V121h-.68v.68Zm.78,0h.69V121h-.69Zm-2.34-.68h-.78v1.36h.78Zm.68,5v-4.27h-1.36v4.27Zm-3.19,3a3.3,3.3,0,0,0,2.29-.83,2.88,2.88,0,0,0,.9-2.15h-1.36a1.52,1.52,0,0,1-.47,1.15,1.94,1.94,0,0,1-1.36.46Zm-3.19-3a2.92,2.92,0,0,0,.9,2.15,3.34,3.34,0,0,0,2.29.83v-1.37a1.93,1.93,0,0,1-1.35-.46,1.52,1.52,0,0,1-.47-1.15Zm0-4.27v4.27h1.37v-4.27Zm1.47-.68h-.79v1.36h.79Zm.68,4.89v-4.21h-1.37v4.21Zm1,.94a1.12,1.12,0,0,1-.79-.26.92.92,0,0,1-.25-.68h-1.37a2.28,2.28,0,0,0,.67,1.66,2.47,2.47,0,0,0,1.74.65Zm1.05-.94a1,1,0,0,1-.25.68,1.13,1.13,0,0,1-.8.26v1.37a2.48,2.48,0,0,0,1.75-.65,2.31,2.31,0,0,0,.66-1.66Zm0-4.21v4.21h1.36v-4.21Zm1.46,0h.68V121h-.68Zm-5,0V121h-.68v.68Zm.79,0h.68V121h-.68Zm3.45,0V121H125v.68Zm-10.13,5.2a.53.53,0,0,1-.47-.23,1.58,1.58,0,0,1-.23-.94H113.5a3,3,0,0,0,.48,1.74,1.88,1.88,0,0,0,1.58.8Zm.73-1.17a1.6,1.6,0,0,1-.23.92.55.55,0,0,1-.5.25v1.37a1.93,1.93,0,0,0,1.62-.83,3,3,0,0,0,.48-1.71Zm-.73-1.13a.56.56,0,0,1,.51.24,1.54,1.54,0,0,1,.22.89h1.37a2.93,2.93,0,0,0-.48-1.69,1.93,1.93,0,0,0-1.62-.8Zm-.7,1.13a1.58,1.58,0,0,1,.22-.91.55.55,0,0,1,.48-.22v-1.36A1.88,1.88,0,0,0,114,124a2.84,2.84,0,0,0-.48,1.71Zm-2.1-4v6.45h1.37v-6.45Zm1.43-.68h-.74v1.36h.74Zm.68,3.06v-2.38h-1.36V124Zm-.62-.68h-.06v1.37h.06Zm1.4-.83a2.17,2.17,0,0,0-1.43.48,2.6,2.6,0,0,0-.54.66l1.15.74a1.33,1.33,0,0,1,.27-.35.75.75,0,0,1,.55-.17Zm2.75,3.18a3.45,3.45,0,0,0-.73-2.26,2.56,2.56,0,0,0-2-.92v1.36a1.19,1.19,0,0,1,1,.44,2.1,2.1,0,0,1,.42,1.38Zm-2.73,3.19a2.53,2.53,0,0,0,2-.93,3.45,3.45,0,0,0,.73-2.26H117a2.13,2.13,0,0,1-.42,1.39,1.17,1.17,0,0,1-1,.43Zm-2-1.17a2.62,2.62,0,0,0,.57.69,2.17,2.17,0,0,0,1.43.48v-1.37a.86.86,0,0,1-.56-.16,1.5,1.5,0,0,1-.28-.36Zm.5.32h.08v-1.36h-.08Zm.68.06v-.74h-1.37v.74Zm-1.4.69h.72v-1.37h-.72Zm0-7.14V121h-.69v.68Zm.74,0h.68V121h-.68Zm0,2.38h-.68v.69h.68Zm.06,0v.69h.37l.21-.32Zm0,3.33.58-.36-.2-.32h-.38Zm-.08,0v-.68h-.69v.68Zm0,.74v.69h.68v-.69Zm-.72,0h-.69v.69h.69Zm-2-3.49H108.7V126h2.76Zm-1.33-.06a.58.58,0,0,1,.46.18.83.83,0,0,1,.19.56h1.36a2.15,2.15,0,0,0-.54-1.48,1.94,1.94,0,0,0-1.47-.62Zm-.75.79a.76.76,0,0,1,.75-.79v-1.36a2.13,2.13,0,0,0-2.11,2.06Zm-2.11.38a3.33,3.33,0,0,0,.78,2.26,2.83,2.83,0,0,0,2.16.91v-1.37a1.45,1.45,0,0,1-1.14-.45,2,2,0,0,1-.43-1.35Zm2.86-3.2a2.73,2.73,0,0,0-2.1.94,3.47,3.47,0,0,0-.76,2.26h1.37a2.11,2.11,0,0,1,.43-1.37,1.34,1.34,0,0,1,1.06-.47Zm2.77,3.1a3.22,3.22,0,0,0-.87-2.38,2.7,2.7,0,0,0-1.9-.72v1.36a1.34,1.34,0,0,1,1,.35,1.83,1.83,0,0,1,.45,1.39Zm0,.32v-.32h-1.37v.32Zm-4.2.68h3.51v-1.37H108.7Zm1.51.23a.74.74,0,0,1-.58-.2,1.09,1.09,0,0,1-.25-.74L108,126a2.4,2.4,0,0,0,.63,1.64,2.12,2.12,0,0,0,1.56.62Zm.57-.31c-.07.18-.21.31-.57.31v1.37a1.86,1.86,0,0,0,1.85-1.2Zm1.54-.21-.72-.21-.36,1.32.71.2Zm-2.11,2.56a2.56,2.56,0,0,0,2.58-1.71l-1.3-.4a1.21,1.21,0,0,1-1.28.74Zm1.25-3.6V126h.68v-.69Zm-2.76,0-.68,0,0,.73h.73Zm3.51.65v.68h.69v-.68Zm-3.51,0v-.69H108l0,.71Zm2.72.84.18-.66-.6-.17-.22.59Zm.72.2.65.2.21-.67-.68-.18Zm-13.08-5.15,1.76,6.45,1.32-.36-1.77-6.45Zm1.45-.86h-.79v1.36h.79Zm2,5.77-1.35-5.26-1.32.34,1.35,5.26Zm-.6-.52h-.06v1.37h.06Zm.72-4.74-1.38,5.25,1.32.35,1.38-5.26Zm1.54-.51h-.88v1.36h.88Zm2,5.76-1.37-5.25-1.32.34,1.37,5.26Zm-.59-.51h-.07v1.37h.07Zm.68-4.74L105,126.73l1.33.34,1.35-5.26Zm1.46-.51H107v1.36h.8Zm-1.11,7.31,1.77-6.45-1.32-.36-1.77,6.45Zm-1.46.51h.8v-1.37h-.8Zm-2.09-5.65,1.43,5.15,1.31-.37-1.42-5.14Zm.61.5h.05v-1.36h-.05Zm-.76,4.65,1.42-5.15-1.32-.36-1.42,5.14Zm-1.47.5h.81v-1.37h-.81Zm-1.76-7.14V121h-.9l.24.86Zm.79,0,.66-.17L101,121h-.53Zm1.35,5.26-.66.17.13.51h.53Zm.06,0v.68h.53l.13-.51Zm1.38-5.26V121h-.53l-.13.51Zm.88,0,.66-.17-.13-.51h-.53Zm1.37,5.26-.66.17.14.51h.52Zm.07,0v.68h.52l.14-.51Zm1.34-5.26V121h-.53l-.13.51Zm.8,0,.66.18.23-.86h-.89ZM106,128.09v.69h.52l.14-.51Zm-.8,0-.66.19.14.5h.52ZM103.76,123l.66-.18-.14-.5h-.52Zm-.05,0v-.68h-.52l-.14.5Zm-1.42,5.14v.69h.52l.14-.5Zm-.81,0-.66.18.14.51h.52Z"/><path class="cls-6" d="M128.81,121.64H128v6.45h.78Zm-3.12,0v4.21a1.73,1.73,0,0,1-3.45,0v-4.21h-.79v4.27a2.52,2.52,0,0,0,5,0v-4.27Zm-11.51,4c0-1.08.48-1.81,1.38-1.81s1.42.79,1.42,1.81-.48,1.86-1.42,1.86S114.18,126.77,114.18,125.67Zm-.73,2.42h.72v-.74h.08a1.5,1.5,0,0,0,1.42.85c1.21,0,2-1,2-2.51s-.84-2.5-2.07-2.5a1.49,1.49,0,0,0-1.4.83h-.06v-2.38h-.74Zm-4.75-2.81a1.44,1.44,0,0,1,1.43-1.42,1.31,1.31,0,0,1,1.33,1.42Zm1.51,2.92a1.9,1.9,0,0,0,1.93-1.23l-.72-.2a1.2,1.2,0,0,1-1.21.76,1.47,1.47,0,0,1-1.51-1.6h3.51v-.32c0-1.8-1.07-2.42-2.08-2.42a2.52,2.52,0,0,0,.08,5Zm-8.73-.11h.81l1.42-5.14h.05l1.43,5.14h.8l1.77-6.45H107l-1.34,5.26h-.07l-1.37-5.26h-.88l-1.38,5.26h-.06l-1.35-5.26h-.79Z"/><path class="cls-4" d="M107,146.92a3,3,0,0,1-1.66-.5,3,3,0,0,1-1.09-1.33,2.93,2.93,0,0,1,.65-3.23,2.86,2.86,0,0,1,1.52-.81,2.89,2.89,0,0,1,1.72.17,3,3,0,0,1,1.34,1.09A3,3,0,0,1,110,144a2.93,2.93,0,0,1-.23,1.13,3.07,3.07,0,0,1-1.61,1.61A3,3,0,0,1,107,146.92Zm6.08-9.41c-.17-.17-.35-.33-.53-.48l0,0-.58-.43-.16-.12-.26-.15a9.2,9.2,0,0,0-4.85-1.5h-.23a9.22,9.22,0,0,0-9,9.22c0,4.4,6.22,12.26,8.49,15a1,1,0,0,0,.81.39,1.06,1.06,0,0,0,.46-.1,1.12,1.12,0,0,0,.36-.29c2.23-2.7,8.31-10.49,8.31-14.91a9.16,9.16,0,0,0-2.79-6.56Z"/><path class="cls-1" d="M161.85,146.53v-2.92h-1.37v2.92Zm-1.43.68h.75v-1.37h-.75Zm-.68-5.52v4.84h1.37v-4.84Zm1.4-.69h-.72v1.37h.72Zm.69,1.44v-.75h-1.37v.75Zm-.62-.68h-.07v1.36h.07Zm1.41-.82a2.39,2.39,0,0,0-1.26.33,2,2,0,0,0-.77.89l1.24.57a.58.58,0,0,1,.25-.3,1,1,0,0,1,.54-.12Zm2.32,2.51a2.64,2.64,0,0,0-.64-1.85,2.25,2.25,0,0,0-1.68-.66v1.37a.93.93,0,0,1,.69.23,1.3,1.3,0,0,1,.26.91Zm0,3.08v-3.08h-1.37v3.08Zm-1.43.68h.75v-1.37h-.75Zm-.68-3.71v3h1.37v-3Zm-.43-.53a.38.38,0,0,1,.31.1.6.6,0,0,1,.12.43h1.37a1.93,1.93,0,0,0-.48-1.35,1.76,1.76,0,0,0-1.32-.54Zm-.55.64a.68.68,0,0,1,.16-.5.53.53,0,0,1,.39-.14v-1.36a1.87,1.87,0,0,0-1.37.55,2,2,0,0,0-.55,1.45Zm-.68,2.92v.68h.68v-.68Zm-.75,0h-.68v.68h.68Zm0-4.84V141h-.68v.69Zm.72,0h.69V141h-.69Zm0,.75h-.68v.68h.68Zm.07,0v.68h.43l.19-.39Zm3,4.09v.68h.68v-.68Zm-.75,0h-.68v.68h.68Zm-5.65-2.4a1.55,1.55,0,0,1-.22.88.62.62,0,0,1-.55.27v1.36a1.94,1.94,0,0,0,1.66-.84,2.91,2.91,0,0,0,.48-1.67Zm-.77-1.16a.6.6,0,0,1,.54.27,1.53,1.53,0,0,1,.23.89h1.37a3,3,0,0,0-.48-1.68,2,2,0,0,0-1.66-.84Zm-.76,1.16a1.53,1.53,0,0,1,.23-.89.6.6,0,0,1,.53-.27v-1.36a2,2,0,0,0-1.65.84,3,3,0,0,0-.48,1.68Zm.76,1.15a.61.61,0,0,1-.54-.27,1.55,1.55,0,0,1-.22-.88H155a2.91,2.91,0,0,0,.48,1.67,1.94,1.94,0,0,0,1.65.84Zm-2.87-1.15a3.38,3.38,0,0,0,.77,2.26,2.74,2.74,0,0,0,2.1.92v-1.37a1.37,1.37,0,0,1-1.07-.45,2,2,0,0,1-.44-1.36Zm2.87-3.19a2.74,2.74,0,0,0-2.1.92,3.41,3.41,0,0,0-.77,2.27h1.36a2.07,2.07,0,0,1,.44-1.37,1.37,1.37,0,0,1,1.07-.45Zm2.88,3.19a3.41,3.41,0,0,0-.77-2.27,2.75,2.75,0,0,0-2.11-.92v1.37a1.37,1.37,0,0,1,1.08.45,2.07,2.07,0,0,1,.44,1.37Zm-2.88,3.18a2.75,2.75,0,0,0,2.11-.92,3.38,3.38,0,0,0,.77-2.26h-1.36a2,2,0,0,1-.44,1.36,1.37,1.37,0,0,1-1.08.45Zm-4.9-6.94a1.2,1.2,0,0,0,1.21,1.19V140.2a.13.13,0,0,1,.1,0,.16.16,0,0,1,.05.13Zm1.21-1.18a1.2,1.2,0,0,0-1.21,1.18h1.36a.17.17,0,0,1-.05.14.13.13,0,0,1-.1,0Zm1.21,1.18a1.2,1.2,0,0,0-1.21-1.18v1.36a.14.14,0,0,1-.1,0,.21.21,0,0,1-.05-.14Zm-1.21,1.19a1.2,1.2,0,0,0,1.21-1.19h-1.36a.2.2,0,0,1,.05-.13.14.14,0,0,1,.1,0Zm-1.06.13v4.84h1.37v-4.84Zm1.43-.69H153v1.37h.75Zm.68,5.53v-4.84h-1.37v4.84Zm-1.43.68h.75v-1.37H153Zm0-5.52V141h-.68v.69Zm.75,0h.68V141h-.68Zm0,4.84v.68h.68v-.68Zm-.75,0h-.68v.68H153Zm-3.76,0v-2.92h-1.37v2.92Zm-1.43.68h.74v-1.37h-.74Zm-.68-5.52v4.84h1.36v-4.84Zm1.4-.69h-.72v1.37h.72Zm.68,1.44v-.75h-1.36v.75Zm-.62-.68h-.06v1.36h.06Zm1.41-.82a2.38,2.38,0,0,0-1.25.33,2,2,0,0,0-.78.89l1.24.57a.65.65,0,0,1,.26-.3.94.94,0,0,1,.53-.12Zm2.33,2.51a2.64,2.64,0,0,0-.64-1.85,2.27,2.27,0,0,0-1.69-.66v1.37a.94.94,0,0,1,.7.23,1.3,1.3,0,0,1,.26.91Zm0,3.08v-3.08H151v3.08Zm-1.43.68h.74v-1.37h-.74Zm-.68-3.71v3h1.36v-3Zm-.43-.53a.4.4,0,0,1,.31.1.6.6,0,0,1,.12.43h1.36a2,2,0,0,0-.47-1.35,1.77,1.77,0,0,0-1.32-.54Zm-.55.64a.73.73,0,0,1,.15-.5.57.57,0,0,1,.4-.14v-1.36a1.85,1.85,0,0,0-1.37.55,2,2,0,0,0-.55,1.45Zm-.69,2.92v.68h.69v-.68Zm-.74,0h-.68v.68h.68Zm0-4.84V141h-.68v.69Zm.72,0h.68V141h-.68Zm0,.75h-.68v.68h.68Zm.06,0v.68h.44l.18-.39Zm3,4.09v.68h.69v-.68Zm-.74,0h-.68v.68h.68Zm-5.87-1.76a.45.45,0,0,1-.15.34.71.71,0,0,1-.53.18v1.36a1.92,1.92,0,0,0,2-1.88Zm0-.68v.68h1.36v-.68Zm-.52,1c.14,0,.46-.05.74-.1l.44-.1.23-.09a.86.86,0,0,0,.31-.23l-1-.87a.3.3,0,0,1,.1-.1l.05,0h0l-.29.06-.68.09Zm-.5.14s0,0,0,0,0,0,0,0a.47.47,0,0,1,.17-.07,1.4,1.4,0,0,1,.32-.06l-.17-1.36a2.57,2.57,0,0,0-1,.33,1.33,1.33,0,0,0-.66,1.17Zm.34.1a.63.63,0,0,1-.34-.07h0s0,0,0,0h-1.37a1.36,1.36,0,0,0,.58,1.14,1.91,1.91,0,0,0,1.13.32Zm-2.45-.14a2.06,2.06,0,0,0,.72,1.62,2.48,2.48,0,0,0,1.61.55V146a1.08,1.08,0,0,1-.72-.23.72.72,0,0,1-.24-.58Zm2.47-2.1a4.47,4.47,0,0,0-1.52.42,1.79,1.79,0,0,0-.68.66,1.94,1.94,0,0,0-.27,1h1.37a.53.53,0,0,1,.07-.32.42.42,0,0,1,.18-.17,3,3,0,0,1,1-.26Zm.66.24a.42.42,0,0,1,.12-.28c.08-.08.16-.09.1-.07l-.3,0-.58.07.18,1.35.56-.06a3.85,3.85,0,0,0,.47-.08,1.18,1.18,0,0,0,.55-.29,1,1,0,0,0,.26-.68Zm0,0v0h1.36v0Zm-.34-.3a.48.48,0,0,1,.29.06s.05,0,.05.24h1.36a1.69,1.69,0,0,0-.45-1.21,1.74,1.74,0,0,0-1.25-.45Zm-.64.34a.44.44,0,0,1,.19-.22.74.74,0,0,1,.45-.12V141.6a2,2,0,0,0-1.88,1.12Zm-1.56.1.71.25.46-1.28-.71-.26Zm2.17-2.46a2.66,2.66,0,0,0-2.57,1.55l1.26.54a1.27,1.27,0,0,1,1.31-.72Zm2.48,2.4a2.22,2.22,0,0,0-1-2,2.83,2.83,0,0,0-1.5-.39v1.37a1.45,1.45,0,0,1,.76.17c.15.09.35.29.35.86Zm0,3.19v-3.19h-1.37v3.19Zm-1.43.68h.74v-1.37h-.74Zm-.68-1.34v.66h1.36v-.66Zm.64.68h0v-1.36h0Zm-1.44.77a2.21,2.21,0,0,0,2.06-1.15l-1.23-.59a.88.88,0,0,1-.83.38Zm1.48-3.23h.68v-1.88l-1.2,1.45Zm-1.29.28-.08-.68h0Zm0-.64-.09-.68h0Zm-1-.72-.23.64.58.21.27-.56Zm-.71-.25-.63-.27-.28.67.68.24Zm3.73,3.77v.68h.69v-.68Zm-.74,0h-.68v.68h.68Zm0-.66h.68v-.68h-.68Zm0,0v-.68h-.43l-.18.39Zm-6.15-.59a.52.52,0,0,1-.47-.24,1.56,1.56,0,0,1-.23-.93h-1.37a2.92,2.92,0,0,0,.49,1.73,1.87,1.87,0,0,0,1.58.8Zm.73-1.17a1.65,1.65,0,0,1-.23.92.55.55,0,0,1-.5.25v1.36a1.91,1.91,0,0,0,1.61-.83,2.94,2.94,0,0,0,.48-1.7Zm-.73-1.14a.6.6,0,0,1,.51.24,1.64,1.64,0,0,1,.22.9h1.36a2.81,2.81,0,0,0-.48-1.69,1.9,1.9,0,0,0-1.61-.81Zm-.7,1.14a1.53,1.53,0,0,1,.22-.91.53.53,0,0,1,.48-.23v-1.36a1.89,1.89,0,0,0-1.58.78,2.87,2.87,0,0,0-.49,1.72Zm-2.1-2.42v6.65h1.36v-6.65Zm1.4-.69h-.72v1.37h.72Zm.68,1.45v-.76h-1.36v.76Zm-.59-.68h-.09v1.37h.09Zm1.4-.83a2.15,2.15,0,0,0-1.43.48,2.6,2.6,0,0,0-.54.66l1.14.75a1.4,1.4,0,0,1,.27-.36.84.84,0,0,1,.56-.16Zm2.75,3.18a3.45,3.45,0,0,0-.74-2.26,2.57,2.57,0,0,0-2-.92v1.37a1.19,1.19,0,0,1,1,.43,2.1,2.1,0,0,1,.41,1.38Zm-2.74,3.19a2.59,2.59,0,0,0,2-.92,3.55,3.55,0,0,0,.73-2.27H141a2.11,2.11,0,0,1-.41,1.39,1.18,1.18,0,0,1-1,.43Zm-2-1.17a2.52,2.52,0,0,0,.56.69,2.19,2.19,0,0,0,1.43.48v-1.37a.86.86,0,0,1-.56-.16,1.3,1.3,0,0,1-.27-.36Zm.52.33h.06V145.1h-.06Zm.68,1.87v-2.56h-1.37v2.56Zm-1.43.68h.75v-1.36h-.75Zm0-7.33V141h-.68v.69Zm.72,0h.68V141h-.68Zm0,.76h-.68v.69h.68Zm.09,0v.69h.37l.2-.31Zm0,3.33.58-.36-.2-.32h-.38Zm-.06,0v-.68h-.69v.68Zm0,2.56V149h.68v-.68Zm-.75,0h-.68V149h.68ZM129,141.69v4.84h1.36v-4.84Zm1.4-.69h-.72v1.37h.72Zm.68,1.44v-.75h-1.37v.75Zm-.62-.68h-.06v1.36h.06Zm1.3-.82a2,2,0,0,0-1.94,1.25l1.28.5a.61.61,0,0,1,.66-.38Zm1.92,1.21a2.13,2.13,0,0,0-.75-.88,2,2,0,0,0-1.17-.33v1.37a.69.69,0,0,1,.42.1.73.73,0,0,1,.26.32Zm-.57-.39h0v1.36h0Zm1.45-.82a2.2,2.2,0,0,0-2.06,1.2l1.22.61a.84.84,0,0,1,.84-.44Zm2.15,2.35a2.4,2.4,0,0,0-.6-1.73,2.09,2.09,0,0,0-1.55-.62v1.37a.71.71,0,0,1,.56.19,1.09,1.09,0,0,1,.23.79Zm0,3.24v-3.24h-1.36v3.24Zm-1.42.68h.74v-1.37h-.74Zm-.68-3.92v3.24H136v-3.24Zm-.3-.32a.32.32,0,0,1,.23.06l0,.05a.72.72,0,0,1,0,.21H136a1.68,1.68,0,0,0-.52-1.28,1.71,1.71,0,0,0-1.14-.4Zm-.39.4a.42.42,0,0,1,.09-.3.39.39,0,0,1,.3-.1v-1.36a1.72,1.72,0,0,0-1.29.52,1.75,1.75,0,0,0-.47,1.24Zm0,3.16v-3.16h-1.37v3.16Zm-1.44.68h.75v-1.37h-.75Zm-.69-4v3.32h1.37v-3.32Zm-.27-.24a.29.29,0,0,1,.22.07.22.22,0,0,1,0,.17h1.37a1.57,1.57,0,0,0-.48-1.16,1.65,1.65,0,0,0-1.16-.44Zm-.41.53c0-.37.24-.53.41-.53v-1.36a1.83,1.83,0,0,0-1.78,1.89Zm0,3v-3h-1.37v3Zm-1.43.68h.74v-1.37h-.74Zm0-5.52V141H129v.69Zm.72,0h.68V141h-.68Zm0,.75h-.69v.68h.69Zm.06,0v.68H131l.17-.43Zm2.6,0-.62.29.18.39h.44Zm0,0v.68h.42l.19-.37Zm2.92,4.09v.68h.68v-.68Zm-.74,0h-.68v.68h.68Zm-2.06,0v.68H134v-.68Zm-.75,0h-.69v.68h.69Zm-2.06,0v.68h.69v-.68Zm-.74,0H129v.68h.68Zm-2.56-2.4a1.55,1.55,0,0,1-.23.88.6.6,0,0,1-.54.27v1.36a2,2,0,0,0,1.66-.84,2.9,2.9,0,0,0,.47-1.67Zm-.77-1.16a.61.61,0,0,1,.54.27,1.61,1.61,0,0,1,.23.89h1.36a3,3,0,0,0-.47-1.68,2,2,0,0,0-1.66-.84Zm-.77,1.16a1.61,1.61,0,0,1,.23-.89.61.61,0,0,1,.54-.27v-1.36a2,2,0,0,0-1.66.84,3,3,0,0,0-.47,1.68Zm.77,1.15a.6.6,0,0,1-.54-.27,1.55,1.55,0,0,1-.23-.88h-1.36a2.9,2.9,0,0,0,.47,1.67,2,2,0,0,0,1.66.84Zm-2.88-1.15a3.34,3.34,0,0,0,.78,2.26,2.71,2.71,0,0,0,2.1.92v-1.37a1.39,1.39,0,0,1-1.08-.45,2,2,0,0,1-.43-1.36Zm2.88-3.19a2.71,2.71,0,0,0-2.1.92,3.37,3.37,0,0,0-.78,2.27h1.37a2.07,2.07,0,0,1,.43-1.37,1.39,1.39,0,0,1,1.08-.45Zm2.88,3.19a3.37,3.37,0,0,0-.78-2.27,2.71,2.71,0,0,0-2.1-.92v1.37a1.39,1.39,0,0,1,1.08.45,2.07,2.07,0,0,1,.43,1.37Zm-2.88,3.18a2.71,2.71,0,0,0,2.1-.92,3.34,3.34,0,0,0,.78-2.26h-1.37a2,2,0,0,1-.43,1.36,1.39,1.39,0,0,1-1.08.45Zm-3.91-4.54h.78v-1.36h-.78Zm-1.82-1.37a1.08,1.08,0,0,1,1.15.83l1.34-.28a2.44,2.44,0,0,0-2.49-1.92Zm-1.41,1.9a2.2,2.2,0,0,1,.45-1.48,1.22,1.22,0,0,1,1-.42V140a2.62,2.62,0,0,0-2,.9,3.55,3.55,0,0,0-.77,2.37Zm1.41,1.9a1.19,1.19,0,0,1-1-.43,2.15,2.15,0,0,1-.45-1.47h-1.36a3.55,3.55,0,0,0,.77,2.37,2.62,2.62,0,0,0,2,.9Zm1.15-.83a1.08,1.08,0,0,1-1.15.83v1.37a2.44,2.44,0,0,0,2.49-1.92Zm1.45-.54h-.78v1.36h.78Zm-2.6,3.47a3.2,3.2,0,0,0,3.27-2.67l-1.34-.24a1.83,1.83,0,0,1-1.93,1.54Zm-3.53-4a4.25,4.25,0,0,0,1,2.87,3.33,3.33,0,0,0,2.55,1.13v-1.37a2,2,0,0,1-1.53-.66,2.93,2.93,0,0,1-.63-2Zm3.53-4a3.35,3.35,0,0,0-2.55,1.12,4.29,4.29,0,0,0-1,2.88h1.37a2.93,2.93,0,0,1,.63-2,2,2,0,0,1,1.53-.66Zm3.27,2.67a3.2,3.2,0,0,0-3.27-2.67v1.37a1.83,1.83,0,0,1,1.93,1.54Zm-1.45.12-.67.14.12.54h.55Zm0,2.42v-.68h-.55l-.12.54Zm.78,0,.67.12.15-.8h-.82Zm0-2.42v.68h.82l-.15-.8Z"/><path class="cls-6" d="M161.17,143.61a1.2,1.2,0,0,1,1.23-1.32,1.07,1.07,0,0,1,1.11,1.21v3h.75v-3.08c0-1.24-.66-1.83-1.64-1.83a1.42,1.42,0,0,0-1.41.82h-.07v-.75h-.72v4.84h.75ZM157.09,146c-1,0-1.44-.86-1.44-1.83s.45-1.84,1.44-1.84,1.45.87,1.45,1.84S158.09,146,157.09,146Zm0,.67a2.53,2.53,0,1,0-2.19-2.5A2.23,2.23,0,0,0,157.09,146.63Zm-3.69-5.75a.51.51,0,1,0-.53-.51A.52.52,0,0,0,153.4,140.88Zm-.38,5.65h.75v-4.84H153Zm-4.45-2.92a1.2,1.2,0,0,1,1.24-1.32,1.07,1.07,0,0,1,1.11,1.21v3h.74v-3.08c0-1.24-.66-1.83-1.64-1.83a1.43,1.43,0,0,0-1.41.82h-.06v-.75h-.72v4.84h.74Zm-4.2,2.36c-.59,0-1-.26-1-.78s.51-.74,1.09-.82a3.92,3.92,0,0,0,1.29-.28v.68A1.24,1.24,0,0,1,144.37,146Zm-.12.67a1.51,1.51,0,0,0,1.44-.77h0v.66h.74v-3.19a1.59,1.59,0,0,0-1.79-1.72,2,2,0,0,0-1.94,1.14l.71.25a1.31,1.31,0,0,1,1.26-.73.9.9,0,0,1,1,1v0c0,.36-.37.32-1.25.44s-1.88.31-1.88,1.42A1.49,1.49,0,0,0,144.25,146.64Zm-6.1-2.53c0-1.09.48-1.82,1.39-1.82s1.41.79,1.41,1.82-.48,1.85-1.41,1.85S138.15,145.2,138.15,144.11Zm-.73,4.23h.75v-2.56h.06a1.49,1.49,0,0,0,1.41.85c1.21,0,2.06-1,2.06-2.51s-.85-2.5-2.07-2.5a1.47,1.47,0,0,0-1.4.83h-.09v-.76h-.72Zm-7.71-1.81h.74v-3a1.15,1.15,0,0,1,1.1-1.21.9.9,0,0,1,1,.92v3.32h.75v-3.16a1,1,0,0,1,1.08-1.08.91.91,0,0,1,1,1v3.24h.74v-3.24c0-1.14-.61-1.67-1.47-1.67a1.53,1.53,0,0,0-1.45.82h0a1.34,1.34,0,0,0-1.3-.82,1.31,1.31,0,0,0-1.3.82h-.06v-.75h-.72Zm-3.33-.57c-1,0-1.45-.86-1.45-1.83s.45-1.84,1.45-1.84,1.45.87,1.45,1.84S127.38,146,126.38,146Zm0,.67a2.53,2.53,0,1,0-2.19-2.5A2.23,2.23,0,0,0,126.38,146.63Zm-3.13-4.54a2.53,2.53,0,0,0-2.6-2.11c-1.65,0-2.84,1.28-2.84,3.32s1.19,3.31,2.84,3.31a2.52,2.52,0,0,0,2.6-2.1h-.78a1.76,1.76,0,0,1-1.82,1.37c-1.17,0-2.09-.9-2.09-2.58s.92-2.59,2.09-2.59a1.76,1.76,0,0,1,1.82,1.38Z"/><path class="cls-4" d="M94.07,183.79a3,3,0,0,1-1.66-.51,3,3,0,0,1-1.26-3,3,3,0,0,1,.82-1.52,2.93,2.93,0,0,1,1.52-.81,3,3,0,0,1,3.06,1.26,3,3,0,0,1,.5,1.65,3,3,0,0,1-3,3Zm6.08-9.42-.53-.48-.06,0c-.18-.15-.37-.29-.57-.43l-.16-.11-.26-.16a9.32,9.32,0,0,0-4.85-1.5h-.23a9.27,9.27,0,0,0-6.37,2.79,9.17,9.17,0,0,0-2.61,6.43c0,4.41,6.22,12.26,8.49,15a.9.9,0,0,0,.36.28,1,1,0,0,0,.45.11,1,1,0,0,0,.45-.11.93.93,0,0,0,.37-.28c2.22-2.71,8.31-10.49,8.31-14.91a9.16,9.16,0,0,0-2.79-6.57Z"/><path class="cls-6" d="M158.06,183.39h.75v-3.06a1.14,1.14,0,0,1,1.22-1.14,2.43,2.43,0,0,1,.45.05v-.75l-.39,0a1.32,1.32,0,0,0-1.26.81h-.05v-.73h-.72Zm-4.64-2.81a1.44,1.44,0,0,1,1.43-1.42,1.3,1.3,0,0,1,1.32,1.42Zm1.51,2.91a1.87,1.87,0,0,0,1.92-1.22l-.71-.2a1.19,1.19,0,0,1-1.21.75,1.46,1.46,0,0,1-1.51-1.6h3.51v-.31c0-1.81-1.07-2.42-2.08-2.42a2.25,2.25,0,0,0-2.18,2.52A2.22,2.22,0,0,0,154.93,183.49Zm-5.19-.1h.74v-3.06a1.15,1.15,0,0,1,1.23-1.14,2.43,2.43,0,0,1,.45.05v-.75l-.39,0a1.32,1.32,0,0,0-1.26.81h0v-.73h-.72Zm-3.33-.57c-1,0-1.45-.85-1.45-1.82s.46-1.84,1.45-1.84,1.45.86,1.45,1.84S147.41,182.82,146.41,182.82Zm0,.67a2.52,2.52,0,1,0-2.19-2.49A2.23,2.23,0,0,0,146.41,183.49Zm-3.33-6.55h-.74v6.45h.74Zm-5.42,4c0-1.08.48-1.81,1.39-1.81s1.41.79,1.41,1.81-.48,1.85-1.41,1.85S137.66,182.07,137.66,181Zm-.73,4.24h.75v-2.56h.06a1.5,1.5,0,0,0,1.41.84c1.21,0,2.06-1,2.06-2.51s-.85-2.49-2.07-2.49a1.47,1.47,0,0,0-1.4.83h-.09v-.77h-.72Zm-4.24-6.66h-.85l1.53,2.42-1.53,2.42h.85l1.16-1.88,1.16,1.88h.86L134.31,181l1.56-2.42H135l-1.16,2Zm-5.75,4.84h3.94v-.69h-3.16v-2.2h2.91v-.69h-2.91v-2.18h3.11v-.69h-3.89Zm-8.1-.69v-5.07h1.25c1.51,0,2.28,1,2.28,2.52s-.77,2.55-2.37,2.55Zm1.21.69c2,0,3.08-1.22,3.08-3.24s-1.11-3.21-3-3.21h-2.08v6.45Zm-7,0h3.78v-.69h-3v-5.76h-.78Zm-4.85-3v-2.71h1.37c1,0,1.45.57,1.45,1.35a1.26,1.26,0,0,1-1.44,1.36Zm-.78,3h.78V181h1.41a2,2,0,1,0,0-4.09h-2.18Zm-1.57-6.45h-.78v6.45h.78Z"/></g></g></svg>