<svg xmlns="http://www.w3.org/2000/svg" viewBox="0 0 411.65 417.8"><defs><style>.cls-1{fill:#fff;}.cls-2{fill:#808492;}.cls-3{fill:#b7bbc8;}.cls-4{fill:#398186;}.cls-5{fill:#010101;}</style></defs><g id="Layer_2" data-name="Layer 2"><g id="Layer_1-2" data-name="Layer 1"><rect class="cls-1" x="2.05" y="8.19" width="409.61" height="409.61"/><path class="cls-2" d="M52.4,411.19l1.5-1.72H47.76v-.55h6.13L52.4,407.2H53l1.77,2-1.77,2Zm-13.1-2.82a1.27,1.27,0,0,0-.85.29,1.2,1.2,0,0,0-.42.78h2.53a1.2,1.2,0,0,0-.42-.77A1.24,1.24,0,0,0,39.3,408.37ZM42,409.91s0,.15,0,.4H38a1.24,1.24,0,0,0,.5.76,1.69,1.69,0,0,0,1,.27,2.14,2.14,0,0,0,.7-.11,1.8,1.8,0,0,0,.59-.38l.79.86a2.67,2.67,0,0,1-2.12.83,3.32,3.32,0,0,1-1.54-.34,2.48,2.48,0,0,1-1-.94,2.54,2.54,0,0,1-.37-1.37,2.61,2.61,0,0,1,.36-1.36,2.53,2.53,0,0,1,1-.94,2.89,2.89,0,0,1,1.41-.35,2.79,2.79,0,0,1,1.36.33,2.32,2.32,0,0,1,1,.93A2.81,2.81,0,0,1,42,409.91Zm-8.53-2.67a2,2,0,0,1,1.53.58,2.28,2.28,0,0,1,.57,1.7v2.94H34v-2.71a1.32,1.32,0,0,0-.26-.91.87.87,0,0,0-.71-.31,1.05,1.05,0,0,0-.83.35,1.39,1.39,0,0,0-.31,1v2.58H30.44v-2.71c0-.81-.33-1.22-1-1.22a1.06,1.06,0,0,0-.82.35,1.44,1.44,0,0,0-.3,1v2.58H26.85v-5.14h1.42v.59a1.85,1.85,0,0,1,.7-.49,2.29,2.29,0,0,1,.92-.18,2.24,2.24,0,0,1,1,.22,1.77,1.77,0,0,1,.71.62,2.21,2.21,0,0,1,.79-.62A2.68,2.68,0,0,1,33.43,407.24Zm-8.71-.64a.93.93,0,0,1-.67-.24.77.77,0,0,1-.26-.59.79.79,0,0,1,.26-.59.93.93,0,0,1,.67-.24,1,1,0,0,1,.67.23.72.72,0,0,1,.25.57.81.81,0,0,1-.25.62A1,1,0,0,1,24.72,406.6Zm-.75.72h1.49v5.14H24Zm-4.3-.29H17.53v-1.26h5.83V407H21.21v5.43H19.67Z"/><path class="cls-2" d="M8.66,410.81l1.72,1.5v-6.15h.55v6.14l1.71-1.49v.64l-2,1.77-2-1.77Zm2.81-10.61a1.28,1.28,0,0,0-.28-.85,1.2,1.2,0,0,0-.79-.42v2.53a1.2,1.2,0,0,0,.78-.42A1.23,1.23,0,0,0,11.47,400.2Zm-1.53,2.67-.41,0V399a1.22,1.22,0,0,0-.75.5,1.59,1.59,0,0,0-.28,1,1.92,1.92,0,0,0,.12.71,1.76,1.76,0,0,0,.38.58l-.86.8a2.67,2.67,0,0,1-.83-2.13,3.38,3.38,0,0,1,.33-1.53,2.59,2.59,0,0,1,1-1,2.62,2.62,0,0,1,1.37-.36,2.66,2.66,0,0,1,1.35.35,2.51,2.51,0,0,1,.95,1,2.87,2.87,0,0,1,.34,1.4,2.94,2.94,0,0,1-.32,1.37,2.35,2.35,0,0,1-.94,1A2.77,2.77,0,0,1,9.94,402.87Zm-2.63-8.39a5.28,5.28,0,0,1,.15-1.25,3.29,3.29,0,0,1,.4-1l1.07.49a3.66,3.66,0,0,0-.36.84,3.51,3.51,0,0,0-.13,1c0,.63.15.95.46.95a.33.33,0,0,0,.32-.26,3.82,3.82,0,0,0,.16-.79,9.88,9.88,0,0,1,.22-1.05,1.61,1.61,0,0,1,.44-.71,1.25,1.25,0,0,1,.9-.3,1.39,1.39,0,0,1,.86.28,1.83,1.83,0,0,1,.59.82,3.54,3.54,0,0,1,.21,1.28,5,5,0,0,1-.12,1.08,3.14,3.14,0,0,1-.33.9l-1.06-.5a2.89,2.89,0,0,0,.38-1.48,1.52,1.52,0,0,0-.13-.72.4.4,0,0,0-.34-.23.35.35,0,0,0-.34.25,5.51,5.51,0,0,0-.18.83,8.66,8.66,0,0,1-.23,1,1.47,1.47,0,0,1-.43.7,1.26,1.26,0,0,1-.88.29,1.36,1.36,0,0,1-.85-.28,1.92,1.92,0,0,1-.58-.85A3.59,3.59,0,0,1,7.31,394.48Zm5.93-3.85a.93.93,0,0,1,.24-.67.81.81,0,0,1,1.19,0,.93.93,0,0,1,.24.67,1,1,0,0,1-.23.66.73.73,0,0,1-.58.26.8.8,0,0,1-.62-.26A.92.92,0,0,1,13.24,390.63Zm-.71-.75v1.49H7.38v-1.49ZM7.63,389a1.59,1.59,0,0,1-.25-.54,2.87,2.87,0,0,1-.07-.67,2,2,0,0,1,.47-1.42,1.76,1.76,0,0,1,1.37-.5h2.11v-.8h1.15v.8h1.25v1.49H12.41v1.28H11.26V387.4H9.17a.7.7,0,0,0-.5.16.65.65,0,0,0-.18.48,1,1,0,0,0,.19.6Zm4.22-6.15a1.68,1.68,0,0,1,.56.72,2.69,2.69,0,0,1,.19,1.05H11.23c0-.16,0-.27,0-.33a1.39,1.39,0,0,0-.37-1A1.43,1.43,0,0,0,9.81,383H7.38v-1.49h5.15v1.42Zm-.38-5.08a1.28,1.28,0,0,0-.28-.85,1.2,1.2,0,0,0-.79-.42v2.53a1.2,1.2,0,0,0,.78-.42A1.23,1.23,0,0,0,11.47,377.81Zm-1.53,2.67-.41,0v-3.89a1.22,1.22,0,0,0-.75.5,1.59,1.59,0,0,0-.28,1,2,2,0,0,0,.12.71,1.76,1.76,0,0,0,.38.58l-.86.79A2.64,2.64,0,0,1,7.31,378a3.45,3.45,0,0,1,.33-1.54,2.56,2.56,0,0,1,1-1,2.62,2.62,0,0,1,1.37-.36,2.66,2.66,0,0,1,1.35.35,2.45,2.45,0,0,1,.95,1,2.87,2.87,0,0,1,.34,1.4,2.94,2.94,0,0,1-.32,1.37,2.32,2.32,0,0,1-.94.95A2.68,2.68,0,0,1,9.94,380.48Zm-1.41-8.86a1.24,1.24,0,0,0,.38.94,1.45,1.45,0,0,0,1.05.37,1.42,1.42,0,0,0,1-.37,1.21,1.21,0,0,0,.39-.94,1.24,1.24,0,0,0-.39-.94,1.46,1.46,0,0,0-1-.37,1.49,1.49,0,0,0-1.05.37A1.27,1.27,0,0,0,8.53,371.62Zm4.07.26a2.59,2.59,0,0,1-.33,1.3,2.31,2.31,0,0,1-.93.93,2.79,2.79,0,0,1-1.38.33,2.87,2.87,0,0,1-1.4-.33,2.38,2.38,0,0,1-.93-.93,2.69,2.69,0,0,1-.32-1.3,2,2,0,0,1,.62-1.55H5.53v-1.49h7v1.43h-.6A2,2,0,0,1,12.6,371.88Zm-5.22-5.45L9,365.3l-1.58-1.17v-1.62l2.59,2,2.56-1.91v1.67L11,365.34l1.5,1.12V368L10,366.13l-2.63,2Zm1.25-4.33H7.38v-5.18h6.69V362H12.83v-3.51H11.38v3.1h-1.2v-3.1H8.63Z"/><rect class="cls-2" y="212.31" width="409.61" height="0.68"/><rect class="cls-2" x="204.8" y="8.19" width="0.68" height="409.61"/><path class="cls-3" d="M27.31,27.14a3,3,0,0,1-2.75-1.83,3,3,0,0,1-.17-1.71,3,3,0,0,1,2.34-2.33,3,3,0,0,1,3.06,1.26,3,3,0,0,1,.5,1.65,2.93,2.93,0,0,1-.23,1.13,2.89,2.89,0,0,1-1.61,1.61A2.79,2.79,0,0,1,27.31,27.14Zm6.08-9.41-.53-.48,0,0-.58-.43-.16-.11a2.26,2.26,0,0,0-.26-.16A9.26,9.26,0,0,0,27,15h-.23a9.22,9.22,0,0,0-9,9.22c0,4.41,6.22,12.26,8.49,15a1,1,0,0,0,.36.28,1,1,0,0,0,.45.11,1.07,1.07,0,0,0,.46-.11,1,1,0,0,0,.36-.28c2.23-2.71,8.31-10.49,8.31-14.91a9.16,9.16,0,0,0-2.79-6.57Z"/><path class="cls-3" d="M97.19,20.3h-.75v6.45h.75Zm-8.46,6.45h.74v-3a1.15,1.15,0,0,1,1.1-1.21.9.9,0,0,1,1,.92v3.32h.75V23.6a1,1,0,0,1,1.08-1.09.9.9,0,0,1,1,1v3.24h.74V23.51c0-1.14-.61-1.66-1.47-1.66a1.51,1.51,0,0,0-1.45.82h0a1.33,1.33,0,0,0-1.3-.82,1.3,1.3,0,0,0-1.3.82h-.06v-.76h-.72Zm-1.12-4.84h-1V20.75h-.75v1.16H85.1v.63h.73v3a1.24,1.24,0,0,0,1.31,1.25,1.51,1.51,0,0,0,.56-.09l-.15-.66a1.94,1.94,0,0,1-.33,0c-.33,0-.64-.1-.64-.73V22.54h1ZM81,23.84a1.21,1.21,0,0,1,1.27-1.33,1.07,1.07,0,0,1,1.12,1.21v3h.74V23.67c0-1.24-.66-1.82-1.65-1.82a1.39,1.39,0,0,0-1.42.82H81V20.3h-.75v6.45H81ZM79,23.64H76.13v.69H79Zm-6.81-1.73h-.86l1.54,2.42-1.54,2.42h.86l1.16-1.88,1.16,1.88h.86l-1.57-2.42,1.57-2.42h-.86l-1.16,2Zm-5.07,2a1.45,1.45,0,0,1,1.43-1.43,1.32,1.32,0,0,1,1.33,1.43Zm1.51,2.91a1.89,1.89,0,0,0,1.93-1.22l-.72-.2a1.19,1.19,0,0,1-1.21.75,1.47,1.47,0,0,1-1.51-1.6h3.51v-.31c0-1.81-1.07-2.42-2.08-2.42a2.25,2.25,0,0,0-2.18,2.52A2.23,2.23,0,0,0,68.58,26.85ZM63,26.18c-.94,0-1.41-.82-1.41-1.85S62,22.51,63,22.51s1.38.73,1.38,1.82S63.86,26.18,63,26.18Zm-.1.67A1.51,1.51,0,0,0,64.28,26h.09v.74h.72V20.3h-.75v2.38h-.06a1.49,1.49,0,0,0-1.4-.83c-1.22,0-2.07,1-2.07,2.49S61.66,26.85,62.87,26.85Zm-6.28-3a1.2,1.2,0,0,1,1.24-1.33,1.07,1.07,0,0,1,1.11,1.21v3h.74V23.67c0-1.23-.66-1.82-1.64-1.82a1.42,1.42,0,0,0-1.41.82h-.06v-.76h-.72v4.84h.74ZM54.12,21.1a.51.51,0,0,0,.53-.5.53.53,0,0,0-1.06,0A.51.51,0,0,0,54.12,21.1Zm-.38,5.65h.75V21.91h-.75Zm-1.31-3.11H49.61v.69h2.82Zm-5.72,3.11h.75V23.69a1.14,1.14,0,0,1,1.22-1.14,2.43,2.43,0,0,1,.45.05v-.75l-.39,0a1.32,1.32,0,0,0-1.26.81h0v-.73h-.72ZM45,21.1a.51.51,0,0,0,.53-.5.52.52,0,0,0-.53-.51.51.51,0,0,0-.52.51A.51.51,0,0,0,45,21.1Zm-.37,5.65h.74V21.91h-.74Zm-5.5-.69V21h1.25c1.51,0,2.28,1,2.28,2.52s-.77,2.55-2.37,2.55Zm1.21.69c2,0,3.08-1.22,3.08-3.24s-1.11-3.21-3-3.21H38.33v6.45Z"/><path class="cls-3" d="M10.92,12.13a3,3,0,0,1-1.65-.51A3,3,0,0,1,8,8.58a3,3,0,0,1,.81-1.52,3,3,0,0,1,3.25-.64A2.9,2.9,0,0,1,13.4,7.51,2.94,2.94,0,0,1,13,11.26a3,3,0,0,1-1,.64A2.94,2.94,0,0,1,10.92,12.13ZM17,2.71c-.16-.16-.34-.32-.53-.48l0,0c-.18-.15-.37-.29-.57-.43l-.17-.11-.25-.16A9.33,9.33,0,0,0,10.57,0h-.22a9.22,9.22,0,0,0-9,9.22c0,4.41,6.22,12.26,8.48,15a1,1,0,0,0,.37.28,1,1,0,0,0,.9,0,1,1,0,0,0,.37-.28C13.71,21.48,19.8,13.7,19.8,9.28a9.12,9.12,0,0,0-.73-3.57A9,9,0,0,0,17,2.71Z"/><path class="cls-3" d="M43.51,11.16c-1,0-1.45-.85-1.45-1.82s.45-1.85,1.45-1.85S45,8.36,45,9.34,44.51,11.16,43.51,11.16Zm0,.67A2.22,2.22,0,0,0,45.7,9.34a2.21,2.21,0,1,0-4.38,0A2.22,2.22,0,0,0,43.51,11.83ZM39.82,6.08a.51.51,0,0,0,.52-.5.51.51,0,0,0-.52-.51.52.52,0,0,0-.53.51A.51.51,0,0,0,39.82,6.08Zm-.38,5.65h.74V6.89h-.74Zm-1.9,0a.57.57,0,1,0-.57-.57A.56.56,0,0,0,37.54,11.78ZM35.79,8a1.64,1.64,0,0,0-1.72-1.14c-1,0-1.78.58-1.78,1.4,0,.66.4,1.11,1.29,1.32l.81.19c.48.11.71.35.71.68s-.44.76-1.13.76a1,1,0,0,1-1.12-.79l-.71.18A1.67,1.67,0,0,0,34,11.83c1.13,0,1.89-.61,1.89-1.45,0-.67-.42-1.1-1.28-1.31l-.72-.18c-.57-.14-.83-.33-.83-.7s.44-.72,1-.72a1,1,0,0,1,1,.69ZM31.51,6.89H30.43V6.4c0-.48.2-.73.69-.73a1.34,1.34,0,0,1,.42.07l.21-.64a1.69,1.69,0,0,0-.7-.13,1.25,1.25,0,0,0-1.36,1.25v.67H28.9v.63h.79v4.21h.74V7.52h1.08ZM24.68,9.31c0-1.08.48-1.82,1.39-1.82s1.41.8,1.41,1.82-.48,1.85-1.41,1.85S24.68,10.41,24.68,9.31ZM24,13.55h.74V11h.07a1.5,1.5,0,0,0,1.41.84c1.21,0,2-1,2-2.51s-.84-2.49-2.06-2.49a1.47,1.47,0,0,0-1.4.83h-.09V6.89H24ZM22.22,6.08a.51.51,0,0,0,.53-.5.53.53,0,0,0-1.06,0A.51.51,0,0,0,22.22,6.08Zm-.38,5.65h.75V6.89h-.75Z"/><path class="cls-3" d="M54.2,75.92a2.94,2.94,0,0,1-1.65-.5,3,3,0,0,1-1.1-1.33,2.94,2.94,0,0,1-.16-1.71,2.86,2.86,0,0,1,.81-1.52A3,3,0,0,1,57,74.09a3,3,0,0,1-.65,1,3.15,3.15,0,0,1-1,.64A3,3,0,0,1,54.2,75.92Zm6.08-9.41c-.17-.17-.35-.32-.53-.48l0,0c-.18-.15-.38-.29-.57-.43L59,65.46a2.26,2.26,0,0,0-.26-.16,9.26,9.26,0,0,0-4.85-1.5h-.22a9.22,9.22,0,0,0-9,9.22c0,4.41,6.23,12.26,8.49,15a1,1,0,0,0,.37.29,1,1,0,0,0,.45.1,1,1,0,0,0,.45-.1.93.93,0,0,0,.36-.29c2.23-2.7,8.32-10.49,8.32-14.91a9.29,9.29,0,0,0-.73-3.56A9.16,9.16,0,0,0,60.28,66.51Z"/><path class="cls-3" d="M96,75c-1,0-1.45-.86-1.45-1.83S95,71.29,96,71.29s1.45.87,1.45,1.84S97,75,96,75Zm0,.67a2.53,2.53,0,1,0-2.19-2.5A2.23,2.23,0,0,0,96,75.63Zm-3.69-5.75a.51.51,0,1,0-.53-.5A.52.52,0,0,0,92.28,69.88Zm-.38,5.65h.75V70.69H91.9Zm-1.9,0a.57.57,0,1,0-.57-.57A.58.58,0,0,0,90,75.58Zm-1.75-3.81a1.63,1.63,0,0,0-1.71-1.15c-1,0-1.78.58-1.78,1.4s.4,1.12,1.28,1.33l.81.19c.49.11.72.34.72.68s-.44.75-1.14.75a1,1,0,0,1-1.12-.78l-.7.18a1.66,1.66,0,0,0,1.84,1.26c1.12,0,1.89-.62,1.89-1.45,0-.67-.42-1.1-1.29-1.31l-.72-.18c-.57-.14-.83-.33-.83-.7s.44-.72,1-.72a1,1,0,0,1,1,.69ZM84,70.69H82.89V70.2c0-.48.21-.74.7-.74a1.19,1.19,0,0,1,.41.08l.22-.64a1.75,1.75,0,0,0-.71-.13A1.26,1.26,0,0,0,82.15,70v.67h-.78v.63h.78v4.21h.74V71.32H84Zm-6.83,2.42c0-1.09.47-1.82,1.38-1.82s1.41.8,1.41,1.82S79.47,75,78.53,75,77.15,74.2,77.15,73.11Zm-.74,4.23h.75V74.78h.06a1.5,1.5,0,0,0,1.41.85c1.21,0,2.06-1,2.06-2.51s-.85-2.5-2.07-2.5a1.48,1.48,0,0,0-1.4.84h-.09v-.77h-.72Zm-1.72-7.46a.51.51,0,1,0-.53-.5A.52.52,0,0,0,74.69,69.88Zm-.38,5.65h.74V70.69h-.74Zm-1.9,0a.57.57,0,1,0-.57-.57A.57.57,0,0,0,72.41,75.58Zm-1.75-3.81a1.64,1.64,0,0,0-1.72-1.15c-1,0-1.78.58-1.78,1.4s.4,1.12,1.29,1.33l.81.19c.49.11.72.34.72.68s-.45.75-1.14.75a1,1,0,0,1-1.12-.78l-.71.18a1.67,1.67,0,0,0,1.84,1.26c1.13,0,1.89-.62,1.89-1.45,0-.67-.42-1.1-1.28-1.31l-.72-.18c-.57-.14-.83-.33-.83-.7s.44-.72,1-.72A1,1,0,0,1,70,72Zm-5.17-1.89a.51.51,0,1,0-.53-.5A.52.52,0,0,0,65.49,69.88Zm-.37.81v5.19c0,.49-.2.77-.65.77h-.14v.69h.15a1.29,1.29,0,0,0,1.39-1.46V70.69Z"/><path class="cls-3" d="M132.71,51.35a3,3,0,0,1-2.1-5.07,3.09,3.09,0,0,1,1.52-.81,3,3,0,0,1,3.06,1.26,2.94,2.94,0,0,1,.5,1.65,3,3,0,0,1-.23,1.14,3.1,3.1,0,0,1-.64,1,3,3,0,0,1-2.11.87Zm6.08-9.42-.53-.47,0,0-.58-.43-.16-.11-.26-.16a9.26,9.26,0,0,0-4.85-1.5h-.22a9.24,9.24,0,0,0-9,9.23c0,4.4,6.22,12.25,8.49,15a1.12,1.12,0,0,0,.36.29,1.09,1.09,0,0,0,.91,0,1.12,1.12,0,0,0,.36-.29c2.23-2.71,8.31-10.49,8.31-14.91a9.12,9.12,0,0,0-.73-3.57A9.35,9.35,0,0,0,138.79,41.93Z"/><path class="cls-3" d="M214.66,51h.75V47.89a1.14,1.14,0,0,1,1.22-1.14,2.43,2.43,0,0,1,.45,0v-.75h-.39a1.31,1.31,0,0,0-1.26.8h-.05v-.73h-.72ZM210,48.14a1.44,1.44,0,0,1,1.43-1.42,1.3,1.3,0,0,1,1.32,1.42Zm1.51,2.91a1.89,1.89,0,0,0,1.93-1.22l-.72-.2a1.19,1.19,0,0,1-1.21.75,1.46,1.46,0,0,1-1.51-1.6h3.51v-.31c0-1.8-1.07-2.42-2.08-2.42a2.25,2.25,0,0,0-2.18,2.52A2.22,2.22,0,0,0,211.53,51.05Zm-6.66-.1h.74V49.14l.52-.48L207.94,51h.95l-2.2-2.77,2.05-2.07h-.92l-2.12,2.16h-.09V44.5h-.74Zm-3,.1a1.79,1.79,0,0,0,1.9-1.51H203a1.12,1.12,0,0,1-1.16.84c-.88,0-1.45-.73-1.45-1.85s.58-1.81,1.45-1.81a1.14,1.14,0,0,1,1.16.84h.74a1.79,1.79,0,0,0-1.91-1.51,2.24,2.24,0,0,0-2.19,2.51A2.23,2.23,0,0,0,201.88,51.05Zm-6.61-2.91a1.44,1.44,0,0,1,1.43-1.42A1.3,1.3,0,0,1,198,48.14Zm1.51,2.91a1.87,1.87,0,0,0,1.92-1.22l-.71-.2a1.19,1.19,0,0,1-1.21.75,1.46,1.46,0,0,1-1.51-1.6h3.51v-.31c0-1.8-1.07-2.42-2.08-2.42a2.25,2.25,0,0,0-2.18,2.52A2.22,2.22,0,0,0,196.78,51.05Zm-6.53-3a1.22,1.22,0,0,1,1.27-1.32,1.07,1.07,0,0,1,1.12,1.21v3h.75V47.88c0-1.25-.67-1.83-1.66-1.83a1.41,1.41,0,0,0-1.42.82h-.06V44.5h-.75V51h.75Zm-1.91-1.53a2.52,2.52,0,0,0-2.6-2.1c-1.65,0-2.85,1.27-2.85,3.31s1.2,3.32,2.85,3.32a2.52,2.52,0,0,0,2.6-2.1h-.78a1.76,1.76,0,0,1-1.82,1.37c-1.17,0-2.09-.91-2.09-2.59s.92-2.58,2.09-2.58a1.76,1.76,0,0,1,1.82,1.37Zm-12.26,6.26a1.45,1.45,0,0,0,1.42-1.11l2.07-5.54h-.82L177.42,50h0L176,46.11h-.81L177,51l-.14.38c-.27.73-.6.8-1.14.66l-.19.66A1.38,1.38,0,0,0,176.08,52.77Zm-3.77-2.37c-.59,0-1-.27-1-.78s.52-.75,1.1-.82a3.86,3.86,0,0,0,1.28-.28v.68A1.25,1.25,0,0,1,172.31,50.4Zm-.11.67a1.55,1.55,0,0,0,1.44-.77h0V51h.75V47.76a1.59,1.59,0,0,0-1.79-1.71,2,2,0,0,0-1.94,1.13l.7.25a1.32,1.32,0,0,1,1.26-.73.9.9,0,0,1,1,1v0c0,.36-.36.33-1.25.44s-1.87.32-1.87,1.43A1.5,1.5,0,0,0,172.2,51.07ZM164.66,51h.73l1.06-3.72h.08L167.58,51h.74l1.47-4.84H169l-1,3.69h-.05l-1-3.69h-.79l-1,3.71H165l-1-3.71h-.79Zm-5.74-2.81a1.44,1.44,0,0,1,1.43-1.42,1.3,1.3,0,0,1,1.32,1.42Zm1.51,2.91a1.89,1.89,0,0,0,1.93-1.22l-.72-.2a1.19,1.19,0,0,1-1.21.75,1.46,1.46,0,0,1-1.51-1.6h3.51v-.31c0-1.8-1.07-2.42-2.08-2.42a2.25,2.25,0,0,0-2.18,2.52A2.22,2.22,0,0,0,160.43,51.05Zm-3.1-4.94h-1V45h-.75v1.16h-.73v.63h.73v3A1.24,1.24,0,0,0,156.86,51a1.76,1.76,0,0,0,.56-.09l-.15-.67a1.71,1.71,0,0,1-.33,0c-.33,0-.64-.1-.64-.73V46.74h1Zm-5.57,4.29c-.59,0-1-.27-1-.78s.52-.75,1.1-.82a3.86,3.86,0,0,0,1.28-.28v.68A1.24,1.24,0,0,1,151.76,50.4Zm-.11.67a1.55,1.55,0,0,0,1.44-.77h0V51h.75V47.76a1.58,1.58,0,0,0-1.79-1.71,2,2,0,0,0-1.94,1.13l.7.25a1.32,1.32,0,0,1,1.26-.73.9.9,0,0,1,1,1v0c0,.36-.36.33-1.24.44s-1.88.32-1.88,1.43A1.5,1.5,0,0,0,151.65,51.07Zm-3.51-4.56H149a2.6,2.6,0,0,0-2.65-2.1c-1.65,0-2.82,1.27-2.82,3.31S144.64,51,146.35,51A2.49,2.49,0,0,0,149,48.42v-.7h-2.46v.7h1.7a1.79,1.79,0,0,1-1.88,1.89c-1.2,0-2.12-.91-2.12-2.59s.92-2.58,2.07-2.58A1.84,1.84,0,0,1,148.14,46.51Z"/><path class="cls-3" d="M155.24,194a3.05,3.05,0,0,1-1.66-.5,3,3,0,0,1-1.09-1.34,3,3,0,0,1-.17-1.71,3,3,0,0,1,.82-1.52,2.93,2.93,0,0,1,1.52-.81,3.06,3.06,0,0,1,1.72.17,2.92,2.92,0,0,1,1.34,1.09,3,3,0,0,1,.5,1.65,3,3,0,0,1-.23,1.14,3.1,3.1,0,0,1-.64,1,3.15,3.15,0,0,1-1,.64A3,3,0,0,1,155.24,194Zm6.08-9.42-.53-.47,0,0-.58-.43-.16-.11c-.08-.06-.17-.1-.26-.16a9.26,9.26,0,0,0-4.85-1.5h-.23a9.22,9.22,0,0,0-9,9.23c0,4.4,6.22,12.25,8.49,15a1,1,0,0,0,.36.28,1,1,0,0,0,.45.11,1.07,1.07,0,0,0,.46-.11,1,1,0,0,0,.36-.28c2.23-2.71,8.31-10.49,8.31-14.91a9.12,9.12,0,0,0-.73-3.57A9.35,9.35,0,0,0,161.32,184.61Z"/><path class="cls-3" d="M219.23,193.63H220v-3.06a1.14,1.14,0,0,1,1.22-1.14,2.43,2.43,0,0,1,.45,0v-.75l-.39,0a1.32,1.32,0,0,0-1.26.81H220v-.73h-.72Zm-4.64-2.81A1.44,1.44,0,0,1,216,189.4a1.31,1.31,0,0,1,1.33,1.42Zm1.51,2.91a1.89,1.89,0,0,0,1.93-1.22l-.72-.2a1.19,1.19,0,0,1-1.21.75,1.46,1.46,0,0,1-1.51-1.6h3.51v-.31c0-1.8-1.07-2.42-2.08-2.42a2.25,2.25,0,0,0-2.18,2.52A2.22,2.22,0,0,0,216.1,193.73Zm-5.19-.1h.75v-3.06a1.14,1.14,0,0,1,1.22-1.14,2.43,2.43,0,0,1,.45,0v-.75l-.39,0a1.32,1.32,0,0,0-1.26.81h-.05v-.73h-.72Zm-3.33-.57c-1,0-1.45-.85-1.45-1.82s.46-1.84,1.45-1.84,1.45.87,1.45,1.84S208.58,193.06,207.58,193.06Zm0,.67a2.52,2.52,0,1,0-2.19-2.49A2.22,2.22,0,0,0,207.58,193.73Zm-3.32-6.55h-.75v6.45h.75Zm-5.43,4c0-1.08.48-1.81,1.39-1.81s1.41.79,1.41,1.81-.48,1.85-1.41,1.85S198.83,192.31,198.83,191.21Zm-.73,4.24h.75v-2.56h.06a1.5,1.5,0,0,0,1.41.84c1.21,0,2.06-1,2.06-2.51s-.85-2.49-2.07-2.49a1.47,1.47,0,0,0-1.4.83h-.09v-.77h-.72Zm-4.23-6.66H193l1.54,2.42L193,193.63h.86l1.16-1.88,1.15,1.88H197l-1.56-2.42,1.56-2.42h-.86l-1.15,2Zm-5.76,4.84h3.94v-.69h-3.16v-2.2h2.91v-.69h-2.91v-2.18H192v-.69h-3.89Zm-8.1-.69v-5.07h1.25c1.51,0,2.28,1,2.28,2.52s-.77,2.55-2.37,2.55Zm1.21.69c2,0,3.08-1.22,3.08-3.24s-1.11-3.21-3-3.21h-2.08v6.45Zm-7,0H178v-.69h-3v-5.76h-.78Zm-4.85-3v-2.71h1.37c1.05,0,1.45.57,1.45,1.35a1.26,1.26,0,0,1-1.43,1.36Zm-.78,3h.78v-2.36h1.41a2,2,0,1,0,0-4.09h-2.18ZM167,187.18h-.78v6.45H167Z"/><path class="cls-3" d="M81.51,133.27a3,3,0,0,1-2.75-1.83,3.07,3.07,0,0,1-.17-1.72,3,3,0,0,1,5.4-1.07,3,3,0,0,1-2.48,4.62Zm6.08-9.41c-.17-.17-.35-.33-.53-.48l0,0c-.19-.14-.38-.29-.58-.42l-.16-.12-.26-.15a9.18,9.18,0,0,0-4.85-1.51h-.23a9.24,9.24,0,0,0-9,9.23c0,4.4,6.22,12.25,8.49,15a1.12,1.12,0,0,0,.36.29,1.09,1.09,0,0,0,.91,0,1.12,1.12,0,0,0,.36-.29c2.23-2.71,8.31-10.49,8.31-14.91a9.12,9.12,0,0,0-2.79-6.56Z"/><path class="cls-3" d="M122.64,130.45c0-1.08.47-1.81,1.38-1.81s1.41.79,1.41,1.81-.47,1.86-1.41,1.86S122.64,131.55,122.64,130.45Zm-.74,4.24h.75v-2.56h.06a1.51,1.51,0,0,0,1.41.84c1.21,0,2.06-1,2.06-2.5s-.85-2.5-2.07-2.5a1.48,1.48,0,0,0-1.4.83h-.09V128h-.72Zm-3.32-2.38c-1,0-1.45-.86-1.45-1.83s.45-1.84,1.45-1.84,1.45.87,1.45,1.84S119.57,132.31,118.58,132.31Zm0,.66a2.52,2.52,0,1,0-2.2-2.49A2.22,2.22,0,0,0,118.58,133Zm-3-4.94h-1v-1.16h-.75V128H113v.63h.73v3a1.25,1.25,0,0,0,1.32,1.25,1.49,1.49,0,0,0,.55-.09l-.15-.67a1.5,1.5,0,0,1-.33,0c-.33,0-.64-.1-.64-.73v-2.83h1Zm-6.93,4.84h.74v-1.81l.52-.48,1.82,2.29h.94l-2.2-2.77,2-2.07h-.92l-2.12,2.16h-.09v-3.77h-.74Zm-1.21-3.75a1.62,1.62,0,0,0-1.71-1.15c-1,0-1.78.58-1.78,1.4,0,.67.4,1.11,1.29,1.32l.8.19c.49.11.72.35.72.68s-.44.76-1.13.76a1,1,0,0,1-1.13-.78l-.7.17A1.65,1.65,0,0,0,105.6,133c1.12,0,1.89-.61,1.89-1.45,0-.67-.42-1.1-1.29-1.31l-.71-.17c-.58-.15-.84-.34-.84-.71s.44-.72,1-.72a1,1,0,0,1,1,.7Zm-8.07.94a1.44,1.44,0,0,1,1.43-1.42,1.3,1.3,0,0,1,1.32,1.42Zm1.51,2.91a1.89,1.89,0,0,0,1.93-1.22l-.72-.2a1.2,1.2,0,0,1-1.21.76,1.47,1.47,0,0,1-1.51-1.61h3.51v-.31c0-1.8-1.07-2.42-2.08-2.42a2.25,2.25,0,0,0-2.18,2.52A2.22,2.22,0,0,0,100.84,133Zm-7.53-.79v-5.07h1.25c1.51,0,2.28,1,2.28,2.52s-.77,2.55-2.37,2.55Zm1.21.69c2,0,3.08-1.22,3.08-3.24s-1.11-3.21-3-3.21H92.53v6.45Z"/><path class="cls-3" d="M99.26,146.92a2.91,2.91,0,0,1-1.65-.5,3,3,0,0,1-1.27-3,3,3,0,0,1,.82-1.51,2.86,2.86,0,0,1,1.52-.81,3,3,0,0,1,3.06,1.26,2.94,2.94,0,0,1,.27,2.78,2.95,2.95,0,0,1-2.75,1.83Zm6.08-9.41c-.17-.17-.35-.33-.53-.48l0,0-.58-.43-.16-.12-.26-.15a9.17,9.17,0,0,0-4.85-1.5h-.23a9.22,9.22,0,0,0-9,9.22c0,4.4,6.22,12.26,8.49,15a1.12,1.12,0,0,0,.36.29,1,1,0,0,0,.45.1,1,1,0,0,0,.46-.1,1.12,1.12,0,0,0,.36-.29c2.23-2.7,8.31-10.49,8.31-14.91a9.16,9.16,0,0,0-2.79-6.56Z"/><path class="cls-3" d="M138.79,140.07H138v6.46h.79Zm-3.13,0v4.21a1.73,1.73,0,0,1-3.45,0v-4.21h-.78v4.28a2.52,2.52,0,0,0,5,0v-4.28Zm-11.51,4c0-1.09.48-1.82,1.39-1.82s1.41.8,1.41,1.82-.48,1.85-1.41,1.85S124.15,145.2,124.15,144.11Zm-.73,2.42h.72v-.75h.08a1.5,1.5,0,0,0,1.42.85c1.21,0,2-1,2-2.51s-.84-2.5-2.07-2.5a1.49,1.49,0,0,0-1.4.83h-.06v-2.38h-.74Zm-4.75-2.81a1.44,1.44,0,0,1,1.44-1.43,1.32,1.32,0,0,1,1.32,1.43Zm1.51,2.91a1.88,1.88,0,0,0,1.93-1.23l-.72-.2a1.18,1.18,0,0,1-1.21.76,1.47,1.47,0,0,1-1.51-1.6h3.52V144c0-1.8-1.08-2.42-2.08-2.42a2.25,2.25,0,0,0-2.19,2.52A2.23,2.23,0,0,0,120.18,146.63Zm-8.73-.1h.81l1.42-5.15h0l1.43,5.15h.8l1.77-6.46h-.79l-1.35,5.26h-.07l-1.37-5.26h-.88l-1.38,5.26h-.06l-1.35-5.26h-.79Z"/><path class="cls-3" d="M124.52,177a3.05,3.05,0,0,1-1.66-.5,3,3,0,0,1-1.09-1.33,3,3,0,0,1-.17-1.72,3,3,0,0,1,5.4-1.06,3,3,0,0,1-.37,3.74,2.83,2.83,0,0,1-1,.64A3,3,0,0,1,124.52,177Zm6.08-9.41c-.17-.17-.35-.33-.53-.48l0,0c-.19-.15-.38-.3-.58-.43l-.16-.12-.26-.15a9.21,9.21,0,0,0-4.85-1.51h-.23a9.24,9.24,0,0,0-9,9.23c0,4.4,6.22,12.25,8.49,15a1.12,1.12,0,0,0,.36.29,1,1,0,0,0,.45.1,1.06,1.06,0,0,0,.46-.1,1.12,1.12,0,0,0,.36-.29c2.23-2.71,8.31-10.49,8.31-14.91a9.16,9.16,0,0,0-2.79-6.56Z"/><path class="cls-3" d="M178.65,173.65a1.2,1.2,0,0,1,1.23-1.32,1.07,1.07,0,0,1,1.11,1.21v3h.75v-3.07c0-1.24-.66-1.83-1.64-1.83a1.42,1.42,0,0,0-1.41.82h-.07v-.76h-.72v4.84h.75ZM174.58,176c-1,0-1.45-.86-1.45-1.83s.45-1.84,1.45-1.84,1.45.87,1.45,1.84S175.57,176,174.58,176Zm0,.67a2.53,2.53,0,1,0-2.2-2.5A2.23,2.23,0,0,0,174.58,176.67Zm-3.7-5.75a.51.51,0,1,0-.53-.51A.52.52,0,0,0,170.88,170.92Zm-.38,5.64h.75v-4.84h-.75Zm-4.44-2.91a1.2,1.2,0,0,1,1.23-1.32,1.07,1.07,0,0,1,1.11,1.21v3h.74v-3.07c0-1.24-.65-1.83-1.63-1.83a1.44,1.44,0,0,0-1.42.82H166v-.76h-.72v4.84h.75ZM161.85,176c-.59,0-1-.26-1-.78s.51-.75,1.09-.82a3.92,3.92,0,0,0,1.29-.28v.68A1.24,1.24,0,0,1,161.85,176Zm-.11.67a1.52,1.52,0,0,0,1.43-.77h0v.65H164v-3.18a1.59,1.59,0,0,0-1.79-1.72,2,2,0,0,0-1.94,1.14l.71.25a1.29,1.29,0,0,1,1.26-.73.9.9,0,0,1,1,1v0c0,.36-.37.33-1.25.45s-1.88.31-1.88,1.42A1.5,1.5,0,0,0,161.74,176.68Zm-6.11-2.54c0-1.08.48-1.81,1.39-1.81s1.41.79,1.41,1.81S158,176,157,176,155.63,175.24,155.63,174.14Zm-.73,4.24h.75v-2.56h.06a1.49,1.49,0,0,0,1.41.85c1.21,0,2.06-1,2.06-2.51s-.85-2.5-2.07-2.5a1.47,1.47,0,0,0-1.4.83h-.09v-.77h-.72Zm-7.71-1.82h.74v-3a1.15,1.15,0,0,1,1.1-1.21.9.9,0,0,1,1,.92v3.31h.75v-3.15a1,1,0,0,1,1.08-1.08.9.9,0,0,1,1,1v3.24h.74v-3.24c0-1.13-.61-1.66-1.47-1.66a1.53,1.53,0,0,0-1.45.82h-.05a1.33,1.33,0,0,0-1.3-.82,1.3,1.3,0,0,0-1.3.82h-.06v-.76h-.72Zm-3.33-.56c-1,0-1.45-.86-1.45-1.83s.45-1.84,1.45-1.84,1.45.87,1.45,1.84S144.86,176,143.86,176Zm0,.67a2.53,2.53,0,1,0-2.19-2.5A2.23,2.23,0,0,0,143.86,176.67Zm-3.13-4.54a2.51,2.51,0,0,0-2.59-2.11c-1.66,0-2.85,1.28-2.85,3.32s1.19,3.31,2.85,3.31a2.51,2.51,0,0,0,2.59-2.1H140a1.76,1.76,0,0,1-1.81,1.37c-1.18,0-2.1-.91-2.1-2.58s.92-2.59,2.1-2.59a1.76,1.76,0,0,1,1.81,1.38Z"/><path class="cls-3" d="M240.22,217.85l1.72.23.09-.67-1.72-.23Zm-4.82-.64,3.44.46.09-.68-3.44-.46Zm-4.82-.65L234,217l.09-.67-3.44-.46Zm-4.81-.64,3.44.46.09-.68-3.44-.46Zm-4.82-.65,3.44.46.09-.67L221,214.6Zm-4.82-.64,3.44.46.09-.68-3.44-.46Zm-4.81-.65,3.44.46.09-.67-3.44-.46Zm-4.82-.64,3.44.46.09-.68-3.44-.46Zm-4.82-.65,3.44.46.09-.67-3.44-.46Zm-4.81-.64,3.44.46.09-.68-3.44-.46Zm-4.82-.65,3.44.47.09-.68-3.44-.46Zm-4.82-.64,3.44.46.09-.68-3.44-.46Zm-4.81-.64,3.44.46.09-.68-3.44-.46Zm-4.82-.65,3.44.46.09-.68-3.44-.46Zm-4.82-.64,3.44.46.09-.68-3.44-.46Zm-4.81-.65,3.44.46.09-.68-3.44-.46Zm-4.82-.64,3.44.46.09-.68-3.44-.46Zm-4.82-.65,3.44.46.09-.67-3.44-.47Zm-3.09-.41,1.72.23.09-.68-1.72-.23Z"/><path class="cls-3" d="M286.65,202.14l1.72.13.05-.68-1.72-.13Zm-4.82-.38,3.44.27.05-.68-3.44-.27Zm-4.82-.38,3.44.27.05-.68-3.44-.27Zm-4.82-.38,3.44.27.05-.68-3.44-.27Zm-4.82-.37,3.44.27.05-.68-3.44-.27Zm-4.82-.38,3.44.27.06-.68-3.45-.27Zm-4.82-.38,3.44.27.06-.68-3.45-.27Zm-4.82-.38,3.44.27.06-.68-3.44-.27Zm-4.82-.38,3.44.27.06-.68-3.44-.27Zm-4.82-.38,3.45.27.05-.68-3.44-.27Zm-4.82-.37,3.45.27,0-.68-3.44-.27Zm-4.81-.38,3.44.27,0-.68-3.44-.27Zm-4.82-.38,3.44.27.05-.68-3.44-.27Zm-4.82-.38,3.44.27.05-.68-3.44-.27Zm-4.82-.38,3.44.27,0-.68-3.44-.27Zm-4.82-.38,3.44.27,0-.68-3.44-.27Zm-4.82-.37,3.44.27.06-.68-3.45-.28Zm-4.82-.38,3.44.27.06-.68-3.45-.27Zm-4.82-.38,3.44.27.06-.68-3.45-.27Zm-4.82-.38,3.44.27.06-.68-3.44-.27Zm-4.82-.38,3.45.27,0-.68-3.44-.27Zm-4.82-.38,3.45.27.05-.68-3.44-.27Zm-4.82-.37,3.45.27.05-.68-3.44-.28Zm-4.81-.38,3.44.27.05-.68-3.44-.27Zm-4.82-.38,3.44.27,0-.68-3.44-.27Zm-4.82-.38,3.44.27,0-.68-3.44-.27Zm-4.82-.38,3.44.27.05-.68-3.44-.27Zm-4.82-.38,3.44.27.05-.68-3.44-.27Zm-4.82-.37,3.44.27.06-.69-3.45-.27Zm-4.82-.38,3.44.27.06-.68-3.45-.27Zm-4.82-.38,3.44.27.06-.68-3.44-.27Zm-4.82-.38,3.44.27.06-.68-3.44-.27Zm-4.82-.38,3.45.27.05-.68-3.44-.27Zm-4.82-.38,3.45.27.05-.68-3.44-.27Zm-3.09-.24,1.72.14.05-.69-1.72-.13Z"/><path class="cls-3" d="M286.67,175.61l1.69.15.06-.68-1.69-.15Zm-4.73-.41,3.38.29.06-.68-3.38-.29Zm-4.72-.41,3.37.29.06-.68-3.38-.29Zm-4.73-.41,3.37.29.06-.68-3.37-.29Zm-4.73-.41,3.38.29.06-.68-3.38-.29Zm-4.73-.41,3.38.29.06-.68-3.38-.29Zm-4.72-.41,3.37.3.06-.68-3.38-.3Zm-4.73-.41,3.37.3.06-.68-3.37-.3Zm-4.73-.41,3.38.3.06-.68-3.38-.3Zm-4.73-.41,3.38.3.06-.68-3.38-.3Zm-4.73-.41,3.38.3.06-.68-3.38-.3Zm-4.72-.41,3.37.3.06-.68-3.37-.3Zm-4.73-.41,3.38.3.06-.68L230,170Zm-4.73-.4,3.38.29.06-.68-3.38-.29Zm-4.73-.41,3.38.29.06-.68-3.38-.29Zm-4.72-.41,3.37.29.06-.68-3.37-.29Zm-4.73-.41,3.38.29.06-.68-3.38-.29Zm-4.73-.41,3.38.29.06-.68-3.38-.29Zm-4.73-.41,3.38.29.06-.68-3.38-.29Zm-4.72-.41,3.37.29.06-.68-3.37-.29Zm-4.73-.41,3.38.29.06-.68-3.38-.29Zm-4.73-.41,3.38.29.06-.68-3.38-.29Zm-4.73-.41,3.38.29.06-.68-3.38-.29Zm-4.72-.41,3.37.29.06-.68-3.37-.29Zm-4.73-.41,3.38.29.06-.68-3.38-.29Zm-4.73-.41,3.38.29.06-.68-3.38-.29Zm-4.73-.41,3.38.29.06-.68-3.38-.29Zm-4.72-.41,3.37.29.06-.68-3.37-.29Zm-4.73-.41,3.38.29.06-.68-3.38-.29Zm-4.73-.41L153,164l.06-.68-3.38-.29Zm-4.73-.41,3.38.29.06-.68-3.38-.29Zm-4.72-.41,3.37.3.06-.69-3.37-.29Zm-4.73-.41,3.38.3,0-.68-3.37-.3Zm-4.73-.41,3.38.3.06-.68-3.38-.3Zm-4.73-.41,3.38.3.06-.68L126,161Zm-4.72-.41,3.37.3.06-.68-3.37-.3Zm-4.73-.41,3.38.3,0-.68-3.37-.3Zm-4.73-.41,3.38.3.06-.68-3.38-.3Zm-4.73-.4,3.38.29.06-.68-3.38-.29Zm-4.72-.41,3.37.29.06-.68-3.37-.29Zm-3-.27,1.69.15,0-.68-1.68-.15Z"/><path class="cls-3" d="M286.66,164.5l1.71.15.06-.68-1.71-.15Zm-4.81-.42,3.43.3.06-.68-3.43-.3Zm-4.82-.43,3.44.31.06-.68-3.44-.31Zm-4.81-.42,3.44.3.06-.68-3.44-.3Zm-4.81-.43,3.44.31.06-.68-3.44-.31Zm-4.81-.42,3.44.3.06-.68-3.44-.3Zm-4.81-.42,3.44.3.06-.68-3.44-.3Zm-4.81-.43,3.44.3.06-.68-3.44-.3Zm-4.81-.42,3.44.3.06-.68-3.44-.3Zm-4.81-.43,3.43.31.06-.68-3.43-.31Zm-4.81-.42,3.43.3.06-.68-3.43-.3Zm-4.81-.43,3.43.31.06-.68-3.43-.31Zm-4.81-.42,3.43.3.06-.68-3.43-.3Zm-4.81-.43,3.43.31.06-.68-3.43-.31Zm-4.82-.42,3.44.3.06-.68-3.44-.3Zm-4.81-.42,3.44.3.06-.68-3.44-.3Zm-4.81-.43,3.44.3.06-.68-3.44-.3Zm-4.81-.42,3.44.3.06-.68-3.44-.3Zm-4.81-.43,3.44.31.06-.68-3.44-.31Zm-4.81-.42,3.44.3.06-.68-3.44-.3Zm-4.81-.43,3.44.31.06-.68-3.44-.31Zm-4.81-.42,3.43.3.06-.68-3.43-.3Zm-4.81-.43,3.43.31.06-.68-3.43-.31Zm-4.81-.42,3.43.3.06-.68-3.43-.3Zm-4.81-.42,3.43.3.06-.68-3.43-.3Zm-4.81-.43,3.43.3.06-.68-3.43-.3Zm-4.82-.42,3.44.3.06-.68-3.44-.3Zm-4.81-.43,3.44.3.06-.68-3.44-.3Zm-4.81-.42,3.44.3.06-.68-3.44-.3Zm-4.81-.43,3.44.31.06-.68-3.44-.31Zm-4.81-.42,3.44.3.06-.68-3.44-.3Zm-4.81-.43,3.44.31L141,151l-3.44-.31Zm-4.81-.42,3.44.3.06-.68-3.44-.3Zm-4.81-.43,3.43.31.06-.68-3.43-.31Zm-4.81-.42,3.43.3.06-.68-3.43-.3Zm-4.81-.42,3.43.3.06-.68-3.43-.3Zm-4.81-.43,3.43.3.06-.68-3.43-.3Zm-4.82-.42,3.44.3.06-.68-3.44-.3Zm-4.81-.43,3.44.31.06-.68-3.44-.31ZM99,148l3.44.3.06-.68-3.44-.3Zm-4.81-.43,3.44.31.06-.68-3.44-.31Zm-4.81-.42,3.44.3.06-.68-3.44-.3Zm-4.81-.43L88,147l.06-.68L84.66,146Zm-3.09-.27,1.72.15.06-.68-1.72-.15Z"/><path class="cls-4" d="M316.27,253.35l1.44.91.73-1.15L317,252.2Zm-4-2.55,2.89,1.82.73-1.15L313,249.64Zm-4-2.56,2.89,1.83.73-1.16-2.89-1.82Zm-4.05-2.55,2.89,1.83.73-1.16-2.89-1.82Zm-4-2.55L303,245l.73-1.15L300.82,242Zm-4-2.56,2.89,1.83.73-1.16-2.89-1.82ZM292,238l2.89,1.82.72-1.15-2.89-1.82ZM288,235.48l2.89,1.82.73-1.15-2.89-1.83Zm-4.05-2.56,2.89,1.83.73-1.16-2.89-1.82Zm-4-2.55,2.89,1.82.73-1.15-2.89-1.83Zm-4.05-2.55,2.89,1.82.73-1.16-2.89-1.82Zm-4-2.56,2.89,1.83.73-1.16-2.89-1.82Zm-4-2.55,2.89,1.82.73-1.15-2.89-1.83Zm-4-2.56,2.89,1.83.73-1.16L264.41,219Zm-4.05-2.55,2.89,1.82.73-1.15-2.89-1.82Zm-4-2.55,2.89,1.82.72-1.15-2.88-1.83Zm-4.05-2.56,2.89,1.83.73-1.16-2.89-1.82Zm-4-2.55,2.89,1.82.72-1.15-2.89-1.83Zm-4.05-2.55,2.89,1.82.73-1.16-2.89-1.82Zm-4-2.56,2.89,1.83.73-1.16-2.89-1.82Zm-4-2.55,2.89,1.82L239,203l-2.89-1.83Zm-4.05-2.56,2.89,1.83.73-1.16L232,198.57Zm-4-2.55,2.89,1.82.73-1.15L228,196Zm-4.05-2.55,2.89,1.82.73-1.15L224,193.46Zm-4-2.56,2.89,1.83.73-1.16-2.89-1.82Zm-4.05-2.55,2.89,1.82.73-1.15-2.89-1.83Zm-4-2.55,2.89,1.82.72-1.15-2.89-1.83ZM207,184.4l2.89,1.83.73-1.16-2.89-1.82Zm-4-2.55,2.88,1.82.73-1.15-2.89-1.83ZM199,179.29l2.89,1.83.73-1.16-2.89-1.82Zm-4-2.55,2.89,1.83.73-1.16-2.89-1.82Zm-4-2.55,2.89,1.82.73-1.15L191.59,173Zm-4.05-2.56,2.89,1.83.73-1.16-2.89-1.82Zm-4-2.55,2.89,1.82.73-1.15-2.89-1.82Zm-4.05-2.55,2.89,1.82.73-1.15-2.89-1.83Zm-4-2.56,2.89,1.83.73-1.16-2.89-1.82Zm-4.05-2.55,2.89,1.82.73-1.15-2.89-1.83Zm-4-2.56,2.89,1.83.72-1.16-2.89-1.82Zm-4.05-2.55,2.89,1.83.73-1.16-2.89-1.82Zm-4-2.55,2.89,1.82.73-1.15-2.89-1.83Zm-4-2.56,2.89,1.83.73-1.16-2.89-1.82Zm-4-2.55,2.89,1.82.73-1.15-2.89-1.82Zm-4-2.55,2.89,1.82.73-1.15-2.89-1.83Zm-4.05-2.56,2.89,1.83.73-1.16L143,142.39Zm-4-2.55,2.89,1.82.73-1.15L139,139.83Zm-4.05-2.55,2.89,1.82.73-1.16L135,137.28Zm-4-2.56,2.89,1.83.72-1.16-2.88-1.82Zm-4.05-2.55,2.89,1.82.73-1.15-2.89-1.83Zm-4-2.56L125,132.6l.73-1.16-2.89-1.82Zm-4-2.55,2.89,1.82.73-1.15-2.89-1.82ZM114,125.67l2.89,1.82.73-1.15-2.89-1.83Zm-4-2.56,2.89,1.83.73-1.16L110.68,122Zm-4-2.55,2.89,1.82.73-1.15-2.89-1.83Zm-4-2.55,2.89,1.82.73-1.16-2.89-1.82Zm-2.6-1.65,1.44.92.73-1.16-1.44-.91Z"/><path class="cls-3" d="M170.68,120.69l1.62.45.19-.66-1.63-.45Zm-4.54-1.26,3.24.9.19-.66-3.25-.9Zm-4.54-1.26,3.24.9.18-.66-3.24-.9Zm-4.55-1.26,3.25.9.18-.66-3.24-.9Zm-4.54-1.26,3.25.9.18-.66-3.25-.9ZM148,114.39l3.24.9.19-.66-3.25-.9Zm-4.54-1.26,3.24.9.18-.66-3.24-.9Zm-4.55-1.26,3.25.9.18-.66-3.24-.9Zm-4.54-1.26,3.25.9.18-.66-3.25-.9Zm-4.54-1.26,3.24.9.19-.66-3.25-.9Zm-4.54-1.26,3.24.9.18-.66-3.24-.9Zm-4.55-1.26,3.25.9.18-.66-3.24-.9Zm-4.54-1.26,3.25.9.18-.66-3.25-.9Zm-4.54-1.26,3.24.9.19-.66-3.25-.9Zm-4.54-1.26,3.24.9.18-.66-3.24-.9Zm-4.55-1.26,3.25.9L106,102l-3.24-.9ZM98,100.53l3.25.9.18-.66-3.24-.9Zm-4.54-1.26,3.24.9.19-.66-3.25-.9ZM88.92,98l3.24.9.18-.66-3.24-.9Zm-4.54-1.26,3.24.9L87.8,97l-3.24-.9Zm-4.55-1.26,3.25.9.18-.66L80,94.83Zm-4.54-1.26,3.25.9.18-.66-3.25-.9ZM70.75,93l3.24.9.19-.66-3.25-.9ZM66.21,91.7l3.24.91.18-.66-3.24-.9Zm-4.55-1.26,3.25.9.18-.65-3.24-.9Zm-4.54-1.26,3.25.9.18-.65-3.25-.9Zm-2.92-.81,1.62.45.19-.65-1.63-.45Z"/><path class="cls-3" d="M286.67,78l1.69.15.06-.68-1.68-.15ZM282,77.54l3.37.31.06-.68L282,76.86Zm-4.72-.43,3.37.31.06-.68-3.37-.31Zm-4.72-.43,3.37.31.07-.68L272.59,76Zm-4.71-.44,3.37.31.06-.68-3.37-.31Zm-4.72-.43,3.37.31.06-.68-3.37-.31Zm-4.72-.44,3.37.31.07-.68-3.37-.31Zm-4.71-.43,3.37.31.06-.68-3.37-.31Zm-4.72-.44,3.37.31.06-.68L249,73.82Zm-4.72-.43,3.37.31.07-.68-3.37-.31Zm-4.71-.44,3.37.31.06-.68L239.57,73Zm-4.72-.43,3.37.31.06-.68-3.37-.31Zm-4.72-.43,3.37.31.07-.68-3.37-.31Zm-4.71-.44,3.37.31.06-.68-3.37-.31Zm-4.72-.43,3.37.31.06-.68-3.37-.31Zm-4.72-.44,3.37.31.07-.68L216,70.78ZM211.21,71l3.37.31.06-.68-3.37-.31Zm-4.72-.44,3.37.31.06-.68-3.37-.31Zm-4.72-.43,3.37.31.07-.68-3.37-.31Zm-4.71-.44,3.37.31.06-.68L197.12,69Zm-4.72-.43,3.37.31.06-.68-3.37-.31Zm-4.72-.43,3.37.31.07-.68-3.37-.31Zm-4.71-.44,3.37.31.06-.68L183,67.74ZM178.19,68l3.37.31.06-.68-3.37-.31Zm-4.72-.44,3.37.31.07-.68-3.37-.31Zm-4.71-.43,3.37.31.06-.68-3.37-.31ZM164,66.68l3.37.31.06-.68L164.1,66Zm-4.72-.43,3.37.31.07-.68-3.37-.31Zm-4.71-.44,3.37.31.06-.67-3.37-.32Zm-4.72-.43,3.37.31.06-.68L150,64.7ZM145.17,65l3.37.31.07-.68-3.37-.31Zm-4.71-.44,3.37.31.06-.68-3.37-.31Zm-4.72-.43,3.37.31.06-.68-3.37-.31Zm-3-.28,1.68.15.07-.68-1.69-.15Z"/><path class="cls-4" d="M316.23,231.58l1.48.84.68-1.19-1.48-.84Zm-4.14-2.34,3,1.67.67-1.19-3-1.67ZM308,226.9l3,1.67.67-1.19-3-1.67Zm-4.14-2.35,3,1.68.67-1.19-3-1.68Zm-4.14-2.34,2.95,1.67.68-1.19-3-1.67Zm-4.15-2.34,3,1.67.67-1.19-2.95-1.67Zm-4.14-2.35,3,1.68L295,218l-3-1.68Zm-4.14-2.34,3,1.67.67-1.19-3-1.67Zm-4.14-2.34,3,1.67.67-1.19-3-1.67ZM279,210.49l3,1.68.68-1.19-3-1.68Zm-4.14-2.34,3,1.67.67-1.18-3-1.68Zm-4.14-2.34,3,1.67.67-1.19-3-1.67Zm-4.14-2.35,3,1.68.67-1.19-3-1.68Zm-4.14-2.34,2.95,1.67.68-1.18-3-1.68Zm-4.15-2.34,3,1.67.67-1.19-2.95-1.67Zm-4.14-2.35,3,1.68.67-1.19-3-1.68ZM250,194.09l3,1.67.67-1.18-3-1.68Zm-4.14-2.34,3,1.67.67-1.19-3-1.67Zm-4.15-2.35,3,1.68.68-1.19-3-1.67Zm-4.14-2.34,3,1.67.67-1.18-2.95-1.68Zm-4.14-2.34,3,1.67.67-1.19-3-1.67Zm-4.14-2.35,3,1.68.67-1.19-3-1.67ZM225.11,180l2.95,1.67.68-1.18-3-1.68ZM221,177.69l3,1.67.67-1.19-3-1.67Zm-4.14-2.35,3,1.68.67-1.19-3-1.67ZM212.68,173l3,1.67.67-1.18-3-1.68Zm-4.14-2.34,3,1.67.67-1.19-3-1.67Zm-4.14-2.35,2.95,1.68.68-1.19-3-1.67ZM200.25,166l3,1.68.67-1.19-2.95-1.68Zm-4.14-2.34,3,1.67.67-1.19-3-1.67ZM192,161.28l3,1.68.67-1.19-3-1.67Zm-4.14-2.34,3,1.68.67-1.19-3-1.68Zm-4.15-2.34,3,1.67.68-1.19-3-1.67Zm-4.14-2.34,3,1.67.67-1.19-3-1.67Zm-4.14-2.35,3,1.68.67-1.19-3-1.68Zm-4.14-2.34,3,1.67.67-1.19-3-1.67Zm-4.14-2.34,2.95,1.67.68-1.19-3-1.67ZM163,144.88l3,1.68.67-1.19-2.95-1.68Zm-4.14-2.34,3,1.67.67-1.19-3-1.67Zm-4.14-2.34,3,1.67.67-1.19-3-1.67Zm-4.14-2.35,3,1.68.67-1.19-3-1.68Zm-4.15-2.34,3,1.67L150,136l-3-1.67Zm-4.14-2.34,3,1.67.67-1.19-3-1.67Zm-4.14-2.35,3,1.68.67-1.19-3-1.68ZM134,128.48l3,1.67.67-1.19-3-1.67Zm-4.14-2.34,2.95,1.67.68-1.19-3-1.67Zm-4.15-2.35,3,1.68.67-1.19-2.95-1.68Zm-4.14-2.34,3,1.67.67-1.18-3-1.68Zm-4.14-2.34,3,1.67.67-1.19-3-1.67Zm-4.14-2.35,3,1.68.67-1.19-3-1.68Zm-4.14-2.34,3,1.67.68-1.18-3-1.68ZM105,112.08l3,1.67.67-1.19-3-1.67Zm-4.14-2.35,3,1.68.67-1.19-3-1.67Zm-4.14-2.34,3,1.67.67-1.18-3-1.68Zm-4.14-2.34,3,1.67.67-1.19-3-1.67Zm-4.15-2.35,3,1.68.68-1.19-3-1.67Zm-4.14-2.34,3,1.67.67-1.18-3-1.68ZM80.13,98l3,1.67.67-1.19-3-1.67ZM76,95.67l3,1.68.67-1.19-3-1.67Zm-4.14-2.34,3,1.67.68-1.18-3-1.68ZM67.7,91l3,1.67.67-1.19-3-1.67Zm-4.14-2.35,3,1.68.67-1.19-3-1.67ZM59.42,86.3l3,1.67.67-1.18-3-1.68ZM55.28,84l3,1.67.67-1.19-3-1.67Zm-4.15-2.35,3,1.68.68-1.19-3-1.67ZM47,79.27,50,81l.67-1.19-3-1.68Zm-4.14-2.34,3,1.67.67-1.19-3-1.67Zm-4.14-2.35,3,1.68.67-1.19-3-1.67Zm-4.14-2.34,3,1.68.68-1.19-3-1.68ZM30.42,69.9l3,1.67.67-1.19L31.1,68.71Zm-4.14-2.34,3,1.67L29.91,68l-3-1.67Zm-4.14-2.35,3,1.68.67-1.19-3-1.68ZM18,62.87l3,1.67.67-1.19-3-1.67Zm-4.14-2.34,2.95,1.67L17.49,61l-3-1.67ZM11.19,59l1.48.84.67-1.19-1.48-.84Z"/><path class="cls-3" d="M316,41.84h1.7v-.68l-1.7,0Zm-4.76-.05,3.4,0v-.68l-3.39,0Zm-4.76,0,3.4,0V41.1l-3.4,0Zm-4.75,0,3.4,0v-.68l-3.4,0ZM297,41.66l3.4,0V41L297,41Zm-4.76,0,3.4,0V41l-3.4,0Zm-4.75,0,3.4,0v-.68l-3.4,0Zm-4.76,0,3.4,0v-.69l-3.4,0Zm-4.75,0,3.39,0v-.68l-3.4,0Zm-4.76,0,3.4,0V40.8l-3.39,0Zm-4.76,0,3.4,0v-.69l-3.4,0Zm-4.75,0,3.39,0v-.68l-3.4,0Zm-4.76,0,3.4,0v-.68l-3.39,0Zm-4.76,0,3.4,0v-.69l-3.4,0Zm-4.75-.05,3.4,0v-.68l-3.4,0Zm-4.76,0,3.4,0v-.68l-3.39,0Zm-4.76,0,3.4,0v-.69l-3.4,0Zm-4.75,0,3.4,0v-.68l-3.4,0Zm-4.76,0,3.4,0v-.68l-3.4,0Zm-4.75,0,3.39,0v-.68l-3.4,0ZM220.89,41l3.4,0v-.68l-3.39,0Zm-4.76,0,3.4,0v-.68l-3.4,0Zm-4.75,0,3.39,0v-.68l-3.4,0Zm-4.76,0,3.4,0v-.69l-3.39,0Zm-4.76,0,3.4,0v-.68l-3.4,0Zm-4.75,0,3.39,0v-.68l-3.4,0Zm-4.76,0,3.4,0v-.69l-3.39,0Zm-4.76,0,3.4,0V40l-3.4,0Zm-4.75,0,3.4,0V40l-3.4,0Zm-4.76,0,3.4,0v-.69l-3.4,0Zm-4.75-.05,3.39,0v-.68l-3.4,0Zm-4.76,0,3.4,0v-.68l-3.39,0Zm-4.76,0,3.4,0V39.8l-3.4,0Zm-4.75-.05,3.39,0v-.68l-3.4,0Zm-4.76,0,3.4,0v-.68l-3.39,0Zm-4.76,0,3.4,0v-.68l-3.4,0Zm-4.75,0,3.39,0v-.68l-3.4,0Zm-4.76,0,3.4,0v-.68l-3.39,0Zm-4.76,0,3.4,0v-.68l-3.4,0Zm-4.75-.05,3.4,0V39.5l-3.4,0Zm-4.76,0,3.4,0v-.68l-3.4,0Zm-4.75,0,3.39,0v-.68l-3.4,0Zm-4.76,0,3.4,0v-.69l-3.39,0ZM111.49,40l3.4,0v-.68l-3.4,0Zm-4.75,0,3.39,0v-.68l-3.4,0Zm-4.76,0,3.4,0v-.69l-3.39,0Zm-4.76,0,3.4,0V39.2l-3.4,0Zm-4.75,0,3.39,0v-.68l-3.4,0Zm-4.76,0,3.4,0v-.69l-3.39,0ZM83,39.72l3.4,0v-.68L83,39Zm-4.75,0,3.4,0V39l-3.4,0Zm-4.76,0,3.4,0V39l-3.4,0Zm-4.75,0,3.39,0v-.68l-3.4,0Zm-4.76,0,3.4,0V38.9l-3.4,0Zm-4.76,0,3.4,0v-.68l-3.4,0Zm-4.75,0,3.39,0v-.69l-3.4,0Zm-4.76,0,3.4,0v-.68l-3.39,0Zm-4.76,0,3.4,0v-.68l-3.4,0Zm-4.75,0,3.39,0v-.69l-3.4,0Zm-4.76-.05,3.4,0v-.68l-3.39,0Zm-4.76,0,3.4,0V38.6l-3.4,0Zm-3.05,0,1.7,0v-.69h-1.7Z"/><path class="cls-3" d="M107.83,32.93l1.67.15.06-.68-1.67-.15Zm-4.69-.43,3.35.31.06-.68-3.34-.31Zm-4.68-.42,3.35.3.06-.68-3.35-.3Zm-4.68-.42,3.35.3.06-.68L93.84,31Zm-4.68-.42,3.34.3.07-.68-3.35-.3Zm-4.68-.43,3.34.31.06-.68-3.34-.31Zm-4.68-.42,3.34.3.06-.68-3.34-.3ZM75.06,30l3.34.3.06-.68-3.34-.3Zm-4.68-.42,3.34.3.06-.68-3.34-.3Zm-4.69-.43,3.35.3.06-.68-3.34-.3ZM61,28.7l3.35.3.06-.68L61.07,28Zm-4.68-.42,3.35.3.06-.68-3.35-.3Zm-4.68-.43,3.34.31.07-.68-3.35-.31ZM47,27.43l3.34.3.07-.68L47,26.75ZM42.29,27l3.34.3.06-.68-3.34-.3Zm-4.68-.42,3.34.3.06-.68-3.34-.3Zm-4.68-.43,3.34.31.06-.68L33,25.48Zm-4.68-.42,3.34.3.06-.68-3.34-.3Zm-4.69-.42,3.35.3.06-.68-3.34-.3Zm-4.68-.42,3.35.3.06-.68-3.35-.3Zm-4.68-.43,3.35.31.06-.68-3.35-.31Zm-3-.27,1.67.15.07-.68-1.68-.15Z"/><path class="cls-4" d="M12.56,47.93a2.91,2.91,0,0,1-1.65-.5,3,3,0,0,1-1.1-1.33,3,3,0,0,1-.17-1.71,3,3,0,0,1,.82-1.52,3,3,0,0,1,4.58.45,3,3,0,0,1,.5,1.65,2.93,2.93,0,0,1-.23,1.13,2.89,2.89,0,0,1-1.61,1.61A3,3,0,0,1,12.56,47.93Zm6.08-9.41c-.17-.17-.35-.32-.53-.48l-.05,0-.58-.43-.16-.11a2.26,2.26,0,0,0-.26-.16,9.26,9.26,0,0,0-4.85-1.5H12A9.29,9.29,0,0,0,5.61,38.6,9.2,9.2,0,0,0,3,45c0,4.41,6.22,12.26,8.49,15a1,1,0,0,0,.36.29,1,1,0,0,0,.45.1,1,1,0,0,0,.46-.1,1,1,0,0,0,.36-.29c2.23-2.7,8.31-10.48,8.31-14.91a9.16,9.16,0,0,0-2.79-6.56Z"/><path class="cls-5" d="M83.21,42.7H84a2.25,2.25,0,0,0-4.39.1c0,.87.63,1.39,1.64,1.68l.79.22c.68.19,1.29.43,1.29,1.07S82.62,47,81.72,47s-1.45-.34-1.51-1.08H79.4c.08,1.06.93,1.78,2.32,1.78s2.33-.82,2.33-1.86c0-1.21-1.14-1.6-1.81-1.78l-.66-.18c-.48-.12-1.25-.38-1.25-1.07s.57-1.07,1.43-1.07S83.13,42.06,83.21,42.7Zm-8.74,4.84h.78V44.65h2.8V44h-2.8V41.78h3.09v-.7H74.47Zm-4.85-3V41.78H71c1.05,0,1.45.57,1.45,1.35A1.26,1.26,0,0,1,71,44.49Zm-.78,3h.78V45.18H71a2.05,2.05,0,1,0,0-4.1H68.84Zm-1.57-6.46h-.78v6.46h.78Zm-8,3.65a1.44,1.44,0,0,1,1.43-1.43A1.31,1.31,0,0,1,62,44.73Zm1.51,2.91a1.87,1.87,0,0,0,1.92-1.22L62,46.21a1.18,1.18,0,0,1-1.21.76,1.46,1.46,0,0,1-1.51-1.6h3.51v-.31c0-1.81-1.07-2.43-2.08-2.43a2.26,2.26,0,0,0-2.18,2.53A2.23,2.23,0,0,0,60.76,47.64ZM51,47.54h.75v-3a1.14,1.14,0,0,1,1.09-1.21.89.89,0,0,1,1,.92v3.32h.76V44.39a1,1,0,0,1,1.07-1.09.9.9,0,0,1,1,1v3.24h.75V44.3c0-1.14-.62-1.67-1.48-1.67a1.54,1.54,0,0,0-1.45.82h0a1.34,1.34,0,0,0-1.3-.82,1.32,1.32,0,0,0-1.3.82h-.06V42.7H51ZM47.68,47c-1,0-1.45-.86-1.45-1.83s.46-1.84,1.45-1.84,1.45.87,1.45,1.84S48.68,47,47.68,47Zm0,.67a2.24,2.24,0,0,0,2.2-2.5,2.21,2.21,0,1,0-4.39,0A2.23,2.23,0,0,0,47.68,47.64Zm-3.17-3.86a1.63,1.63,0,0,0-1.71-1.15c-1,0-1.78.58-1.78,1.4s.39,1.12,1.28,1.33l.81.19c.49.11.72.34.72.68s-.44.75-1.14.75a1,1,0,0,1-1.12-.78l-.7.18a1.66,1.66,0,0,0,1.84,1.26c1.12,0,1.89-.62,1.89-1.45,0-.67-.42-1.1-1.29-1.31l-.72-.18c-.57-.14-.83-.33-.83-.7s.44-.72,1-.72a1,1,0,0,1,1,.69Zm-8.07.95a1.44,1.44,0,0,1,1.43-1.43,1.31,1.31,0,0,1,1.32,1.43Zm1.5,2.91a1.87,1.87,0,0,0,1.93-1.22l-.72-.21a1.17,1.17,0,0,1-1.21.76,1.46,1.46,0,0,1-1.5-1.6H40v-.31c0-1.81-1.07-2.43-2.08-2.43a2.26,2.26,0,0,0-2.18,2.53A2.22,2.22,0,0,0,37.94,47.64Zm-8-.1h.73l1.06-3.72h.07l1.06,3.72h.73L35.1,42.7h-.78l-1,3.69h-.05l-1-3.69h-.8l-1,3.7h-.05l-1.05-3.7h-.78ZM24.74,45l1-2.91h.05l1,2.91Zm-.9,2.52.65-1.83H27.1l.65,1.83h.82L26.2,41.08h-.81L23,47.54Z"/><path class="cls-4" d="M99.26,103.91a2.91,2.91,0,0,1-1.65-.5,3,3,0,0,1-1.1-1.33,3,3,0,0,1-.17-1.71,3,3,0,0,1,.82-1.52A2.86,2.86,0,0,1,98.68,98a3,3,0,0,1,3.06,1.26,2.94,2.94,0,0,1,.27,2.78,2.89,2.89,0,0,1-1.61,1.61A3,3,0,0,1,99.26,103.91Zm6.08-9.41c-.17-.17-.35-.33-.53-.48l0,0-.58-.43-.16-.11a2.26,2.26,0,0,0-.26-.16,9.26,9.26,0,0,0-4.85-1.5h-.23a9.29,9.29,0,0,0-6.37,2.79A9.2,9.2,0,0,0,89.7,101c0,4.41,6.22,12.26,8.49,15a1,1,0,0,0,.36.29,1,1,0,0,0,.45.1,1,1,0,0,0,.46-.1,1,1,0,0,0,.36-.29c2.23-2.7,8.31-10.49,8.31-14.91a9.16,9.16,0,0,0-2.79-6.56Z"/><path class="cls-5" d="M154.69,103c-1,0-1.45-.86-1.45-1.83s.45-1.84,1.45-1.84,1.45.87,1.45,1.84S155.69,103,154.69,103Zm0,.67a2.53,2.53,0,1,0-2.19-2.5A2.23,2.23,0,0,0,154.69,103.62ZM151,97.87a.51.51,0,1,0-.53-.5A.52.52,0,0,0,151,97.87Zm-.38,5.65h.74V98.68h-.74Zm-1.9,0a.57.57,0,1,0-.57-.57A.57.57,0,0,0,148.72,103.57ZM147,99.76a1.64,1.64,0,0,0-1.72-1.15c-1,0-1.78.58-1.78,1.4,0,.67.4,1.12,1.29,1.33l.81.19c.48.11.71.34.71.68s-.44.75-1.13.75a1,1,0,0,1-1.12-.78l-.71.18a1.67,1.67,0,0,0,1.84,1.26c1.13,0,1.89-.62,1.89-1.45s-.42-1.1-1.28-1.31l-.72-.18c-.57-.14-.83-.33-.83-.7s.44-.72,1-.72a1,1,0,0,1,1.05.69Zm-4.28-1.08h-1.08v-.49c0-.48.2-.74.69-.74a1,1,0,0,1,.42.08l.21-.64a1.69,1.69,0,0,0-.7-.13A1.25,1.25,0,0,0,140.87,98v.67h-.79v.63h.79v4.21h.74V99.31h1.08Zm-6.83,2.42c0-1.09.48-1.82,1.39-1.82s1.41.8,1.41,1.82-.48,1.85-1.41,1.85S135.86,102.19,135.86,101.1Zm-.73,4.23h.74v-2.56h.07a1.49,1.49,0,0,0,1.41.85c1.21,0,2.05-1,2.05-2.51s-.84-2.5-2.06-2.5a1.46,1.46,0,0,0-1.4.84h-.09v-.77h-.72Zm-1.73-7.46a.51.51,0,1,0-.53-.5A.52.52,0,0,0,133.4,97.87Zm-.38,5.65h.75V98.68H133Zm-1.9,0a.57.57,0,1,0-.57-.57A.58.58,0,0,0,131.12,103.57Zm-1.75-3.81a1.62,1.62,0,0,0-1.71-1.15c-1,0-1.78.58-1.78,1.4,0,.67.4,1.12,1.29,1.33l.8.19c.49.11.72.34.72.68s-.44.75-1.13.75a1,1,0,0,1-1.13-.78l-.7.18a1.66,1.66,0,0,0,1.84,1.26c1.12,0,1.89-.62,1.89-1.45s-.42-1.1-1.29-1.31l-.71-.18c-.58-.14-.84-.33-.84-.7s.45-.72,1-.72a1,1,0,0,1,1,.69ZM123,103.62a1.81,1.81,0,0,0,1.91-1.51h-.75A1.12,1.12,0,0,1,123,103c-.88,0-1.45-.73-1.45-1.85s.58-1.82,1.45-1.82a1.13,1.13,0,0,1,1.16.85h.75a1.81,1.81,0,0,0-1.92-1.52,2.53,2.53,0,0,0,0,5Zm-5.29-.67c-1,0-1.45-.86-1.45-1.83s.45-1.84,1.45-1.84,1.45.87,1.45,1.84S118.65,103,117.66,103Zm0,.67a2.53,2.53,0,1,0-2.2-2.5A2.23,2.23,0,0,0,117.66,103.62Zm-5.55-.67c-.94,0-1.41-.82-1.41-1.85s.46-1.82,1.41-1.82,1.38.73,1.38,1.82S113,103,112.11,103Zm-.1.67a1.5,1.5,0,0,0,1.41-.85h.09v.75h.71V97.06h-.74v2.39h-.06a1.48,1.48,0,0,0-1.4-.84c-1.22,0-2.07,1-2.07,2.5S110.8,103.62,112,103.62Z"/></g></g></svg>