<svg xmlns="http://www.w3.org/2000/svg" viewBox="0 0 411.65 417.8"><defs><style>.cls-1{fill:#fff;}.cls-2{fill:#808492;}.cls-3{fill:#b7bbc8;}.cls-4{fill:#398186;}.cls-5{fill:#6bc4cd;}.cls-6{fill:#010101;}</style></defs><g id="Layer_2" data-name="Layer 2"><g id="Layer_1-2" data-name="Layer 1"><rect class="cls-1" x="2.05" y="8.19" width="409.61" height="409.61"/><path class="cls-2" d="M52.4,411.19l1.5-1.72H47.76v-.55h6.13L52.4,407.2H53l1.77,2-1.77,2Zm-13.1-2.82A1.24,1.24,0,0,0,38,409.44h2.54a1.2,1.2,0,0,0-.42-.77A1.24,1.24,0,0,0,39.3,408.37ZM42,409.91s0,.15,0,.4H38a1.24,1.24,0,0,0,.5.76,1.69,1.69,0,0,0,1,.27,2.14,2.14,0,0,0,.7-.11,1.8,1.8,0,0,0,.59-.38l.79.86a2.67,2.67,0,0,1-2.12.83,3.3,3.3,0,0,1-1.54-.34,2.48,2.48,0,0,1-1-.94,2.54,2.54,0,0,1-.37-1.37,2.61,2.61,0,0,1,.36-1.36,2.53,2.53,0,0,1,1-.94,2.89,2.89,0,0,1,1.41-.35,2.79,2.79,0,0,1,1.36.33,2.32,2.32,0,0,1,1,.93A2.81,2.81,0,0,1,42,409.91Zm-8.53-2.67a2,2,0,0,1,1.53.58,2.28,2.28,0,0,1,.57,1.7v2.94H34v-2.71a1.32,1.32,0,0,0-.26-.91.87.87,0,0,0-.71-.31,1.05,1.05,0,0,0-.83.35,1.39,1.39,0,0,0-.31,1v2.58H30.44v-2.71c0-.81-.33-1.22-1-1.22a1.06,1.06,0,0,0-.82.35,1.44,1.44,0,0,0-.3,1v2.58H26.85v-5.14h1.42v.59a1.85,1.85,0,0,1,.7-.49,2.36,2.36,0,0,1,1.9,0,1.77,1.77,0,0,1,.71.62,2.21,2.21,0,0,1,.79-.62A2.64,2.64,0,0,1,33.43,407.24Zm-8.71-.64a.93.93,0,0,1-.67-.24.77.77,0,0,1-.26-.59.79.79,0,0,1,.26-.59.93.93,0,0,1,.67-.24,1,1,0,0,1,.67.23.72.72,0,0,1,.25.57.81.81,0,0,1-.25.62A1,1,0,0,1,24.72,406.6Zm-.75.72h1.49v5.14H24Zm-4.3-.29H17.52v-1.26h5.84V407H21.21v5.43H19.67Z"/><path class="cls-2" d="M8.66,410.81l1.72,1.5v-6.15h.55v6.14l1.71-1.49v.64l-2,1.77-2-1.77Zm2.81-10.61a1.28,1.28,0,0,0-.28-.85,1.2,1.2,0,0,0-.79-.42v2.53a1.2,1.2,0,0,0,.78-.42A1.23,1.23,0,0,0,11.47,400.2Zm-1.53,2.67-.41,0V399a1.22,1.22,0,0,0-.75.5,1.59,1.59,0,0,0-.28,1,1.92,1.92,0,0,0,.12.71,1.76,1.76,0,0,0,.38.58l-.86.8a2.67,2.67,0,0,1-.83-2.13,3.38,3.38,0,0,1,.33-1.53,2.59,2.59,0,0,1,1-1,2.62,2.62,0,0,1,1.37-.36,2.66,2.66,0,0,1,1.35.35,2.51,2.51,0,0,1,.95,1,2.87,2.87,0,0,1,.34,1.4,2.94,2.94,0,0,1-.32,1.37,2.35,2.35,0,0,1-.94,1A2.77,2.77,0,0,1,9.94,402.87Zm-2.63-8.39a5.28,5.28,0,0,1,.15-1.25,3.29,3.29,0,0,1,.4-1l1.07.49a3.66,3.66,0,0,0-.36.84,3.51,3.51,0,0,0-.13,1c0,.63.15.95.46.95a.33.33,0,0,0,.32-.26,3.82,3.82,0,0,0,.16-.79,9.88,9.88,0,0,1,.22-1.05,1.61,1.61,0,0,1,.44-.71,1.25,1.25,0,0,1,.9-.3,1.39,1.39,0,0,1,.86.28,1.83,1.83,0,0,1,.59.82,3.54,3.54,0,0,1,.21,1.28,5,5,0,0,1-.12,1.08,3.14,3.14,0,0,1-.33.9l-1.06-.5a2.89,2.89,0,0,0,.38-1.48,1.52,1.52,0,0,0-.13-.72.4.4,0,0,0-.34-.23.35.35,0,0,0-.34.25,5.51,5.51,0,0,0-.18.83,8.66,8.66,0,0,1-.23,1,1.47,1.47,0,0,1-.43.7,1.26,1.26,0,0,1-.88.29,1.36,1.36,0,0,1-.85-.28,1.92,1.92,0,0,1-.58-.85A3.59,3.59,0,0,1,7.31,394.48Zm5.93-3.85a.93.93,0,0,1,.24-.67.81.81,0,0,1,1.19,0,.93.93,0,0,1,.24.67,1,1,0,0,1-.23.66.73.73,0,0,1-.58.26.8.8,0,0,1-.62-.26A.92.92,0,0,1,13.24,390.63Zm-.71-.75v1.49H7.38v-1.49ZM7.63,389a1.59,1.59,0,0,1-.25-.54,2.87,2.87,0,0,1-.07-.67,2,2,0,0,1,.47-1.42,1.76,1.76,0,0,1,1.37-.5h2.11v-.8h1.15v.8h1.25v1.49H12.41v1.28H11.26V387.4H9.17a.7.7,0,0,0-.5.16.65.65,0,0,0-.18.48,1,1,0,0,0,.19.6Zm4.22-6.15a1.68,1.68,0,0,1,.56.72,2.69,2.69,0,0,1,.19,1.05H11.23c0-.16,0-.27,0-.33a1.39,1.39,0,0,0-.37-1A1.43,1.43,0,0,0,9.81,383H7.38v-1.49h5.15v1.42Zm-.38-5.08a1.28,1.28,0,0,0-.28-.85,1.2,1.2,0,0,0-.79-.42v2.53a1.2,1.2,0,0,0,.78-.42A1.23,1.23,0,0,0,11.47,377.81Zm-1.53,2.67-.41,0v-3.89a1.22,1.22,0,0,0-.75.5,1.59,1.59,0,0,0-.28,1,2,2,0,0,0,.12.71,1.76,1.76,0,0,0,.38.58l-.86.79A2.64,2.64,0,0,1,7.31,378a3.45,3.45,0,0,1,.33-1.54,2.56,2.56,0,0,1,1-1,2.62,2.62,0,0,1,1.37-.36,2.66,2.66,0,0,1,1.35.35,2.45,2.45,0,0,1,.95,1,2.87,2.87,0,0,1,.34,1.4,2.94,2.94,0,0,1-.32,1.37,2.32,2.32,0,0,1-.94.95A2.68,2.68,0,0,1,9.94,380.48Zm-1.41-8.86a1.24,1.24,0,0,0,.38.94,1.45,1.45,0,0,0,1.05.37,1.42,1.42,0,0,0,1-.37,1.21,1.21,0,0,0,.39-.94,1.24,1.24,0,0,0-.39-.94,1.46,1.46,0,0,0-1-.37,1.49,1.49,0,0,0-1.05.37A1.27,1.27,0,0,0,8.53,371.62Zm4.07.26a2.59,2.59,0,0,1-.33,1.3,2.31,2.31,0,0,1-.93.93,2.79,2.79,0,0,1-1.38.33,2.87,2.87,0,0,1-1.4-.33,2.38,2.38,0,0,1-.93-.93,2.69,2.69,0,0,1-.32-1.3,2,2,0,0,1,.62-1.55H5.53v-1.49h7v1.43h-.6A2,2,0,0,1,12.6,371.88Zm-5.22-5.45L9,365.3l-1.58-1.17v-1.62l2.59,2,2.56-1.91v1.67L11,365.34l1.5,1.12V368L10,366.13l-2.63,2Zm1.25-4.33H7.38v-5.18h6.69V362H12.83v-3.51H11.38v3.1h-1.2v-3.1H8.63Z"/><rect class="cls-2" y="212.31" width="409.61" height="0.68"/><rect class="cls-2" x="204.8" y="8.19" width="0.68" height="409.61"/><path class="cls-3" d="M27.31,27.14a3,3,0,0,1-2.75-1.83,3,3,0,0,1-.17-1.71,3,3,0,0,1,2.34-2.33,3,3,0,0,1,3.06,1.26,3,3,0,0,1,.5,1.65,2.93,2.93,0,0,1-.23,1.13,2.89,2.89,0,0,1-1.61,1.61A2.79,2.79,0,0,1,27.31,27.14Zm6.08-9.41-.53-.48,0,0-.58-.43-.16-.11a2.26,2.26,0,0,0-.26-.16A9.26,9.26,0,0,0,27,15h-.23a9.22,9.22,0,0,0-9,9.22c0,4.41,6.22,12.26,8.49,15a1,1,0,0,0,.36.28,1,1,0,0,0,.45.11,1.07,1.07,0,0,0,.46-.11,1,1,0,0,0,.36-.28c2.23-2.71,8.31-10.49,8.31-14.91a9.16,9.16,0,0,0-2.79-6.57Z"/><path class="cls-3" d="M97.19,20.3h-.75v6.45h.75Zm-8.46,6.45h.74v-3a1.15,1.15,0,0,1,1.1-1.21.9.9,0,0,1,1,.92v3.32h.75V23.6a1,1,0,0,1,1.08-1.09.91.91,0,0,1,1,1v3.24h.74V23.51c0-1.14-.61-1.66-1.47-1.66a1.51,1.51,0,0,0-1.45.82h0a1.33,1.33,0,0,0-1.3-.82,1.3,1.3,0,0,0-1.3.82h-.06v-.76h-.72Zm-1.12-4.84h-1V20.75h-.75v1.16H85.1v.63h.73v3a1.24,1.24,0,0,0,1.31,1.25,1.51,1.51,0,0,0,.56-.09l-.15-.66a1.94,1.94,0,0,1-.33,0c-.33,0-.64-.1-.64-.73V22.54h1ZM81,23.84a1.21,1.21,0,0,1,1.27-1.33,1.07,1.07,0,0,1,1.12,1.21v3h.74V23.67c0-1.24-.66-1.82-1.65-1.82a1.39,1.39,0,0,0-1.42.82H81V20.3h-.75v6.45H81ZM79,23.64H76.13v.69H79Zm-6.81-1.73h-.86l1.54,2.42-1.54,2.42h.86l1.16-1.88,1.16,1.88h.86l-1.57-2.42,1.57-2.42h-.86l-1.16,2Zm-5.07,2a1.45,1.45,0,0,1,1.43-1.43,1.32,1.32,0,0,1,1.33,1.43Zm1.51,2.91a1.89,1.89,0,0,0,1.93-1.22l-.72-.2a1.19,1.19,0,0,1-1.21.75,1.47,1.47,0,0,1-1.51-1.6h3.51v-.31c0-1.81-1.07-2.42-2.08-2.42a2.25,2.25,0,0,0-2.18,2.52A2.23,2.23,0,0,0,68.58,26.85ZM63,26.18c-.94,0-1.41-.82-1.41-1.85S62,22.51,63,22.51s1.38.73,1.38,1.82S63.86,26.18,63,26.18Zm-.1.67A1.51,1.51,0,0,0,64.28,26h.09v.74h.72V20.3h-.75v2.38h-.06a1.49,1.49,0,0,0-1.4-.83c-1.22,0-2.07,1-2.07,2.49S61.66,26.85,62.87,26.85Zm-6.28-3a1.2,1.2,0,0,1,1.24-1.33,1.07,1.07,0,0,1,1.11,1.21v3h.74V23.67c0-1.23-.66-1.82-1.64-1.82a1.42,1.42,0,0,0-1.41.82h-.06v-.76h-.72v4.84h.74ZM54.12,21.1a.51.51,0,0,0,.53-.5.53.53,0,0,0-1.06,0A.51.51,0,0,0,54.12,21.1Zm-.38,5.65h.74V21.91h-.74Zm-1.31-3.11H49.61v.69h2.82Zm-5.72,3.11h.75V23.69a1.14,1.14,0,0,1,1.22-1.14,2.43,2.43,0,0,1,.45.05v-.75l-.39,0a1.32,1.32,0,0,0-1.26.81h0v-.73h-.72ZM45,21.1a.51.51,0,0,0,.53-.5.52.52,0,0,0-.53-.51.51.51,0,0,0-.52.51A.51.51,0,0,0,45,21.1Zm-.37,5.65h.74V21.91h-.74Zm-5.5-.69V21h1.25c1.51,0,2.28,1,2.28,2.52s-.77,2.55-2.37,2.55Zm1.21.69c2,0,3.08-1.22,3.08-3.24s-1.11-3.21-3-3.21H38.33v6.45Z"/><path class="cls-3" d="M10.92,12.13a3,3,0,0,1-1.65-.51A3,3,0,0,1,8,8.58a3,3,0,0,1,.81-1.52,3,3,0,0,1,3.25-.64A2.9,2.9,0,0,1,13.4,7.51,2.94,2.94,0,0,1,13,11.26a3,3,0,0,1-1,.64A2.94,2.94,0,0,1,10.92,12.13ZM17,2.71c-.16-.16-.34-.32-.53-.48l0,0c-.18-.15-.37-.29-.57-.43l-.17-.11-.25-.16A9.33,9.33,0,0,0,10.57,0h-.22a9.22,9.22,0,0,0-9,9.22c0,4.41,6.22,12.26,8.48,15a1,1,0,0,0,.37.28,1,1,0,0,0,.9,0,1,1,0,0,0,.37-.28C13.71,21.48,19.8,13.7,19.8,9.28a9.12,9.12,0,0,0-.73-3.57A9,9,0,0,0,17,2.71Z"/><path class="cls-3" d="M43.51,11.16c-1,0-1.45-.85-1.45-1.82s.45-1.85,1.45-1.85S45,8.36,45,9.34,44.51,11.16,43.51,11.16Zm0,.67A2.22,2.22,0,0,0,45.7,9.34a2.21,2.21,0,1,0-4.38,0A2.22,2.22,0,0,0,43.51,11.83ZM39.82,6.08a.51.51,0,0,0,.52-.5.51.51,0,0,0-.52-.51.52.52,0,0,0-.53.51A.51.51,0,0,0,39.82,6.08Zm-.38,5.65h.74V6.89h-.74Zm-1.91,0a.57.57,0,1,0-.56-.57A.56.56,0,0,0,37.53,11.78ZM35.79,8a1.64,1.64,0,0,0-1.72-1.14c-1,0-1.78.58-1.78,1.4,0,.66.4,1.11,1.29,1.32l.81.19c.48.11.71.35.71.68s-.44.76-1.13.76a1,1,0,0,1-1.12-.79l-.71.18A1.67,1.67,0,0,0,34,11.83c1.13,0,1.89-.61,1.89-1.45,0-.67-.42-1.1-1.28-1.31l-.72-.18c-.57-.14-.83-.33-.83-.7s.44-.72,1-.72a1,1,0,0,1,1,.69ZM31.51,6.89H30.43V6.4c0-.48.2-.73.69-.73a1.34,1.34,0,0,1,.42.07l.21-.64a1.69,1.69,0,0,0-.7-.13,1.25,1.25,0,0,0-1.36,1.25v.67H28.9v.63h.79v4.21h.74V7.52h1.08ZM24.68,9.31c0-1.08.48-1.82,1.39-1.82s1.41.8,1.41,1.82-.48,1.85-1.41,1.85S24.68,10.41,24.68,9.31ZM24,13.55h.74V11h.07a1.5,1.5,0,0,0,1.41.84c1.21,0,2-1,2-2.51s-.84-2.49-2.06-2.49a1.47,1.47,0,0,0-1.4.83h-.09V6.89H24ZM22.22,6.08a.51.51,0,0,0,.53-.5.53.53,0,0,0-1.06,0A.51.51,0,0,0,22.22,6.08Zm-.38,5.65h.75V6.89h-.75Z"/><path class="cls-3" d="M127.61,146.24a3,3,0,0,1-1.65-.5,3,3,0,0,1-1.09-1.33,2.9,2.9,0,0,1-.17-1.72,3,3,0,0,1,.81-1.52,3,3,0,0,1,3.25-.64,3,3,0,0,1,1.33,1.1,2.91,2.91,0,0,1,.5,1.64,3,3,0,0,1-.22,1.14,2.86,2.86,0,0,1-.65,1,2.74,2.74,0,0,1-1,.64A3,3,0,0,1,127.61,146.24Zm6.08-9.41a4.88,4.88,0,0,0-.53-.48l0,0a6.07,6.07,0,0,0-.57-.43l-.17-.12-.25-.15a9.25,9.25,0,0,0-4.86-1.51H127a9.26,9.26,0,0,0-9,9.23c0,4.4,6.23,12.25,8.49,15a1.16,1.16,0,0,0,.37.29,1.06,1.06,0,0,0,.9,0,1.16,1.16,0,0,0,.37-.29c2.22-2.71,8.31-10.49,8.31-14.91a9.12,9.12,0,0,0-2.8-6.56Z"/><path class="cls-3" d="M169.39,145.28c-1,0-1.45-.86-1.45-1.83s.45-1.84,1.45-1.84,1.45.87,1.45,1.84S170.38,145.28,169.39,145.28Zm0,.66a2.52,2.52,0,1,0-2.2-2.49A2.22,2.22,0,0,0,169.39,145.94Zm-3.7-5.74a.52.52,0,0,0,.53-.51.53.53,0,0,0-1.06,0A.52.52,0,0,0,165.69,140.2Zm-.38,5.64h.75V141h-.75Zm-1.9,0a.57.57,0,0,0,.57-.56.57.57,0,0,0-1.14,0A.57.57,0,0,0,163.41,145.89Zm-1.75-3.8a1.63,1.63,0,0,0-1.71-1.15c-1,0-1.78.58-1.78,1.4,0,.67.4,1.12,1.29,1.32l.8.19c.49.12.72.35.72.68s-.44.76-1.13.76a1,1,0,0,1-1.13-.78l-.7.17a1.65,1.65,0,0,0,1.84,1.26c1.12,0,1.89-.61,1.89-1.44,0-.68-.42-1.1-1.29-1.32l-.71-.17c-.58-.14-.84-.34-.84-.71s.44-.72,1-.72a1,1,0,0,1,1,.7ZM157.39,141h-1.08v-.49c0-.48.2-.73.69-.73a1,1,0,0,1,.41.08l.22-.65a1.76,1.76,0,0,0-.71-.12,1.25,1.25,0,0,0-1.36,1.25V141h-.78v.63h.78v4.21h.75v-4.21h1.08Zm-6.83,2.42c0-1.08.48-1.81,1.38-1.81s1.42.79,1.42,1.81-.48,1.86-1.42,1.86S150.56,144.52,150.56,143.42Zm-.73,4.24h.74V145.1h.06a1.51,1.51,0,0,0,1.41.84c1.21,0,2.06-1,2.06-2.5s-.85-2.5-2.07-2.5a1.49,1.49,0,0,0-1.4.83h-.09V141h-.71Zm-1.73-7.46a.52.52,0,0,0,.53-.51.53.53,0,0,0-1.06,0A.52.52,0,0,0,148.1,140.2Zm-.38,5.64h.74V141h-.74Zm-1.9,0a.56.56,0,0,0,.56-.56.57.57,0,0,0-.56-.57.58.58,0,0,0-.57.57A.57.57,0,0,0,145.82,145.89Zm-1.75-3.8a1.64,1.64,0,0,0-1.72-1.15c-1,0-1.77.58-1.77,1.4,0,.67.39,1.12,1.28,1.32l.81.19c.49.12.72.35.72.68s-.44.76-1.14.76a1,1,0,0,1-1.12-.78l-.71.17a1.67,1.67,0,0,0,1.85,1.26c1.12,0,1.89-.61,1.89-1.44,0-.68-.43-1.1-1.29-1.32l-.72-.17c-.57-.14-.83-.34-.83-.71s.44-.72,1-.72a1,1,0,0,1,1.05.7Zm-5.17-1.89a.52.52,0,0,0,.53-.51.53.53,0,0,0-1.06,0A.52.52,0,0,0,138.9,140.2Zm-.37.8v5.2c0,.49-.2.77-.65.77h-.14v.69h.15a1.29,1.29,0,0,0,1.39-1.46V141Z"/><path class="cls-3" d="M135.12,172.86a2.94,2.94,0,0,1-1.65-.5,3,3,0,0,1-1.26-3,3,3,0,0,1,4.06-2.16,2.9,2.9,0,0,1,1.33,1.09,3,3,0,0,1,.28,2.78,3,3,0,0,1-1.62,1.61A3,3,0,0,1,135.12,172.86Zm6.08-9.41a4.88,4.88,0,0,0-.53-.48l0,0c-.18-.15-.37-.29-.57-.43l-.17-.11-.25-.16a9.33,9.33,0,0,0-4.86-1.5h-.22a9.24,9.24,0,0,0-9,9.22c0,4.41,6.23,12.26,8.49,15a1,1,0,0,0,.37.29,1.06,1.06,0,0,0,.9,0,.93.93,0,0,0,.36-.29c2.23-2.7,8.32-10.49,8.32-14.91a9.11,9.11,0,0,0-.73-3.56A9,9,0,0,0,141.2,163.45Z"/><path class="cls-3" d="M185.63,171.9c-1,0-1.45-.86-1.45-1.83s.46-1.84,1.45-1.84,1.45.87,1.45,1.84S186.63,171.9,185.63,171.9Zm0,.67a2.53,2.53,0,1,0-2.19-2.5A2.24,2.24,0,0,0,185.63,172.57Zm-3.69-5.75a.51.51,0,1,0-.53-.5A.52.52,0,0,0,181.94,166.82Zm-.38,5.65h.74v-4.84h-.74Zm-1.9.05a.57.57,0,0,0,0-1.14.57.57,0,0,0,0,1.14Zm-1.75-3.81a1.64,1.64,0,0,0-1.72-1.15c-1,0-1.77.58-1.77,1.4,0,.67.39,1.12,1.28,1.33l.81.19c.49.11.72.34.72.68s-.44.75-1.14.75a1,1,0,0,1-1.12-.78l-.71.18a1.67,1.67,0,0,0,1.84,1.26c1.13,0,1.9-.62,1.9-1.45,0-.67-.43-1.1-1.29-1.31l-.72-.18c-.57-.14-.83-.33-.83-.7s.44-.72,1-.72a1,1,0,0,1,1.05.69Zm-4.27-1.08h-1.09v-.49c0-.48.2-.74.69-.74a1.27,1.27,0,0,1,.42.08l.21-.64a1.69,1.69,0,0,0-.7-.13,1.26,1.26,0,0,0-1.36,1.25v.67H171v.63h.78v4.21h.74v-4.21h1.09Zm-6.84,2.42c0-1.09.48-1.82,1.39-1.82s1.41.8,1.41,1.82-.48,1.85-1.41,1.85S166.8,171.14,166.8,170.05Zm-.73,4.23h.75v-2.56h.06a1.49,1.49,0,0,0,1.41.85c1.21,0,2.05-1,2.05-2.51s-.84-2.5-2.06-2.5a1.46,1.46,0,0,0-1.4.84h-.09v-.77h-.72Zm-1.73-7.46a.51.51,0,1,0-.53-.5A.52.52,0,0,0,164.34,166.82Zm-.37,5.65h.74v-4.84H164Zm-1.91.05a.57.57,0,1,0-.56-.57A.57.57,0,0,0,162.06,172.52Zm-1.66-4.89h-1v-1.16h-.74v1.16h-.74v.63h.74v3a1.24,1.24,0,0,0,1.31,1.25,1.49,1.49,0,0,0,.55-.09l-.15-.67a1.06,1.06,0,0,1-.33,0c-.33,0-.64-.1-.64-.73v-2.82h1Zm-3.31,1.08a1.63,1.63,0,0,0-1.71-1.15c-1,0-1.78.58-1.78,1.4,0,.67.39,1.12,1.28,1.33l.81.19c.49.11.72.34.72.68s-.44.75-1.14.75a1,1,0,0,1-1.12-.78l-.7.18a1.66,1.66,0,0,0,1.84,1.26c1.12,0,1.89-.62,1.89-1.45,0-.67-.42-1.1-1.29-1.31l-.72-.18c-.57-.14-.83-.33-.83-.7s.44-.72,1-.72a1,1,0,0,1,1,.69Zm-5.16-1.89a.51.51,0,1,0-.53-.5A.52.52,0,0,0,151.93,166.82Zm-.38,5.65h.75v-4.84h-.75ZM148,171.9c-.93,0-1.41-.82-1.41-1.85s.47-1.82,1.41-1.82,1.39.73,1.39,1.82S148.87,171.9,148,171.9Zm-.1.67a1.49,1.49,0,0,0,1.41-.85h.09v.75h.72V166h-.74v2.39h-.07a1.46,1.46,0,0,0-1.4-.84c-1.22,0-2.06,1-2.06,2.5S146.66,172.57,147.87,172.57Z"/><path class="cls-3" d="M25.8,32.28l1.46.8.32-.6-1.46-.8Zm-4.1-2.21,2.93,1.58.32-.6L22,29.47Zm-4.1-2.22,2.93,1.58.33-.6-2.93-1.58Zm-4.09-2.22,2.92,1.58.33-.6L13.83,25ZM10.88,24.2l1.46.79.32-.6L11.2,23.6Z"/><path class="cls-3" d="M405.13,39.22h1.7v-.68h-1.7Zm-4.77,0h3.41v-.68h-3.41Zm-4.76,0H399v-.68h-3.4Zm-4.76,0h3.4v-.68h-3.4Zm-4.76,0h3.4v-.68h-3.4Zm-4.76,0h3.4v-.68h-3.4Zm-4.76,0H380v-.68h-3.4Zm-4.77,0h3.41v-.68h-3.41Zm-4.76,0h3.4v-.68H367Zm-4.76,0h3.4v-.68h-3.4Zm-4.76,0h3.4v-.68h-3.4Zm-4.76,0h3.4v-.68h-3.4Zm-4.76,0h3.4v-.68H348Zm-4.77,0h3.41v-.68h-3.41Zm-4.76,0h3.4v-.68h-3.4Zm-4.76,0h3.4v-.68h-3.4Zm-4.76,0h3.4v-.68h-3.4Zm-4.76,0h3.4v-.68h-3.4Zm-4.76,0h3.4v-.68h-3.4Zm-4.77,0h3.41v-.68h-3.41Zm-4.76,0h3.4v-.68h-3.4Zm-4.76,0h3.4v-.68h-3.4Zm-4.76,0h3.4v-.68h-3.4Zm-4.76,0H299v-.68h-3.4Zm-4.76,0h3.4v-.68h-3.4Zm-4.77,0h3.41v-.68h-3.41Zm-4.76,0h3.4v-.68h-3.4Zm-4.76,0H280v-.68h-3.4Zm-4.76,0h3.4v-.68h-3.4Zm-4.76,0h3.4v-.68H267Zm-4.76,0h3.4v-.68h-3.4Zm-4.77,0h3.41v-.68h-3.41Zm-4.76,0h3.4v-.68h-3.4Zm-4.76,0h3.4v-.68H248Zm-4.76,0h3.4v-.68h-3.4Zm-4.76,0h3.4v-.68h-3.4Zm-4.76,0h3.4v-.68h-3.4Zm-4.77,0h3.41v-.68h-3.41Zm-4.76,0h3.4v-.68h-3.4Zm-4.76,0h3.4v-.68h-3.4Zm-4.76,0h3.4v-.68h-3.4Zm-4.76,0h3.4v-.68h-3.4Zm-4.76,0h3.4v-.68h-3.4Zm-4.77,0h3.41v-.68h-3.41Zm-4.76,0H199v-.68h-3.4Zm-4.76,0h3.4v-.68h-3.4Zm-4.76,0h3.4v-.68h-3.4Zm-4.76,0h3.4v-.68h-3.4Zm-4.76,0H180v-.68h-3.4Zm-4.77,0h3.41v-.68H171.8Zm-4.76,0h3.4v-.68H167Zm-4.76,0h3.4v-.68h-3.4Zm-4.76,0h3.4v-.68h-3.4Zm-4.76,0h3.4v-.68h-3.4Zm-4.76,0h3.4v-.68H148Zm-4.77,0h3.41v-.68h-3.41Zm-4.76,0h3.4v-.68h-3.4Zm-4.76,0h3.4v-.68h-3.4Zm-4.76,0h3.4v-.68H129Zm-4.76,0h3.4v-.68h-3.4Zm-4.76,0h3.4v-.68h-3.4Zm-4.77,0h3.41v-.68h-3.41Zm-4.76,0h3.4v-.68h-3.4Zm-4.76,0h3.4v-.68h-3.4Zm-4.76,0h3.4v-.68h-3.4Zm-4.76,0H99v-.68h-3.4Zm-4.76,0h3.4v-.68h-3.4Zm-4.77,0H89.5v-.68H86.09Zm-4.76,0h3.4v-.68h-3.4Zm-4.76,0H80v-.68h-3.4Zm-4.76,0h3.4v-.68h-3.4Zm-4.76,0h3.4v-.68h-3.4Zm-4.76,0h3.4v-.68h-3.4Zm-4.77,0h3.41v-.68H57.52Zm-4.76,0h3.4v-.68h-3.4Zm-4.76,0h3.4v-.68H48Zm-4.76,0h3.4v-.68h-3.4Zm-4.76,0h3.4v-.68h-3.4Zm-4.76,0h3.4v-.68h-3.4Zm-4.77,0h3.41v-.68H29Zm-3.06,0h1.7v-.68h-1.7Z"/><path class="cls-4" d="M401.05,273.59l1.49.82.66-1.19-1.49-.83Zm-4.17-2.32,3,1.65.66-1.19-3-1.65ZM392.72,269l3,1.65.67-1.19-3-1.65Zm-4.17-2.31,3,1.65.66-1.2-3-1.65Zm-4.17-2.32,3,1.65.66-1.19-3-1.65ZM380.22,262l3,1.65.67-1.19-3-1.65Zm-4.17-2.31,3,1.65.66-1.2-3-1.65Zm-4.17-2.32,3,1.66.66-1.2-3-1.65Zm-4.16-2.31,3,1.65.67-1.19-3-1.65Zm-4.17-2.31,3,1.65.66-1.19-3-1.66Zm-4.17-2.32,3,1.66.66-1.2-3-1.65Zm-4.16-2.31,3,1.65.67-1.19-3-1.65Zm-4.17-2.31,3,1.65.66-1.19-3-1.66Zm-4.17-2.32,3,1.66.66-1.2-3-1.65Zm-4.16-2.31,3,1.65.67-1.19-3-1.65Zm-4.17-2.31,3,1.65.66-1.19-3-1.66Zm-4.17-2.32,3,1.66L338,237l-3-1.65Zm-4.16-2.31,3,1.65.67-1.19-3-1.65ZM326.05,232l3,1.65.66-1.19-3-1.66Zm-4.17-2.32,3,1.66.66-1.2-3-1.65Zm-4.16-2.31,3,1.65.67-1.19-3-1.65ZM313.55,225l3,1.65.66-1.19-3-1.66Zm-4.17-2.31,3,1.65.66-1.2-3-1.65Zm-4.16-2.32,3,1.65.67-1.19-3-1.65Zm-4.17-2.31,3,1.65.66-1.19-3-1.66Zm-4.17-2.31,3,1.65.66-1.2-3-1.65Zm-4.16-2.32,3,1.65.67-1.19-3-1.65Zm-4.17-2.31,3,1.65.66-1.19-3-1.65Zm-4.17-2.31,3,1.65.66-1.2-3-1.65Zm-4.16-2.32,3,1.65.67-1.19-3-1.65Zm-4.17-2.31,3,1.65.66-1.19-3-1.65Zm-4.17-2.31,3,1.65.66-1.2-3-1.65Zm-4.16-2.32,3,1.66.67-1.2-3-1.65Zm-4.17-2.31,3,1.65.66-1.19-3-1.65Zm-4.17-2.31,3,1.65.66-1.19-3-1.66Zm-4.16-2.32,3,1.66.67-1.2-3-1.65Zm-4.17-2.31,3,1.65.66-1.19-3-1.65ZM246.88,188l3,1.65.66-1.19-3-1.66Zm-4.16-2.32,3,1.66.67-1.2-3-1.65Zm-4.17-2.31,3,1.65.66-1.19-3-1.65Zm-4.17-2.31,3,1.65.66-1.19-3-1.66Zm-4.16-2.32,3,1.66.67-1.2-3-1.65Zm-4.17-2.31,3,1.65.66-1.19-3-1.65Zm-4.17-2.31,3,1.65.66-1.19-3-1.66Zm-4.16-2.32,3,1.66.67-1.2-3-1.65Zm-4.17-2.31,3,1.65.66-1.19-3-1.65Zm-4.17-2.31,3,1.65.66-1.19-3-1.66Zm-4.16-2.32,3,1.66.67-1.2-3-1.65Zm-4.17-2.31,3,1.65.66-1.19-3-1.65Zm-4.17-2.31,3,1.65.66-1.19-3-1.66Zm-4.16-2.31,3,1.65.67-1.2-3-1.65Zm-4.17-2.32,3,1.65.66-1.19-3-1.65Zm-4.17-2.31,3,1.65.66-1.19-3-1.65ZM180.22,151l3,1.65.67-1.2-3-1.65Zm-4.17-2.32,3,1.65.66-1.19-3-1.65Zm-4.16-2.31,3,1.65.66-1.19-3-1.65Zm-4.17-2.31,3,1.65.67-1.2-3-1.65Zm-4.17-2.32,3,1.66.66-1.2-3-1.65Zm-4.16-2.31,3,1.65.66-1.19-3-1.65Zm-4.17-2.31,3,1.65.67-1.19-3-1.66Zm-4.17-2.32,3,1.66.66-1.2-3-1.65Zm-4.16-2.31,3,1.65.66-1.19-3-1.65Zm-4.17-2.31,3,1.65.67-1.19-3-1.66Zm-4.17-2.32,3,1.66.66-1.2-3-1.65Zm-4.16-2.31,3,1.65L138,126l-3-1.65Zm-4.17-2.31,3,1.65.66-1.19-3-1.66Zm-4.17-2.32,3,1.66.66-1.2-3-1.65Zm-4.16-2.31,3,1.65.66-1.19-3-1.65Zm-4.17-2.31,3,1.65.66-1.19-3-1.66ZM113.55,114l3,1.66.66-1.2-3-1.65Zm-4.16-2.31,3,1.65.66-1.19-3-1.65Zm-4.17-2.31,3,1.65.66-1.19-3-1.66ZM101.05,107l3,1.65.66-1.2-3-1.65Zm-4.16-2.32,3,1.65.66-1.19-3-1.65Zm-4.17-2.31,3,1.65.66-1.19-3-1.66Zm-4.17-2.31,3,1.65.66-1.2-3-1.65Zm-4.16-2.32,3,1.65L88,98.24l-3-1.65Zm-4.17-2.31,3,1.65.66-1.19-3-1.65Zm-4.17-2.31,3,1.65.66-1.2-3-1.65Zm-4.16-2.32,3,1.66.67-1.2-3-1.65Zm-4.17-2.31,3,1.65L71.36,89l-3-1.65Zm-4.17-2.31,3,1.65.66-1.2-3-1.65ZM59.39,83.9l3,1.66.67-1.2-3-1.65Zm-4.17-2.31,3,1.65.66-1.19-3-1.65Zm-4.17-2.31,3,1.65.66-1.19-3-1.66ZM46.89,77l3,1.66.67-1.2-3-1.65Zm-4.17-2.31,3,1.65.66-1.19-3-1.65Zm-4.17-2.31,3,1.65.66-1.19-3-1.66ZM34.39,70l3,1.66.67-1.2-3-1.65Zm-4.17-2.31,3,1.65.66-1.19-3-1.65ZM26.05,65.4l3,1.65.66-1.19-3-1.66Zm-4.16-2.32,3,1.66.67-1.2-3-1.65Zm-4.17-2.31,3,1.65.66-1.19-3-1.65Zm-4.17-2.31,3,1.65.66-1.19-3-1.66ZM10.88,57l1.48.83L13,56.6l-1.49-.82Z"/><path class="cls-4" d="M401.11,398.26l1.28,1.12.9-1L402,397.23Zm-3.61-3.12,2.57,2.23.9-1-2.58-2.24ZM393.89,392l2.58,2.23.89-1L394.79,391Zm-3.61-3.13,2.58,2.23.89-1-2.57-2.23Zm-3.6-3.13,2.57,2.24.9-1-2.58-2.23Zm-3.61-3.13,2.58,2.24.89-1L384,381.59Zm-3.61-3.13,2.58,2.24.89-1-2.57-2.24Zm-3.6-3.12,2.57,2.23.9-1-2.58-2.23Zm-3.61-3.13,2.58,2.23.89-1-2.58-2.23Zm-3.61-3.13,2.58,2.23.89-1-2.57-2.23ZM365,367l2.58,2.24.9-1L365.93,366Zm-3.6-3.13,2.57,2.24.9-1-2.58-2.24Zm-3.61-3.12L360.4,363l.89-1-2.58-2.24Zm-3.61-3.13,2.58,2.23.89-1-2.57-2.23Zm-3.6-3.13,2.57,2.23.9-1-2.58-2.23ZM347,351.34l2.58,2.23.89-1-2.58-2.23Zm-3.61-3.13,2.58,2.24.89-1-2.57-2.23Zm-3.61-3.13,2.58,2.24.9-1-2.58-2.24Zm-3.6-3.12,2.57,2.23.9-1-2.58-2.24Zm-3.61-3.13,2.58,2.23.89-1-2.57-2.23ZM329,335.7l2.58,2.23.89-1-2.57-2.23Zm-3.6-3.13,2.57,2.23.9-1-2.58-2.23Zm-3.61-3.13,2.58,2.24.89-1-2.58-2.23Zm-3.61-3.13,2.58,2.24.89-1L319,325.28Zm-3.6-3.12,2.57,2.23.9-1-2.58-2.24Zm-3.61-3.13,2.57,2.23.9-1L311.82,319Zm-3.61-3.13,2.58,2.23.89-1-2.57-2.23Zm-3.61-3.13,2.58,2.23.9-1-2.58-2.23Zm-3.6-3.13,2.57,2.24.9-1L301,309.64Zm-3.61-3.13,2.58,2.24.89-1-2.58-2.24Zm-3.61-3.12,2.58,2.23.89-1-2.57-2.24Zm-3.6-3.13,2.57,2.23.9-1-2.58-2.23Zm-3.61-3.13,2.58,2.23.89-1-2.58-2.23ZM282.07,295l2.58,2.23.89-1L283,294Zm-3.61-3.13,2.58,2.24.9-1-2.58-2.24Zm-3.6-3.13,2.57,2.24.9-1-2.58-2.24Zm-3.61-3.12,2.58,2.23.89-1-2.57-2.24Zm-3.61-3.13,2.58,2.23.89-1-2.57-2.23Zm-3.6-3.13,2.57,2.23.9-1-2.58-2.23Zm-3.61-3.13,2.58,2.23.89-1-2.58-2.23Zm-3.61-3.13,2.58,2.24.89-1-2.57-2.24Zm-3.6-3.13,2.57,2.24.9-1L254.11,269Zm-3.61-3.12,2.57,2.23.9-1-2.58-2.24ZM246,263.75l2.58,2.23.89-1-2.57-2.23Zm-3.61-3.13,2.58,2.23.89-1-2.57-2.23Zm-3.6-3.13,2.57,2.24.9-1-2.58-2.23Zm-3.61-3.13,2.58,2.24.89-1-2.58-2.24Zm-3.61-3.13,2.58,2.24.89-1-2.57-2.24Zm-3.6-3.12,2.57,2.23.9-1-2.58-2.24ZM224.36,245l2.57,2.23.9-1L225.25,244Zm-3.61-3.13,2.58,2.23.89-1-2.57-2.23Zm-3.61-3.13,2.58,2.24.9-1L218,237.69Zm-3.6-3.13,2.57,2.24.9-1-2.58-2.24Zm-3.61-3.13,2.58,2.24.89-1-2.58-2.24Zm-3.61-3.12,2.58,2.23.89-1-2.57-2.24Zm-3.6-3.13,2.57,2.23.9-1-2.58-2.23Zm-3.61-3.13,2.58,2.23.89-1L200,222.05ZM195.5,220l2.58,2.24.89-1-2.57-2.23Zm-3.6-3.13,2.57,2.24.9-1-2.58-2.24Zm-3.61-3.13,2.57,2.24.9-1-2.58-2.24Zm-3.61-3.12,2.58,2.23.89-1-2.57-2.24Zm-3.61-3.13,2.58,2.23.89-1L182,206.41Zm-3.6-3.13,2.57,2.23.9-1-2.58-2.23Zm-3.61-3.13,2.58,2.24.89-1-2.58-2.23Zm-3.61-3.13,2.58,2.24.89-1L171.15,197Zm-3.6-3.13,2.57,2.24.9-1-2.58-2.24ZM163,191.8l2.58,2.23.89-1-2.58-2.24Zm-3.61-3.13L162,190.9l.89-1-2.57-2.23Zm-3.61-3.13,2.58,2.23.9-1-2.58-2.23Zm-3.6-3.13,2.57,2.24.9-1-2.58-2.23Zm-3.61-3.13,2.58,2.24.89-1-2.57-2.24ZM145,176.15l2.58,2.24.89-1-2.57-2.24ZM141.4,173l2.57,2.23.9-1L142.29,172Zm-3.61-3.13,2.58,2.23.89-1-2.58-2.23Zm-3.61-3.13,2.58,2.23.89-1-2.57-2.23Zm-3.6-3.13,2.57,2.24.9-1-2.58-2.23ZM127,160.51l2.57,2.24.9-1-2.58-2.24Zm-3.61-3.13,2.58,2.24.89-1-2.57-2.24Zm-3.61-3.12,2.58,2.23.9-1-2.58-2.23Zm-3.6-3.13,2.57,2.23.9-1L117,150.1ZM112.54,148l2.58,2.23.89-1L113.43,147Zm-3.61-3.13,2.58,2.24.89-1-2.57-2.23Zm-3.6-3.13L107.9,144l.9-1-2.58-2.24Zm-3.61-3.12,2.58,2.23.89-1-2.58-2.24Zm-3.61-3.13,2.58,2.23.89-1L99,134.46Zm-3.61-3.13,2.58,2.23.9-1-2.58-2.23Zm-3.6-3.13,2.57,2.23.9-1-2.58-2.23Zm-3.61-3.13,2.58,2.24.89-1-2.57-2.23ZM83.68,123l2.58,2.24.89-1-2.57-2.24Zm-3.6-3.12,2.57,2.23.9-1L81,118.81Zm-3.61-3.13L79.05,119l.89-1-2.58-2.23Zm-3.61-3.13,2.58,2.23.89-1-2.57-2.23Zm-3.6-3.13,2.57,2.23.9-1-2.58-2.23Zm-3.61-3.13,2.57,2.24.9-1-2.58-2.24ZM62,104.2l2.58,2.24.89-1-2.57-2.24Zm-3.61-3.12L61,103.31l.9-1L59.33,100ZM54.83,98l2.57,2.23.9-1-2.58-2.23Zm-3.61-3.13,2.58,2.23.89-1-2.58-2.23Zm-3.61-3.13,2.58,2.23.89-1-2.57-2.23ZM44,88.56l2.57,2.24.9-1L44.9,87.53ZM40.4,85.43,43,87.67l.89-1L41.29,84.4Zm-3.61-3.12,2.58,2.23.89-1-2.57-2.24Zm-3.61-3.13,2.58,2.23.9-1-2.58-2.23Zm-3.6-3.13,2.57,2.23.9-1L30.47,75Zm-2.32-2,1.29,1.12.89-1L28.15,73Z"/><path class="cls-5" d="M401.06,146.13l1.67.27.22-1.35-1.68-.27Zm-4.69-.75,3.35.54.21-1.35-3.35-.54Zm-4.69-.76,3.35.54.21-1.35-3.34-.54Zm-4.69-.75,3.35.54.22-1.35-3.35-.54Zm-4.69-.76,3.35.54.22-1.35-3.35-.53Zm-4.69-.75,3.35.54.22-1.35-3.35-.54Zm-4.69-.76,3.35.54.22-1.34-3.35-.54Zm-4.69-.75,3.35.54.22-1.35-3.35-.54Zm-4.68-.75,3.34.53.22-1.34-3.35-.54Zm-4.69-.76,3.35.54.21-1.35-3.35-.54Zm-4.69-.75,3.35.54.21-1.35-3.35-.54Zm-4.69-.76,3.35.54L353,137l-3.34-.54Zm-4.69-.75,3.35.54.22-1.35-3.35-.54Zm-4.69-.76,3.35.54.22-1.35-3.35-.54Zm-4.69-.75,3.35.54.22-1.35-3.35-.54Zm-4.69-.76,3.35.54.22-1.35-3.35-.53Zm-4.69-.75,3.35.54.22-1.35-3.35-.54Zm-4.69-.76,3.35.54.22-1.34-3.35-.54Zm-4.68-.75,3.35.54.21-1.35-3.35-.54ZM312,131.8l3.35.53.21-1.34-3.35-.54Zm-4.69-.76,3.35.54.21-1.35-3.35-.54Zm-4.69-.75,3.35.54.22-1.35-3.35-.54Zm-4.69-.76,3.35.54.22-1.35-3.35-.54Zm-4.69-.75,3.35.54.22-1.35-3.35-.54Zm-4.69-.76,3.35.54.22-1.35-3.35-.53Zm-4.69-.75,3.35.54.22-1.35-3.35-.54Zm-4.69-.76,3.35.54.22-1.34-3.35-.54Zm-4.68-.75,3.34.54L278,125l-3.35-.54Zm-4.69-.76,3.35.54.21-1.34-3.35-.54Zm-4.69-.75,3.35.54.21-1.35-3.35-.54Zm-4.69-.75,3.35.53.22-1.34-3.35-.54Zm-4.69-.76,3.35.54.22-1.35-3.35-.54ZM251,122l3.35.54.22-1.35-3.35-.54Zm-4.69-.76,3.35.54.22-1.35-3.35-.54Zm-4.69-.75L245,121l.22-1.35-3.35-.54Zm-4.69-.76,3.35.54.22-1.35-3.35-.53Zm-4.68-.75,3.34.54.22-1.35-3.35-.54Zm-4.69-.76,3.35.54.21-1.34-3.35-.54Zm-4.69-.75,3.35.54.21-1.35-3.35-.54Zm-4.69-.75,3.35.53.22-1.34-3.35-.54ZM213.5,116l3.35.54.22-1.35-3.35-.54Zm-4.69-.75,3.35.53.22-1.34-3.35-.54Zm-4.69-.76,3.35.54.22-1.35-3.35-.54Zm-4.69-.75,3.35.54.22-1.35-3.35-.54Zm-4.69-.76,3.35.54.22-1.35-3.35-.54Zm-4.68-.75,3.34.54.22-1.35-3.35-.54Zm-4.69-.76,3.35.54.21-1.35-3.35-.53Zm-4.69-.75,3.35.54.21-1.35-3.35-.54Zm-4.69-.76,3.35.54.21-1.34-3.34-.54Zm-4.69-.75,3.35.54.22-1.35-3.35-.54Zm-4.69-.75,3.35.53.22-1.34-3.35-.54Zm-4.69-.76,3.35.54.22-1.35-3.35-.54Zm-4.69-.75,3.35.53.22-1.34-3.35-.54Zm-4.69-.76,3.35.54.22-1.35-3.35-.54Zm-4.68-.75,3.34.54.22-1.35-3.35-.54Zm-4.69-.76,3.35.54.21-1.35-3.35-.54Zm-4.69-.75,3.35.54.21-1.35-3.35-.54Zm-4.69-.76,3.35.54.21-1.35-3.34-.53Zm-4.69-.75,3.35.54.22-1.35-3.35-.54Zm-4.69-.76,3.35.54.22-1.34-3.35-.54Zm-4.69-.75,3.35.54.22-1.35-3.35-.54Zm-4.69-.75,3.35.53.22-1.34-3.35-.54Zm-4.69-.76,3.35.54.22-1.35L110.56,98Zm-4.68-.75,3.34.54.22-1.35-3.35-.54ZM101,97.84l3.35.54.21-1.35-3.35-.54Zm-4.69-.75,3.35.54.21-1.35-3.35-.54Zm-4.69-.76,3.35.54.21-1.35L91.81,95Zm-4.69-.75,3.35.54.22-1.35-3.35-.54Zm-4.69-.76,3.35.54L85.78,94l-3.35-.53Zm-4.69-.75,3.35.54.22-1.35-3.35-.54Zm-4.69-.76,3.35.54.22-1.34L73.05,92Zm-4.69-.75,3.35.54.22-1.35-3.35-.54Zm-4.68-.75,3.34.53L67,91l-3.35-.54Zm-4.69-.76,3.35.54.21-1.35L59,89.7Zm-4.69-.75,3.35.54.21-1.35L54.29,89Zm-4.69-.76,3.35.54L53,88.73l-3.34-.54Zm-3-.48,1.68.27L48.27,88l-1.68-.27Z"/><path class="cls-4" d="M401.08,289.35l1.65.41.33-1.32-1.65-.41Zm-4.61-1.15,3.29.82.33-1.32-3.29-.83ZM391.85,287l3.3.83.33-1.33-3.3-.82Zm-4.61-1.15,3.29.82.33-1.32-3.29-.82Zm-4.62-1.15,3.3.82.33-1.32-3.3-.83ZM378,283.58l3.29.83.33-1.33-3.29-.82Zm-4.62-1.15,3.3.82.33-1.32-3.3-.83Zm-4.61-1.16,3.29.83.33-1.33-3.29-.82Zm-4.62-1.15,3.3.83.33-1.33-3.3-.82ZM359.54,279l3.3.82.33-1.32-3.29-.83Zm-4.61-1.16,3.3.83.33-1.33-3.3-.82Zm-4.62-1.15,3.3.82.33-1.32-3.29-.83Zm-4.61-1.15,3.3.82.33-1.32-3.3-.83Zm-4.62-1.16,3.3.83.33-1.33-3.3-.82Zm-4.61-1.15,3.3.82.33-1.32-3.3-.83ZM331.85,272l3.3.83.33-1.33-3.3-.82Zm-4.61-1.15,3.29.82.34-1.32-3.3-.82Zm-4.62-1.15,3.3.82.33-1.32-3.3-.83ZM318,268.58l3.29.83.34-1.33-3.3-.82Zm-4.62-1.15,3.3.82.33-1.32-3.3-.83Zm-4.61-1.15,3.29.82.33-1.33-3.29-.82Zm-4.62-1.16,3.3.83.33-1.33-3.3-.82ZM299.55,264l3.29.82.33-1.32-3.29-.83Zm-4.62-1.16,3.3.83.33-1.33-3.3-.82Zm-4.61-1.15,3.29.82.33-1.32-3.29-.82Zm-4.62-1.15,3.3.82.33-1.32-3.3-.83Zm-4.61-1.16,3.29.83.33-1.33-3.29-.82Zm-4.62-1.15,3.3.82.33-1.32-3.3-.83ZM271.85,257l3.3.83.33-1.33-3.29-.82Zm-4.61-1.15,3.3.82.33-1.32-3.3-.82Zm-4.62-1.15,3.3.82.33-1.32-3.29-.83ZM258,253.58l3.3.83.33-1.33-3.3-.82Zm-4.62-1.15,3.3.82.33-1.32-3.3-.83Zm-4.61-1.15,3.3.82.33-1.33-3.3-.82Zm-4.62-1.16,3.3.83.33-1.33-3.3-.82ZM239.55,249l3.29.82.34-1.32-3.3-.83Zm-4.62-1.16,3.3.83.33-1.33-3.3-.82Zm-4.61-1.15,3.29.82.34-1.32-3.3-.82Zm-4.62-1.15,3.3.82.33-1.32-3.3-.83Zm-4.61-1.16,3.29.83.33-1.33-3.29-.82Zm-4.62-1.15,3.3.82.33-1.32-3.3-.83ZM211.86,242l3.29.83.33-1.33-3.29-.82Zm-4.62-1.15,3.3.83.33-1.33-3.3-.82Zm-4.61-1.15,3.29.82.33-1.32-3.29-.83ZM198,238.58l3.3.83.33-1.33-3.3-.82Zm-4.61-1.15,3.29.82.33-1.32-3.29-.83Zm-4.62-1.15,3.3.82.33-1.32-3.3-.83Zm-4.62-1.16,3.3.83.33-1.33-3.29-.82ZM179.55,234l3.3.82.33-1.32-3.3-.83Zm-4.62-1.16,3.3.83.33-1.33-3.29-.82Zm-4.61-1.15,3.3.82.33-1.32-3.3-.82Zm-4.62-1.15,3.3.82.33-1.32-3.3-.83Zm-4.61-1.16,3.29.83.34-1.33-3.3-.82Zm-4.62-1.15,3.3.82.33-1.32-3.3-.83Zm-4.61-1.15,3.29.82.34-1.33-3.3-.82Zm-4.62-1.16,3.3.83.33-1.33-3.3-.82Zm-4.61-1.15,3.29.82.33-1.32-3.29-.83ZM138,223.58l3.3.83.33-1.33-3.3-.82Zm-4.61-1.15,3.29.82.33-1.32-3.29-.82Zm-4.62-1.15,3.3.82.33-1.32-3.3-.83Zm-4.61-1.16,3.29.83.33-1.33-3.29-.82ZM119.55,219l3.3.82.33-1.32-3.3-.83Zm-4.61-1.16,3.29.83.33-1.33-3.29-.82Zm-4.62-1.15,3.3.82.33-1.32-3.3-.82Zm-4.61-1.15,3.29.82.33-1.32-3.29-.83Zm-4.62-1.16,3.3.83.33-1.33-3.3-.82Zm-4.62-1.15,3.3.82.33-1.32-3.29-.83Zm-4.61-1.15,3.3.82.33-1.32-3.3-.83Zm-4.62-1.16,3.3.83.33-1.33-3.29-.82Zm-4.61-1.15,3.3.82.33-1.32-3.3-.83ZM78,208.58l3.3.83.33-1.33-3.3-.82Zm-3-.74,1.64.41.34-1.32-1.65-.41Z"/><path class="cls-3" d="M401,198.2l1.71.08,0-.68-1.71-.08Zm-4.79-.23,3.42.17,0-.69-3.42-.16Zm-4.79-.23,3.42.16,0-.68-3.42-.16Zm-4.79-.23,3.42.16,0-.68-3.42-.16Zm-4.79-.23,3.42.16,0-.68-3.42-.17Zm-4.79-.24,3.42.17,0-.68-3.42-.17Zm-4.8-.23,3.43.17,0-.68-3.42-.17Zm-4.79-.23,3.43.17,0-.69-3.42-.16Zm-4.79-.23,3.42.16,0-.68-3.42-.16Zm-4.79-.23,3.42.16,0-.68-3.43-.16Zm-4.79-.23,3.42.16,0-.68-3.43-.17Zm-4.79-.24,3.42.17,0-.68-3.42-.17Zm-4.79-.23,3.42.17,0-.68-3.42-.17Zm-4.79-.23,3.42.17,0-.69-3.42-.16ZM334,195l3.42.16,0-.68-3.42-.16Zm-4.79-.23,3.42.16,0-.68-3.42-.16Zm-4.79-.23,3.42.16,0-.68-3.42-.17Zm-4.8-.24,3.43.17,0-.68-3.42-.17Zm-4.79-.23,3.43.17,0-.68-3.42-.17ZM310,193.8l3.42.17,0-.69-3.42-.16Zm-4.79-.23,3.42.17,0-.69-3.43-.16Zm-4.79-.23,3.42.16,0-.68-3.43-.16Zm-4.79-.23,3.42.16,0-.68-3.42-.17Zm-4.79-.24,3.42.17,0-.68-3.42-.17Zm-4.79-.23,3.42.17,0-.68-3.42-.17Zm-4.79-.23,3.42.17,0-.68-3.42-.17Zm-4.79-.23,3.42.17,0-.69-3.42-.16Zm-4.79-.23,3.42.16,0-.68-3.42-.16Zm-4.8-.23,3.43.16,0-.68-3.42-.17Zm-4.79-.23,3.43.16,0-.68-3.42-.17Zm-4.79-.24,3.42.17,0-.68-3.42-.17ZM252.5,191l3.42.17,0-.68-3.43-.17Zm-4.79-.23,3.42.17,0-.69-3.43-.16Zm-4.79-.23,3.42.16,0-.68-3.42-.16Zm-4.79-.23,3.42.16,0-.68-3.42-.16Zm-4.79-.23,3.42.16,0-.68-3.42-.17Zm-4.79-.24L232,190l0-.68-3.42-.17Zm-4.79-.23,3.42.17,0-.68-3.42-.17Zm-4.8-.23,3.43.17,0-.69-3.42-.16Zm-4.79-.23,3.43.16,0-.68-3.42-.16Zm-4.79-.23,3.43.16,0-.68-3.42-.16Zm-4.79-.23,3.42.16,0-.68-3.42-.17Zm-4.79-.24,3.42.17,0-.68-3.43-.17Zm-4.79-.23,3.42.17,0-.68-3.43-.17Zm-4.79-.23,3.42.17,0-.69-3.42-.16Zm-4.79-.23,3.42.16,0-.68-3.42-.16Zm-4.79-.23,3.42.16,0-.68-3.42-.16Zm-4.79-.23,3.42.16,0-.68-3.42-.17Zm-4.79-.24,3.42.17,0-.68-3.42-.17Zm-4.8-.23,3.43.17,0-.68-3.42-.17Zm-4.79-.23,3.43.17,0-.69-3.42-.16Zm-4.79-.23,3.43.16,0-.68-3.42-.16Zm-4.79-.23,3.42.16,0-.68-3.43-.16Zm-4.79-.23,3.42.16,0-.68-3.43-.17Zm-4.79-.24,3.42.17,0-.68-3.43-.17Zm-4.79-.23,3.42.17,0-.68-3.42-.17Zm-3.08-.15,1.71.09,0-.69-1.71-.08Z"/><path class="cls-3" d="M263.29,225.52l1.54.75.3-.61-1.54-.75ZM259,223.41l3.08,1.51.3-.62-3.08-1.5Zm-4.31-2.11,3.08,1.5.3-.61L255,220.68Zm-4.31-2.12,3.08,1.51.3-.61-3.08-1.51Zm-4.31-2.11,3.08,1.51.3-.61-3.08-1.51ZM241.74,215l3.08,1.51.3-.61L242,214.35Zm-4.31-2.11,3.08,1.51.3-.62-3.07-1.5Zm-4.3-2.11,3.07,1.5.3-.61-3.07-1.51Zm-4.31-2.12,3.07,1.51.3-.61L229.12,208Zm-4.31-2.11,3.07,1.51.31-.61-3.08-1.51Zm-4.31-2.11,3.08,1.51.3-.61-3.08-1.51Zm-4.31-2.11L219,203.8l.3-.62-3.08-1.51Zm-4.31-2.11,3.08,1.5.3-.61-3.08-1.51Zm-4.31-2.12,3.08,1.51.3-.61-3.08-1.51ZM203,196l3.08,1.51.3-.61-3.08-1.51Zm-4.31-2.11,3.08,1.51.3-.61L199,193.23Zm-4.31-2.11,3.08,1.51.3-.62-3.08-1.51ZM190,189.62l3.08,1.5.3-.61L190.33,189Zm-4.31-2.12L188.8,189l.3-.61L186,186.89Zm-4.31-2.11,3.08,1.51.3-.61-3.08-1.51Zm-4.31-2.11,3.08,1.51.3-.61-3.08-1.51Zm-4.31-2.11,3.08,1.51.3-.62-3.08-1.51Zm-4.31-2.11,3.08,1.5.3-.61-3.08-1.51Zm-4.3-2.12,3.07,1.51.3-.61-3.07-1.51Zm-4.31-2.11,3.07,1.51.3-.61-3.07-1.51Zm-4.31-2.11,3.07,1.51.3-.61-3.07-1.51Zm-4.31-2.11,3.08,1.51.3-.62L151.55,170Zm-4.31-2.11L150,170l.3-.61-3.08-1.51Zm-4.31-2.12,3.08,1.51.3-.61-3.08-1.51Zm-4.31-2.11,3.08,1.51.3-.61-3.08-1.51ZM134,162.16l3.08,1.51.3-.61-3.08-1.51Zm-4.31-2.11,3.08,1.51.3-.62L130,159.43Zm-2.77-1.36,1.54.75.3-.61-1.54-.75Z"/><path class="cls-5" d="M401,183l1.69.26.21-1.35-1.69-.26Zm-4.73-.73,3.38.52.2-1.35-3.38-.52Zm-4.74-.73,3.38.52.21-1.35-3.38-.52Zm-4.73-.72,3.38.52.2-1.35-3.38-.52Zm-4.74-.73,3.38.52.21-1.35-3.38-.52Zm-4.73-.73,3.38.52.21-1.35-3.39-.52Zm-4.74-.72,3.38.52.21-1.35-3.38-.52Zm-4.73-.73,3.38.52.21-1.35-3.39-.52Zm-4.74-.73,3.38.52.21-1.35-3.38-.52Zm-4.73-.72,3.38.52.21-1.35-3.39-.52Zm-4.74-.73,3.38.52.21-1.35-3.38-.52ZM349,175l3.38.52.21-1.35-3.38-.52Zm-4.74-.72,3.39.51.2-1.34-3.38-.52Zm-4.73-.73,3.38.52.21-1.35-3.38-.52Zm-4.74-.73,3.39.52.2-1.35-3.38-.52Zm-4.73-.72,3.38.51.21-1.34-3.38-.52Zm-4.74-.73,3.39.52.2-1.35-3.38-.52Zm-4.73-.73,3.38.52.21-1.35-3.38-.52Zm-4.73-.72,3.38.51.2-1.34-3.38-.52Zm-4.74-.73,3.38.52.21-1.35-3.38-.52Zm-4.73-.73,3.38.52.21-1.35-3.39-.52Zm-4.74-.72,3.38.51.21-1.35-3.38-.51Zm-4.73-.73,3.38.52.21-1.35-3.39-.52Zm-4.74-.73,3.38.52.21-1.35-3.38-.52Zm-4.73-.72,3.38.51.21-1.35-3.39-.51Zm-4.74-.73,3.38.52.21-1.35-3.38-.52Zm-4.73-.73,3.38.52.21-1.35-3.38-.52Zm-4.74-.72,3.39.51.2-1.35-3.38-.51Zm-4.73-.73,3.38.52.21-1.35-3.38-.52Zm-4.74-.73,3.39.52.2-1.35-3.38-.52Zm-4.73-.72,3.38.51.21-1.35-3.38-.51Zm-4.74-.73,3.39.52.2-1.35-3.38-.52Zm-4.73-.73,3.38.52.21-1.35-3.38-.52ZM244.8,159l3.38.52.2-1.35-3.38-.51Zm-4.74-.72,3.38.52.21-1.35-3.38-.52Zm-4.73-.73,3.38.52.2-1.35-3.38-.52Zm-4.74-.73,3.38.52.21-1.35-3.38-.51Zm-4.73-.72,3.38.52.21-1.35-3.39-.52Zm-4.74-.73,3.38.52.21-1.35-3.38-.52Zm-4.73-.73,3.38.52.21-1.35-3.39-.52Zm-4.74-.72,3.38.52.21-1.35-3.38-.52Zm-4.73-.73,3.38.52.21-1.35-3.39-.52Zm-4.74-.73,3.38.52.21-1.35-3.38-.52Zm-4.73-.72,3.38.52.21-1.35-3.38-.52Zm-4.74-.73,3.39.52.2-1.35-3.38-.52ZM188,150.3l3.38.52.21-1.35-3.38-.52Zm-4.74-.72,3.39.52.2-1.35-3.38-.52Zm-4.73-.73,3.38.52.21-1.35-3.38-.52Zm-4.74-.73,3.39.52.2-1.35-3.38-.52ZM169,147.4l3.38.52.21-1.35-3.38-.52Zm-4.73-.73,3.38.52.2-1.35-3.38-.52Zm-4.74-.73,3.38.52.21-1.35-3.38-.52Zm-4.73-.72,3.38.52.21-1.35-3.39-.52Zm-4.74-.73,3.38.52.21-1.35-3.38-.52Zm-4.73-.73,3.38.52.21-1.35-3.39-.52Zm-4.74-.72,3.38.52.21-1.35-3.38-.52Zm-4.73-.73,3.38.52.21-1.35L136.1,141Zm-4.74-.73,3.38.52.21-1.35-3.38-.52Zm-4.73-.72,3.38.52L130,140l-3.38-.52Zm-4.74-.73,3.39.52.2-1.35-3.38-.52ZM117,139.4l3.38.52.21-1.35-3.38-.52Zm-4.74-.72,3.39.52.2-1.35-3.38-.52Zm-3-.47,1.69.26.21-1.35-1.69-.26Z"/><path class="cls-5" d="M401.05,172.75l1.68.28.22-1.35-1.68-.28Zm-4.69-.76,3.35.54.22-1.34-3.35-.55Zm-4.7-.77,3.36.55.22-1.35-3.36-.55Zm-4.69-.76,3.35.54.22-1.34-3.35-.55Zm-4.7-.77,3.35.55.22-1.35-3.35-.55Zm-4.7-.76,3.36.54.22-1.35-3.36-.54Zm-4.69-.77,3.35.55.22-1.35-3.35-.55Zm-4.7-.77,3.36.55.22-1.35-3.36-.54Zm-4.69-.76,3.35.55.22-1.35-3.35-.55Zm-4.7-.77,3.35.55.22-1.35-3.35-.54Zm-4.7-.76,3.36.55.22-1.35-3.36-.55Zm-4.69-.77,3.35.55.22-1.35-3.35-.54Zm-4.7-.76,3.36.54.22-1.34-3.36-.55ZM340,162.8l3.35.55.22-1.35-3.35-.55Zm-4.7-.76,3.35.54.22-1.34-3.35-.55Zm-4.7-.77,3.36.55.22-1.35-3.36-.55Zm-4.69-.76,3.35.54.22-1.34-3.35-.55Zm-4.7-.77,3.36.55.22-1.35-3.36-.55Zm-4.69-.77,3.35.55.22-1.35-3.35-.54Zm-4.7-.76,3.35.55.22-1.35-3.35-.55Zm-4.7-.77,3.36.55.22-1.35-3.36-.54Zm-4.69-.76,3.35.55.22-1.35-3.35-.55Zm-4.7-.77,3.36.55.22-1.35-3.36-.54Zm-4.69-.76,3.35.54.22-1.34-3.35-.55Zm-4.7-.77,3.35.55.22-1.35-3.35-.55Zm-4.7-.76,3.36.54.22-1.34-3.36-.55Zm-4.69-.77,3.35.55.22-1.35-3.35-.55Zm-4.7-.76,3.36.54.22-1.34-3.36-.55Zm-4.69-.77,3.35.55.22-1.35-3.35-.55Zm-4.7-.76,3.35.54.22-1.35-3.35-.54Zm-4.7-.77,3.36.55.22-1.35-3.36-.55Zm-4.69-.77,3.35.55.22-1.35-3.35-.54Zm-4.7-.76,3.36.55.22-1.35-3.36-.55Zm-4.69-.77,3.35.55.22-1.35-3.35-.54Zm-4.7-.76,3.35.54.22-1.34-3.35-.55Zm-4.7-.77,3.36.55.22-1.35-3.36-.54ZM232,145.2l3.35.54.22-1.34-3.35-.55Zm-4.7-.77,3.36.55.22-1.35-3.36-.55Zm-4.69-.76,3.35.54.22-1.34-3.35-.55Zm-4.7-.77,3.35.55.22-1.35-3.35-.55Zm-4.7-.76,3.36.54.22-1.35-3.36-.54Zm-4.69-.77,3.35.55.22-1.35-3.35-.55Zm-4.7-.77,3.36.55.22-1.35-3.36-.54Zm-4.69-.76,3.35.55.22-1.35-3.35-.55Zm-4.7-.77,3.35.55.22-1.35-3.35-.54Zm-4.7-.76,3.36.55.22-1.35L190,137Zm-4.69-.77,3.35.55.22-1.35-3.35-.54Zm-4.7-.76,3.36.54.22-1.34-3.36-.55Zm-4.69-.77,3.35.55.22-1.35-3.35-.55Zm-4.7-.76,3.35.54.22-1.34-3.35-.55Zm-4.7-.77,3.36.55.22-1.35-3.36-.55Zm-4.69-.76,3.35.54.22-1.35-3.35-.54Zm-4.7-.77,3.36.55.22-1.35-3.36-.55Zm-4.69-.77,3.35.55.22-1.35-3.35-.54Zm-4.7-.76,3.35.55.22-1.35-3.35-.55Zm-4.7-.77,3.36.55.22-1.35-3.36-.54Zm-4.69-.76,3.35.55.22-1.35-3.35-.55Zm-4.7-.77,3.36.55.22-1.35-3.36-.54Zm-4.69-.76,3.35.54.22-1.34-3.35-.55Zm-4.7-.77,3.35.55.22-1.35-3.35-.55Zm-4.7-.76,3.36.54.22-1.34-3.36-.55Zm-4.69-.77,3.35.55.22-1.35-3.35-.55Zm-4.7-.76,3.36.54.22-1.34-3.36-.55Zm-4.69-.77,3.35.55.22-1.35-3.35-.55Zm-4.7-.76,3.35.54.22-1.35-3.35-.54Zm-4.7-.77,3.36.55.22-1.35L96,121.65Zm-3-.49,1.67.27.22-1.35L93,121.16Z"/><path class="cls-5" d="M401.06,160.48l1.67.26.21-1.35-1.67-.26Zm-4.7-.73,3.36.52.21-1.35-3.35-.52Zm-4.69-.74,3.35.53.22-1.35-3.36-.53Zm-4.69-.73,3.35.52.21-1.34-3.35-.53Zm-4.69-.73,3.35.52.21-1.35-3.35-.52Zm-4.69-.73,3.35.52.21-1.35-3.35-.52Zm-4.69-.73,3.35.52.21-1.35-3.35-.52Zm-4.69-.73,3.35.52.21-1.35-3.35-.52Zm-4.69-.74,3.35.53.21-1.35-3.35-.52Zm-4.69-.73,3.35.53.21-1.35-3.35-.53Zm-4.69-.73,3.35.52.21-1.34-3.35-.53Zm-4.69-.73,3.35.52.21-1.35-3.35-.52Zm-4.7-.73,3.35.52.22-1.35-3.36-.52Zm-4.69-.73,3.35.52.21-1.35-3.35-.52Zm-4.69-.73,3.35.52.21-1.35-3.35-.52Zm-4.69-.74L334,150l.21-1.35-3.35-.52Zm-4.69-.73,3.35.53.21-1.35-3.35-.53Zm-4.69-.73,3.35.52.21-1.34-3.35-.53Zm-4.69-.73,3.35.52.21-1.35-3.35-.52Zm-4.69-.73,3.35.52.21-1.35-3.35-.52Zm-4.69-.73,3.35.52.21-1.35-3.35-.52Zm-4.69-.73,3.35.52.21-1.35-3.35-.52Zm-4.7-.74,3.36.53.21-1.35-3.35-.52Zm-4.69-.73,3.35.53.21-1.35-3.35-.53Zm-4.69-.73,3.35.52.21-1.34-3.35-.53Zm-4.69-.73,3.35.52.21-1.35-3.35-.52Zm-4.69-.73,3.35.52.21-1.35-3.35-.52Zm-4.69-.73,3.35.52.21-1.35-3.35-.52Zm-4.69-.73,3.35.52.21-1.35-3.35-.52Zm-4.69-.74,3.35.53.21-1.35-3.35-.52Zm-4.69-.73,3.35.53.21-1.35-3.35-.53Zm-4.69-.73,3.35.52.21-1.34-3.35-.53Zm-4.69-.73,3.35.52.21-1.35-3.35-.52Zm-4.7-.73,3.35.52.22-1.35-3.36-.52Zm-4.69-.73,3.35.52.21-1.35-3.35-.52Zm-4.69-.73,3.35.52.21-1.35-3.35-.52Zm-4.69-.74,3.35.53.21-1.35-3.35-.52Zm-4.69-.73,3.35.53.21-1.35-3.35-.53Zm-4.69-.73,3.35.52.21-1.34-3.35-.53Zm-4.69-.73,3.35.52.21-1.35-3.35-.52Zm-4.69-.73,3.35.52.21-1.35-3.35-.52Zm-4.69-.73,3.35.52.21-1.35-3.35-.52Zm-4.69-.73,3.35.52.21-1.35-3.35-.52Zm-4.7-.74,3.36.53.21-1.35-3.36-.52Zm-4.69-.73,3.35.53.21-1.35-3.35-.53Zm-4.69-.73,3.35.52.21-1.34-3.35-.53Zm-4.69-.73,3.35.52.21-1.35-3.35-.52Zm-4.69-.73,3.35.52.21-1.35-3.35-.52Zm-4.69-.73,3.35.52.21-1.35L176.1,124Zm-4.69-.73,3.35.52.21-1.35-3.35-.52Zm-4.69-.74,3.35.53.21-1.35-3.35-.52Zm-4.69-.73,3.35.53.21-1.35-3.35-.53Zm-4.69-.73,3.35.52.21-1.35-3.35-.52Zm-4.7-.73,3.36.52.21-1.35-3.35-.52Zm-4.69-.73,3.35.52.21-1.35-3.35-.52Zm-4.69-.73,3.35.52.21-1.35-3.35-.52Zm-4.69-.73,3.35.52.21-1.35-3.35-.52Zm-4.69-.74,3.35.53.21-1.35-3.35-.52Zm-4.69-.73,3.35.53.21-1.35-3.35-.53Zm-4.69-.73,3.35.52.21-1.35L124.5,116Zm-4.69-.73,3.35.52.21-1.35-3.35-.52Zm-4.69-.73,3.35.52.21-1.35-3.35-.52Zm-4.69-.73,3.35.52.21-1.35-3.35-.52Zm-4.69-.73,3.35.52.21-1.35-3.35-.52Zm-4.7-.74,3.35.53.22-1.35-3.36-.52Zm-4.69-.73,3.35.53.21-1.35-3.35-.53Zm-4.69-.73,3.35.52.21-1.35-3.35-.52Zm-4.69-.73,3.35.52.21-1.35L87,110.12Zm-4.69-.73,3.35.52.21-1.35-3.35-.52ZM77.38,110l3.35.52.21-1.35-3.35-.52Zm-3-.47,1.68.26.21-1.35-1.68-.26Z"/><path class="cls-4" d="M27.94,61.59a3,3,0,0,1-2.75-1.84A2.94,2.94,0,0,1,25,58a3,3,0,0,1,.81-1.52,3,3,0,0,1,3.25-.64A3,3,0,0,1,30.42,57a2.94,2.94,0,0,1-.37,3.75,2.88,2.88,0,0,1-1,.64A3,3,0,0,1,27.94,61.59ZM34,52.17a6.11,6.11,0,0,0-.53-.47l-.05,0c-.18-.15-.37-.29-.57-.43l-.17-.11L32.45,51a9.33,9.33,0,0,0-4.86-1.5h-.22a9.26,9.26,0,0,0-9,9.23c0,4.4,6.23,12.25,8.49,15a1.06,1.06,0,0,0,.37.29,1.06,1.06,0,0,0,.9,0,1,1,0,0,0,.36-.29c2.23-2.71,8.32-10.49,8.32-14.91a9.12,9.12,0,0,0-.73-3.57A9.38,9.38,0,0,0,34,52.17Z"/><path class="cls-6" d="M83.37,60.62c-1,0-1.45-.85-1.45-1.82S82.38,57,83.37,57s1.45.87,1.45,1.84S84.37,60.62,83.37,60.62Zm0,.67a2.52,2.52,0,1,0-2.19-2.49A2.22,2.22,0,0,0,83.37,61.29Zm-3.69-5.75a.5.5,0,1,0-.53-.5A.51.51,0,0,0,79.68,55.54Zm-.38,5.65h.75V56.35H79.3Zm-1.9.05a.57.57,0,1,0-.57-.56A.57.57,0,0,0,77.4,61.24Zm-1.75-3.8a1.63,1.63,0,0,0-1.71-1.15c-1,0-1.78.58-1.78,1.4s.39,1.11,1.28,1.32l.81.19c.49.11.72.35.72.68s-.44.76-1.14.76a1,1,0,0,1-1.12-.78L72,60a1.66,1.66,0,0,0,1.84,1.26c1.12,0,1.89-.61,1.89-1.45,0-.67-.42-1.1-1.29-1.31l-.72-.17c-.57-.15-.83-.34-.83-.71s.44-.72,1-.72a1,1,0,0,1,1,.69Zm-4.27-1.09H70.29v-.49c0-.48.21-.73.7-.73a1.26,1.26,0,0,1,.41.07l.22-.64a1.8,1.8,0,0,0-.71-.12,1.25,1.25,0,0,0-1.36,1.24v.67h-.78V57h.78v4.21h.74V57h1.09Zm-6.83,2.42c0-1.08.47-1.81,1.38-1.81s1.41.79,1.41,1.81-.48,1.85-1.41,1.85S64.55,59.87,64.55,58.77ZM63.81,63h.75V60.45h.06a1.5,1.5,0,0,0,1.41.84c1.21,0,2.06-1,2.06-2.51s-.85-2.49-2.07-2.49a1.47,1.47,0,0,0-1.4.83h-.09v-.77h-.72Zm-1.72-7.47a.5.5,0,1,0-.53-.5A.51.51,0,0,0,62.09,55.54Zm-.38,5.65h.74V56.35h-.74Zm-1.9.05a.57.57,0,1,0-.57-.56A.56.56,0,0,0,59.81,61.24Zm-1.75-3.8a1.64,1.64,0,0,0-1.72-1.15c-1,0-1.78.58-1.78,1.4S55,58.8,55.85,59l.81.19c.49.11.72.35.72.68s-.45.76-1.14.76a1,1,0,0,1-1.12-.78l-.71.17a1.67,1.67,0,0,0,1.84,1.26c1.13,0,1.89-.61,1.89-1.45,0-.67-.42-1.1-1.28-1.31l-.72-.17c-.57-.15-.83-.34-.83-.71s.44-.72,1-.72a1,1,0,0,1,1,.69Zm-6.42,3.85a1.79,1.79,0,0,0,1.9-1.51H52.8a1.12,1.12,0,0,1-1.16.84c-.89,0-1.45-.73-1.45-1.85S50.77,57,51.64,57a1.14,1.14,0,0,1,1.16.84h.74a1.81,1.81,0,0,0-1.92-1.51,2.52,2.52,0,0,0,0,5Zm-5.3-.67c-1,0-1.45-.85-1.45-1.82S45.35,57,46.34,57s1.45.87,1.45,1.84S47.34,60.62,46.34,60.62Zm0,.67a2.52,2.52,0,1,0-2.19-2.49A2.22,2.22,0,0,0,46.34,61.29Zm-5.55-.67c-.93,0-1.41-.81-1.41-1.85S39.85,57,40.79,57s1.39.73,1.39,1.81S41.69,60.62,40.79,60.62Zm-.1.67a1.5,1.5,0,0,0,1.41-.84h.09v.74h.72V54.74h-.74v2.38H42.1a1.47,1.47,0,0,0-1.4-.83c-1.22,0-2.06,1-2.06,2.49S39.48,61.29,40.69,61.29Z"/><path class="cls-4" d="M75.73,195.39a2.94,2.94,0,0,1-1.65-.5,3,3,0,0,1-1.27-3,3,3,0,0,1,2.34-2.32,3,3,0,0,1,3.06,1.26,2.94,2.94,0,0,1,.27,2.78,2.95,2.95,0,0,1-2.75,1.83ZM81.81,186c-.17-.17-.35-.33-.53-.48l0,0c-.18-.15-.38-.29-.58-.43l-.16-.12-.26-.15a9.17,9.17,0,0,0-4.85-1.5h-.22a9.22,9.22,0,0,0-9,9.22c0,4.4,6.22,12.26,8.49,15a1.12,1.12,0,0,0,.36.29,1,1,0,0,0,.46.1,1,1,0,0,0,.45-.1,1.12,1.12,0,0,0,.36-.29c2.23-2.7,8.31-10.49,8.31-14.91A9.06,9.06,0,0,0,81.81,186Z"/><path class="cls-6" d="M157.68,195h.75v-3.07a1.14,1.14,0,0,1,1.22-1.13,2.43,2.43,0,0,1,.45,0v-.76h-.39a1.32,1.32,0,0,0-1.26.81h0v-.73h-.72ZM153,192.19a1.44,1.44,0,0,1,1.43-1.43,1.32,1.32,0,0,1,1.33,1.43Zm1.51,2.91a1.88,1.88,0,0,0,1.93-1.23l-.72-.2a1.18,1.18,0,0,1-1.21.76,1.46,1.46,0,0,1-1.51-1.6h3.51v-.32c0-1.8-1.07-2.42-2.08-2.42a2.52,2.52,0,0,0,.08,5Zm-6.66-.1h.74v-1.82l.52-.48L151,195h.94l-2.2-2.78,2-2.06h-.92l-2.12,2.15h-.09v-3.77h-.74Zm-3,.1a1.79,1.79,0,0,0,1.9-1.52h-.74a1.13,1.13,0,0,1-1.16.85c-.88,0-1.45-.73-1.45-1.85s.58-1.82,1.45-1.82a1.13,1.13,0,0,1,1.16.85h.74a1.8,1.8,0,0,0-1.91-1.52,2.53,2.53,0,0,0,0,5Zm-6.61-2.91a1.44,1.44,0,0,1,1.43-1.43,1.31,1.31,0,0,1,1.32,1.43Zm1.51,2.91a1.86,1.86,0,0,0,1.92-1.23l-.71-.2a1.18,1.18,0,0,1-1.21.76,1.46,1.46,0,0,1-1.51-1.6h3.51v-.32c0-1.8-1.07-2.42-2.08-2.42a2.52,2.52,0,0,0,.08,5Zm-6.53-3a1.22,1.22,0,0,1,1.27-1.32,1.07,1.07,0,0,1,1.12,1.21v3h.75v-3.08c0-1.24-.67-1.83-1.66-1.83a1.41,1.41,0,0,0-1.42.82h-.06v-2.37h-.75V195h.75Zm-1.91-1.52a2.53,2.53,0,0,0-2.6-2.11c-1.65,0-2.84,1.28-2.84,3.32s1.19,3.31,2.84,3.31a2.52,2.52,0,0,0,2.6-2.1h-.78a1.76,1.76,0,0,1-1.82,1.37c-1.17,0-2.09-.9-2.09-2.58s.92-2.58,2.09-2.58a1.75,1.75,0,0,1,1.82,1.37Zm-12.26,6.25a1.46,1.46,0,0,0,1.43-1.11l2.06-5.53h-.82L120.44,194h0l-1.34-3.85h-.81L120,195l-.13.38c-.28.74-.61.81-1.15.67l-.19.65A1.38,1.38,0,0,0,119.1,196.81Zm-3.77-2.37c-.59,0-1-.26-1-.78s.52-.74,1.1-.82a3.86,3.86,0,0,0,1.28-.28v.68A1.24,1.24,0,0,1,115.33,194.44Zm-.11.67a1.53,1.53,0,0,0,1.44-.77h0V195h.75v-3.19a1.59,1.59,0,0,0-1.79-1.72,2,2,0,0,0-1.94,1.14l.7.25a1.32,1.32,0,0,1,1.26-.73.89.89,0,0,1,1,1v0c0,.36-.36.32-1.24.44s-1.88.31-1.88,1.42A1.49,1.49,0,0,0,115.22,195.11Zm-7.54-.11h.73l1.06-3.72h.08l1,3.72h.74l1.47-4.84H112l-1,3.69h0l-1-3.69h-.79l-1,3.7h0l-1-3.7h-.78Zm-5.74-2.81a1.44,1.44,0,0,1,1.43-1.43,1.32,1.32,0,0,1,1.33,1.43Zm1.51,2.91a1.88,1.88,0,0,0,1.93-1.23l-.72-.2a1.18,1.18,0,0,1-1.21.76,1.46,1.46,0,0,1-1.51-1.6h3.51v-.32c0-1.8-1.07-2.42-2.08-2.42a2.52,2.52,0,0,0,.08,5Zm-3.1-4.94h-1V189h-.75v1.16h-.73v.63h.73v3a1.24,1.24,0,0,0,1.31,1.25,1.51,1.51,0,0,0,.56-.09l-.15-.67a1.11,1.11,0,0,1-.33,0c-.33,0-.64-.1-.64-.73v-2.82h1Zm-5.57,4.28c-.59,0-1-.26-1-.78s.52-.74,1.1-.82a3.86,3.86,0,0,0,1.28-.28v.68A1.24,1.24,0,0,1,94.78,194.44Zm-.11.67a1.52,1.52,0,0,0,1.44-.77h0V195h.75v-3.19a1.59,1.59,0,0,0-1.79-1.72,2,2,0,0,0-1.94,1.14l.7.25a1.32,1.32,0,0,1,1.26-.73.89.89,0,0,1,1,1v0c0,.36-.36.32-1.24.44s-1.88.31-1.88,1.42A1.49,1.49,0,0,0,94.67,195.11Zm-3.51-4.55H92a2.6,2.6,0,0,0-2.65-2.11c-1.65,0-2.82,1.28-2.82,3.32s1.16,3.31,2.87,3.31A2.49,2.49,0,0,0,92,192.46v-.69H89.55v.69h1.7a1.79,1.79,0,0,1-1.88,1.89c-1.19,0-2.11-.9-2.11-2.58s.92-2.58,2.06-2.58A1.82,1.82,0,0,1,91.16,190.56Z"/><path class="cls-4" d="M11.56,45.2a2.91,2.91,0,0,1-1.65-.5,3,3,0,0,1-1.1-1.33,3,3,0,0,1-.17-1.71,3,3,0,0,1,.82-1.52,3,3,0,0,1,4.58.45,3,3,0,0,1,.5,1.65,2.93,2.93,0,0,1-.23,1.13A2.89,2.89,0,0,1,12.7,45,3,3,0,0,1,11.56,45.2Zm6.08-9.41c-.17-.17-.35-.33-.53-.48l-.05,0-.58-.43-.16-.11a2.26,2.26,0,0,0-.26-.16,9.26,9.26,0,0,0-4.85-1.5H11a9.29,9.29,0,0,0-6.37,2.79A9.2,9.2,0,0,0,2,42.3c0,4.41,6.22,12.26,8.49,15a1,1,0,0,0,.36.29,1,1,0,0,0,.45.1,1,1,0,0,0,.46-.1,1,1,0,0,0,.36-.29c2.23-2.7,8.31-10.49,8.31-14.91a9.16,9.16,0,0,0-2.79-6.56Z"/><path class="cls-6" d="M82.21,40H83a2.25,2.25,0,0,0-4.39.1c0,.87.63,1.38,1.64,1.67L81,42c.68.19,1.29.43,1.29,1.07s-.68,1.18-1.58,1.18-1.45-.34-1.51-1.08H78.4c.08,1.06.93,1.78,2.32,1.78s2.33-.82,2.33-1.86c0-1.21-1.14-1.61-1.81-1.78l-.66-.18c-.48-.12-1.25-.38-1.25-1.07S79.9,39,80.76,39,82.13,39.33,82.21,40Zm-8.74,4.84h.78V41.92h2.8v-.69h-2.8V39.05h3.09v-.7H73.47Zm-4.85-3.05V39.05H70c1.05,0,1.45.57,1.45,1.35A1.26,1.26,0,0,1,70,41.76Zm-.78,3.05h.78V42.45H70a2.05,2.05,0,1,0,0-4.1H67.84Zm-1.57-6.46h-.78v6.46h.78Zm-8,3.65a1.44,1.44,0,0,1,1.43-1.43A1.31,1.31,0,0,1,61,42Zm1.51,2.91a1.87,1.87,0,0,0,1.92-1.22L61,43.48a1.18,1.18,0,0,1-1.21.76,1.46,1.46,0,0,1-1.51-1.6h3.51v-.32c0-1.8-1.07-2.42-2.08-2.42a2.26,2.26,0,0,0-2.18,2.53A2.23,2.23,0,0,0,59.76,44.91ZM50,44.81h.75v-3a1.14,1.14,0,0,1,1.09-1.21.89.89,0,0,1,1,.92v3.32h.76V41.66a1,1,0,0,1,1.07-1.09.9.9,0,0,1,1,1v3.24h.75V41.57c0-1.14-.62-1.67-1.48-1.67a1.54,1.54,0,0,0-1.45.82h0a1.34,1.34,0,0,0-1.3-.82,1.32,1.32,0,0,0-1.3.82h-.06V40H50Zm-3.33-.57c-1,0-1.45-.86-1.45-1.83s.46-1.84,1.45-1.84,1.45.87,1.45,1.84S47.68,44.24,46.68,44.24Zm0,.67a2.24,2.24,0,0,0,2.2-2.5,2.21,2.21,0,1,0-4.39,0A2.23,2.23,0,0,0,46.68,44.91Zm-3.17-3.86a1.63,1.63,0,0,0-1.72-1.15c-1,0-1.77.58-1.77,1.4s.39,1.12,1.28,1.33l.81.19c.49.11.72.34.72.68s-.44.75-1.14.75a1,1,0,0,1-1.12-.78l-.7.18a1.66,1.66,0,0,0,1.84,1.26c1.12,0,1.89-.62,1.89-1.45s-.42-1.1-1.29-1.31L41.59,42c-.57-.14-.83-.33-.83-.7s.44-.72,1-.72a1,1,0,0,1,1.05.69Zm-8.08,1a1.46,1.46,0,0,1,1.44-1.43A1.31,1.31,0,0,1,38.19,42Zm1.51,2.91a1.87,1.87,0,0,0,1.93-1.22l-.72-.21a1.17,1.17,0,0,1-1.21.76,1.47,1.47,0,0,1-1.51-1.6H39v-.32c0-1.8-1.07-2.42-2.08-2.42a2.26,2.26,0,0,0-2.18,2.53A2.22,2.22,0,0,0,36.94,44.91Zm-8-.1h.73l1.06-3.72h.07l1.06,3.72h.73L34.1,40h-.79l-1,3.69h-.05L31.2,40h-.8l-1,3.7h-.05L28.27,40h-.78Zm-5.23-2.52,1-2.92h.05l1,2.92Zm-.9,2.52L23.49,43H26.1l.65,1.83h.82L25.2,38.35h-.81L22,44.81Z"/><path class="cls-5" d="M75.05,97.09a3.05,3.05,0,0,1-1.66-.5,3,3,0,0,1-1.09-1.34,3,3,0,0,1-.17-1.71A3,3,0,0,1,73,92a2.93,2.93,0,0,1,1.52-.81,3.06,3.06,0,0,1,1.72.17,2.92,2.92,0,0,1,1.34,1.09,3,3,0,0,1,.5,1.65,3,3,0,0,1-.23,1.14,3.1,3.1,0,0,1-.64,1,3.15,3.15,0,0,1-1,.64A3,3,0,0,1,75.05,97.09Zm6.08-9.42-.53-.47,0,0L80,86.73l-.16-.11c-.08-.06-.17-.1-.26-.16A9.26,9.26,0,0,0,74.7,85h-.23a9.22,9.22,0,0,0-9,9.23c0,4.4,6.22,12.25,8.49,15a1,1,0,0,0,.36.28,1,1,0,0,0,.45.11,1.07,1.07,0,0,0,.46-.11,1,1,0,0,0,.36-.28c2.23-2.71,8.31-10.49,8.31-14.91a9.12,9.12,0,0,0-.73-3.57A9.35,9.35,0,0,0,81.13,87.67Z"/><path class="cls-1" d="M117.56,95.44a.51.51,0,0,1-.47-.23,1.58,1.58,0,0,1-.23-.94h-1.37A2.93,2.93,0,0,0,116,96a1.89,1.89,0,0,0,1.58.8Zm.73-1.17a1.62,1.62,0,0,1-.23.92.55.55,0,0,1-.5.25v1.37a1.91,1.91,0,0,0,1.61-.83,2.9,2.9,0,0,0,.49-1.71Zm-.73-1.13a.58.58,0,0,1,.51.24,1.57,1.57,0,0,1,.22.89h1.37a2.93,2.93,0,0,0-.48-1.69,2,2,0,0,0-1.62-.81Zm-.7,1.13a1.55,1.55,0,0,1,.22-.91.53.53,0,0,1,.48-.22V91.77a1.89,1.89,0,0,0-1.58.78,2.89,2.89,0,0,0-.49,1.72Zm-2.1-2.42v6.66h1.37V91.85Zm1.4-.68h-.72v1.36h.72Zm.68,1.45v-.77h-1.36v.77Zm-.59-.68h-.09V93.3h.09Zm1.4-.84a2.12,2.12,0,0,0-1.43.49,2.43,2.43,0,0,0-.54.66l1.14.74a1.6,1.6,0,0,1,.27-.36.84.84,0,0,1,.56-.16Zm2.75,3.18a3.49,3.49,0,0,0-.74-2.26,2.56,2.56,0,0,0-2-.92v1.37a1.22,1.22,0,0,1,1,.43,2.12,2.12,0,0,1,.41,1.38Zm-2.74,3.19a2.56,2.56,0,0,0,2-.92,3.53,3.53,0,0,0,.73-2.27H119a2.16,2.16,0,0,1-.41,1.4,1.21,1.21,0,0,1-1,.43Zm-2-1.16a2.68,2.68,0,0,0,.56.69,2.19,2.19,0,0,0,1.43.47V96.11a.8.8,0,0,1-.56-.17,1.25,1.25,0,0,1-.27-.35Zm.52.32h.06V95.27h-.06Zm.68,1.88V96H115.5v2.56Zm-1.43.68h.75V97.82h-.75Zm0-7.34v-.68h-.68v.68Zm.72,0h.68v-.68h-.68Zm0,.77h-.68v.68h.68Zm.09,0v.68h.37l.2-.31Zm0,3.33.58-.36-.2-.32h-.38Zm-.06,0v-.68h-.69V96Zm0,2.56v.68h.68v-.68Zm-.75,0h-.68v.68h.68Zm-2.56-4.21a1.58,1.58,0,0,1-.22.88.61.61,0,0,1-.55.26v1.37a2,2,0,0,0,1.66-.84,2.93,2.93,0,0,0,.48-1.67Zm-.77-1.16a.6.6,0,0,1,.54.26,1.56,1.56,0,0,1,.23.9h1.37a3,3,0,0,0-.48-1.68,2,2,0,0,0-1.66-.85Zm-.76,1.16a1.65,1.65,0,0,1,.22-.9.62.62,0,0,1,.54-.26V91.77a2,2,0,0,0-1.65.85A3,3,0,0,0,110,94.3Zm.76,1.14a.61.61,0,0,1-.54-.26,1.58,1.58,0,0,1-.22-.88H110a2.93,2.93,0,0,0,.48,1.67,2,2,0,0,0,1.65.84Zm-2.87-1.14a3.4,3.4,0,0,0,.77,2.26,2.75,2.75,0,0,0,2.1.91V96.11a1.37,1.37,0,0,1-1.07-.45,2,2,0,0,1-.44-1.36Zm2.87-3.2A2.74,2.74,0,0,0,110,92a3.44,3.44,0,0,0-.77,2.28h1.36a2.08,2.08,0,0,1,.44-1.38,1.37,1.37,0,0,1,1.07-.45ZM115,94.3a3.44,3.44,0,0,0-.77-2.28,2.78,2.78,0,0,0-2.11-.92v1.37a1.37,1.37,0,0,1,1.08.45,2.08,2.08,0,0,1,.44,1.38Zm-2.88,3.17a2.74,2.74,0,0,0,2.1-.91A3.36,3.36,0,0,0,115,94.3h-1.36a2.06,2.06,0,0,1-.44,1.36,1.37,1.37,0,0,1-1.08.45Zm-2.35-5v-.63H108.4v.63Zm-1.71.68h1V91.8h-1Zm.68,2.14V92.48h-1.37V95.3Zm0,0h0l0,0,0,0,0,0s0,0,0,0a.38.38,0,0,1,0-.12h-1.37a1.41,1.41,0,0,0,.44,1.12,1.33,1.33,0,0,0,.89.3Zm.19,0-.09,0h-.1v1.37a2.13,2.13,0,0,0,.46,0Zm1,1.19-.15-.67-1.33.3.15.67Zm-1.22.92a2.34,2.34,0,0,0,.8-.13L108.93,96a1,1,0,0,1-.32,0Zm-2-1.93a1.83,1.83,0,0,0,.67,1.46,2.07,2.07,0,0,0,1.32.47V96.07a.74.74,0,0,1-.45-.15.49.49,0,0,1-.17-.41Zm0-3v3H108v-3Zm-.05.68h.73V91.8h-.73Zm-.68-1.31v.63h1.36v-.63Zm1.41-.68h-.73v1.36h.73Zm-.68-.48v1.16H108V90.69Zm1.43-.68h-.75v1.36h.75Zm.68,1.84V90.69h-1.37v1.16Zm.35-.68h-1v1.36h1Zm0,1.31v.68h.68v-.68Zm-1,0V91.8h-.69v.68ZM109,96l.66-.15-.14-.65-.66.13Zm.15.67.24.64.56-.21-.14-.58Zm-1.87-4.19H108V91.8h-.69Zm-.73,0h-.68v.68h.68Zm0-.63v-.68h-.68v.68Zm.73,0v.68H108v-.68Zm0-1.16V90h-.68v.68Zm.75,0h.68V90h-.68Zm0,1.16h-.69v.68h.69Zm1,0h.68v-.68h-.68Zm-7.61-1.61v6.45h1.36V90.24Zm1.42-.69h-.74v1.37h.74Zm.68,4.46V90.24h-1.36V94Zm-.59-.69h-.09v1.37H103Zm1.63-1.95-2.12,2.16,1,1,2.12-2.15Zm1.41-.2h-.92v1.36H106Zm-1.56,3.23,2-2.07-1-1-2,2.07Zm2.24,1.87-2.19-2.78-1.07.85,2.19,2.78Zm-1.48,1.1h1V96h-1Zm-2.34-2.55,1.81,2.29,1.07-.84L104,94Zm.48.56.52-.48-.93-1-.52.48Zm.21,1.31V94.88h-1.36v1.81Zm-1.42.68h.74V96h-.74Zm0-7.13v-.69h-.68v.69Zm.74,0h.68v-.69h-.68Zm0,3.77h-.68v.68h.68Zm.09,0v.68h.29l.2-.21Zm2.12-2.16v-.68h-.29l-.2.2Zm.92,0,.48.48,1.15-1.16H106Zm-2,2.07-.48-.48-.43.43.38.47Zm2.2,2.77v.68h1.41l-.88-1.1Zm-1,0-.53.42.2.26h.33Zm-1.81-2.29L104,94l-.46-.58-.54.51Zm-.52.48-.46-.5-.22.2v.3Zm0,1.81v.68h.68v-.68Zm-.74,0h-.68v.68h.68Zm-1.69-2.91.67-.19-.38-1.31-.66.19Zm-1.23-.67a.46.46,0,0,1,.29.07.52.52,0,0,1,.12.19l1.27-.49a1.74,1.74,0,0,0-.54-.76,1.77,1.77,0,0,0-1.14-.37Zm-.36,0a.13.13,0,0,1,0,.06h0a.54.54,0,0,1,.35-.09V91.75a2,2,0,0,0-1.13.32,1.31,1.31,0,0,0-.59,1.08Zm.32,0-.27-.08-.09,0v0s0,0,0,0,0,0,0,0H97.51a1.23,1.23,0,0,0,.45,1,2.35,2.35,0,0,0,.9.4Zm.72.18-.72-.18-.33,1.33.72.17Zm1.8,2A1.83,1.83,0,0,0,101.2,94a2.7,2.7,0,0,0-1.29-.66l-.33,1.32a1.38,1.38,0,0,1,.64.3.44.44,0,0,1,.13.35Zm-2.57,2.13a2.31,2.31,0,0,0,2.57-2.13h-1.36c0,.31-.29.77-1.21.77Zm-2.51-1.8a2.14,2.14,0,0,0,.9,1.37,2.92,2.92,0,0,0,1.61.43V96.11a1.51,1.51,0,0,1-.85-.21.73.73,0,0,1-.32-.51Zm1.21-1-.71.18.33,1.32.71-.17Zm1.29.76a.66.66,0,0,1-.36-.07.36.36,0,0,1-.11-.19l-1.32.33a1.62,1.62,0,0,0,.66,1,2,2,0,0,0,1.13.32Zm.45-.07c0-.06,0-.06,0,0a.74.74,0,0,1-.43.1v1.37a2.05,2.05,0,0,0,1.21-.35,1.3,1.3,0,0,0,.6-1.09Zm-.19,0,.18.06,0,0s0,0,0,0a.08.08,0,0,1,0,0h1.36a1.23,1.23,0,0,0-.38-.91A1.82,1.82,0,0,0,99.7,94Zm-.81-.18.81.18L99.7,94l-.81-.18Zm-1.81-2a1.82,1.82,0,0,0,.49,1.3,2.71,2.71,0,0,0,1.32.69l.31-1.33a1.33,1.33,0,0,1-.64-.3.48.48,0,0,1-.12-.36Zm2.46-2.09a2.24,2.24,0,0,0-2.46,2.09h1.36c0-.3.29-.72,1.1-.72Zm2.36,1.62a2.37,2.37,0,0,0-.84-1.17,2.55,2.55,0,0,0-1.52-.45v1.37a1.23,1.23,0,0,1,.73.19,1,1,0,0,1,.33.49Zm-1.32.4-.63.25.22.58.6-.17ZM99,93.85l-.16.67h0Zm.72.18-.16.66h0Zm-2.44,1.5-.17-.66-.64.16.14.64Zm.7-.17.66-.17-.16-.66-.66.16Zm1.54-.66-.15.66h0Zm-.81-.19.16-.66h0Zm2.21-1.58.19.66.69-.19-.23-.68Zm-5.32.27H92.87v1.36h2.75Zm-1.32-.06a.6.6,0,0,1,.46.18.81.81,0,0,1,.18.56h1.37a2.2,2.2,0,0,0-.54-1.48,2,2,0,0,0-1.47-.63Zm-.75.79a.76.76,0,0,1,.75-.79V91.77a2.14,2.14,0,0,0-2.12,2.06Zm-2.11.38a3.32,3.32,0,0,0,.77,2.25,2.82,2.82,0,0,0,2.17.91V96.11a1.46,1.46,0,0,1-1.15-.46,2,2,0,0,1-.43-1.34ZM94.3,91.1a2.72,2.72,0,0,0-2.1,1,3.41,3.41,0,0,0-.76,2.26H92.8a2.07,2.07,0,0,1,.44-1.38,1.35,1.35,0,0,1,1.06-.46Zm2.76,3.11a3.18,3.18,0,0,0-.87-2.38,2.69,2.69,0,0,0-1.89-.73v1.37a1.31,1.31,0,0,1,.94.34,1.87,1.87,0,0,1,.46,1.4Zm0,.31v-.31H95.7v.31Zm-4.19.69h3.51V93.84H92.87Zm1.51.23a.78.78,0,0,1-.58-.2,1.06,1.06,0,0,1-.25-.74l-1.37,0a2.46,2.46,0,0,0,.64,1.64,2.14,2.14,0,0,0,1.56.62Zm.57-.31c-.07.18-.21.31-.57.31v1.37a1.89,1.89,0,0,0,1.85-1.2Zm1.54-.22-.72-.2L95.4,96l.72.21Zm-2.11,2.56A2.56,2.56,0,0,0,97,95.77l-1.31-.4a1.21,1.21,0,0,1-1.27.74Zm1.24-3.59v.68h.69v-.68Zm-2.75,0-.69,0,0,.73h.73Zm3.51.64v.69h.68v-.69Zm-3.51,0v-.68h-.71l0,.71Zm2.72.85.18-.66-.6-.17-.22.59Zm.71.2.66.2.2-.67-.67-.19ZM88,95.32H86.85v1.36H88Zm1.69-1.87a2.08,2.08,0,0,1-.41,1.41,1.63,1.63,0,0,1-1.28.46v1.36a2.94,2.94,0,0,0,2.29-.91,3.37,3.37,0,0,0,.76-2.32Zm-1.6-1.84a1.5,1.5,0,0,1,1.19.44,2.06,2.06,0,0,1,.41,1.4h1.36a3.4,3.4,0,0,0-.74-2.3,2.86,2.86,0,0,0-2.22-.9Zm-1.25,0H88.1V90.25H86.85ZM87.53,96V90.93H86.17V96Zm-1.46,1.37h2V96h-2Zm-.68-7.13v6.45h1.36V90.24Zm2.76-.69H86.07v1.37h2.08Zm3.67,3.9a4,4,0,0,0-1-2.82,3.57,3.57,0,0,0-2.7-1.08v1.37a2.2,2.2,0,0,1,1.7.64,2.71,2.71,0,0,1,.6,1.89Zm-3.76,3.92a3.65,3.65,0,0,0,2.77-1.08,4,4,0,0,0,1-2.84H90.45a2.72,2.72,0,0,1-.61,1.91,2.34,2.34,0,0,1-1.78.65Zm-1.21-6.44v-.68h-.68v.68Zm0,5.07h-.68v.68h.68Zm-.78.69h-.68v.68h.68Zm0-6.45v-.69h-.68v.69Z"/><path class="cls-6" d="M116.17,94.27c0-1.08.48-1.81,1.39-1.81s1.41.79,1.41,1.81-.48,1.85-1.41,1.85S116.17,95.37,116.17,94.27Zm-.73,4.24h.75V96h.06a1.5,1.5,0,0,0,1.41.84c1.21,0,2.06-1,2.06-2.51s-.85-2.49-2.07-2.49a1.47,1.47,0,0,0-1.4.83h-.09v-.77h-.72Zm-3.33-2.39c-1,0-1.45-.85-1.45-1.82s.46-1.84,1.45-1.84,1.45.87,1.45,1.84S113.11,96.12,112.11,96.12Zm0,.67a2.52,2.52,0,1,0-2.19-2.49A2.22,2.22,0,0,0,112.11,96.79Zm-3-4.94h-1V90.69h-.75v1.16h-.73v.63h.73v3a1.23,1.23,0,0,0,1.31,1.24,1.84,1.84,0,0,0,.56-.08L109,96a1.71,1.71,0,0,1-.33,0c-.33,0-.64-.11-.64-.74V92.48h1Zm-6.93,4.84h.74V94.88l.52-.48,1.81,2.29h1L104,93.92l2-2.07h-.92L103,94h-.09V90.24h-.74Zm-1.21-3.76a1.63,1.63,0,0,0-1.71-1.14c-1,0-1.78.58-1.78,1.4,0,.66.4,1.11,1.28,1.32l.81.19c.49.11.72.35.72.68s-.44.76-1.13.76A1,1,0,0,1,98,95.36l-.7.17a1.66,1.66,0,0,0,1.84,1.26c1.12,0,1.89-.61,1.89-1.45,0-.67-.42-1.1-1.29-1.31L99,93.85c-.57-.14-.83-.33-.83-.7s.44-.72,1-.72a1,1,0,0,1,1,.69Zm-8.07.95a1.44,1.44,0,0,1,1.43-1.42,1.3,1.3,0,0,1,1.32,1.42Zm1.51,2.91a1.87,1.87,0,0,0,1.92-1.22l-.71-.2a1.19,1.19,0,0,1-1.21.75,1.46,1.46,0,0,1-1.51-1.6h3.51v-.31c0-1.8-1.07-2.42-2.08-2.42a2.25,2.25,0,0,0-2.18,2.52A2.22,2.22,0,0,0,94.38,96.79ZM86.85,96V90.93H88.1c1.51,0,2.28,1,2.28,2.52S89.61,96,88,96Zm1.21.69c2,0,3.08-1.22,3.08-3.24s-1.11-3.21-3-3.21H86.07v6.45Z"/><path class="cls-5" d="M93.48,110.06a3,3,0,0,1-2.1-5.07,3.09,3.09,0,0,1,1.52-.81A3,3,0,0,1,96,105.44a2.94,2.94,0,0,1,.5,1.65,3,3,0,0,1-.23,1.14,3.1,3.1,0,0,1-.64,1,3,3,0,0,1-2.11.87Zm6.08-9.42-.53-.47,0,0-.58-.43-.16-.11c-.08-.06-.17-.1-.26-.16a9.26,9.26,0,0,0-4.85-1.5h-.22a9.24,9.24,0,0,0-9,9.23c0,4.4,6.22,12.25,8.49,15a1.12,1.12,0,0,0,.36.29,1.09,1.09,0,0,0,.91,0,1.12,1.12,0,0,0,.36-.29c2.23-2.71,8.31-10.49,8.31-14.91a9.12,9.12,0,0,0-.73-3.57A9.35,9.35,0,0,0,99.56,100.64Z"/><path class="cls-1" d="M133.69,109.66v-6.45h-1.37v6.45Zm-1.47.68H133V109h-.79Zm-.68-7.13v6.45h1.37v-6.45Zm1.47-.68h-.79v1.36H133Zm0,7.13v.68h.68v-.68Zm-.79,0h-.68v.68h.68Zm0-6.45v-.68h-.68v.68Zm.79,0h.68v-.68H133Zm-2.35-.68h-.78v1.36h.78Zm.69,5v-4.27H130v4.27Zm-3.19,3a3.3,3.3,0,0,0,2.29-.84,2.88,2.88,0,0,0,.9-2.14H130a1.54,1.54,0,0,1-.47,1.15,1.93,1.93,0,0,1-1.35.46Zm-3.2-3a2.85,2.85,0,0,0,.91,2.14,3.26,3.26,0,0,0,2.29.84v-1.37a1.94,1.94,0,0,1-1.36-.46,1.54,1.54,0,0,1-.47-1.15Zm0-4.27v4.27h1.37v-4.27Zm1.47-.68h-.78v1.36h.78Zm.68,4.89v-4.21h-1.36v4.21Zm1,.94a1.13,1.13,0,0,1-.8-.26,1,1,0,0,1-.25-.68h-1.36a2.31,2.31,0,0,0,.66,1.66,2.48,2.48,0,0,0,1.75.65Zm1-.94a.92.92,0,0,1-.25.68,1.12,1.12,0,0,1-.79.26v1.37a2.47,2.47,0,0,0,1.74-.65,2.32,2.32,0,0,0,.67-1.66Zm0-4.21v4.21h1.37v-4.21Zm1.46,0h.69v-.68h-.69Zm-5,0v-.68H125v.68Zm.78,0h.68v-.68h-.68Zm3.45,0v-.68h-.68v.68Zm-10.12,5.2a.54.54,0,0,1-.48-.23,1.66,1.66,0,0,1-.23-.94h-1.36a3,3,0,0,0,.48,1.74,1.92,1.92,0,0,0,1.59.8Zm.73-1.17a1.62,1.62,0,0,1-.23.92.58.58,0,0,1-.5.25v1.37a1.92,1.92,0,0,0,1.61-.83,3,3,0,0,0,.48-1.71Zm-.73-1.13a.55.55,0,0,1,.5.24,1.49,1.49,0,0,1,.23.89h1.36a2.85,2.85,0,0,0-.48-1.69,1.93,1.93,0,0,0-1.61-.81Zm-.71,1.13a1.55,1.55,0,0,1,.22-.91.56.56,0,0,1,.49-.22v-1.37a1.91,1.91,0,0,0-1.59.78,2.89,2.89,0,0,0-.48,1.72Zm-2.09-4v6.45h1.36v-6.45Zm1.42-.68h-.74v1.36h.74Zm.69,3.06v-2.38H117.7v2.38Zm-.62-.68h-.07v1.36h.07Zm1.39-.83a2.14,2.14,0,0,0-1.43.48,2.86,2.86,0,0,0-.54.66L119,106a1.6,1.6,0,0,1,.27-.36.82.82,0,0,1,.55-.16Zm2.75,3.17a3.44,3.44,0,0,0-.73-2.25,2.56,2.56,0,0,0-2-.92v1.36a1.22,1.22,0,0,1,1,.43,2.12,2.12,0,0,1,.42,1.38Zm-2.73,3.2a2.53,2.53,0,0,0,2-.93,3.47,3.47,0,0,0,.73-2.27h-1.36a2.16,2.16,0,0,1-.42,1.4,1.18,1.18,0,0,1-1,.43Zm-2-1.17a2.79,2.79,0,0,0,.57.69,2.17,2.17,0,0,0,1.43.48v-1.37a.8.8,0,0,1-.56-.17,1.09,1.09,0,0,1-.27-.35Zm.5.32h.09v-1.36h-.09Zm.68.06v-.74h-1.37v.74Zm-1.4.68h.72V109h-.72Zm0-7.13v-.68H117v.68Zm.74,0h.69v-.68h-.69Zm0,2.38h-.68v.68h.68Zm.07,0v.68h.37l.2-.31Zm0,3.33.58-.36-.2-.32h-.38Zm-.09,0v-.68h-.69v.68Zm0,.74v.68H119v-.68Zm-.72,0H117v.68h.68Zm-2-3.49h-2.76v1.36h2.76Zm-1.32-.06a.61.61,0,0,1,.46.18.86.86,0,0,1,.18.56h1.36a2.19,2.19,0,0,0-.53-1.48,2,2,0,0,0-1.47-.63Zm-.76.79a.77.77,0,0,1,.76-.79v-1.37a2.14,2.14,0,0,0-2.12,2.07Zm-2.11.38a3.33,3.33,0,0,0,.78,2.25,2.81,2.81,0,0,0,2.16.92v-1.37a1.42,1.42,0,0,1-1.14-.46,1.91,1.91,0,0,1-.43-1.34Zm2.87-3.2a2.7,2.7,0,0,0-2.1.94,3.42,3.42,0,0,0-.77,2.26h1.37a2.09,2.09,0,0,1,.43-1.37,1.35,1.35,0,0,1,1.07-.47Zm2.76,3.1a3.18,3.18,0,0,0-.87-2.38,2.7,2.7,0,0,0-1.89-.72v1.36a1.33,1.33,0,0,1,.94.34,1.88,1.88,0,0,1,.45,1.4Zm0,.31v-.31h-1.37v.31Zm-4.2.69h3.52v-1.37h-3.52Zm1.51.23a.82.82,0,0,1-.58-.2,1.11,1.11,0,0,1-.25-.74l-1.36,0a2.4,2.4,0,0,0,.63,1.64,2.16,2.16,0,0,0,1.56.62Zm.57-.31c-.06.18-.2.31-.57.31v1.37a1.86,1.86,0,0,0,1.85-1.2Zm1.55-.22-.72-.2-.37,1.32.72.2Zm-2.12,2.57a2.56,2.56,0,0,0,2.58-1.71l-1.3-.4a1.21,1.21,0,0,1-1.28.74Zm1.25-3.6v.68h.68v-.68Zm-2.76,0-.68,0,0,.72h.73Zm3.52.64v.69h.68v-.69Zm-3.52,0v-.68h-.7l0,.71Zm2.72.85.19-.66-.61-.17-.22.59Zm.72.2.65.2.21-.67-.67-.19Zm-13.08-5.15,1.76,6.45,1.32-.36L104.57,103Zm1.45-.86h-.79v1.36h.79Zm2,5.76L105.36,103l-1.32.34,1.35,5.25Zm-.6-.51h-.06v1.37h.06Zm.72-4.74-1.38,5.25,1.32.35,1.38-5.26Zm1.54-.51h-.88v1.36h.88Zm2,5.76L109,103l-1.32.34,1.37,5.26Zm-.59-.51h-.07v1.37h.07Zm.68-4.74-1.34,5.25,1.32.34,1.35-5.25Zm1.46-.51h-.79v1.36H112Zm-1.11,7.31,1.77-6.45-1.32-.36-1.76,6.45Zm-1.46.5h.81V109h-.81Zm-2.08-5.64,1.42,5.14,1.32-.36-1.43-5.14Zm.6.5h0v-1.36h0Zm-.76,4.64,1.42-5.14-1.31-.36-1.43,5.14Zm-1.47.5h.81V109h-.81Zm-1.76-7.13v-.68H103l.24.86Zm.79,0,.66-.17-.13-.51h-.53Zm1.35,5.25-.66.17.13.52h.53Zm.06,0v.69h.53l.13-.51Zm1.38-5.25v-.68H107l-.13.51Zm.88,0L109,103l-.13-.51h-.53Zm1.37,5.25-.66.18.14.51h.52Zm.07,0v.69h.53l.13-.52Zm1.35-5.25v-.68h-.53l-.14.51Zm.79,0,.66.18.23-.86H112Zm-1.76,6.45v.68h.52l.13-.5Zm-.81,0-.66.18.14.5h.52ZM108,104.52l.66-.18-.14-.5H108Zm0,0v-.68h-.52l-.13.5Zm-1.42,5.14v.68H107l.14-.5Zm-.81,0-.66.18.14.5h.52Z"/><path class="cls-6" d="M133,103.21h-.79v6.45H133Zm-3.13,0v4.21a1.73,1.73,0,0,1-3.45,0v-4.21h-.78v4.27a2.51,2.51,0,0,0,5,0v-4.27Zm-11.51,4c0-1.08.48-1.81,1.39-1.81s1.41.79,1.41,1.81-.48,1.85-1.41,1.85S118.37,108.34,118.37,107.24Zm-.73,2.42h.72v-.74h.09a1.49,1.49,0,0,0,1.41.84c1.21,0,2-1,2-2.51s-.84-2.49-2.07-2.49a1.46,1.46,0,0,0-1.39.83h-.07v-2.38h-.74Zm-4.75-2.81a1.45,1.45,0,0,1,1.44-1.42,1.31,1.31,0,0,1,1.32,1.42Zm1.51,2.91a1.88,1.88,0,0,0,1.93-1.22l-.72-.2a1.18,1.18,0,0,1-1.21.75,1.47,1.47,0,0,1-1.51-1.6h3.52v-.31c0-1.8-1.08-2.42-2.08-2.42a2.25,2.25,0,0,0-2.18,2.52A2.21,2.21,0,0,0,114.4,109.76Zm-8.73-.1h.81l1.42-5.14h0l1.43,5.14h.81l1.76-6.45h-.79l-1.35,5.25h-.07l-1.37-5.25h-.88l-1.38,5.25h-.06l-1.35-5.25h-.79Z"/><path class="cls-5" d="M109.86,125.76a3,3,0,0,1-1.65-.5,3,3,0,0,1-1.09-1.33,2.9,2.9,0,0,1-.17-1.72,3,3,0,0,1,.81-1.52,3,3,0,0,1,3.25-.64,3,3,0,0,1,1.33,1.09,2.93,2.93,0,0,1,.28,2.79,2.86,2.86,0,0,1-.65,1,2.7,2.7,0,0,1-1,.64A3,3,0,0,1,109.86,125.76Zm6.08-9.41a4.88,4.88,0,0,0-.53-.48l0,0a6.07,6.07,0,0,0-.57-.43l-.17-.12-.25-.15a9.24,9.24,0,0,0-4.85-1.51h-.23a9.24,9.24,0,0,0-9,9.23c0,4.4,6.22,12.25,8.48,15a1.16,1.16,0,0,0,.37.29,1.06,1.06,0,0,0,.9,0,1.16,1.16,0,0,0,.37-.29c2.22-2.71,8.31-10.49,8.31-14.91a9.12,9.12,0,0,0-2.8-6.56Z"/><path class="cls-1" d="M164.68,125.36v-2.91h-1.37v2.91Zm-1.43.69H164v-1.37h-.74Zm-.68-5.53v4.84h1.36v-4.84Zm1.4-.68h-.72v1.37H164Zm.68,1.44v-.76h-1.36v.76Zm-.62-.68H164V122H164Zm1.41-.82a2.38,2.38,0,0,0-1.25.32,2.14,2.14,0,0,0-.78.89l1.24.58a.65.65,0,0,1,.26-.3.92.92,0,0,1,.53-.13Zm2.33,2.51a2.62,2.62,0,0,0-.64-1.85,2.27,2.27,0,0,0-1.69-.66v1.36a.93.93,0,0,1,.7.24,1.3,1.3,0,0,1,.26.91Zm0,3.07v-3.07H166.4v3.07Zm-1.43.69h.74v-1.37h-.74Zm-.68-3.71v3H167v-3Zm-.43-.53a.4.4,0,0,1,.31.1.6.6,0,0,1,.12.43H167a2,2,0,0,0-.47-1.35,1.74,1.74,0,0,0-1.32-.54Zm-.55.64a.69.69,0,0,1,.15-.5.57.57,0,0,1,.4-.14v-1.36a1.85,1.85,0,0,0-1.37.55,2,2,0,0,0-.55,1.45Zm-.69,2.91v.69h.69v-.69Zm-.74,0h-.68v.69h.68Zm0-4.84v-.68h-.68v.68Zm.72,0h.68v-.68H164Zm0,.76h-.68V122H164Zm.06,0V122h.44l.18-.39Zm3.05,4.08v.69h.69v-.69Zm-.74,0h-.68v.69h.68ZM160.69,123a1.47,1.47,0,0,1-.23.88.6.6,0,0,1-.54.26v1.37a2,2,0,0,0,1.66-.84,2.9,2.9,0,0,0,.47-1.67Zm-.77-1.16a.58.58,0,0,1,.54.27,1.53,1.53,0,0,1,.23.89h1.36a3,3,0,0,0-.47-1.68,2,2,0,0,0-1.66-.84Zm-.76,1.16a1.61,1.61,0,0,1,.22-.89.59.59,0,0,1,.54-.27v-1.36a2,2,0,0,0-1.65.84,2.88,2.88,0,0,0-.48,1.68Zm.76,1.14a.6.6,0,0,1-.54-.26,1.55,1.55,0,0,1-.22-.88h-1.37a2.83,2.83,0,0,0,.48,1.67,2,2,0,0,0,1.65.84ZM157.05,123a3.38,3.38,0,0,0,.77,2.26,2.74,2.74,0,0,0,2.1.92v-1.37a1.35,1.35,0,0,1-1.07-.45,2,2,0,0,1-.44-1.36Zm2.87-3.19a2.71,2.71,0,0,0-2.1.92,3.39,3.39,0,0,0-.77,2.27h1.36a2,2,0,0,1,.44-1.37,1.36,1.36,0,0,1,1.07-.46ZM162.8,123a3.35,3.35,0,0,0-.78-2.27,2.71,2.71,0,0,0-2.1-.92v1.36a1.4,1.4,0,0,1,1.08.46,2.05,2.05,0,0,1,.43,1.37Zm-2.88,3.18a2.74,2.74,0,0,0,2.1-.92,3.34,3.34,0,0,0,.78-2.26h-1.37a2,2,0,0,1-.43,1.36,1.39,1.39,0,0,1-1.08.45Zm-4.9-6.94a1.2,1.2,0,0,0,1.21,1.19V119a.15.15,0,0,1,.09,0,.2.2,0,0,1,.06.14Zm1.21-1.19a1.2,1.2,0,0,0-1.21,1.19h1.36a.18.18,0,0,1-.06.14.11.11,0,0,1-.09,0Zm1.21,1.19a1.21,1.21,0,0,0-1.21-1.19v1.37a.13.13,0,0,1-.1,0,.18.18,0,0,1-.06-.14Zm-1.21,1.19a1.2,1.2,0,0,0,1.21-1.19h-1.37a.2.2,0,0,1,.06-.14.18.18,0,0,1,.1,0Zm-1.06.12v4.84h1.36v-4.84Zm1.42-.68h-.74v1.37h.74Zm.69,5.52v-4.84h-1.37v4.84Zm-1.43.69h.74v-1.37h-.74Zm0-5.53v-.68h-.68v.68Zm.74,0h.69v-.68h-.69Zm0,4.84v.69h.69v-.69Zm-.74,0h-.68v.69h.68Zm-3.77,0v-2.91h-1.36v2.91Zm-1.42.69h.74v-1.37h-.74Zm-.68-5.53v4.84h1.36v-4.84Zm1.4-.68h-.72v1.37h.72Zm.68,1.44v-.76h-1.37v.76Zm-.62-.68h-.06V122h.06Zm1.41-.82a2.35,2.35,0,0,0-1.25.32,2.08,2.08,0,0,0-.78.89l1.24.58a.63.63,0,0,1,.25-.3,1,1,0,0,1,.54-.13Zm2.32,2.51a2.58,2.58,0,0,0-.64-1.85,2.24,2.24,0,0,0-1.68-.66v1.36a.91.91,0,0,1,.69.24,1.25,1.25,0,0,1,.27.91Zm0,3.07v-3.07h-1.36v3.07Zm-1.42.69h.74v-1.37h-.74Zm-.69-3.71v3h1.37v-3Zm-.42-.53a.4.4,0,0,1,.31.1.67.67,0,0,1,.11.43h1.37A1.93,1.93,0,0,0,154,121a1.7,1.7,0,0,0-1.31-.54Zm-.56.64a.69.69,0,0,1,.16-.5.55.55,0,0,1,.4-.14v-1.36a1.89,1.89,0,0,0-1.38.55,2.05,2.05,0,0,0-.54,1.45Zm-.68,2.91v.69h.68v-.69Zm-.74,0H150v.69h.68Zm0-4.84v-.68H150v.68Zm.72,0h.68v-.68h-.68Zm0,.76h-.69V122h.69Zm.06,0V122h.44l.18-.39Zm3.05,4.08v.69h.68v-.69Zm-.74,0h-.69v.69h.69Zm-5.88-1.75a.45.45,0,0,1-.14.34.71.71,0,0,1-.53.18v1.36a1.92,1.92,0,0,0,2-1.88Zm0-.68v.68h1.37v-.68Zm-.52,1,.75-.11a3.43,3.43,0,0,0,.44-.09l.23-.09a.86.86,0,0,0,.31-.23l-1.05-.88.11-.1.05,0s0,0,0,0l-.28.06-.68.09Zm-.49.14s0,0,0,0h0A1.2,1.2,0,0,1,147,124a1.3,1.3,0,0,1,.32-.06l-.18-1.36a2.66,2.66,0,0,0-1,.32,1.35,1.35,0,0,0-.66,1.18Zm.34.1a.63.63,0,0,1-.34-.07s0,0,0,0v0h-1.37a1.39,1.39,0,0,0,.57,1.14,2,2,0,0,0,1.14.32Zm-2.45-.14a2.07,2.07,0,0,0,.72,1.62,2.44,2.44,0,0,0,1.61.55v-1.37a1.13,1.13,0,0,1-.73-.22.72.72,0,0,1-.24-.58Zm2.47-2.1a4.14,4.14,0,0,0-1.52.42,1.94,1.94,0,0,0-.69.65,2,2,0,0,0-.26,1h1.36a.62.62,0,0,1,.07-.32.46.46,0,0,1,.19-.17,3,3,0,0,1,1-.26Zm.65.23a.44.44,0,0,1,.13-.27c.08-.08.15-.09.1-.07l-.3,0-.58.07.18,1.35.56-.06a3.85,3.85,0,0,0,.47-.08,1.1,1.1,0,0,0,.54-.3.93.93,0,0,0,.27-.68Zm0,0v0h1.37v0Zm-.33-.3c.22,0,.28.06.28.06s.05,0,.05.24h1.37a1.65,1.65,0,0,0-.46-1.21,1.73,1.73,0,0,0-1.24-.46Zm-.65.33a.75.75,0,0,1,.19-.22.9.9,0,0,1,.46-.11v-1.37a2,2,0,0,0-1.88,1.13Zm-1.55.11.71.25.45-1.29-.7-.25Zm2.17-2.46a2.64,2.64,0,0,0-2.57,1.55l1.26.53a1.28,1.28,0,0,1,1.31-.72Zm2.47,2.39a2.25,2.25,0,0,0-1-2,2.78,2.78,0,0,0-1.49-.38v1.36a1.38,1.38,0,0,1,.76.18c.15.09.35.29.35.85Zm0,3.19v-3.19h-1.36v3.19Zm-1.42.69h.74v-1.37h-.74Zm-.69-1.34v.65h1.37v-.65Zm.65.68h0V124h0Zm-1.44.77a2.17,2.17,0,0,0,2-1.16l-1.23-.59c0,.1-.25.38-.82.38Zm1.48-3.23h.68v-1.88L148,122.49Zm-1.29.28-.08-.68h0Zm0-.64-.09-.68h0Zm-1-.72-.23.64.58.21.26-.57Zm-.71-.26-.63-.26-.28.66.68.25Zm3.73,3.77v.69H150v-.69Zm-.74,0h-.69v.69h.69Zm0-.65h.68V124h-.68Zm0,0V124h-.43l-.19.38Zm-6.15-.6a.54.54,0,0,1-.48-.23,1.66,1.66,0,0,1-.23-.94H140.3a3,3,0,0,0,.48,1.74,1.92,1.92,0,0,0,1.59.8Zm.73-1.17a1.6,1.6,0,0,1-.23.92.58.58,0,0,1-.5.25v1.37a1.92,1.92,0,0,0,1.61-.83,3,3,0,0,0,.48-1.71Zm-.73-1.13a.55.55,0,0,1,.5.24,1.51,1.51,0,0,1,.23.89h1.36a2.85,2.85,0,0,0-.48-1.69,1.92,1.92,0,0,0-1.61-.8Zm-.71,1.13a1.66,1.66,0,0,1,.22-.91.56.56,0,0,1,.49-.22v-1.36a1.89,1.89,0,0,0-1.59.78,2.9,2.9,0,0,0-.48,1.71Zm-2.09-2.42v6.66h1.36v-6.66Zm1.4-.68h-.72v1.37H141Zm.68,1.45v-.77h-1.36v.77Zm-.59-.68H141V122h.09Zm1.4-.83a2.2,2.2,0,0,0-1.44.48,2.86,2.86,0,0,0-.54.66l1.15.74a1.33,1.33,0,0,1,.27-.35.78.78,0,0,1,.56-.17Zm2.75,3.18a3.45,3.45,0,0,0-.74-2.26,2.56,2.56,0,0,0-2-.92v1.36a1.17,1.17,0,0,1,1,.44,2.1,2.1,0,0,1,.42,1.38Zm-2.74,3.19a2.53,2.53,0,0,0,2-.93,3.45,3.45,0,0,0,.74-2.26h-1.37a2.15,2.15,0,0,1-.42,1.39,1.18,1.18,0,0,1-.95.43Zm-2-1.17a2.34,2.34,0,0,0,.56.69,2.17,2.17,0,0,0,1.43.48v-1.37a.8.8,0,0,1-.56-.17,1.09,1.09,0,0,1-.27-.35Zm.51.32h.07v-1.36H141Zm.69,1.88v-2.56h-1.37v2.56Zm-1.43.68H141V126.5h-.74Zm0-7.34v-.68h-.68v.68Zm.72,0h.68v-.68H141Zm0,.77h-.68V122H141Zm.09,0V122h.37l.2-.31Zm0,3.33.58-.36-.2-.32h-.38Zm-.07,0v-.68h-.68v.68Zm0,2.56v.68h.69v-.68Zm-.74,0h-.68v.68h.68Zm-8.4-6.66v4.84h1.37v-4.84Zm1.4-.68h-.71v1.37h.71Zm.69,1.44v-.76h-1.37v.76Zm-.62-.68h-.07V122h.07Zm1.3-.82a2,2,0,0,0-1.94,1.25l1.27.5a.64.64,0,0,1,.67-.39Zm1.91,1.21a2.12,2.12,0,0,0-.74-.89,2.15,2.15,0,0,0-1.17-.32v1.36a.73.73,0,0,1,.42.11.66.66,0,0,1,.25.32Zm-.57-.39h-.05V122H136Zm1.45-.82a2.21,2.21,0,0,0-2.06,1.2l1.23.6a.85.85,0,0,1,.83-.44Zm2.16,2.34a2.44,2.44,0,0,0-.6-1.73,2.09,2.09,0,0,0-1.56-.61v1.36a.72.72,0,0,1,.57.2,1.06,1.06,0,0,1,.23.78Zm0,3.24v-3.24h-1.36v3.24Zm-1.42.69h.74v-1.37h-.74Zm-.69-3.93v3.24h1.37v-3.24Zm-.3-.31c.16,0,.22,0,.24.06a.11.11,0,0,1,0,0,.43.43,0,0,1,0,.2h1.37a1.64,1.64,0,0,0-.52-1.27,1.67,1.67,0,0,0-1.15-.4Zm-.39.4a.41.41,0,0,1,.1-.3.35.35,0,0,1,.29-.1v-1.36a1.7,1.7,0,0,0-1.28.52,1.75,1.75,0,0,0-.47,1.24Zm0,3.15v-3.15h-1.36v3.15Zm-1.44.69h.76v-1.37h-.76Zm-.68-4v3.31H136v-3.31Zm-.27-.24a.29.29,0,0,1,.22.07.22.22,0,0,1,.05.17H136a1.59,1.59,0,0,0-.48-1.16,1.67,1.67,0,0,0-1.16-.44Zm-.42.53a.48.48,0,0,1,.42-.53v-1.36a1.82,1.82,0,0,0-1.78,1.89Zm0,3v-3H132.6v3Zm-1.42.69h.74v-1.37h-.74Zm0-5.53v-.68h-.69v.68Zm.71,0h.69v-.68h-.69Zm0,.76h-.68V122h.68Zm.07,0V122h.46l.17-.43Zm2.59,0-.62.29.19.39h.43Zm.05,0V122h.43l.19-.38Zm2.93,4.08v.69h.68v-.69Zm-.74,0h-.69v.69h.69Zm-2.06,0v.69h.68v-.69Zm-.76,0h-.68v.69h.68Zm-2.05,0v.69H134v-.69Zm-.74,0h-.69v.69h.69ZM130,123a1.55,1.55,0,0,1-.22.88.6.6,0,0,1-.54.26v1.37a2,2,0,0,0,1.65-.84,2.83,2.83,0,0,0,.48-1.67Zm-.76-1.16a.6.6,0,0,1,.54.27,1.61,1.61,0,0,1,.22.89h1.37a2.88,2.88,0,0,0-.48-1.68,2,2,0,0,0-1.65-.84Zm-.77,1.16a1.53,1.53,0,0,1,.23-.89.58.58,0,0,1,.54-.27v-1.36a2,2,0,0,0-1.66.84,3,3,0,0,0-.48,1.68Zm.77,1.14a.6.6,0,0,1-.54-.26,1.47,1.47,0,0,1-.23-.88h-1.37a2.91,2.91,0,0,0,.48,1.67,2,2,0,0,0,1.66.84ZM126.33,123a3.34,3.34,0,0,0,.78,2.26,2.74,2.74,0,0,0,2.1.92v-1.37a1.39,1.39,0,0,1-1.08-.45,2,2,0,0,1-.43-1.36Zm2.88-3.19a2.71,2.71,0,0,0-2.1.92,3.35,3.35,0,0,0-.78,2.27h1.37a2.05,2.05,0,0,1,.43-1.37,1.4,1.4,0,0,1,1.08-.46Zm2.87,3.19a3.39,3.39,0,0,0-.77-2.27,2.71,2.71,0,0,0-2.1-.92v1.36a1.36,1.36,0,0,1,1.07.46,2,2,0,0,1,.44,1.37Zm-2.87,3.18a2.74,2.74,0,0,0,2.1-.92,3.38,3.38,0,0,0,.77-2.26h-1.36a2,2,0,0,1-.44,1.36,1.35,1.35,0,0,1-1.07.45Zm-3.91-4.54h.78v-1.37h-.78Zm-1.82-1.38a1.08,1.08,0,0,1,1.15.84l1.33-.28a2.43,2.43,0,0,0-2.48-1.92Zm-1.41,1.91a2.26,2.26,0,0,1,.44-1.48,1.23,1.23,0,0,1,1-.43v-1.36a2.57,2.57,0,0,0-2,.9,3.55,3.55,0,0,0-.77,2.37Zm1.41,1.9a1.23,1.23,0,0,1-1-.43,2.23,2.23,0,0,1-.44-1.47h-1.36a3.53,3.53,0,0,0,.77,2.36,2.57,2.57,0,0,0,2,.9Zm1.15-.83a1.08,1.08,0,0,1-1.15.83v1.36a2.43,2.43,0,0,0,2.48-1.91Zm1.45-.55h-.78V124h.78Zm-2.6,3.47a3.19,3.19,0,0,0,3.27-2.66l-1.34-.24a1.85,1.85,0,0,1-1.93,1.54Zm-3.53-4a4.25,4.25,0,0,0,1,2.87,3.32,3.32,0,0,0,2.55,1.12v-1.36a2,2,0,0,1-1.53-.66,2.9,2.9,0,0,1-.63-2Zm3.53-4a3.32,3.32,0,0,0-2.55,1.12,4.26,4.26,0,0,0-1,2.88h1.37a2.93,2.93,0,0,1,.63-2,2,2,0,0,1,1.53-.66Zm3.27,2.66a3.19,3.19,0,0,0-3.27-2.66v1.36a1.85,1.85,0,0,1,1.93,1.55Zm-1.45.13-.67.14.11.54h.56Zm0,2.42v-.69h-.56l-.11.55Zm.78,0,.67.12.15-.81h-.82Zm0-2.42v.68h.82l-.15-.81Z"/><path class="cls-6" d="M164,122.45a1.2,1.2,0,0,1,1.24-1.32,1.07,1.07,0,0,1,1.11,1.21v3h.74v-3.07c0-1.24-.66-1.83-1.64-1.83a1.43,1.43,0,0,0-1.41.82H164v-.76h-.72v4.84H164Zm-4.07,2.35c-1,0-1.45-.86-1.45-1.83s.46-1.84,1.45-1.84,1.45.87,1.45,1.84S160.92,124.8,159.92,124.8Zm0,.66a2.52,2.52,0,1,0-2.19-2.49A2.23,2.23,0,0,0,159.92,125.46Zm-3.69-5.74a.52.52,0,0,0,.53-.51.53.53,0,0,0-1.06,0A.52.52,0,0,0,156.23,119.72Zm-.38,5.64h.74v-4.84h-.74Zm-4.45-2.91a1.2,1.2,0,0,1,1.24-1.32,1.07,1.07,0,0,1,1.11,1.21v3h.74v-3.07c0-1.24-.66-1.83-1.64-1.83a1.43,1.43,0,0,0-1.41.82h-.06v-.76h-.72v4.84h.74Zm-4.2,2.36c-.6,0-1-.27-1-.78s.52-.75,1.1-.82a3.92,3.92,0,0,0,1.29-.28v.68A1.24,1.24,0,0,1,147.2,124.81Zm-.12.67a1.53,1.53,0,0,0,1.44-.77h0v.65h.74v-3.19a1.59,1.59,0,0,0-1.79-1.71,2,2,0,0,0-1.94,1.13l.71.26a1.29,1.29,0,0,1,1.26-.73.9.9,0,0,1,1,1v0c0,.36-.37.33-1.25.45s-1.88.31-1.88,1.42A1.49,1.49,0,0,0,147.08,125.48Zm-6.1-2.54c0-1.08.48-1.81,1.39-1.81s1.41.79,1.41,1.81-.48,1.86-1.41,1.86S141,124,141,122.94Zm-.73,4.24H141v-2.56h.07a1.5,1.5,0,0,0,1.41.84c1.21,0,2.05-1,2.05-2.5s-.84-2.5-2.06-2.5a1.47,1.47,0,0,0-1.4.83H141v-.77h-.72Zm-7.71-1.82h.74v-3a1.15,1.15,0,0,1,1.1-1.21.89.89,0,0,1,1,.92v3.31h.76v-3.15a1,1,0,0,1,1.07-1.08.91.91,0,0,1,1,1v3.24h.74v-3.24c0-1.13-.61-1.66-1.48-1.66a1.54,1.54,0,0,0-1.45.82h-.05a1.32,1.32,0,0,0-1.29-.82,1.3,1.3,0,0,0-1.3.82h-.07v-.76h-.71Zm-3.33-.56c-1,0-1.45-.86-1.45-1.83s.45-1.84,1.45-1.84,1.45.87,1.45,1.84S130.2,124.8,129.21,124.8Zm0,.66A2.52,2.52,0,1,0,127,123,2.22,2.22,0,0,0,129.21,125.46Zm-3.13-4.53a2.52,2.52,0,0,0-2.6-2.11c-1.65,0-2.85,1.27-2.85,3.32s1.2,3.31,2.85,3.31a2.52,2.52,0,0,0,2.6-2.1h-.78a1.76,1.76,0,0,1-1.82,1.37c-1.17,0-2.09-.91-2.09-2.58s.92-2.59,2.09-2.59a1.76,1.76,0,0,1,1.82,1.38Z"/><path class="cls-5" d="M47.06,76.61a3.05,3.05,0,0,1-1.66-.5,3,3,0,0,1-1.09-1.34,3,3,0,0,1-.17-1.71A3,3,0,0,1,45,71.54a2.93,2.93,0,0,1,1.52-.81,3.06,3.06,0,0,1,1.72.17A2.92,2.92,0,0,1,49.54,72a3,3,0,0,1,.5,1.65,3,3,0,0,1-.23,1.14,3.1,3.1,0,0,1-.64,1,3.15,3.15,0,0,1-1,.64A3,3,0,0,1,47.06,76.61Zm6.08-9.42-.53-.47,0,0L52,66.25l-.16-.11c-.08-.06-.17-.1-.26-.16a9.29,9.29,0,0,0-4.85-1.5h-.23a9.22,9.22,0,0,0-9,9.23c0,4.4,6.22,12.25,8.49,15a1,1,0,0,0,.36.28,1,1,0,0,0,.45.11,1.07,1.07,0,0,0,.46-.11,1,1,0,0,0,.36-.28c2.23-2.71,8.31-10.49,8.31-14.91a9.12,9.12,0,0,0-.73-3.57A9.35,9.35,0,0,0,53.14,67.19Z"/><path class="cls-6" d="M111.05,76.21h.75V73.15A1.14,1.14,0,0,1,113,72a2.43,2.43,0,0,1,.45,0v-.75l-.39,0a1.32,1.32,0,0,0-1.26.81h0v-.73h-.72Zm-4.64-2.81A1.44,1.44,0,0,1,107.84,72a1.3,1.3,0,0,1,1.32,1.42Zm1.51,2.91a1.89,1.89,0,0,0,1.93-1.22l-.72-.2a1.19,1.19,0,0,1-1.21.75,1.46,1.46,0,0,1-1.51-1.6h3.51v-.31c0-1.8-1.07-2.42-2.08-2.42a2.25,2.25,0,0,0-2.18,2.52A2.22,2.22,0,0,0,107.92,76.31Zm-5.19-.1h.75V73.15A1.14,1.14,0,0,1,104.7,72a2.43,2.43,0,0,1,.45,0v-.75l-.39,0a1.32,1.32,0,0,0-1.26.81h0v-.73h-.72Zm-3.33-.57c-1,0-1.45-.85-1.45-1.82S98.41,72,99.4,72s1.45.87,1.45,1.84S100.4,75.64,99.4,75.64Zm0,.67a2.52,2.52,0,1,0-2.19-2.49A2.23,2.23,0,0,0,99.4,76.31Zm-3.33-6.55h-.74v6.45h.74Zm-5.42,4c0-1.08.48-1.81,1.39-1.81s1.41.79,1.41,1.81S93,75.64,92,75.64,90.65,74.89,90.65,73.79ZM89.92,78h.75V75.47h.06a1.5,1.5,0,0,0,1.41.84c1.21,0,2.06-1,2.06-2.51s-.85-2.49-2.07-2.49a1.47,1.47,0,0,0-1.4.83h-.09v-.77h-.72Zm-4.24-6.66h-.85l1.54,2.42-1.54,2.42h.85l1.16-1.88L88,76.21h.86L87.3,73.79l1.56-2.42H88l-1.16,2Zm-5.75,4.84h3.94v-.69H80.71v-2.2h2.91v-.69H80.71V70.45h3.11v-.69H79.93Zm-8.1-.69V70.45h1.25c1.51,0,2.28,1,2.28,2.52s-.77,2.55-2.37,2.55Zm1.21.69c2,0,3.08-1.22,3.08-3.24s-1.11-3.21-3-3.21H71.05v6.45Zm-7,0h3.78v-.69h-3V69.76h-.78Zm-4.85-3V70.45h1.37c1.05,0,1.45.57,1.45,1.35a1.26,1.26,0,0,1-1.44,1.36Zm-.78,3h.78V73.85h1.41a2,2,0,1,0,0-4.09H60.43Zm-1.57-6.45h-.78v6.45h.78Z"/></g></g></svg>