<svg xmlns="http://www.w3.org/2000/svg" xmlns:xlink="http://www.w3.org/1999/xlink" viewBox="0 0 411.65 417.8"><defs><style>.cls-1{fill:#010101;}.cls-2{fill:#fff;}.cls-3{fill:#808492;}.cls-4{fill:#b7bbc8;}.cls-5{mask:url(#mask);}.cls-6{isolation:isolate;}.cls-7{fill:#6bc4cd;}.cls-8{fill:#398186;}</style><mask id="mask" x="-182" y="-74.8" width="1140" height="810" maskUnits="userSpaceOnUse"><rect class="cls-1" x="-182" y="-74.8" width="1140" height="810"/></mask></defs><g id="Layer_2" data-name="Layer 2"><g id="Layer_1-2" data-name="Layer 1"><rect class="cls-2" x="2.05" y="8.19" width="409.61" height="409.61"/><path class="cls-3" d="M52.4,411.19l1.5-1.72H47.76v-.55h6.13L52.4,407.2H53l1.77,2-1.77,2Zm-13.1-2.82a1.27,1.27,0,0,0-.85.29,1.2,1.2,0,0,0-.42.78h2.53a1.2,1.2,0,0,0-.42-.77A1.24,1.24,0,0,0,39.3,408.37ZM42,409.91s0,.15,0,.4H38a1.24,1.24,0,0,0,.5.76,1.69,1.69,0,0,0,1,.27,2.14,2.14,0,0,0,.7-.11,1.8,1.8,0,0,0,.59-.38l.79.86a2.67,2.67,0,0,1-2.12.83,3.32,3.32,0,0,1-1.54-.34,2.48,2.48,0,0,1-1-.94,2.54,2.54,0,0,1-.37-1.37,2.61,2.61,0,0,1,.36-1.36,2.53,2.53,0,0,1,1-.94,2.89,2.89,0,0,1,1.41-.35,2.79,2.79,0,0,1,1.36.33,2.32,2.32,0,0,1,1,.93A2.81,2.81,0,0,1,42,409.91Zm-8.53-2.67a2,2,0,0,1,1.53.58,2.28,2.28,0,0,1,.57,1.7v2.94H34v-2.71a1.32,1.32,0,0,0-.26-.91.87.87,0,0,0-.71-.31,1.05,1.05,0,0,0-.83.35,1.39,1.39,0,0,0-.31,1v2.58H30.44v-2.71c0-.81-.33-1.22-1-1.22a1.06,1.06,0,0,0-.82.35,1.44,1.44,0,0,0-.3,1v2.58H26.85v-5.14h1.42v.59a1.85,1.85,0,0,1,.7-.49,2.29,2.29,0,0,1,.92-.18,2.24,2.24,0,0,1,1,.22,1.77,1.77,0,0,1,.71.62,2.21,2.21,0,0,1,.79-.62A2.68,2.68,0,0,1,33.43,407.24Zm-8.71-.64a.93.93,0,0,1-.67-.24.77.77,0,0,1-.26-.59.79.79,0,0,1,.26-.59.93.93,0,0,1,.67-.24,1,1,0,0,1,.67.23.72.72,0,0,1,.25.57.81.81,0,0,1-.25.62A1,1,0,0,1,24.72,406.6Zm-.75.72h1.49v5.14H24Zm-4.3-.29H17.53v-1.26h5.83V407H21.21v5.43H19.67Z"/><path class="cls-3" d="M8.66,410.81l1.72,1.5v-6.15h.55v6.14l1.71-1.49v.64l-2,1.77-2-1.77Zm2.81-10.61a1.28,1.28,0,0,0-.28-.85,1.2,1.2,0,0,0-.79-.42v2.53a1.2,1.2,0,0,0,.78-.42A1.23,1.23,0,0,0,11.47,400.2Zm-1.53,2.67-.41,0V399a1.22,1.22,0,0,0-.75.5,1.59,1.59,0,0,0-.28,1,1.92,1.92,0,0,0,.12.71,1.76,1.76,0,0,0,.38.58l-.86.8a2.67,2.67,0,0,1-.83-2.13,3.38,3.38,0,0,1,.33-1.53,2.59,2.59,0,0,1,1-1,2.62,2.62,0,0,1,1.37-.36,2.66,2.66,0,0,1,1.35.35,2.51,2.51,0,0,1,.95,1,2.87,2.87,0,0,1,.34,1.4,2.94,2.94,0,0,1-.32,1.37,2.35,2.35,0,0,1-.94,1A2.77,2.77,0,0,1,9.94,402.87Zm-2.63-8.39a5.28,5.28,0,0,1,.15-1.25,3.29,3.29,0,0,1,.4-1l1.07.49a3.66,3.66,0,0,0-.36.84,3.51,3.51,0,0,0-.13,1c0,.63.15.95.46.95a.33.33,0,0,0,.32-.26,3.82,3.82,0,0,0,.16-.79,9.88,9.88,0,0,1,.22-1.05,1.61,1.61,0,0,1,.44-.71,1.25,1.25,0,0,1,.9-.3,1.39,1.39,0,0,1,.86.28,1.83,1.83,0,0,1,.59.82,3.54,3.54,0,0,1,.21,1.28,5,5,0,0,1-.12,1.08,3.14,3.14,0,0,1-.33.9l-1.06-.5a2.89,2.89,0,0,0,.38-1.48,1.52,1.52,0,0,0-.13-.72.4.4,0,0,0-.34-.23.35.35,0,0,0-.34.25,5.51,5.51,0,0,0-.18.83,8.66,8.66,0,0,1-.23,1,1.47,1.47,0,0,1-.43.7,1.26,1.26,0,0,1-.88.29,1.36,1.36,0,0,1-.85-.28,1.92,1.92,0,0,1-.58-.85A3.59,3.59,0,0,1,7.31,394.48Zm5.93-3.85a.93.93,0,0,1,.24-.67.81.81,0,0,1,1.19,0,.93.93,0,0,1,.24.67,1,1,0,0,1-.23.66.73.73,0,0,1-.58.26.8.8,0,0,1-.62-.26A.92.92,0,0,1,13.24,390.63Zm-.71-.75v1.49H7.38v-1.49ZM7.63,389a1.59,1.59,0,0,1-.25-.54,2.87,2.87,0,0,1-.07-.67,2,2,0,0,1,.47-1.42,1.76,1.76,0,0,1,1.37-.5h2.11v-.8h1.15v.8h1.25v1.49H12.41v1.28H11.26V387.4H9.17a.7.7,0,0,0-.5.16.65.65,0,0,0-.18.48,1,1,0,0,0,.19.6Zm4.22-6.15a1.68,1.68,0,0,1,.56.72,2.69,2.69,0,0,1,.19,1.05H11.23c0-.16,0-.27,0-.33a1.39,1.39,0,0,0-.37-1A1.43,1.43,0,0,0,9.81,383H7.38v-1.49h5.15v1.42Zm-.38-5.08a1.28,1.28,0,0,0-.28-.85,1.2,1.2,0,0,0-.79-.42v2.53a1.2,1.2,0,0,0,.78-.42A1.23,1.23,0,0,0,11.47,377.81Zm-1.53,2.67-.41,0v-3.89a1.22,1.22,0,0,0-.75.5,1.59,1.59,0,0,0-.28,1,2,2,0,0,0,.12.71,1.76,1.76,0,0,0,.38.58l-.86.79A2.64,2.64,0,0,1,7.31,378a3.45,3.45,0,0,1,.33-1.54,2.56,2.56,0,0,1,1-1,2.62,2.62,0,0,1,1.37-.36,2.66,2.66,0,0,1,1.35.35,2.45,2.45,0,0,1,.95,1,2.87,2.87,0,0,1,.34,1.4,2.94,2.94,0,0,1-.32,1.37,2.32,2.32,0,0,1-.94.95A2.68,2.68,0,0,1,9.94,380.48Zm-1.41-8.86a1.24,1.24,0,0,0,.38.94,1.45,1.45,0,0,0,1.05.37,1.42,1.42,0,0,0,1-.37,1.21,1.21,0,0,0,.39-.94,1.24,1.24,0,0,0-.39-.94,1.46,1.46,0,0,0-1-.37,1.49,1.49,0,0,0-1.05.37A1.27,1.27,0,0,0,8.53,371.62Zm4.07.26a2.59,2.59,0,0,1-.33,1.3,2.31,2.31,0,0,1-.93.93,2.79,2.79,0,0,1-1.38.33,2.87,2.87,0,0,1-1.4-.33,2.38,2.38,0,0,1-.93-.93,2.69,2.69,0,0,1-.32-1.3,2,2,0,0,1,.62-1.55H5.53v-1.49h7v1.43h-.6A2,2,0,0,1,12.6,371.88Zm-5.22-5.45L9,365.3l-1.58-1.17v-1.62l2.59,2,2.56-1.91v1.67L11,365.34l1.5,1.12V368L10,366.13l-2.63,2Zm1.25-4.33H7.38v-5.18h6.69V362H12.83v-3.51H11.38v3.1h-1.2v-3.1H8.63Z"/><rect class="cls-3" y="212.31" width="409.61" height="0.68"/><rect class="cls-3" x="204.8" y="8.19" width="0.68" height="409.61"/><path class="cls-4" d="M27.31,27.14a3,3,0,0,1-2.75-1.83,3,3,0,0,1-.17-1.71,3,3,0,0,1,2.34-2.33,3,3,0,0,1,3.06,1.26,3,3,0,0,1,.5,1.65,2.93,2.93,0,0,1-.23,1.13,2.89,2.89,0,0,1-1.61,1.61A2.79,2.79,0,0,1,27.31,27.14Zm6.08-9.41-.53-.48,0,0-.58-.43-.16-.11a2.26,2.26,0,0,0-.26-.16A9.26,9.26,0,0,0,27,15h-.23a9.22,9.22,0,0,0-9,9.22c0,4.41,6.22,12.26,8.49,15a1,1,0,0,0,.36.28,1,1,0,0,0,.45.11,1.07,1.07,0,0,0,.46-.11,1,1,0,0,0,.36-.28c2.23-2.71,8.31-10.49,8.31-14.91a9.16,9.16,0,0,0-2.79-6.57Z"/><path class="cls-4" d="M97.19,20.3h-.75v6.45h.75Zm-8.46,6.45h.74v-3a1.15,1.15,0,0,1,1.1-1.21.9.9,0,0,1,1,.92v3.32h.75V23.6a1,1,0,0,1,1.08-1.09.9.9,0,0,1,1,1v3.24h.74V23.51c0-1.14-.61-1.66-1.47-1.66a1.51,1.51,0,0,0-1.45.82h0a1.33,1.33,0,0,0-1.3-.82,1.3,1.3,0,0,0-1.3.82h-.06v-.76h-.72Zm-1.12-4.84h-1V20.75h-.75v1.16H85.1v.63h.73v3a1.24,1.24,0,0,0,1.31,1.25,1.51,1.51,0,0,0,.56-.09l-.15-.66a1.94,1.94,0,0,1-.33,0c-.33,0-.64-.1-.64-.73V22.54h1ZM81,23.84a1.21,1.21,0,0,1,1.27-1.33,1.07,1.07,0,0,1,1.12,1.21v3h.74V23.67c0-1.24-.66-1.82-1.65-1.82a1.39,1.39,0,0,0-1.42.82H81V20.3h-.75v6.45H81ZM79,23.64H76.13v.69H79Zm-6.81-1.73h-.86l1.54,2.42-1.54,2.42h.86l1.16-1.88,1.16,1.88h.86l-1.57-2.42,1.57-2.42h-.86l-1.16,2Zm-5.07,2a1.45,1.45,0,0,1,1.43-1.43,1.32,1.32,0,0,1,1.33,1.43Zm1.51,2.91a1.89,1.89,0,0,0,1.93-1.22l-.72-.2a1.19,1.19,0,0,1-1.21.75,1.47,1.47,0,0,1-1.51-1.6h3.51v-.31c0-1.81-1.07-2.42-2.08-2.42a2.25,2.25,0,0,0-2.18,2.52A2.23,2.23,0,0,0,68.58,26.85ZM63,26.18c-.94,0-1.41-.82-1.41-1.85S62,22.51,63,22.51s1.38.73,1.38,1.82S63.86,26.18,63,26.18Zm-.1.67A1.51,1.51,0,0,0,64.28,26h.09v.74h.72V20.3h-.75v2.38h-.06a1.49,1.49,0,0,0-1.4-.83c-1.22,0-2.07,1-2.07,2.49S61.66,26.85,62.87,26.85Zm-6.28-3a1.2,1.2,0,0,1,1.24-1.33,1.07,1.07,0,0,1,1.11,1.21v3h.74V23.67c0-1.23-.66-1.82-1.64-1.82a1.42,1.42,0,0,0-1.41.82h-.06v-.76h-.72v4.84h.74ZM54.12,21.1a.51.51,0,0,0,.53-.5.53.53,0,0,0-1.06,0A.51.51,0,0,0,54.12,21.1Zm-.38,5.65h.75V21.91h-.75Zm-1.31-3.11H49.61v.69h2.82Zm-5.72,3.11h.75V23.69a1.14,1.14,0,0,1,1.22-1.14,2.43,2.43,0,0,1,.45.05v-.75l-.39,0a1.32,1.32,0,0,0-1.26.81h0v-.73h-.72ZM45,21.1a.51.51,0,0,0,.53-.5.52.52,0,0,0-.53-.51.51.51,0,0,0-.52.51A.51.51,0,0,0,45,21.1Zm-.37,5.65h.74V21.91h-.74Zm-5.5-.69V21h1.25c1.51,0,2.28,1,2.28,2.52s-.77,2.55-2.37,2.55Zm1.21.69c2,0,3.08-1.22,3.08-3.24s-1.11-3.21-3-3.21H38.33v6.45Z"/><path class="cls-4" d="M10.92,12.13a3,3,0,0,1-1.65-.51A3,3,0,0,1,8,8.58a3,3,0,0,1,.81-1.52,3,3,0,0,1,3.25-.64A2.9,2.9,0,0,1,13.4,7.51,2.94,2.94,0,0,1,13,11.26a3,3,0,0,1-1,.64A2.94,2.94,0,0,1,10.92,12.13ZM17,2.71c-.16-.16-.34-.32-.53-.48l0,0c-.18-.15-.37-.29-.57-.43l-.17-.11-.25-.16A9.32,9.32,0,0,0,10.58,0h-.23a9.22,9.22,0,0,0-9,9.22c0,4.41,6.22,12.26,8.48,15a1,1,0,0,0,.37.28,1,1,0,0,0,.9,0,1,1,0,0,0,.37-.28C13.71,21.48,19.8,13.7,19.8,9.28a9.12,9.12,0,0,0-.73-3.57A9,9,0,0,0,17,2.71Z"/><path class="cls-4" d="M43.51,11.16c-1,0-1.45-.85-1.45-1.82s.45-1.85,1.45-1.85S45,8.36,45,9.34,44.51,11.16,43.51,11.16Zm0,.67A2.22,2.22,0,0,0,45.7,9.34a2.21,2.21,0,1,0-4.38,0A2.22,2.22,0,0,0,43.51,11.83ZM39.82,6.08a.51.51,0,0,0,.52-.5.51.51,0,0,0-.52-.51.52.52,0,0,0-.53.51A.51.51,0,0,0,39.82,6.08Zm-.38,5.65h.74V6.89h-.74Zm-1.9,0a.57.57,0,1,0-.57-.57A.56.56,0,0,0,37.54,11.78ZM35.79,8a1.64,1.64,0,0,0-1.72-1.14c-1,0-1.78.58-1.78,1.4,0,.66.4,1.11,1.29,1.32l.81.19c.48.11.71.35.71.68s-.44.76-1.13.76a1,1,0,0,1-1.12-.79l-.71.18A1.67,1.67,0,0,0,34,11.83c1.13,0,1.89-.61,1.89-1.45,0-.67-.42-1.1-1.28-1.31l-.72-.18c-.57-.14-.83-.33-.83-.7s.44-.72,1-.72a1,1,0,0,1,1,.69ZM31.51,6.89H30.43V6.4c0-.48.2-.73.69-.73a1.34,1.34,0,0,1,.42.07l.21-.64a1.69,1.69,0,0,0-.7-.13,1.25,1.25,0,0,0-1.36,1.25v.67H28.9v.63h.79v4.21h.74V7.52h1.08ZM24.68,9.31c0-1.08.48-1.82,1.39-1.82s1.41.8,1.41,1.82-.48,1.85-1.41,1.85S24.68,10.41,24.68,9.31ZM24,13.55h.74V11h.07a1.5,1.5,0,0,0,1.41.84c1.21,0,2-1,2-2.51s-.84-2.49-2.06-2.49a1.47,1.47,0,0,0-1.4.83h-.09V6.89H24ZM22.22,6.08a.51.51,0,0,0,.53-.5.53.53,0,0,0-1.06,0A.51.51,0,0,0,22.22,6.08Zm-.38,5.65h.75V6.89h-.75Z"/><path class="cls-4" d="M106.13,133.27a3,3,0,0,1-1.65-.5,3,3,0,0,1-1.09-1.33,2.9,2.9,0,0,1-.17-1.72,3,3,0,0,1,.81-1.52,3,3,0,0,1,3.25-.64,3,3,0,0,1,1.33,1.09,3,3,0,0,1,.28,2.79,3,3,0,0,1-1.62,1.6A3,3,0,0,1,106.13,133.27Zm6.08-9.41a4.88,4.88,0,0,0-.53-.48l-.05,0c-.18-.14-.37-.29-.57-.42l-.17-.12-.25-.15a9.25,9.25,0,0,0-4.86-1.51h-.22a9.26,9.26,0,0,0-9,9.23c0,4.4,6.23,12.25,8.49,15a1.16,1.16,0,0,0,.37.29,1.06,1.06,0,0,0,.9,0,1.16,1.16,0,0,0,.37-.29c2.22-2.71,8.31-10.49,8.31-14.91a9.08,9.08,0,0,0-2.8-6.56Z"/><path class="cls-4" d="M147.91,132.31c-1,0-1.45-.86-1.45-1.83s.45-1.84,1.45-1.84,1.45.87,1.45,1.84S148.9,132.31,147.91,132.31Zm0,.66a2.52,2.52,0,1,0-2.2-2.49A2.22,2.22,0,0,0,147.91,133Zm-3.7-5.74a.52.52,0,0,0,.53-.51.53.53,0,0,0-1.06,0A.52.52,0,0,0,144.21,127.23Zm-.38,5.64h.75V128h-.75Zm-1.9,0a.57.57,0,1,0-.57-.56A.57.57,0,0,0,141.93,132.92Zm-1.75-3.8a1.63,1.63,0,0,0-1.71-1.15c-1,0-1.78.58-1.78,1.4,0,.67.4,1.11,1.29,1.32l.8.19c.49.11.72.35.72.68s-.44.76-1.13.76a1,1,0,0,1-1.13-.78l-.7.17a1.65,1.65,0,0,0,1.84,1.26c1.12,0,1.89-.61,1.89-1.45,0-.67-.42-1.1-1.29-1.31l-.71-.17c-.58-.15-.84-.34-.84-.71s.44-.72,1-.72a1,1,0,0,1,1,.7ZM135.91,128h-1.08v-.49c0-.48.2-.73.69-.73a1,1,0,0,1,.41.08l.22-.65a1.76,1.76,0,0,0-.71-.12,1.25,1.25,0,0,0-1.36,1.24V128h-.78v.63h.78v4.21h.75v-4.21h1.08Zm-6.83,2.42c0-1.08.48-1.81,1.38-1.81s1.42.79,1.42,1.81-.48,1.86-1.42,1.86S129.08,131.55,129.08,130.45Zm-.73,4.24h.74v-2.56h.06a1.51,1.51,0,0,0,1.41.84c1.21,0,2.06-1,2.06-2.5s-.85-2.5-2.07-2.5a1.49,1.49,0,0,0-1.4.83h-.09V128h-.71Zm-1.73-7.46a.52.52,0,0,0,.53-.51.53.53,0,0,0-1.06,0A.52.52,0,0,0,126.62,127.23Zm-.38,5.64H127V128h-.74Zm-1.9,0a.57.57,0,1,0-.57-.56A.57.57,0,0,0,124.34,132.92Zm-1.75-3.8a1.64,1.64,0,0,0-1.72-1.15c-1,0-1.77.58-1.77,1.4,0,.67.39,1.11,1.28,1.32l.81.19c.49.11.72.35.72.68s-.44.76-1.14.76a1,1,0,0,1-1.12-.78l-.71.17a1.67,1.67,0,0,0,1.85,1.26c1.12,0,1.89-.61,1.89-1.45,0-.67-.43-1.1-1.29-1.31l-.72-.17c-.57-.15-.83-.34-.83-.71s.44-.72,1-.72a1,1,0,0,1,1,.7Zm-5.17-1.89a.52.52,0,0,0,.53-.51.53.53,0,0,0-1.06,0A.52.52,0,0,0,117.42,127.23Zm-.37.8v5.2c0,.49-.2.76-.65.76h-.14v.7h.15a1.29,1.29,0,0,0,1.39-1.46V128Z"/><path class="cls-4" d="M113.64,159.89a2.94,2.94,0,0,1-1.65-.5,3,3,0,0,1-1.1-1.33,3,3,0,0,1,2.18-4,2.91,2.91,0,0,1,1.72.17,3,3,0,0,1,1.83,2.74,2.92,2.92,0,0,1-.22,1.13,3,3,0,0,1-.65,1,3.15,3.15,0,0,1-1,.64A3,3,0,0,1,113.64,159.89Zm6.08-9.41a4.88,4.88,0,0,0-.53-.48l0,0c-.18-.15-.37-.29-.57-.43l-.17-.11a2.26,2.26,0,0,0-.26-.16,9.26,9.26,0,0,0-4.85-1.5h-.22a9.24,9.24,0,0,0-9,9.22c0,4.41,6.23,12.26,8.49,15a1,1,0,0,0,.37.29,1,1,0,0,0,.45.1,1,1,0,0,0,.45-.1.93.93,0,0,0,.36-.29c2.23-2.7,8.32-10.49,8.32-14.91a9.12,9.12,0,0,0-2.8-6.56Z"/><path class="cls-4" d="M164.15,158.93c-1,0-1.45-.86-1.45-1.83s.46-1.84,1.45-1.84,1.45.87,1.45,1.84S165.15,158.93,164.15,158.93Zm0,.67a2.53,2.53,0,1,0-2.19-2.5A2.23,2.23,0,0,0,164.15,159.6Zm-3.69-5.75a.51.51,0,1,0-.53-.5A.52.52,0,0,0,160.46,153.85Zm-.38,5.65h.74v-4.84h-.74Zm-1.9.05a.57.57,0,1,0-.57-.57A.57.57,0,0,0,158.18,159.55Zm-1.75-3.81a1.64,1.64,0,0,0-1.72-1.15c-1,0-1.78.58-1.78,1.4,0,.67.4,1.12,1.29,1.33l.81.19c.49.11.72.34.72.68s-.45.75-1.14.75a1,1,0,0,1-1.12-.78l-.71.18a1.67,1.67,0,0,0,1.84,1.26c1.13,0,1.9-.62,1.9-1.45s-.43-1.1-1.29-1.31l-.72-.18c-.57-.14-.83-.33-.83-.7s.44-.72,1-.72a1,1,0,0,1,1,.69Zm-4.27-1.08h-1.09v-.49c0-.48.2-.74.69-.74a1,1,0,0,1,.42.08l.21-.64a1.69,1.69,0,0,0-.7-.13,1.26,1.26,0,0,0-1.36,1.25v.67h-.78v.63h.78v4.21h.74v-4.21h1.09Zm-6.84,2.42c0-1.09.48-1.82,1.39-1.82s1.41.8,1.41,1.82-.48,1.85-1.41,1.85S145.32,158.17,145.32,157.08Zm-.73,4.23h.75v-2.56h.06a1.49,1.49,0,0,0,1.41.85c1.21,0,2.05-1,2.05-2.51s-.84-2.5-2.06-2.5a1.46,1.46,0,0,0-1.4.84h-.09v-.77h-.72Zm-1.73-7.46a.51.51,0,1,0-.53-.5A.52.52,0,0,0,142.86,153.85Zm-.37,5.65h.74v-4.84h-.74Zm-1.91.05A.57.57,0,1,0,140,159,.57.57,0,0,0,140.58,159.55Zm-1.66-4.89h-1V153.5h-.75v1.16h-.73v.63h.73v3a1.24,1.24,0,0,0,1.32,1.25,1.49,1.49,0,0,0,.55-.09l-.15-.67a1.06,1.06,0,0,1-.33,0c-.33,0-.64-.1-.64-.73v-2.82h1Zm-3.31,1.08a1.63,1.63,0,0,0-1.72-1.15c-1,0-1.77.58-1.77,1.4,0,.67.39,1.12,1.28,1.33l.81.19c.49.11.72.34.72.68s-.44.75-1.14.75a1,1,0,0,1-1.12-.78l-.7.18a1.66,1.66,0,0,0,1.84,1.26c1.12,0,1.89-.62,1.89-1.45s-.42-1.1-1.29-1.31l-.72-.18c-.57-.14-.83-.33-.83-.7s.44-.72,1-.72a1,1,0,0,1,1.05.69Zm-5.16-1.89a.51.51,0,1,0-.53-.5A.52.52,0,0,0,130.45,153.85Zm-.38,5.65h.75v-4.84h-.75Zm-3.58-.57c-.93,0-1.41-.82-1.41-1.85s.47-1.82,1.41-1.82,1.39.73,1.39,1.82S127.39,158.93,126.49,158.93Zm-.1.67a1.49,1.49,0,0,0,1.41-.85h.09v.75h.72V153h-.74v2.39h-.07a1.46,1.46,0,0,0-1.4-.84c-1.22,0-2.06,1-2.06,2.5S125.18,159.6,126.39,159.6Z"/><path class="cls-7" d="M404.82,231.62l1.69.12.09-1.37-1.69-.11Zm-4.74-.33,3.38.23.1-1.36-3.39-.24Zm-4.74-.34,3.38.24.1-1.36-3.39-.24Zm-4.74-.33,3.38.24.1-1.36-3.39-.24Zm-4.74-.33,3.38.24.1-1.36-3.39-.24Zm-4.74-.33,3.38.24.1-1.37-3.39-.23Zm-4.74-.33,3.38.23.1-1.36-3.39-.23Zm-4.74-.33,3.38.23.1-1.36-3.39-.24ZM366.9,229l3.38.24.1-1.36L367,227.6Zm-4.74-.33,3.38.24.1-1.36-3.39-.24Zm-4.74-.33,3.38.24.1-1.36-3.39-.24Zm-4.74-.33,3.39.24.09-1.37-3.39-.23Zm-4.74-.33,3.39.24.09-1.37-3.38-.23Zm-4.74-.33,3.39.23.09-1.36-3.38-.24Zm-4.74-.33,3.39.23.09-1.36-3.38-.24Zm-4.74-.34,3.39.24.09-1.36-3.38-.24Zm-4.74-.33,3.39.24.09-1.36-3.38-.24Zm-4.74-.33,3.39.24.09-1.36-3.38-.24Zm-4.74-.33,3.39.24.09-1.37-3.38-.23Zm-4.74-.33,3.39.23.09-1.36-3.38-.23ZM310,225l3.39.23.09-1.36-3.38-.24Zm-4.74-.34,3.39.24.09-1.36-3.38-.24Zm-4.74-.33,3.39.24.09-1.36-3.38-.24ZM295.8,224l3.39.24.09-1.36-3.38-.24Zm-4.74-.33,3.39.24.09-1.37-3.38-.23Zm-4.74-.33,3.39.23.09-1.36-3.38-.23Zm-4.74-.33,3.39.23.09-1.36-3.38-.24Zm-4.74-.34,3.39.24.09-1.36-3.38-.24Zm-4.74-.33,3.39.24.1-1.36L272.2,221Zm-4.74-.33,3.39.24.1-1.36-3.39-.24Zm-4.74-.33,3.39.24.1-1.37-3.39-.23Zm-4.73-.33,3.38.24.1-1.37L258,220Zm-4.74-.33,3.38.23.1-1.36-3.39-.24Zm-4.74-.33,3.38.23.1-1.36-3.39-.24Zm-4.74-.34,3.38.24.1-1.36-3.39-.24Zm-4.74-.33,3.38.24.1-1.36-3.39-.24Zm-4.74-.33,3.38.24.1-1.36-3.39-.24Zm-4.74-.33,3.38.24.1-1.37-3.39-.23Zm-4.74-.33,3.38.23.1-1.36-3.39-.23Zm-4.74-.33,3.38.23.1-1.36-3.39-.24Zm-4.74-.34,3.38.24.1-1.36-3.39-.24Zm-4.74-.33,3.38.24.1-1.36-3.39-.24Zm-4.74-.33,3.38.24.1-1.36-3.39-.24Zm-4.74-.33,3.38.24.1-1.37L201.1,216Zm-4.74-.33,3.38.23.1-1.36-3.39-.23Zm-4.74-.33,3.38.23.1-1.36-3.39-.24Zm-4.74-.34,3.39.24.09-1.36-3.39-.24Zm-4.74-.33,3.39.24.09-1.36-3.38-.24Zm-4.74-.33,3.39.24.09-1.36-3.38-.24Zm-4.74-.33,3.39.24.09-1.37-3.38-.23Zm-4.74-.33,3.39.23.09-1.36-3.38-.23Zm-4.74-.33,3.39.23.09-1.36-3.38-.24Zm-4.74-.33,3.39.23.09-1.36-3.38-.24Zm-4.74-.34,3.39.24.09-1.36-3.38-.24Zm-4.74-.33,3.39.24.09-1.36-3.38-.24Zm-4.74-.33,3.39.24.09-1.36-3.38-.24Zm-4.74-.33,3.39.24.09-1.37-3.38-.23Zm-4.74-.33L138,213l.09-1.36-3.38-.23Zm-4.74-.33,3.39.23.09-1.36L130,211Zm-4.74-.34,3.39.24.09-1.36-3.38-.24Zm-4.74-.33,3.39.24.09-1.36-3.38-.24Zm-4.74-.33,3.39.24.09-1.36-3.38-.24Zm-4.74-.33,3.39.24.09-1.37-3.38-.23Zm-4.74-.33,3.39.23.1-1.36-3.39-.23Zm-4.74-.33,3.39.23.1-1.36-3.39-.24Zm-4.74-.34,3.39.24.1-1.36-3.39-.24ZM92,209.73l3.38.24.1-1.36-3.39-.24Zm-4.74-.33,3.38.24.1-1.36L87.35,208Zm-4.74-.33,3.38.24.1-1.37-3.39-.23Zm-4.74-.33,3.38.23.1-1.36-3.39-.23Zm-3-.22,1.69.12.1-1.36-1.7-.12Z"/><path class="cls-7" d="M404.82,220l1.69.13.11-1.36-1.7-.13Zm-4.73-.37,3.38.26.1-1.36-3.38-.26Zm-4.74-.37,3.38.26.11-1.36-3.38-.26Zm-4.73-.37,3.38.27.11-1.37-3.38-.26Zm-4.73-.37,3.38.27.11-1.36-3.39-.27Zm-4.73-.37,3.38.27.1-1.36-3.38-.27Zm-4.74-.37,3.38.27.11-1.36-3.38-.27Zm-4.73-.36,3.38.26.11-1.36-3.38-.27Zm-4.73-.37,3.38.26.1-1.36-3.38-.26Zm-4.73-.37,3.38.26.1-1.36-3.38-.26Zm-4.74-.37,3.38.26.11-1.36L357.6,215Zm-4.73-.37,3.38.26.11-1.36-3.38-.26Zm-4.73-.37,3.38.26.1-1.36-3.38-.26Zm-4.73-.37,3.38.27.1-1.37-3.38-.26Zm-4.74-.37,3.38.27.11-1.37-3.38-.26Zm-4.73-.37,3.38.27.11-1.36-3.38-.27Zm-4.73-.37,3.38.27.1-1.36-3.38-.27Zm-4.74-.36,3.39.26.1-1.36-3.38-.27Zm-4.73-.37,3.38.26.11-1.36-3.38-.26ZM314.9,213l3.38.26.11-1.36-3.38-.26Zm-4.73-.37,3.38.26.1-1.36-3.38-.26Zm-4.74-.37,3.38.26.11-1.36-3.38-.26Zm-4.73-.37,3.38.26.11-1.36-3.38-.26Zm-4.73-.37,3.38.27.11-1.37-3.38-.26Zm-4.73-.37,3.38.27.1-1.37-3.38-.26Zm-4.74-.37,3.38.27.11-1.36-3.38-.27Zm-4.73-.37,3.38.27.11-1.36-3.38-.27ZM277,210l3.38.26.11-1.36-3.38-.27Zm-4.73-.37,3.38.26.1-1.36-3.38-.26Zm-4.74-.37,3.38.26.11-1.36-3.38-.26Zm-4.73-.37,3.38.26.11-1.36-3.38-.26Zm-4.73-.37,3.38.26.11-1.36-3.39-.26Zm-4.73-.37,3.38.26.1-1.36-3.38-.26Zm-4.74-.37,3.38.26.11-1.36-3.38-.26Zm-4.73-.37,3.38.27.11-1.37-3.38-.26Zm-4.73-.37,3.38.27.1-1.36-3.38-.27Zm-4.73-.37,3.38.27.1-1.36-3.38-.27Zm-4.74-.36,3.38.26.11-1.36-3.38-.27ZM225,206l3.38.26.11-1.36-3.38-.27Zm-4.73-.37,3.38.26.1-1.36-3.38-.26Zm-4.73-.37,3.38.26.1-1.36-3.38-.26Zm-4.74-.37,3.38.26.11-1.36-3.38-.26Zm-4.73-.37,3.38.26.11-1.36-3.38-.26Zm-4.73-.37,3.38.26.1-1.36-3.38-.26Zm-4.74-.37L200,204l.1-1.37-3.38-.26Zm-4.73-.37,3.38.27.11-1.36L192,202Zm-4.73-.37,3.38.27.11-1.36-3.38-.27Zm-4.73-.36,3.38.26.1-1.36-3.38-.27Zm-4.74-.37,3.38.26.11-1.36-3.38-.27Zm-4.73-.37,3.38.26.11-1.36-3.38-.26Zm-4.73-.37,3.38.26.11-1.36-3.38-.26Zm-4.73-.37,3.38.26.1-1.36-3.38-.26Zm-4.74-.37,3.38.26.11-1.36-3.38-.26Zm-4.73-.37,3.38.26.11-1.36-3.38-.26Zm-4.73-.37,3.38.27.11-1.37-3.39-.26Zm-4.73-.37,3.38.27.1-1.36-3.38-.27Zm-4.74-.37,3.38.27.11-1.36L139.9,198Zm-4.73-.37,3.38.27.11-1.36-3.38-.27Zm-4.73-.36,3.38.26.1-1.36-3.38-.27Zm-4.73-.37,3.38.26.1-1.36-3.38-.26Zm-4.74-.37,3.38.26.11-1.36L121,196.5Zm-4.73-.37,3.38.26.11-1.36-3.38-.26Zm-4.73-.37,3.38.26.1-1.36-3.38-.26Zm-4.73-.37,3.38.26.1-1.36-3.38-.26Zm-4.74-.37,3.38.27.11-1.37L102,195ZM97.2,196l3.38.27.11-1.36-3.38-.27Zm-4.73-.37,3.38.27.1-1.36-3.38-.27Zm-4.74-.37,3.39.27.1-1.36-3.38-.27ZM83,194.91l3.38.26.11-1.36-3.38-.27Zm-4.73-.37,3.38.26.11-1.36-3.38-.26Zm-4.73-.37,3.38.26.1-1.36-3.38-.26Zm-4.74-.37,3.38.26.11-1.36-3.38-.26Zm-4.73-.37,3.38.26.11-1.36-3.38-.26Zm-4.73-.37,3.38.26.11-1.36-3.38-.26Zm-3-.24L58,193l.1-1.37-1.69-.13Z"/><path class="cls-4" d="M321.5,192.72l1.72.17.06-.68-1.71-.16Zm-4.79-.46,3.42.33.07-.68-3.42-.33Zm-4.79-.47,3.42.33.07-.67-3.43-.34Zm-4.8-.47,3.43.34.06-.68-3.42-.34Zm-4.79-.46,3.42.33.07-.68-3.43-.33Zm-4.8-.47,3.43.33L301,190l-3.42-.33Zm-4.79-.47,3.42.34.07-.68-3.42-.34Zm-4.79-.46,3.42.33.07-.68-3.43-.33Zm-4.8-.47,3.43.33.06-.68-3.42-.33Zm-4.79-.47,3.42.34.07-.68-3.43-.34Zm-4.8-.47,3.43.34.06-.68-3.42-.33Zm-4.79-.46,3.42.33.07-.68-3.42-.33Zm-4.8-.47,3.43.33.07-.68-3.43-.33Zm-4.79-.47,3.42.34.07-.68-3.42-.34Zm-4.79-.46,3.42.33.07-.68-3.43-.33Zm-4.8-.47,3.43.33.06-.68-3.42-.33Zm-4.79-.47,3.42.34.07-.68-3.43-.34Zm-4.8-.46,3.43.33.06-.68-3.42-.33Zm-4.79-.47,3.42.33.07-.68-3.42-.33Zm-4.79-.47,3.42.34.07-.68-3.43-.34Zm-4.8-.47,3.43.34.06-.68-3.42-.33Zm-4.79-.46,3.42.33.07-.68-3.43-.33Zm-4.8-.47,3.43.33.06-.68-3.42-.33Zm-4.79-.47,3.42.34.07-.68-3.42-.34Zm-4.79-.46,3.42.33.07-.68-3.43-.33Zm-4.8-.47,3.43.33.06-.68-3.42-.33Zm-4.79-.47,3.42.34.07-.68-3.43-.34Zm-4.8-.46,3.43.33.06-.68-3.42-.33Zm-4.79-.47,3.42.33.07-.68-3.42-.33Zm-4.79-.47,3.42.34.07-.68-3.43-.34Zm-4.8-.47,3.43.34.06-.68-3.42-.33Zm-4.79-.46,3.42.33.07-.68-3.43-.33Zm-4.8-.47,3.43.33.06-.68-3.42-.33Zm-4.79-.47,3.42.34.07-.68-3.42-.34Zm-4.8-.46,3.43.33.07-.68-3.43-.33Zm-4.79-.47,3.43.33.06-.68-3.42-.33Zm-4.79-.47,3.42.34.07-.68-3.43-.34Zm-4.8-.46,3.43.33.06-.68-3.42-.33Zm-4.79-.47,3.42.33.07-.68-3.43-.33Zm-4.8-.47,3.43.34.06-.68-3.42-.34Zm-4.79-.47,3.42.34.07-.68-3.42-.34Zm-4.79-.46,3.42.33.07-.68L125,172.9Zm-4.8-.47,3.43.33.06-.68-3.42-.33Zm-4.79-.47,3.42.34.07-.68-3.43-.34Zm-3.08-.3,1.71.17.06-.68-1.71-.17Z"/><path class="cls-4" d="M272,256.05l1.42.94.38-.56-1.43-1Zm-4-2.65,2.85,1.89.38-.57-2.85-1.89Zm-4-2.65,2.85,1.89.37-.57-2.84-1.89Zm-4-2.65,2.84,1.89.38-.57-2.84-1.89Zm-4-2.65,2.84,1.89.38-.57-2.85-1.89Zm-4-2.65,2.85,1.89.38-.56-2.85-1.9Zm-4-2.65,2.85,1.89.37-.56-2.84-1.9Zm-4-2.65,2.84,1.9.38-.57-2.84-1.9Zm-4-2.65,2.84,1.9.38-.57-2.84-1.9Zm-4-2.65,2.85,1.9.38-.57-2.85-1.89Zm-4-2.65,2.85,1.9.38-.57L232.52,229Zm-4-2.65,2.84,1.9.38-.57-2.84-1.89Zm-4-2.64,2.84,1.89.38-.57-2.84-1.89Zm-4-2.65L223,223.5l.38-.57L220.57,221Zm-4-2.65,2.85,1.89.38-.57-2.85-1.89Zm-4-2.65,2.85,1.89.37-.57-2.84-1.89Zm-4-2.65,2.84,1.89.38-.57-2.84-1.89Zm-4-2.65,2.84,1.89.38-.57-2.85-1.89Zm-4-2.65,2.85,1.89.38-.57-2.85-1.89Zm-4-2.65,2.85,1.89.37-.57-2.84-1.89Zm-4-2.65,2.84,1.89.38-.57-2.84-1.89Zm-4-2.65,2.84,1.89.38-.57-2.84-1.89Zm-4-2.65,2.84,1.89.38-.56-2.85-1.9Zm-4-2.65,2.85,1.89.38-.56-2.85-1.9Zm-4-2.65,2.85,1.89.37-.56-2.84-1.9Zm-4-2.65,2.84,1.9.38-.57-2.84-1.9Zm-4-2.65,2.84,1.9.38-.57-2.85-1.9Zm-4-2.65,2.85,1.9.38-.57L164.82,184Zm-4-2.65,2.85,1.9.37-.57-2.84-1.89Zm-4-2.64,2.84,1.89.38-.57-2.84-1.89Zm-4-2.65,2.84,1.89.38-.57L152.88,176Zm-4-2.65,2.85,1.89.38-.57-2.85-1.89Zm-4-2.65,2.85,1.89.38-.57-2.85-1.89Zm-4-2.65,2.84,1.89.38-.57-2.84-1.89Zm-4-2.65,2.84,1.89.38-.57L137,165.4Zm-4-2.65,2.84,1.89.38-.57L133,162.75Zm-4-2.65,2.85,1.89.38-.57L129,160.1Zm-4-2.65,2.85,1.89.37-.57L125,157.45Zm-4-2.65,2.84,1.89.38-.57L121,154.8Zm-4-2.65,2.84,1.89.38-.57L117,152.15Zm-4-2.65,2.85,1.89.38-.56-2.85-1.9Zm-4-2.65,2.85,1.89.37-.56-2.84-1.9Zm-2.56-1.7,1.42.94.38-.56-1.42-.95Z"/><path class="cls-8" d="M404.94,284.34l1.57.64.52-1.26-1.57-.65Zm-4.4-1.82,3.14,1.3.52-1.27-3.14-1.29Zm-4.4-1.82,3.14,1.3.52-1.26-3.14-1.3Zm-4.4-1.82,3.14,1.3.52-1.26-3.14-1.3Zm-4.4-1.82,3.14,1.3.52-1.26-3.14-1.3Zm-4.4-1.81,3.14,1.29.52-1.26-3.14-1.3Zm-4.41-1.82,3.15,1.3.52-1.26-3.14-1.3Zm-4.4-1.82,3.15,1.3.52-1.26-3.14-1.3Zm-4.4-1.82,3.15,1.3.52-1.26-3.14-1.3Zm-4.4-1.81,3.15,1.29L369,268l-3.14-1.3Zm-4.4-1.82,3.15,1.3.52-1.27-3.15-1.29Zm-4.4-1.82,3.15,1.3.52-1.26-3.15-1.3Zm-4.4-1.82,3.15,1.3.52-1.26-3.15-1.3Zm-4.4-1.82,3.15,1.3.52-1.26-3.15-1.3Zm-4.4-1.81,3.15,1.3.52-1.27-3.15-1.29Zm-4.4-1.82,3.14,1.3.53-1.26-3.15-1.3Zm-4.4-1.82,3.14,1.3.53-1.26-3.15-1.3Zm-4.4-1.82,3.14,1.3.53-1.26-3.15-1.3Zm-4.4-1.81,3.14,1.29.53-1.26-3.15-1.3Zm-4.4-1.82,3.14,1.3.52-1.27-3.14-1.29Zm-4.4-1.82,3.14,1.3.52-1.26-3.14-1.3Zm-4.4-1.82,3.14,1.3.52-1.26-3.14-1.3Zm-4.4-1.81,3.14,1.29.52-1.26-3.14-1.3Zm-4.4-1.82,3.14,1.3.52-1.27-3.14-1.29Zm-4.4-1.82,3.14,1.3.52-1.26-3.14-1.3Zm-4.4-1.82,3.14,1.3.52-1.26-3.14-1.3Zm-4.4-1.82,3.14,1.3.52-1.26-3.14-1.3Zm-4.4-1.81,3.14,1.3.52-1.27-3.14-1.3Zm-4.4-1.82,3.14,1.3.52-1.26-3.14-1.3Zm-4.4-1.82,3.14,1.3.52-1.26-3.14-1.3Zm-4.4-1.82,3.14,1.3.52-1.26-3.14-1.3Zm-4.4-1.81,3.14,1.29.52-1.26-3.14-1.3Zm-4.4-1.82,3.14,1.3.52-1.27-3.14-1.29Zm-4.4-1.82,3.14,1.3.52-1.26-3.14-1.3Zm-4.41-1.82,3.15,1.3.52-1.26-3.14-1.3Zm-4.4-1.82,3.15,1.3.52-1.26-3.14-1.3Zm-4.4-1.81,3.15,1.3.52-1.27-3.14-1.29Zm-4.4-1.82,3.15,1.3.52-1.26-3.15-1.3Zm-4.4-1.82,3.15,1.3.52-1.26-3.15-1.3Zm-4.4-1.82,3.15,1.3.52-1.26-3.15-1.3Zm-4.4-1.81,3.15,1.29.52-1.26-3.15-1.3Zm-4.4-1.82,3.15,1.3.52-1.26-3.15-1.3Zm-4.4-1.82,3.14,1.3.53-1.26-3.15-1.3Zm-4.4-1.82,3.14,1.3.53-1.26-3.15-1.3Zm-4.4-1.81,3.14,1.29.53-1.26-3.15-1.3Zm-4.4-1.82,3.14,1.3.53-1.27-3.15-1.29Zm-4.4-1.82,3.14,1.3.52-1.26-3.14-1.3Zm-4.4-1.82,3.14,1.3.52-1.26-3.14-1.3Zm-4.4-1.82,3.14,1.3.52-1.26-3.14-1.3Zm-4.4-1.81,3.14,1.3.52-1.27-3.14-1.3Zm-4.4-1.82,3.14,1.3.52-1.26-3.14-1.3Zm-4.4-1.82,3.14,1.3.52-1.26-3.14-1.3Zm-4.4-1.82,3.14,1.3.52-1.26-3.14-1.3Zm-4.4-1.81,3.14,1.29.52-1.26-3.14-1.3Zm-4.4-1.82,3.14,1.3.52-1.27-3.14-1.29Zm-4.4-1.82,3.14,1.3.52-1.26-3.14-1.3Zm-4.4-1.82,3.14,1.3.52-1.26-3.14-1.3Zm-4.4-1.82,3.14,1.3.52-1.26-3.14-1.3Zm-4.4-1.81,3.14,1.3.52-1.27-3.14-1.29Zm-4.4-1.82,3.14,1.3.52-1.26-3.14-1.3Zm-4.41-1.82,3.15,1.3.52-1.26-3.14-1.3Zm-4.4-1.82,3.15,1.3.52-1.26-3.14-1.3Zm-4.4-1.81,3.15,1.29.52-1.26-3.14-1.3Zm-4.4-1.82,3.15,1.3.52-1.26-3.14-1.3Zm-4.4-1.82,3.15,1.3L127,168l-3.15-1.3Zm-4.4-1.82,3.15,1.3.52-1.26-3.15-1.3Zm-4.4-1.81,3.15,1.29.52-1.26L115,163.1Zm-4.4-1.82,3.15,1.3.52-1.27-3.15-1.29Zm-4.4-1.82,3.15,1.3.52-1.26-3.15-1.3Zm-4.4-1.82,3.14,1.3L105,159l-3.15-1.3Zm-4.4-1.82,3.14,1.3.53-1.26-3.15-1.3Zm-4.4-1.81,3.14,1.3.53-1.27L93,154Zm-4.4-1.82,3.14,1.3.52-1.26-3.14-1.3Zm-4.4-1.82,3.14,1.3.52-1.26-3.14-1.3Zm-4.4-1.82,3.14,1.3.52-1.26-3.14-1.3ZM74.91,148l3.14,1.29.52-1.26-3.14-1.3Zm-4.4-1.82,3.14,1.3.52-1.27L71,144.93Zm-4.4-1.82,3.14,1.3.52-1.26-3.14-1.3Zm-4.4-1.82,3.14,1.3.52-1.26-3.14-1.3Zm-4.4-1.82,3.14,1.3.52-1.26-3.14-1.3Zm-4.4-1.81,3.14,1.3.52-1.27-3.14-1.29Zm-4.4-1.82,3.14,1.3.52-1.26L49,135.84Zm-4.4-1.82,3.14,1.3.52-1.26L44.63,134Zm-2.83-1.17,1.57.65.52-1.26-1.57-.65Z"/><path class="cls-7" d="M404.82,150.3l1.69.2.16-1.36-1.69-.2Zm-4.74-.56,3.38.4.16-1.36-3.38-.39Zm-4.74-.55,3.38.39.16-1.35-3.38-.4Zm-4.74-.56,3.38.4.16-1.36-3.38-.39Zm-4.74-.55,3.38.39.16-1.35-3.38-.4Zm-4.74-.56,3.38.4.16-1.36-3.38-.4Zm-4.74-.56,3.38.4.16-1.36-3.38-.39Zm-4.74-.55,3.38.39.16-1.35-3.38-.4Zm-4.74-.56,3.38.4.16-1.36-3.38-.39Zm-4.74-.55,3.38.39.16-1.35-3.38-.4Zm-4.74-.56,3.39.4.15-1.36-3.38-.4Zm-4.74-.56,3.39.4.15-1.35-3.38-.4Zm-4.74-.55,3.39.4.15-1.36-3.38-.4Zm-4.74-.56,3.39.4.16-1.36-3.39-.39Zm-4.74-.55,3.39.39.16-1.35-3.39-.4Zm-4.74-.56,3.39.4.16-1.36-3.39-.4ZM329,141.4l3.39.4.16-1.35-3.39-.4Zm-4.74-.55,3.39.4.16-1.36-3.39-.4Zm-4.74-.56,3.39.4.16-1.36-3.39-.39Zm-4.74-.55,3.39.39.16-1.35-3.39-.4Zm-4.74-.56,3.39.4.16-1.36-3.39-.39Zm-4.74-.55,3.39.39.16-1.35-3.39-.4Zm-4.74-.56,3.39.4.16-1.36-3.39-.4Zm-4.74-.56,3.39.4.16-1.36-3.39-.39Zm-4.74-.55,3.39.39.16-1.35-3.39-.4Zm-4.74-.56,3.39.4.16-1.36-3.39-.39Zm-4.74-.55,3.39.39.16-1.35-3.39-.4Zm-4.74-.56,3.39.4.16-1.36-3.39-.4Zm-4.74-.56,3.39.4.16-1.35-3.39-.4Zm-4.74-.55,3.39.4.16-1.36-3.39-.4Zm-4.73-.56,3.38.4.16-1.36-3.39-.39Zm-4.74-.55,3.38.39.16-1.35-3.39-.4Zm-4.74-.56,3.38.4.16-1.36-3.39-.4Zm-4.74-.56,3.38.4L252,131l-3.38-.4Zm-4.74-.55,3.38.4.16-1.36-3.38-.4Zm-4.74-.56,3.38.4.16-1.36-3.38-.39Zm-4.74-.55,3.38.39.16-1.35-3.38-.4Zm-4.74-.56,3.38.4.16-1.36-3.38-.39Zm-4.74-.55,3.38.39.16-1.35-3.38-.4Zm-4.74-.56,3.38.4.16-1.36-3.38-.4Zm-4.74-.56,3.38.4.16-1.36-3.38-.39Zm-4.74-.55,3.38.39.16-1.35-3.38-.4Zm-4.74-.56,3.38.4.16-1.36-3.38-.39ZM201,126.4l3.38.39.16-1.35-3.38-.4Zm-4.74-.56,3.38.4.16-1.36-3.38-.4Zm-4.74-.56,3.38.4.16-1.36-3.38-.39Zm-4.74-.55,3.39.39.15-1.35-3.38-.4Zm-4.74-.56,3.39.4.15-1.36-3.38-.39Zm-4.74-.55,3.39.39.15-1.35-3.38-.4Zm-4.74-.56,3.39.4.15-1.36-3.38-.4Zm-4.74-.56,3.39.4.16-1.35-3.39-.4Zm-4.74-.55,3.39.4.16-1.36-3.39-.4Zm-4.74-.56,3.39.4.16-1.36-3.39-.39Zm-4.74-.55,3.39.39.16-1.35-3.39-.4Zm-4.74-.56,3.39.4.16-1.36-3.39-.4Zm-4.74-.56,3.39.4.16-1.35-3.39-.4Zm-4.74-.55,3.39.4.16-1.36-3.39-.4Zm-4.74-.56,3.39.4.16-1.36-3.39-.39Zm-4.74-.55,3.39.39.16-1.35-3.39-.4Zm-4.74-.56,3.39.4.16-1.36-3.39-.39Zm-4.74-.55,3.39.39L124,116l-3.39-.4Zm-4.74-.56,3.39.4.16-1.36-3.39-.4Zm-4.74-.56,3.39.4.16-1.36-3.39-.39Zm-4.74-.55,3.39.39.16-1.35-3.39-.4Zm-4.74-.56,3.39.4.16-1.36-3.39-.39Zm-4.74-.55,3.39.39.16-1.35-3.39-.4ZM92,113.61l3.38.4.16-1.36-3.39-.4Zm-4.74-.56,3.38.4.16-1.35-3.39-.4Zm-4.74-.55,3.38.4.16-1.36-3.39-.4Zm-4.74-.56,3.38.4.16-1.36-3.38-.39Zm-3-.35,1.69.19.16-1.35-1.69-.2Z"/><path class="cls-7" d="M404.78,136.2l1.7.2.16-1.36-1.7-.2Zm-4.77-.56,3.41.4.15-1.36-3.4-.39Zm-4.77-.55,3.41.39.15-1.35-3.4-.4Zm-4.77-.56,3.41.4.16-1.36-3.41-.39ZM385.7,134l3.41.39.16-1.35-3.41-.4Zm-4.77-.56,3.41.4.16-1.36-3.41-.39Zm-4.77-.55,3.41.4.16-1.36-3.41-.4Zm-4.76-.56,3.4.4.16-1.36-3.41-.39Zm-4.77-.55,3.4.39.16-1.35-3.41-.4Zm-4.77-.56,3.4.4.16-1.36-3.4-.39Zm-4.77-.55,3.4.4.16-1.36-3.4-.4Zm-4.77-.56,3.41.4.15-1.36-3.4-.39Zm-4.77-.55,3.41.4.15-1.36-3.4-.4Zm-4.77-.56,3.41.4.16-1.36-3.41-.39Zm-4.77-.55,3.41.4.16-1.36-3.41-.4Zm-4.77-.56,3.41.4.16-1.36-3.41-.39Zm-4.77-.55,3.41.4.16-1.36-3.41-.4Zm-4.76-.56,3.4.4.16-1.36-3.41-.39Zm-4.77-.55,3.4.4.16-1.36-3.41-.4Zm-4.77-.56,3.4.4.16-1.36-3.4-.39Zm-4.77-.55,3.4.4.16-1.36-3.4-.4Zm-4.77-.56,3.41.4.15-1.36-3.4-.39Zm-4.77-.55,3.41.4.15-1.36-3.4-.4Zm-4.77-.56,3.41.4.16-1.36-3.41-.39Zm-4.77-.55,3.41.4.16-1.36-3.41-.4Zm-4.77-.56,3.41.4.16-1.36-3.41-.39Zm-4.77-.55,3.41.4.16-1.36-3.41-.4Zm-4.76-.56,3.4.4.16-1.36-3.41-.39Zm-4.77-.55,3.4.4.16-1.36-3.41-.4Zm-4.77-.56,3.4.4.16-1.36-3.4-.39Zm-4.77-.55,3.4.4.16-1.36-3.4-.4Zm-4.77-.56,3.41.4.15-1.36-3.4-.39Zm-4.77-.55,3.41.4.15-1.36-3.4-.4Zm-4.77-.56,3.41.4.16-1.36-3.41-.39Zm-4.77-.55,3.41.4.16-1.36-3.41-.4Zm-4.77-.56,3.41.4.16-1.36-3.41-.39Zm-4.77-.55,3.41.4.16-1.36-3.41-.4Zm-4.76-.56,3.4.4.16-1.36-3.41-.39Zm-4.77-.55,3.4.4.16-1.36-3.41-.4Zm-4.77-.56,3.4.4.16-1.36-3.4-.39ZM214,114l3.4.4.16-1.36-3.4-.4Zm-4.77-.56,3.41.4.15-1.36-3.4-.39Zm-4.77-.55,3.41.4.15-1.36-3.4-.4Zm-4.77-.56,3.41.4.16-1.36-3.41-.39Zm-4.77-.55,3.41.4.16-1.36-3.41-.4Zm-4.77-.56,3.41.4.16-1.36-3.41-.39Zm-4.77-.55,3.41.4.16-1.36-3.41-.4Zm-4.76-.56,3.4.4.16-1.36-3.41-.39Zm-4.77-.55,3.4.4.16-1.36-3.41-.4ZM171.1,109l3.4.4.16-1.36-3.4-.39Zm-4.77-.55,3.41.4.15-1.36-3.4-.4Zm-4.77-.56,3.41.4.15-1.36-3.4-.39Zm-4.77-.55,3.41.4.15-1.36L157,106Zm-4.77-.56,3.41.4.16-1.35-3.41-.4Zm-4.77-.55,3.41.4.16-1.36-3.41-.4Zm-4.77-.56,3.41.4.16-1.35-3.41-.4Zm-4.77-.55,3.41.4.16-1.36-3.41-.4Zm-4.76-.56,3.4.4.16-1.35-3.41-.4Zm-4.77-.55,3.4.4.16-1.36-3.41-.4Zm-4.77-.55,3.4.39.16-1.35-3.4-.4Zm-4.77-.56,3.4.4.16-1.36-3.4-.4Zm-4.77-.56,3.41.4.15-1.35L114,101Zm-4.77-.55,3.41.4.15-1.36-3.4-.4Zm-4.77-.55,3.41.39.16-1.35-3.41-.4Zm-4.77-.56,3.41.4.16-1.36-3.41-.4Zm-4.77-.55,3.41.39.16-1.35L95,98.77ZM90,99.57l3.41.4.16-1.36-3.41-.4ZM85.26,99l3.4.39.16-1.35-3.41-.4Zm-4.77-.56,3.4.4.16-1.36-3.41-.4Zm-4.77-.55,3.4.39L79.28,97l-3.4-.4ZM71,97.35l3.4.4.16-1.36-3.4-.4Zm-4.77-.55,3.41.39.15-1.35-3.4-.4Zm-4.77-.56,3.41.4L65,95.28l-3.4-.4Zm-3.07-.36,1.71.2.16-1.35-1.71-.2Z"/><path class="cls-7" d="M404.81,121.64l1.7.19.14-1.36-1.7-.18Zm-4.76-.5,3.4.36.14-1.36-3.4-.36Zm-4.76-.51,3.4.36.14-1.35-3.4-.36Zm-4.76-.5,3.4.36.14-1.36-3.4-.36Zm-4.76-.51,3.4.36.14-1.35-3.4-.36Zm-4.77-.5,3.4.36.15-1.36-3.4-.36Zm-4.76-.51,3.4.36.15-1.35-3.4-.37Zm-4.76-.5,3.4.36.15-1.36-3.4-.36Zm-4.76-.51,3.4.36.15-1.36-3.4-.36Zm-4.76-.5,3.4.36.14-1.36-3.4-.36Zm-4.76-.51,3.4.36.14-1.36-3.4-.36Zm-4.76-.5,3.4.36.14-1.36-3.4-.36Zm-4.76-.51,3.4.36.14-1.36-3.4-.36Zm-4.76-.51,3.4.37.14-1.36-3.4-.36Zm-4.77-.5,3.41.36.14-1.36-3.4-.36Zm-4.76-.51,3.4.37.15-1.36-3.4-.36Zm-4.76-.5,3.4.36.15-1.36-3.4-.36Zm-4.76-.51,3.4.36.15-1.35-3.4-.36Zm-4.76-.5,3.4.36.15-1.36-3.4-.36Zm-4.76-.51,3.4.36.14-1.35-3.4-.37Zm-4.76-.5,3.4.36.14-1.36-3.4-.36Zm-4.76-.51,3.4.36.14-1.35-3.4-.37Zm-4.76-.5,3.4.36.14-1.36-3.4-.36Zm-4.76-.51,3.4.36.14-1.36-3.4-.36Zm-4.77-.5,3.41.36.14-1.36-3.4-.36Zm-4.76-.51,3.4.36.15-1.36-3.4-.36Zm-4.76-.5,3.4.36.15-1.36-3.4-.36Zm-4.76-.51,3.4.36.15-1.36-3.4-.36Zm-4.76-.51,3.4.37.15-1.36-3.4-.36Zm-4.76-.5,3.4.36.14-1.36-3.4-.36Zm-4.76-.51,3.4.36.14-1.35-3.4-.36Zm-4.76-.5,3.4.36.14-1.36-3.4-.36Zm-4.76-.51,3.4.36.14-1.35-3.4-.36Zm-4.76-.5,3.4.36.14-1.36-3.4-.36Zm-4.77-.51,3.41.36.14-1.35-3.4-.37Zm-4.76-.5,3.4.36.15-1.36-3.4-.36Zm-4.76-.51,3.4.36.15-1.36-3.4-.36Zm-4.76-.5,3.4.36.15-1.36-3.4-.36Zm-4.76-.51,3.4.36.15-1.36-3.4-.36Zm-4.76-.5,3.4.36.14-1.36-3.4-.36Zm-4.76-.51,3.4.36.14-1.36-3.4-.36Zm-4.76-.51,3.4.37.14-1.36-3.4-.36Zm-4.76-.5,3.4.36.14-1.36-3.4-.36Zm-4.76-.51,3.4.37.14-1.36-3.4-.36Zm-4.76-.5,3.4.36.14-1.36-3.4-.36Zm-4.77-.51,3.4.36.15-1.35-3.4-.36Zm-4.76-.5,3.4.36.15-1.36L186,97ZM181,97.89l3.4.36.15-1.35-3.4-.37Zm-4.76-.5,3.4.36.15-1.36-3.4-.36Zm-4.76-.51,3.4.36.14-1.35-3.4-.37Zm-4.76-.5,3.4.36.14-1.36L166.9,95ZM162,95.87l3.4.36.14-1.36-3.4-.36Zm-4.76-.5,3.4.36.14-1.36-3.4-.36Zm-4.76-.51,3.4.36.14-1.36-3.4-.36Zm-4.76-.5,3.4.36.14-1.36-3.4-.36ZM143,93.85l3.4.36.15-1.36-3.4-.36Zm-4.76-.51,3.4.37.15-1.36-3.4-.36Zm-4.76-.5,3.4.36.15-1.36-3.4-.36Zm-4.76-.51,3.4.36.15-1.35-3.4-.36Zm-4.76-.5,3.4.36.15-1.36-3.41-.36Zm-4.76-.51,3.4.36.14-1.35-3.4-.36Zm-4.76-.5,3.4.36.14-1.36-3.4-.36Zm-4.76-.51,3.4.36.14-1.35-3.4-.37Zm-4.76-.5,3.4.36.14-1.36-3.4-.36Zm-4.76-.51,3.4.36.14-1.36-3.4-.36Zm-4.77-.5,3.4.36.15-1.36-3.4-.36Zm-4.76-.51,3.4.36.15-1.36-3.4-.36Zm-4.76-.5,3.4.36.15-1.36L86,86.43Zm-4.76-.51,3.4.36.15-1.36-3.4-.36Zm-4.76-.51,3.4.37.14-1.36-3.4-.36Zm-4.76-.5,3.4.36.14-1.36-3.4-.36Zm-4.76-.51,3.4.37.14-1.36-3.4-.36ZM62,85.26l3.4.36.14-1.36-3.4-.36Zm-4.76-.51,3.4.36.14-1.35-3.4-.36Zm-4.76-.5,3.4.36L56,83.25l-3.4-.36Zm-4.77-.51,3.4.36.15-1.35-3.4-.36ZM43,83.24l3.4.36.15-1.36-3.4-.36Zm-3.06-.33,1.7.18.15-1.35-1.7-.19Z"/><path class="cls-8" d="M352.33,184.05l1.61.58.47-1.28-1.62-.59Zm-4.52-1.64,3.23,1.17.46-1.28-3.22-1.17Zm-4.52-1.63,3.23,1.17.47-1.29-3.23-1.17Zm-4.51-1.64,3.22,1.17.47-1.28-3.23-1.17Zm-4.52-1.63,3.22,1.17.47-1.29-3.23-1.17Zm-4.52-1.64L333,177l.46-1.28-3.23-1.17Zm-4.52-1.63,3.23,1.17.46-1.29L325.68,173Zm-4.52-1.64,3.23,1.17.46-1.28-3.22-1.17ZM316.18,171l3.23,1.17.47-1.29-3.23-1.16Zm-4.51-1.64,3.22,1.17.47-1.28-3.23-1.17Zm-4.52-1.63,3.22,1.17.47-1.29-3.23-1.16Zm-4.52-1.64,3.23,1.17.46-1.28-3.23-1.17Zm-4.52-1.63,3.23,1.17.46-1.29-3.22-1.16Zm-4.52-1.64,3.23,1.17.46-1.28-3.22-1.17Zm-4.52-1.63,3.23,1.17.47-1.29-3.23-1.16Zm-4.51-1.63,3.22,1.16.47-1.28L285,158.24ZM280,157.89l3.23,1.17.46-1.29-3.23-1.16Zm-4.52-1.63,3.23,1.16.46-1.28L276,155ZM271,154.62l3.23,1.17.46-1.29-3.22-1.16ZM266.48,153l3.23,1.16.47-1.28L267,151.7ZM262,151.35l3.22,1.17.47-1.29-3.23-1.16Zm-4.52-1.63,3.22,1.16.47-1.28-3.23-1.17Zm-4.52-1.64,3.23,1.17.46-1.28-3.23-1.17Zm-4.52-1.63,3.23,1.16.46-1.28-3.22-1.17Zm-4.52-1.64,3.23,1.17.46-1.28-3.22-1.17Zm-4.52-1.63,3.23,1.16.47-1.28-3.23-1.17Zm-4.51-1.64,3.22,1.17.47-1.28-3.23-1.17Zm-4.52-1.63,3.22,1.16.47-1.28-3.23-1.17Zm-4.52-1.64,3.23,1.17.46-1.28L226.28,137Zm-4.52-1.63,3.23,1.17.46-1.29-3.22-1.17ZM216.78,135l3.23,1.17.46-1.28-3.22-1.17Zm-4.52-1.63,3.23,1.17.47-1.29-3.23-1.17Zm-4.51-1.64L211,132.9l.47-1.28-3.23-1.17Zm-4.52-1.63,3.23,1.17.46-1.29-3.23-1.17Zm-4.52-1.64,3.23,1.17.46-1.28-3.23-1.17Zm-4.52-1.63,3.23,1.17.46-1.29-3.22-1.17Zm-4.52-1.64,3.23,1.17.47-1.28-3.23-1.17Zm-4.51-1.63,3.22,1.17.47-1.29-3.23-1.17Zm-4.52-1.64,3.22,1.17.47-1.28-3.23-1.17Zm-4.52-1.63,3.23,1.17.46-1.29L176.58,119Zm-4.52-1.64,3.23,1.17.46-1.28-3.23-1.17ZM167.08,117l3.23,1.17.46-1.29-3.22-1.16Zm-4.52-1.64,3.23,1.17.47-1.28L163,114.1Zm-4.51-1.63,3.22,1.17.47-1.29-3.23-1.16Zm-4.52-1.64,3.22,1.17.47-1.28L154,110.83ZM149,110.48l3.23,1.17.46-1.29-3.23-1.16Zm-4.52-1.63,3.23,1.16.46-1.28L145,107.56ZM140,107.21l3.23,1.17.46-1.29-3.22-1.16Zm-4.52-1.63,3.23,1.16.47-1.28-3.23-1.17Zm-4.51-1.64,3.22,1.17.47-1.29-3.23-1.16Zm-4.52-1.63,3.23,1.16.46-1.28L126.88,101Zm-4.52-1.64,3.23,1.17.46-1.29-3.23-1.16ZM117.38,99l3.23,1.16.46-1.28-3.22-1.17Zm-4.52-1.64,3.23,1.17.47-1.28-3.23-1.17Zm-4.52-1.63,3.23,1.16.47-1.28-3.23-1.17Zm-4.51-1.64,3.22,1.17.47-1.28-3.23-1.17ZM99.31,92.5l3.23,1.16.46-1.28-3.23-1.17Zm-4.52-1.64L98,92l.46-1.28-3.23-1.17Zm-4.52-1.63L93.5,90.4,94,89.11l-3.22-1.17Zm-4.52-1.64L89,88.76l.47-1.28-3.23-1.17ZM81.24,86l3.22,1.17.47-1.29L81.7,84.67Zm-4.52-1.64,3.22,1.17.47-1.28L77.18,83ZM72.2,82.69l3.23,1.17.46-1.29L72.66,81.4Zm-4.52-1.64,3.23,1.17.46-1.28-3.22-1.17Zm-4.52-1.63,3.23,1.17.46-1.29-3.22-1.17Zm-4.52-1.64L61.87,79l.47-1.28L59.11,76.5Zm-4.51-1.63,3.22,1.17L57.82,76l-3.23-1.17Zm-4.52-1.64,3.23,1.17.46-1.28-3.23-1.17Zm-4.52-1.63,3.23,1.17.46-1.29L45.55,71.6Zm-4.52-1.64,3.23,1.17.46-1.28L41,70Zm-4.52-1.63,3.23,1.17.46-1.29-3.22-1.16ZM31.53,68l3.23,1.17.47-1.28L32,66.69ZM27,66.34l3.22,1.17.47-1.29-3.23-1.16ZM22.5,64.7l3.23,1.17.46-1.28L23,63.42ZM18,63.07l3.23,1.17L21.67,63l-3.23-1.16Zm-4.52-1.63,3.23,1.16.46-1.28-3.22-1.17Zm-2.9-1.06,1.61.59.47-1.29L11,59.1Z"/><path class="cls-4" d="M404.81,42l1.7,0v-.69h-1.69Zm-4.75,0,3.39,0v-.68l-3.4,0Zm-4.75,0,3.39,0v-.68l-3.4,0Zm-4.76,0,3.4,0v-.69l-3.39,0Zm-4.75,0,3.39,0v-.68l-3.4,0Zm-4.75,0,3.39,0v-.69l-3.4,0Zm-4.76,0,3.4,0v-.68l-3.39,0Zm-4.75,0,3.39,0v-.68l-3.4,0Zm-4.75,0,3.39,0V41l-3.4,0Zm-4.76,0,3.4,0V41L362,41Zm-4.75,0,3.4,0V41l-3.39,0Zm-4.75,0,3.39,0v-.68l-3.4,0Zm-4.76,0,3.4,0v-.69l-3.39,0Zm-4.75,0,3.4,0v-.68l-3.39,0Zm-4.75,0,3.39,0v-.68l-3.4,0Zm-4.76,0,3.4,0v-.68l-3.39,0Zm-4.75,0,3.4,0v-.68l-3.39,0Zm-4.75,0,3.39,0v-.69l-3.4,0Zm-4.75,0,3.39,0v-.68l-3.4,0Zm-4.76,0,3.4,0v-.69l-3.39,0Zm-4.75,0,3.39,0v-.68l-3.4,0Zm-4.75,0,3.39,0v-.68l-3.4,0Zm-4.76,0,3.4,0v-.68l-3.39,0Zm-4.75,0,3.4,0v-.68l-3.4,0Zm-4.75,0,3.39,0v-.69l-3.4,0Zm-4.76,0,3.4,0v-.68l-3.39,0Zm-4.75,0,3.4,0V40.4l-3.39,0Zm-4.75,0,3.39,0v-.68l-3.4,0Zm-4.76,0,3.4,0v-.68l-3.39,0ZM267,41l3.4,0V40.3l-3.39,0Zm-4.75,0,3.39,0v-.68l-3.4,0Zm-4.76,0,3.4,0v-.69l-3.39,0Zm-4.75,0,3.4,0V40.2l-3.39,0Zm-4.75,0,3.39,0v-.69l-3.4,0Zm-4.75,0,3.39,0v-.68l-3.4,0Zm-4.76,0,3.4,0V40.1l-3.39,0Zm-4.75,0,3.39,0v-.68l-3.4,0Zm-4.75,0,3.39,0V40L229,40Zm-4.76,0,3.4,0V40l-3.39,0Zm-4.75,0,3.39,0V40l-3.4,0Zm-4.75,0,3.39,0v-.69l-3.4,0Zm-4.76,0,3.4,0v-.68l-3.39,0Zm-4.75,0,3.4,0v-.68l-3.39,0Zm-4.75,0,3.39,0v-.68l-3.4,0Zm-4.76,0,3.4,0v-.68l-3.39,0Zm-4.75,0,3.4,0v-.68l-3.39,0Zm-4.75,0,3.39,0v-.68l-3.4,0Zm-4.76,0,3.4,0v-.69l-3.39,0Zm-4.75,0,3.4,0v-.68l-3.39,0Zm-4.75,0,3.39,0v-.69l-3.4,0Zm-4.75,0,3.39,0v-.68l-3.4,0Zm-4.76,0,3.4,0v-.68l-3.39,0Zm-4.75,0,3.39,0v-.68l-3.4,0Zm-4.75,0,3.39,0v-.68l-3.4,0Zm-4.76,0,3.4,0v-.69l-3.39,0Zm-4.75,0,3.39,0v-.68l-3.4,0Zm-4.75,0,3.39,0v-.69l-3.4,0Zm-4.76,0,3.4,0v-.68l-3.39,0Zm-4.75,0,3.4,0v-.68l-3.39,0Zm-4.75,0,3.39,0v-.68l-3.4,0Zm-4.76,0,3.4,0v-.68l-3.39,0Zm-4.75,0,3.4,0V39.2l-3.39,0Zm-4.75,0,3.39,0v-.68l-3.4,0Zm-4.76,0,3.4,0v-.69l-3.39,0Zm-4.75,0,3.4,0V39.1l-3.39,0Zm-4.75,0,3.39,0v-.68l-3.4,0Zm-4.75,0,3.39,0V39l-3.4,0Zm-4.76,0,3.4,0V39l-3.39,0Zm-4.75,0,3.39,0V39l-3.4,0Zm-4.75,0,3.39,0v-.68l-3.4,0Zm-4.76,0,3.4,0v-.69l-3.39,0Zm-4.75,0,3.39,0v-.68l-3.4,0Zm-4.75,0,3.39,0v-.68l-3.4,0Zm-4.76,0,3.4,0v-.68l-3.39,0Zm-4.75,0,3.4,0v-.68l-3.39,0Zm-4.75,0,3.39,0v-.69l-3.4,0Zm-4.76,0,3.4,0v-.68l-3.39,0Zm-4.75,0,3.4,0v-.69l-3.39,0Zm-4.75,0,3.39,0v-.68l-3.4,0Zm-4.76,0,3.4,0v-.68l-3.39,0Zm-3,0H28v-.68h-1.7Z"/><path class="cls-4" d="M41,32.62l1.67.46.18-.66L41.15,32Zm-4.68-1.26,3.34.9.18-.66-3.34-.9Zm-4.68-1.27L35,31l.18-.65-3.34-.91Zm-4.68-1.27,3.34.91.18-.66-3.34-.91Zm-4.68-1.27,3.34.91.18-.66-3.35-.91Zm-4.68-1.26,3.34.9.18-.66-3.35-.9ZM12.88,25l3.35.9.18-.66-3.35-.9Zm-3-.82,1.68.46.18-.66-1.68-.46Z"/><path class="cls-7" d="M56.3,180.37a3,3,0,0,1-2.1-5.06,2.86,2.86,0,0,1,1.52-.81,3,3,0,0,1,3.06,1.26,3,3,0,0,1,.5,1.65,2.93,2.93,0,0,1-.23,1.13,2.89,2.89,0,0,1-1.61,1.61A3,3,0,0,1,56.3,180.37ZM62.38,171c-.17-.17-.35-.33-.53-.48l-.05,0-.58-.43-.16-.11a2.26,2.26,0,0,0-.26-.16,9.26,9.26,0,0,0-4.85-1.5h-.23A9.29,9.29,0,0,0,49.35,171a9.2,9.2,0,0,0-2.61,6.43c0,4.41,6.22,12.26,8.49,15a1,1,0,0,0,.36.29,1,1,0,0,0,.45.1,1.06,1.06,0,0,0,.46-.1,1,1,0,0,0,.36-.29c2.23-2.7,8.31-10.49,8.31-14.91A9.16,9.16,0,0,0,62.38,171Z"/><path class="cls-1" d="M120.29,180H121v-3.07a1.14,1.14,0,0,1,1.22-1.13,2.43,2.43,0,0,1,.45.05v-.76h-.39a1.32,1.32,0,0,0-1.26.81h0v-.73h-.72Zm-4.64-2.81a1.44,1.44,0,0,1,1.43-1.43,1.32,1.32,0,0,1,1.33,1.43Zm1.51,2.91a1.89,1.89,0,0,0,1.93-1.22l-.72-.21a1.18,1.18,0,0,1-1.21.76,1.46,1.46,0,0,1-1.51-1.6h3.51v-.32c0-1.8-1.07-2.42-2.08-2.42a2.26,2.26,0,0,0-2.18,2.53A2.23,2.23,0,0,0,117.16,180.08ZM112,180h.75v-3.07a1.14,1.14,0,0,1,1.22-1.13,2.43,2.43,0,0,1,.45.05v-.76H114a1.32,1.32,0,0,0-1.26.81h0v-.73H112Zm-3.33-.57c-1,0-1.45-.86-1.45-1.83s.46-1.84,1.45-1.84,1.45.87,1.45,1.84S109.64,179.41,108.64,179.41Zm0,.67a2.53,2.53,0,1,0-2.19-2.5A2.23,2.23,0,0,0,108.64,180.08Zm-3.32-6.56h-.75V180h.75Zm-5.43,4c0-1.09.48-1.82,1.39-1.82s1.41.8,1.41,1.82-.48,1.85-1.41,1.85S99.89,178.65,99.89,177.56Zm-.73,4.23h.75v-2.56H100a1.49,1.49,0,0,0,1.41.85c1.21,0,2.06-1,2.06-2.51s-.85-2.5-2.07-2.5a1.46,1.46,0,0,0-1.4.84h-.09v-.77h-.72Zm-4.23-6.65h-.86l1.54,2.42L94.07,180h.86l1.16-1.88L97.24,180h.86l-1.56-2.42,1.56-2.42h-.86l-1.15,2ZM89.17,180h3.94v-.7H90v-2.19h2.91v-.69H90v-2.18h3.11v-.7H89.17Zm-8.1-.7v-5.06h1.25c1.52,0,2.28.95,2.28,2.52s-.76,2.54-2.37,2.54Zm1.21.7c2,0,3.08-1.22,3.08-3.24s-1.11-3.22-3-3.22H80.29V180Zm-7,0h3.78v-.7h-3v-5.76H75.3Zm-4.85-3v-2.71h1.37c1.05,0,1.45.57,1.45,1.35a1.26,1.26,0,0,1-1.43,1.36Zm-.78,3h.78v-2.36h1.41a2.05,2.05,0,1,0,0-4.1H69.67Zm-1.57-6.46h-.78V180h.78Z"/><path class="cls-7" d="M74.73,196.07a2.94,2.94,0,0,1-1.65-.5,3,3,0,0,1-1.1-1.33,3,3,0,0,1-.17-1.71,3,3,0,0,1,.82-1.52,3,3,0,0,1,1.52-.81,3,3,0,0,1,3.06,1.26,2.94,2.94,0,0,1,.27,2.78,2.89,2.89,0,0,1-1.61,1.61A2.79,2.79,0,0,1,74.73,196.07Zm6.08-9.41-.53-.48,0,0c-.18-.15-.38-.29-.58-.43l-.16-.11a2.26,2.26,0,0,0-.26-.16,9.26,9.26,0,0,0-4.85-1.5h-.22a9.22,9.22,0,0,0-9,9.22c0,4.41,6.22,12.26,8.49,15a1,1,0,0,0,.36.28,1,1,0,0,0,.91,0,1,1,0,0,0,.36-.28c2.23-2.71,8.31-10.49,8.31-14.91a9.16,9.16,0,0,0-2.79-6.57Z"/><path class="cls-1" d="M156.68,195.68h.75v-3.06a1.14,1.14,0,0,1,1.22-1.14,2.43,2.43,0,0,1,.45.05v-.75l-.39,0a1.32,1.32,0,0,0-1.26.81h0v-.73h-.72ZM152,192.87a1.44,1.44,0,0,1,1.43-1.43,1.31,1.31,0,0,1,1.32,1.43Zm1.51,2.91a1.89,1.89,0,0,0,1.93-1.22l-.72-.2a1.19,1.19,0,0,1-1.21.75,1.46,1.46,0,0,1-1.51-1.6h3.51v-.31c0-1.81-1.07-2.42-2.08-2.42a2.52,2.52,0,0,0,.08,5Zm-6.66-.1h.74v-1.81l.52-.48,1.82,2.29h.94l-2.2-2.77,2-2.07h-.92L147.72,193h-.09v-3.76h-.74Zm-3,.1a1.79,1.79,0,0,0,1.9-1.51h-.74a1.12,1.12,0,0,1-1.16.84c-.88,0-1.45-.73-1.45-1.85s.58-1.82,1.45-1.82a1.15,1.15,0,0,1,1.16.85h.74a1.79,1.79,0,0,0-1.91-1.51,2.52,2.52,0,0,0,0,5Zm-6.61-2.91a1.44,1.44,0,0,1,1.43-1.43,1.31,1.31,0,0,1,1.32,1.43Zm1.51,2.91a1.87,1.87,0,0,0,1.92-1.22l-.71-.2a1.19,1.19,0,0,1-1.21.75,1.46,1.46,0,0,1-1.51-1.6h3.51v-.31c0-1.81-1.07-2.42-2.08-2.42a2.52,2.52,0,0,0,.08,5Zm-6.53-3a1.22,1.22,0,0,1,1.27-1.33,1.07,1.07,0,0,1,1.12,1.21v3h.75V192.6c0-1.24-.67-1.82-1.66-1.82a1.4,1.4,0,0,0-1.42.81h-.06v-2.36h-.75v6.45h.75Zm-1.91-1.53a2.52,2.52,0,0,0-2.6-2.1c-1.65,0-2.84,1.27-2.84,3.31s1.19,3.32,2.84,3.32a2.52,2.52,0,0,0,2.6-2.11h-.78a1.76,1.76,0,0,1-1.82,1.38c-1.17,0-2.09-.91-2.09-2.59s.92-2.58,2.09-2.58a1.76,1.76,0,0,1,1.82,1.37Zm-12.26,6.25a1.46,1.46,0,0,0,1.43-1.1l2.06-5.54h-.82l-1.33,3.86h0l-1.34-3.86h-.81L119,195.7l-.14.38c-.27.74-.6.81-1.14.67l-.19.66A1.68,1.68,0,0,0,118.1,197.49Zm-3.77-2.37c-.59,0-1-.26-1-.78s.52-.74,1.1-.82a3.64,3.64,0,0,0,1.28-.27v.68A1.24,1.24,0,0,1,114.33,195.12Zm-.11.67a1.53,1.53,0,0,0,1.44-.77h0v.66h.75v-3.19a1.58,1.58,0,0,0-1.79-1.71,2,2,0,0,0-1.94,1.13l.7.25a1.32,1.32,0,0,1,1.26-.73.89.89,0,0,1,1,1v0c0,.36-.36.33-1.24.44s-1.88.32-1.88,1.43A1.49,1.49,0,0,0,114.22,195.79Zm-7.54-.11h.73l1.06-3.72h.08l1,3.72h.74l1.47-4.84H111l-1,3.69h0l-1-3.69h-.79l-1,3.7h0l-1-3.7h-.78Zm-5.74-2.81a1.44,1.44,0,0,1,1.43-1.43,1.32,1.32,0,0,1,1.33,1.43Zm1.51,2.91a1.89,1.89,0,0,0,1.93-1.22l-.72-.2a1.19,1.19,0,0,1-1.21.75,1.46,1.46,0,0,1-1.51-1.6h3.51v-.31c0-1.81-1.07-2.42-2.08-2.42a2.52,2.52,0,0,0,.08,5Zm-3.1-4.94h-1v-1.16h-.75v1.16h-.73v.63h.73v3a1.24,1.24,0,0,0,1.31,1.25,1.51,1.51,0,0,0,.56-.09l-.15-.66a1.83,1.83,0,0,1-.33,0c-.33,0-.64-.1-.64-.73v-2.82h1Zm-5.57,4.28c-.59,0-1-.26-1-.78s.52-.74,1.1-.82a3.64,3.64,0,0,0,1.28-.27v.68A1.23,1.23,0,0,1,93.78,195.12Zm-.11.67a1.52,1.52,0,0,0,1.44-.77h0v.66h.75v-3.19a1.58,1.58,0,0,0-1.79-1.71,2,2,0,0,0-1.94,1.13l.7.25a1.32,1.32,0,0,1,1.26-.73.89.89,0,0,1,1,1v0c0,.36-.36.33-1.24.44S92,193.2,92,194.31A1.49,1.49,0,0,0,93.67,195.79Zm-3.51-4.55H91a2.59,2.59,0,0,0-2.65-2.1c-1.65,0-2.82,1.27-2.82,3.31s1.16,3.32,2.87,3.32A2.5,2.5,0,0,0,91,193.15v-.7H88.55v.7h1.7A1.79,1.79,0,0,1,88.37,195c-1.19,0-2.11-.91-2.11-2.59s.92-2.58,2.06-2.58A1.82,1.82,0,0,1,90.16,191.24Z"/><path class="cls-7" d="M39.91,70.46a3,3,0,0,1-2.74-1.83A2.87,2.87,0,0,1,37,66.92a2.95,2.95,0,0,1,2.34-2.33,3,3,0,0,1,3,1.26,3,3,0,0,1,.28,2.78,2.86,2.86,0,0,1-.65,1,2.93,2.93,0,0,1-2.11.87ZM46,61.05a4.88,4.88,0,0,0-.53-.48l-.05,0c-.18-.15-.37-.29-.57-.43L44.67,60l-.25-.16a9.33,9.33,0,0,0-4.86-1.5h-.22a9.22,9.22,0,0,0-9,9.22c0,4.4,6.22,12.26,8.48,15a1.16,1.16,0,0,0,.37.29,1.06,1.06,0,0,0,.9,0,1.16,1.16,0,0,0,.37-.29c2.22-2.7,8.31-10.49,8.31-14.91a9.11,9.11,0,0,0-.73-3.56A9,9,0,0,0,46,61.05Z"/><path class="cls-1" d="M81,67.65c0-1.09.48-1.82,1.39-1.82s1.41.8,1.41,1.82-.48,1.85-1.41,1.85S81,68.74,81,67.65Zm-.73,4.23h.74V69.32h.07a1.47,1.47,0,0,0,1.41.85c1.21,0,2-1,2-2.51s-.84-2.5-2.06-2.5a1.46,1.46,0,0,0-1.4.84H81v-.77h-.72ZM77,69.5c-1,0-1.45-.86-1.45-1.83S76,65.83,77,65.83s1.45.87,1.45,1.84S78,69.5,77,69.5Zm0,.67a2.53,2.53,0,1,0-2.19-2.5A2.23,2.23,0,0,0,77,70.17Zm-3-4.94h-1V64.07h-.74v1.16h-.73v.63h.73v3a1.24,1.24,0,0,0,1.31,1.25A1.55,1.55,0,0,0,74,70l-.16-.67a1,1,0,0,1-.32,0c-.33,0-.65-.1-.65-.73V65.86h1ZM67,70.07h.75V68.25l.52-.48,1.81,2.3h1l-2.2-2.78,2-2.06H70l-2.11,2.15h-.09V63.61H67Zm-1.2-3.76a1.64,1.64,0,0,0-1.72-1.15c-1,0-1.78.58-1.78,1.4,0,.67.4,1.12,1.29,1.33l.81.19c.49.11.72.34.72.68s-.45.75-1.14.75a1,1,0,0,1-1.12-.78l-.71.18A1.67,1.67,0,0,0,64,70.17c1.13,0,1.89-.62,1.89-1.45,0-.68-.42-1.1-1.28-1.31l-.72-.18c-.57-.14-.83-.33-.83-.71s.44-.71,1-.71a1,1,0,0,1,1,.69Zm-8.08,1a1.45,1.45,0,0,1,1.44-1.43,1.32,1.32,0,0,1,1.32,1.43Zm1.51,2.91a1.88,1.88,0,0,0,1.93-1.23l-.72-.2a1.18,1.18,0,0,1-1.21.76,1.47,1.47,0,0,1-1.51-1.6h3.52v-.32c0-1.8-1.08-2.42-2.08-2.42A2.25,2.25,0,0,0,57,67.68,2.22,2.22,0,0,0,59.24,70.17Zm-7.52-.8V64.31H53c1.52,0,2.29,1,2.29,2.52s-.77,2.54-2.37,2.54Zm1.21.7c2,0,3.07-1.23,3.07-3.24s-1.11-3.22-3-3.22H50.93v6.46Z"/><path class="cls-7" d="M58.35,83.43a3,3,0,0,1-1.66-.5,3,3,0,0,1-.44-4.56,2.86,2.86,0,0,1,1.52-.81,2.89,2.89,0,0,1,1.72.17,3,3,0,0,1,1.34,1.09,3,3,0,0,1,.5,1.65,2.93,2.93,0,0,1-.23,1.13,2.95,2.95,0,0,1-2.75,1.83ZM64.42,74a5.91,5.91,0,0,0-.52-.48l-.06,0c-.18-.15-.37-.29-.57-.43L63.11,73l-.26-.16A9.32,9.32,0,0,0,58,71.31h-.23A9.27,9.27,0,0,0,51.4,74.1a9.15,9.15,0,0,0-2.61,6.43c0,4.41,6.22,12.26,8.49,15a.93.93,0,0,0,.36.29,1.06,1.06,0,0,0,.9,0,1,1,0,0,0,.37-.29c2.22-2.7,8.31-10.49,8.31-14.91A9.11,9.11,0,0,0,66.49,77,9,9,0,0,0,64.42,74Z"/><path class="cls-1" d="M97.87,76.58h-.78V83h.78Zm-3.12,0v4.21a1.73,1.73,0,0,1-3.46,0V76.58h-.78v4.28a2.52,2.52,0,0,0,5,0V76.58Zm-11.51,4c0-1.09.48-1.82,1.38-1.82S86,79.6,86,80.62s-.47,1.85-1.41,1.85S83.24,81.71,83.24,80.62ZM82.51,83h.71v-.75h.09a1.5,1.5,0,0,0,1.41.85c1.21,0,2.06-1,2.06-2.51s-.85-2.5-2.07-2.5a1.48,1.48,0,0,0-1.4.84h-.06V76.58h-.74Zm-4.75-2.81a1.44,1.44,0,0,1,1.43-1.43,1.32,1.32,0,0,1,1.33,1.43Zm1.51,2.91a1.89,1.89,0,0,0,1.93-1.22l-.72-.21a1.18,1.18,0,0,1-1.21.76,1.46,1.46,0,0,1-1.51-1.6h3.51v-.32c0-1.8-1.07-2.42-2.08-2.42A2.26,2.26,0,0,0,77,80.66,2.23,2.23,0,0,0,79.27,83.14ZM70.54,83h.81l1.42-5.15h0L74.24,83h.81l1.77-6.46H76l-1.35,5.26h-.06l-1.37-5.26h-.89L71,81.84h-.06l-1.35-5.26h-.8Z"/><path class="cls-7" d="M74.73,99.13a2.94,2.94,0,0,1-1.65-.5A3,3,0,0,1,72,97.3a3,3,0,0,1-.17-1.71,3,3,0,0,1,2.34-2.33,3,3,0,0,1,3.06,1.26,2.94,2.94,0,0,1,.27,2.78,2.89,2.89,0,0,1-1.61,1.61A2.79,2.79,0,0,1,74.73,99.13Zm6.08-9.41-.53-.48,0,0c-.18-.15-.38-.29-.58-.43l-.16-.11a2.26,2.26,0,0,0-.26-.16A9.26,9.26,0,0,0,74.38,87h-.22a9.22,9.22,0,0,0-9,9.22c0,4.41,6.22,12.26,8.49,15a1,1,0,0,0,.36.28,1,1,0,0,0,.46.1,1,1,0,0,0,.45-.1,1,1,0,0,0,.36-.28c2.23-2.71,8.31-10.49,8.31-14.91a9.16,9.16,0,0,0-2.79-6.57Z"/><path class="cls-2" d="M129.54,98.74V95.83h-1.36v2.91Zm-1.42.68h.74V98.06h-.74Zm-.69-5.52v4.84h1.37V93.9Zm1.41-.68h-.72v1.36h.72Zm.68,1.43V93.9h-1.37v.75ZM128.9,94h-.06v1.37h.06Zm1.41-.82a2.36,2.36,0,0,0-1.25.33,2,2,0,0,0-.78.89l1.24.57a.69.69,0,0,1,.25-.3,1.1,1.1,0,0,1,.54-.12Zm2.32,2.51a2.6,2.6,0,0,0-.64-1.84,2.25,2.25,0,0,0-1.68-.67v1.37a.89.89,0,0,1,.69.24,1.26,1.26,0,0,1,.27.9Zm0,3.08V95.66h-1.36v3.08Zm-1.42.68H132V98.06h-.74Zm-.69-3.71v3h1.37v-3Zm-.42-.52c.19,0,.27,0,.31.1a.65.65,0,0,1,.11.42h1.37a2,2,0,0,0-.48-1.35,1.74,1.74,0,0,0-1.31-.54Zm-.56.64a.69.69,0,0,1,.16-.5.51.51,0,0,1,.4-.14V93.82a1.92,1.92,0,0,0-1.38.55,2.08,2.08,0,0,0-.54,1.46Zm-.68,2.91v.68h.68v-.68Zm-.74,0h-.69v.68h.69Zm0-4.84v-.68h-.69v.68Zm.72,0h.68v-.68h-.68Zm0,.75h-.69v.69h.69Zm.06,0v.69h.44l.18-.4Zm3,4.09v.68h.68v-.68Zm-.74,0h-.69v.68h.69Zm-5.65-2.4a1.58,1.58,0,0,1-.23.89.6.6,0,0,1-.54.26v1.36a2,2,0,0,0,1.65-.83,2.88,2.88,0,0,0,.48-1.68Zm-.77-1.15a.61.61,0,0,1,.54.26,1.61,1.61,0,0,1,.23.89h1.36a2.92,2.92,0,0,0-.47-1.67,2,2,0,0,0-1.66-.85ZM124,96.34a1.53,1.53,0,0,1,.23-.89.6.6,0,0,1,.54-.26V93.82a2,2,0,0,0-1.66.85,2.92,2.92,0,0,0-.47,1.67Zm.77,1.15a.6.6,0,0,1-.54-.26,1.51,1.51,0,0,1-.23-.89h-1.36a3,3,0,0,0,.47,1.68,2,2,0,0,0,1.66.83Zm-2.88-1.15a3.37,3.37,0,0,0,.78,2.27,2.74,2.74,0,0,0,2.1.91V98.16a1.4,1.4,0,0,1-1.08-.46,2,2,0,0,1-.43-1.36Zm2.88-3.19a2.74,2.74,0,0,0-2.1.92,3.38,3.38,0,0,0-.78,2.27h1.37a2.07,2.07,0,0,1,.43-1.37,1.39,1.39,0,0,1,1.08-.45Zm2.87,3.19a3.43,3.43,0,0,0-.77-2.27,2.74,2.74,0,0,0-2.1-.92v1.37a1.35,1.35,0,0,1,1.07.45,2,2,0,0,1,.44,1.37Zm-2.87,3.18a2.74,2.74,0,0,0,2.1-.91,3.41,3.41,0,0,0,.77-2.27H126.3a2,2,0,0,1-.44,1.36,1.36,1.36,0,0,1-1.07.46Zm-4.91-6.93a1.2,1.2,0,0,0,1.21,1.18V92.41a.13.13,0,0,1,.1,0,.18.18,0,0,1,.06.14Zm1.21-1.19a1.2,1.2,0,0,0-1.21,1.19h1.37a.2.2,0,0,1-.06.14.18.18,0,0,1-.1,0Zm1.22,1.19a1.21,1.21,0,0,0-1.22-1.19v1.37a.15.15,0,0,1-.09,0,.2.2,0,0,1-.06-.14Zm-1.22,1.18a1.2,1.2,0,0,0,1.22-1.18h-1.37a.18.18,0,0,1,.06-.14.11.11,0,0,1,.09,0ZM120,93.9v4.84h1.37V93.9Zm1.43-.68h-.74v1.36h.74Zm.68,5.52V93.9h-1.36v4.84Zm-1.42.68h.74V98.06h-.74Zm0-5.52v-.68H120v.68Zm.74,0h.68v-.68h-.68Zm0,4.84v.68h.68v-.68Zm-.74,0H120v.68h.69Zm-3.77,0V95.83h-1.36v2.91Zm-1.43.68h.75V98.06h-.75Zm-.68-5.52v4.84h1.37V93.9Zm1.4-.68h-.72v1.36h.72Zm.69,1.43V93.9h-1.37v.75Zm-.62-.68h-.07v1.37h.07Zm1.41-.82a2.33,2.33,0,0,0-1.25.33,1.91,1.91,0,0,0-.78.89l1.24.57a.63.63,0,0,1,.25-.3,1.1,1.1,0,0,1,.54-.12ZM120,95.66a2.6,2.6,0,0,0-.64-1.84,2.26,2.26,0,0,0-1.68-.67v1.37a.89.89,0,0,1,.69.24,1.27,1.27,0,0,1,.26.9Zm0,3.08V95.66h-1.37v3.08Zm-1.43.68h.75V98.06h-.75Zm-.68-3.71v3h1.37v-3Zm-.43-.52c.19,0,.28,0,.31.1a.58.58,0,0,1,.12.42h1.37a2,2,0,0,0-.48-1.35,1.76,1.76,0,0,0-1.32-.54Zm-.55.64a.64.64,0,0,1,.16-.5.49.49,0,0,1,.39-.14V93.82a1.91,1.91,0,0,0-1.37.55,2,2,0,0,0-.54,1.46Zm-.68,2.91v.68H117v-.68Zm-.75,0h-.68v.68h.68Zm0-4.84v-.68h-.68v.68Zm.72,0h.69v-.68h-.69Zm0,.75h-.68v.69h.68Zm.07,0v.69h.43l.19-.4Zm3,4.09v.68H120v-.68Zm-.75,0h-.68v.68h.68ZM112.74,97a.47.47,0,0,1-.14.33.74.74,0,0,1-.54.18v1.37a1.93,1.93,0,0,0,2-1.88Zm0-.68V97h1.37v-.68Zm-.52,1c.15,0,.46-.05.75-.1a3.48,3.48,0,0,0,.44-.1l.23-.08a.88.88,0,0,0,.31-.24l-1-.87a.44.44,0,0,1,.11-.1s0,0,0,0h0l-.28.06c-.25,0-.52.08-.68.1Zm-.5.14s0,0,0,0,0,0,0,0l.17-.07.33-.06-.18-1.35a2.54,2.54,0,0,0-1,.32,1.33,1.33,0,0,0-.65,1.17Zm.34.1a.58.58,0,0,1-.33-.07h0s0,0,0,0h-1.36a1.37,1.37,0,0,0,.57,1.14,1.94,1.94,0,0,0,1.13.33Zm-2.45-.13a2.09,2.09,0,0,0,.72,1.61,2.49,2.49,0,0,0,1.62.56V98.17a1.11,1.11,0,0,1-.73-.23.68.68,0,0,1-.24-.57Zm2.48-2.11a4.27,4.27,0,0,0-1.53.43,1.75,1.75,0,0,0-.68.65,2,2,0,0,0-.27,1H111a.67.67,0,0,1,.07-.33.54.54,0,0,1,.19-.17,3.13,3.13,0,0,1,1-.25Zm.65.24a.4.4,0,0,1,.12-.27c.09-.09.16-.09.1-.08l-.3,0-.57.06.17,1.36.56-.07a3.7,3.7,0,0,0,.48-.08,1.11,1.11,0,0,0,.54-.29,1,1,0,0,0,.27-.68Zm0,0v0h1.37v0Zm-.34-.3c.23,0,.29.06.29.06a.4.4,0,0,1,0,.24h1.37a1.66,1.66,0,0,0-.46-1.21,1.74,1.74,0,0,0-1.25-.45Zm-.64.34a.56.56,0,0,1,.19-.22.74.74,0,0,1,.45-.12V93.81a2,2,0,0,0-1.88,1.12Zm-1.55.1.7.25.46-1.28-.71-.25Zm2.17-2.46a2.64,2.64,0,0,0-2.57,1.55l1.25.54a1.31,1.31,0,0,1,1.32-.72Zm2.47,2.4a2.25,2.25,0,0,0-1-2,2.8,2.8,0,0,0-1.49-.39v1.37a1.49,1.49,0,0,1,.76.17c.15.1.34.3.34.86Zm0,3.19V95.55h-1.37v3.19Zm-1.43.68h.75V98.06h-.75Zm-.68-1.34v.66h1.37v-.66Zm.65.69h0V97.4h0Zm-1.44.77a2.2,2.2,0,0,0,2-1.16l-1.23-.59a.88.88,0,0,1-.82.38Zm1.47-3.23h.69V94.42l-1.21,1.45Zm-1.28.27-.08-.67h0Zm0-.64-.08-.68h0Zm-1-.72-.23.64.59.21.26-.56Zm-.7-.25-.63-.27-.29.67.69.24Zm3.73,3.77v.68h.68v-.68Zm-.75,0h-.68v.68h.68Zm0-.66h.69V97.4h-.69Zm0,0V97.4H113l-.19.39Zm-6.16-.59a.52.52,0,0,1-.47-.23,1.6,1.6,0,0,1-.23-.94h-1.37a3,3,0,0,0,.49,1.74,1.9,1.9,0,0,0,1.58.79Zm.73-1.17a1.65,1.65,0,0,1-.23.92.55.55,0,0,1-.5.25v1.36a1.92,1.92,0,0,0,1.62-.82,3,3,0,0,0,.48-1.71Zm-.73-1.13a.56.56,0,0,1,.51.24,1.5,1.5,0,0,1,.22.89h1.37a2.93,2.93,0,0,0-.48-1.69,1.92,1.92,0,0,0-1.62-.81Zm-.7,1.13a1.53,1.53,0,0,1,.22-.91.53.53,0,0,1,.48-.22V93.82a1.9,1.9,0,0,0-1.58.78,2.89,2.89,0,0,0-.49,1.72Zm-2.1-2.42v6.65h1.37V93.9Zm1.4-.68h-.71v1.36h.71Zm.69,1.45V93.9h-1.37v.77Zm-.6-.69h-.09v1.37h.09Zm1.4-.83a2.17,2.17,0,0,0-1.43.48,2.43,2.43,0,0,0-.54.67l1.14.74a1.41,1.41,0,0,1,.28-.36.8.8,0,0,1,.55-.16Zm2.75,3.18a3.48,3.48,0,0,0-.73-2.26,2.59,2.59,0,0,0-2-.92v1.37a1.22,1.22,0,0,1,1,.43,2.1,2.1,0,0,1,.42,1.38Zm-2.74,3.19a2.57,2.57,0,0,0,2-.92,3.47,3.47,0,0,0,.73-2.27h-1.36a2.16,2.16,0,0,1-.42,1.4,1.21,1.21,0,0,1-1,.43Zm-2-1.17a2.47,2.47,0,0,0,.57.69,2.14,2.14,0,0,0,1.42.48V98.16a.84.84,0,0,1-.56-.17,1.46,1.46,0,0,1-.27-.35Zm.52.33h.06V97.31h-.06Zm.68,1.87V98h-1.36v2.55Zm-1.42.69h.74V99.87h-.74Zm0-7.34v-.68h-.69v.68Zm.71,0h.69v-.68h-.69Zm0,.77h-.68v.68h.68Zm.09,0v.68h.37l.2-.31Zm0,3.33.58-.36-.2-.33h-.38Zm-.06,0v-.69h-.68V98Zm0,2.55v.69h.68v-.69Zm-.74,0h-.69v.69h.69Zm-8.4-6.65v4.84h1.36V93.9Zm1.4-.68H97.4v1.36h.72Zm.68,1.43V93.9H97.44v.75ZM98.18,94h-.06v1.37h.06Zm1.3-.82a2,2,0,0,0-1.93,1.26l1.27.49a.63.63,0,0,1,.66-.38Zm1.92,1.22a2.08,2.08,0,0,0-.75-.89,2.13,2.13,0,0,0-1.17-.33v1.37a.84.84,0,0,1,.43.1.72.72,0,0,1,.25.32Zm-.57-.4h0v1.37h0Zm1.45-.82a2.21,2.21,0,0,0-2.06,1.2l1.22.61a.86.86,0,0,1,.84-.44Zm2.16,2.35a2.47,2.47,0,0,0-.6-1.73,2.11,2.11,0,0,0-1.56-.62v1.37a.74.74,0,0,1,.57.19,1.15,1.15,0,0,1,.22.79Zm0,3.24V95.5h-1.37v3.24Zm-1.43.68h.75V98.06H103Zm-.68-3.92v3.24h1.36V95.5Zm-.3-.31a.48.48,0,0,1,.24,0s0,0,0,.06a.58.58,0,0,1,0,.2h1.36a1.65,1.65,0,0,0-.52-1.28,1.7,1.7,0,0,0-1.14-.4Zm-.39.4a.47.47,0,0,1,.09-.31.4.4,0,0,1,.3-.09V93.82a1.73,1.73,0,0,0-1.29.52,1.8,1.8,0,0,0-.47,1.25Zm0,3.15V95.59h-1.37v3.15Zm-1.44.68H101V98.06h-.76Zm-.68-4v3.32h1.36V95.42Zm-.28-.23a.33.33,0,0,1,.22.06.23.23,0,0,1,.06.17h1.36a1.57,1.57,0,0,0-.48-1.16,1.65,1.65,0,0,0-1.16-.44Zm-.41.52a.46.46,0,0,1,.41-.52V93.82a1.84,1.84,0,0,0-1.78,1.89Zm0,3v-3H97.46v3Zm-1.43.68h.75V98.06H97.4Zm0-5.52v-.68h-.68v.68Zm.72,0h.68v-.68h-.68Zm0,.75h-.68v.69h.68Zm.06,0v.69h.47l.17-.44Zm2.6,0-.62.29.18.4h.44Zm0,0v.69h.42l.19-.38Zm2.93,4.09v.68h.68v-.68Zm-.75,0h-.68v.68H103Zm-2.05,0v.68h.68v-.68Zm-.76,0h-.68v.68h.68Zm-2,0v.68h.68v-.68Zm-.75,0h-.68v.68h.68Zm-2.56-2.4a1.51,1.51,0,0,1-.23.89.6.6,0,0,1-.54.26v1.36A2,2,0,0,0,95.73,98a3,3,0,0,0,.48-1.68Zm-.77-1.15a.6.6,0,0,1,.54.26,1.53,1.53,0,0,1,.23.89h1.37a2.93,2.93,0,0,0-.48-1.67,2,2,0,0,0-1.66-.85Zm-.76,1.15a1.61,1.61,0,0,1,.22-.89.62.62,0,0,1,.54-.26V93.82a1.93,1.93,0,0,0-1.65.85,2.85,2.85,0,0,0-.48,1.67Zm.76,1.15a.6.6,0,0,1-.54-.26,1.59,1.59,0,0,1-.22-.89H91.94A2.88,2.88,0,0,0,92.42,98a2,2,0,0,0,1.65.83ZM91.2,96.34A3.41,3.41,0,0,0,92,98.61a2.74,2.74,0,0,0,2.1.91V98.16A1.36,1.36,0,0,1,93,97.7a2,2,0,0,1-.44-1.36Zm2.87-3.19a2.74,2.74,0,0,0-2.1.92,3.43,3.43,0,0,0-.77,2.27h1.36A2,2,0,0,1,93,95a1.35,1.35,0,0,1,1.07-.45ZM97,96.34a3.38,3.38,0,0,0-.78-2.27,2.74,2.74,0,0,0-2.1-.92v1.37a1.39,1.39,0,0,1,1.08.45,2.07,2.07,0,0,1,.43,1.37Zm-2.88,3.18a2.74,2.74,0,0,0,2.1-.91A3.37,3.37,0,0,0,97,96.34H95.58a2,2,0,0,1-.43,1.36,1.4,1.4,0,0,1-1.08.46ZM90.16,95h.78V93.62h-.78Zm-1.81-1.37a1.07,1.07,0,0,1,1.14.83l1.34-.28a2.42,2.42,0,0,0-2.48-1.91Zm-1.41,1.9A2.18,2.18,0,0,1,87.38,94a1.23,1.23,0,0,1,1-.43V92.25a2.61,2.61,0,0,0-2,.9,3.56,3.56,0,0,0-.77,2.36Zm1.41,1.9a1.25,1.25,0,0,1-1-.42,2.21,2.21,0,0,1-.44-1.48H85.57a3.61,3.61,0,0,0,.77,2.37,2.64,2.64,0,0,0,2,.9Zm1.14-.83a1.06,1.06,0,0,1-1.14.83v1.37a2.43,2.43,0,0,0,2.48-1.92ZM90.94,96h-.78V97.4h.78Zm-2.59,3.47a3.21,3.21,0,0,0,3.27-2.67l-1.35-.24a1.82,1.82,0,0,1-1.92,1.54Zm-3.53-4a4.32,4.32,0,0,0,1,2.88,3.34,3.34,0,0,0,2.56,1.12V98.14a2,2,0,0,1-1.53-.66,2.88,2.88,0,0,1-.64-2Zm3.53-4a3.35,3.35,0,0,0-2.56,1.13,4.29,4.29,0,0,0-1,2.87h1.36a2.9,2.9,0,0,1,.64-2,2,2,0,0,1,1.53-.66Zm3.27,2.67a3.21,3.21,0,0,0-3.27-2.67v1.37a1.83,1.83,0,0,1,1.92,1.54Zm-1.46.12-.67.14.12.54h.55Zm0,2.42V96h-.55l-.12.54Zm.78,0,.68.12.14-.8h-.82Zm0-2.42V95h.82l-.14-.8Z"/><path class="cls-1" d="M128.86,95.83a1.2,1.2,0,0,1,1.24-1.33,1.07,1.07,0,0,1,1.11,1.21v3H132V95.66c0-1.23-.66-1.82-1.64-1.82a1.43,1.43,0,0,0-1.41.81h-.06V93.9h-.72v4.84h.74Zm-4.07,2.34c-1,0-1.45-.86-1.45-1.83s.45-1.84,1.45-1.84,1.45.87,1.45,1.84S125.78,98.17,124.79,98.17Zm0,.67a2.52,2.52,0,1,0-2.2-2.5A2.23,2.23,0,0,0,124.79,98.84Zm-3.7-5.75a.51.51,0,1,0-.53-.5A.52.52,0,0,0,121.09,93.09Zm-.37,5.65h.74V93.9h-.74Zm-4.45-2.91a1.2,1.2,0,0,1,1.23-1.33,1.07,1.07,0,0,1,1.11,1.21v3h.75V95.66c0-1.23-.66-1.82-1.64-1.82a1.42,1.42,0,0,0-1.41.81h-.07V93.9h-.72v4.84h.75Zm-4.21,2.35c-.59,0-1-.26-1-.78s.52-.74,1.1-.82a3.64,3.64,0,0,0,1.28-.27V97A1.24,1.24,0,0,1,112.06,98.18Zm-.11.67a1.53,1.53,0,0,0,1.44-.77h0v.66h.75V95.55a1.59,1.59,0,0,0-1.79-1.71A2,2,0,0,0,110.44,95l.7.25a1.32,1.32,0,0,1,1.26-.73.89.89,0,0,1,1,1v0c0,.36-.36.33-1.25.44s-1.87.32-1.87,1.43A1.49,1.49,0,0,0,112,98.85Zm-6.1-2.53c0-1.09.48-1.82,1.38-1.82s1.42.8,1.42,1.82-.48,1.85-1.42,1.85S105.85,97.42,105.85,96.32Zm-.73,4.23h.74V98h.06a1.51,1.51,0,0,0,1.41.84c1.21,0,2.06-1,2.06-2.51s-.85-2.49-2.07-2.49a1.49,1.49,0,0,0-1.4.83h-.09V93.9h-.71ZM97.4,98.74h.75v-3a1.14,1.14,0,0,1,1.09-1.21.89.89,0,0,1,1,.92v3.32H101V95.59A1,1,0,0,1,102,94.5a.9.9,0,0,1,1,1v3.24h.75V95.5c0-1.14-.62-1.66-1.48-1.66a1.53,1.53,0,0,0-1.45.81h0a1.33,1.33,0,0,0-1.3-.81,1.32,1.32,0,0,0-1.3.81h-.06V93.9H97.4Zm-3.33-.57c-1,0-1.45-.86-1.45-1.83s.46-1.84,1.45-1.84,1.45.87,1.45,1.84S95.07,98.17,94.07,98.17Zm0,.67a2.52,2.52,0,1,0-2.19-2.5A2.24,2.24,0,0,0,94.07,98.84ZM90.94,94.3a2.5,2.5,0,0,0-2.59-2.1c-1.65,0-2.85,1.27-2.85,3.31s1.2,3.32,2.85,3.32a2.5,2.5,0,0,0,2.59-2.11h-.78a1.76,1.76,0,0,1-1.81,1.38c-1.17,0-2.09-.91-2.09-2.59s.92-2.58,2.09-2.58a1.76,1.76,0,0,1,1.81,1.37Z"/><path class="cls-8" d="M42.64,121.66a3,3,0,0,1-1.65-.5,3,3,0,0,1-1.26-3,2.95,2.95,0,0,1,2.34-2.33,3,3,0,0,1,3,1.26,2.91,2.91,0,0,1,.28,2.78,2.95,2.95,0,0,1-2.76,1.83Zm6.08-9.41a4.88,4.88,0,0,0-.53-.48l0,0c-.18-.15-.37-.29-.57-.43l-.17-.11-.25-.16a9.32,9.32,0,0,0-4.85-1.5h-.23a9.27,9.27,0,0,0-6.37,2.79,9.15,9.15,0,0,0-2.61,6.43c0,4.41,6.22,12.26,8.48,15a1,1,0,0,0,.37.29,1.06,1.06,0,0,0,.9,0,1,1,0,0,0,.37-.29c2.22-2.7,8.31-10.49,8.31-14.91a9.11,9.11,0,0,0-.73-3.56A9,9,0,0,0,48.72,112.25Z"/><path class="cls-1" d="M98.08,120.7c-1,0-1.45-.86-1.45-1.83s.45-1.84,1.45-1.84,1.45.87,1.45,1.84S99.07,120.7,98.08,120.7Zm0,.67a2.53,2.53,0,1,0-2.2-2.5A2.23,2.23,0,0,0,98.08,121.37Zm-3.7-5.75a.51.51,0,1,0-.53-.5A.52.52,0,0,0,94.38,115.62ZM94,121.27h.75v-4.84H94Zm-1.9,0a.57.57,0,1,0-.57-.57A.58.58,0,0,0,92.1,121.32Zm-1.75-3.81a1.63,1.63,0,0,0-1.71-1.15c-1,0-1.78.58-1.78,1.4,0,.67.4,1.12,1.29,1.33l.8.19c.49.11.72.34.72.68s-.44.75-1.13.75a1,1,0,0,1-1.13-.78l-.7.18a1.66,1.66,0,0,0,1.84,1.26c1.12,0,1.89-.62,1.89-1.45s-.42-1.1-1.29-1.31l-.71-.18c-.58-.14-.84-.33-.84-.7s.44-.72,1-.72a1,1,0,0,1,1,.69Zm-4.27-1.08H85v-.49c0-.48.2-.74.69-.74a1,1,0,0,1,.41.08l.22-.64a1.71,1.71,0,0,0-.71-.13,1.26,1.26,0,0,0-1.36,1.25v.67h-.78v.63h.78v4.21H85v-4.21h1.08Zm-6.83,2.42c0-1.09.48-1.82,1.38-1.82s1.42.8,1.42,1.82-.48,1.85-1.42,1.85S79.25,119.94,79.25,118.85Zm-.73,4.23h.74v-2.56h.06a1.5,1.5,0,0,0,1.41.85c1.21,0,2.06-1,2.06-2.51s-.85-2.5-2.07-2.5a1.48,1.48,0,0,0-1.4.84h-.09v-.77h-.71Zm-1.73-7.46a.51.51,0,1,0-.53-.5A.52.52,0,0,0,76.79,115.62Zm-.38,5.65h.74v-4.84h-.74Zm-1.9,0a.57.57,0,1,0-.57-.57A.58.58,0,0,0,74.51,121.32Zm-1.75-3.81A1.64,1.64,0,0,0,71,116.36c-1,0-1.77.58-1.77,1.4,0,.67.39,1.12,1.28,1.33l.81.19c.49.11.72.34.72.68s-.44.75-1.14.75a1,1,0,0,1-1.12-.78l-.71.18A1.68,1.68,0,0,0,71,121.37c1.12,0,1.89-.62,1.89-1.45s-.43-1.1-1.29-1.31l-.72-.18c-.57-.14-.83-.33-.83-.7s.44-.72,1-.72a1,1,0,0,1,1,.69Zm-6.42,3.86a1.79,1.79,0,0,0,1.9-1.51H67.5a1.12,1.12,0,0,1-1.16.84c-.88,0-1.45-.73-1.45-1.85s.58-1.82,1.45-1.82a1.15,1.15,0,0,1,1.16.85h.74a1.8,1.8,0,0,0-1.91-1.52,2.53,2.53,0,0,0,0,5ZM61,120.7c-1,0-1.45-.86-1.45-1.83S60.05,117,61,117s1.45.87,1.45,1.84S62,120.7,61,120.7Zm0,.67a2.53,2.53,0,1,0-2.19-2.5A2.24,2.24,0,0,0,61,121.37Zm-5.55-.67c-.93,0-1.41-.82-1.41-1.85s.47-1.82,1.41-1.82,1.39.73,1.39,1.82S56.39,120.7,55.49,120.7Zm-.1.67a1.49,1.49,0,0,0,1.41-.85h.09v.75h.72v-6.46h-.74v2.39H56.8a1.46,1.46,0,0,0-1.4-.84c-1.22,0-2.06,1-2.06,2.5S54.18,121.37,55.39,121.37Z"/><path class="cls-8" d="M10.56,47.93a2.91,2.91,0,0,1-1.65-.5,3,3,0,0,1-1.1-1.33,3,3,0,0,1-.17-1.71,3,3,0,0,1,.82-1.52,3,3,0,0,1,4.58.45,3,3,0,0,1,.5,1.65,2.93,2.93,0,0,1-.23,1.13,2.89,2.89,0,0,1-1.61,1.61A3,3,0,0,1,10.56,47.93Zm6.08-9.41c-.17-.17-.35-.32-.53-.48l-.05,0-.58-.43-.16-.11a2.26,2.26,0,0,0-.26-.16,9.26,9.26,0,0,0-4.85-1.5H10A9.29,9.29,0,0,0,3.61,38.6,9.2,9.2,0,0,0,1,45c0,4.41,6.22,12.26,8.49,15a1,1,0,0,0,.36.29,1,1,0,0,0,.45.1,1,1,0,0,0,.46-.1,1,1,0,0,0,.36-.29c2.23-2.7,8.31-10.48,8.31-14.91a9.16,9.16,0,0,0-2.79-6.56Z"/><path class="cls-1" d="M81.21,42.7H82a2.25,2.25,0,0,0-4.39.1c0,.87.63,1.39,1.64,1.68l.79.22c.68.19,1.29.43,1.29,1.07S80.62,47,79.72,47s-1.45-.34-1.51-1.08H77.4c.08,1.06.93,1.78,2.32,1.78s2.33-.82,2.33-1.86c0-1.21-1.14-1.6-1.81-1.78l-.66-.18c-.48-.12-1.25-.38-1.25-1.07s.57-1.07,1.43-1.07S81.13,42.06,81.21,42.7Zm-8.74,4.84h.78V44.65h2.8V44h-2.8V41.78h3.09v-.7H72.47Zm-4.85-3V41.78H69c1.05,0,1.45.57,1.45,1.35A1.26,1.26,0,0,1,69,44.49Zm-.78,3h.78V45.18H69a2.05,2.05,0,1,0,0-4.1H66.84Zm-1.57-6.46h-.78v6.46h.78Zm-8,3.65a1.44,1.44,0,0,1,1.43-1.43A1.31,1.31,0,0,1,60,44.73Zm1.51,2.91a1.87,1.87,0,0,0,1.92-1.22L60,46.21a1.18,1.18,0,0,1-1.21.76,1.46,1.46,0,0,1-1.51-1.6h3.51v-.31c0-1.81-1.07-2.43-2.08-2.43a2.26,2.26,0,0,0-2.18,2.53A2.23,2.23,0,0,0,58.76,47.64ZM49,47.54h.75v-3a1.14,1.14,0,0,1,1.09-1.21.89.89,0,0,1,1,.92v3.32h.76V44.39a1,1,0,0,1,1.07-1.09.9.9,0,0,1,1,1v3.24h.75V44.3c0-1.14-.62-1.67-1.48-1.67a1.54,1.54,0,0,0-1.45.82h0a1.34,1.34,0,0,0-1.3-.82,1.32,1.32,0,0,0-1.3.82h-.06V42.7H49ZM45.68,47c-1,0-1.45-.86-1.45-1.83s.46-1.84,1.45-1.84,1.45.87,1.45,1.84S46.68,47,45.68,47Zm0,.67a2.24,2.24,0,0,0,2.2-2.5,2.21,2.21,0,1,0-4.39,0A2.23,2.23,0,0,0,45.68,47.64Zm-3.17-3.86a1.63,1.63,0,0,0-1.71-1.15c-1,0-1.78.58-1.78,1.4s.39,1.12,1.28,1.33l.81.19c.49.11.72.34.72.68s-.44.75-1.14.75a1,1,0,0,1-1.12-.78l-.7.18a1.66,1.66,0,0,0,1.84,1.26c1.12,0,1.89-.62,1.89-1.45,0-.67-.42-1.1-1.29-1.31l-.72-.18c-.57-.14-.83-.33-.83-.7s.44-.72,1-.72a1,1,0,0,1,1,.69Zm-8.07.95a1.44,1.44,0,0,1,1.43-1.43,1.31,1.31,0,0,1,1.32,1.43Zm1.5,2.91a1.87,1.87,0,0,0,1.93-1.22l-.72-.21a1.17,1.17,0,0,1-1.21.76,1.46,1.46,0,0,1-1.5-1.6H38v-.31c0-1.81-1.07-2.43-2.08-2.43a2.26,2.26,0,0,0-2.18,2.53A2.22,2.22,0,0,0,35.94,47.64Zm-8-.1h.73l1.06-3.72h.07l1.06,3.72h.73L33.1,42.7h-.78l-1.05,3.69h-.05l-1-3.69h-.8l-1,3.7h-.05l-1.05-3.7h-.78ZM22.74,45l1-2.91h.05l1,2.91Zm-.9,2.52.65-1.83H25.1l.65,1.83h.82L24.2,41.08h-.81L21,47.54Z"/></g></g></svg>