<svg xmlns="http://www.w3.org/2000/svg" viewBox="0 0 411.65 417.8"><defs><style>.cls-1{fill:#fff;}.cls-2{fill:#808492;}.cls-3{fill:#b7bbc8;}.cls-4{fill:#398186;}.cls-5{fill:#6bc4cd;}.cls-6{fill:#010101;}</style></defs><g id="Layer_2" data-name="Layer 2"><g id="Layer_1-2" data-name="Layer 1"><rect class="cls-1" x="2.05" y="8.19" width="409.61" height="409.61"/><path class="cls-2" d="M52.4,411.19l1.5-1.72H47.76v-.55h6.13L52.4,407.2H53l1.77,2-1.77,2Zm-13.1-2.82A1.24,1.24,0,0,0,38,409.44h2.54a1.2,1.2,0,0,0-.42-.77A1.24,1.24,0,0,0,39.3,408.37ZM42,409.91s0,.15,0,.4H38a1.24,1.24,0,0,0,.5.76,1.69,1.69,0,0,0,1,.27,2.14,2.14,0,0,0,.7-.11,1.8,1.8,0,0,0,.59-.38l.79.86a2.67,2.67,0,0,1-2.12.83,3.3,3.3,0,0,1-1.54-.34,2.48,2.48,0,0,1-1-.94,2.54,2.54,0,0,1-.37-1.37,2.61,2.61,0,0,1,.36-1.36,2.53,2.53,0,0,1,1-.94,2.89,2.89,0,0,1,1.41-.35,2.79,2.79,0,0,1,1.36.33,2.32,2.32,0,0,1,1,.93A2.81,2.81,0,0,1,42,409.91Zm-8.53-2.67a2,2,0,0,1,1.53.58,2.28,2.28,0,0,1,.57,1.7v2.94H34v-2.71a1.32,1.32,0,0,0-.26-.91.87.87,0,0,0-.71-.31,1.05,1.05,0,0,0-.83.35,1.39,1.39,0,0,0-.31,1v2.58H30.44v-2.71c0-.81-.33-1.22-1-1.22a1.06,1.06,0,0,0-.82.35,1.44,1.44,0,0,0-.3,1v2.58H26.85v-5.14h1.42v.59a1.85,1.85,0,0,1,.7-.49,2.36,2.36,0,0,1,1.9,0,1.77,1.77,0,0,1,.71.62,2.21,2.21,0,0,1,.79-.62A2.64,2.64,0,0,1,33.43,407.24Zm-8.71-.64a.93.93,0,0,1-.67-.24.77.77,0,0,1-.26-.59.79.79,0,0,1,.26-.59.93.93,0,0,1,.67-.24,1,1,0,0,1,.67.23.72.72,0,0,1,.25.57.81.81,0,0,1-.25.62A1,1,0,0,1,24.72,406.6Zm-.75.72h1.49v5.14H24Zm-4.3-.29H17.52v-1.26h5.84V407H21.21v5.43H19.67Z"/><path class="cls-2" d="M8.66,410.81l1.72,1.5v-6.15h.55v6.14l1.71-1.49v.64l-2,1.77-2-1.77Zm2.81-10.61a1.28,1.28,0,0,0-.28-.85,1.2,1.2,0,0,0-.79-.42v2.53a1.2,1.2,0,0,0,.78-.42A1.23,1.23,0,0,0,11.47,400.2Zm-1.53,2.67-.41,0V399a1.22,1.22,0,0,0-.75.5,1.59,1.59,0,0,0-.28,1,1.92,1.92,0,0,0,.12.71,1.76,1.76,0,0,0,.38.58l-.86.8a2.67,2.67,0,0,1-.83-2.13,3.38,3.38,0,0,1,.33-1.53,2.59,2.59,0,0,1,1-1,2.62,2.62,0,0,1,1.37-.36,2.66,2.66,0,0,1,1.35.35,2.51,2.51,0,0,1,.95,1,2.87,2.87,0,0,1,.34,1.4,2.94,2.94,0,0,1-.32,1.37,2.35,2.35,0,0,1-.94,1A2.77,2.77,0,0,1,9.94,402.87Zm-2.63-8.39a5.28,5.28,0,0,1,.15-1.25,3.29,3.29,0,0,1,.4-1l1.07.49a3.66,3.66,0,0,0-.36.84,3.51,3.51,0,0,0-.13,1c0,.63.15.95.46.95a.33.33,0,0,0,.32-.26,3.82,3.82,0,0,0,.16-.79,9.88,9.88,0,0,1,.22-1.05,1.61,1.61,0,0,1,.44-.71,1.25,1.25,0,0,1,.9-.3,1.39,1.39,0,0,1,.86.28,1.83,1.83,0,0,1,.59.82,3.54,3.54,0,0,1,.21,1.28,5,5,0,0,1-.12,1.08,3.14,3.14,0,0,1-.33.9l-1.06-.5a2.89,2.89,0,0,0,.38-1.48,1.52,1.52,0,0,0-.13-.72.4.4,0,0,0-.34-.23.35.35,0,0,0-.34.25,5.51,5.51,0,0,0-.18.83,8.66,8.66,0,0,1-.23,1,1.47,1.47,0,0,1-.43.7,1.26,1.26,0,0,1-.88.29,1.36,1.36,0,0,1-.85-.28,1.92,1.92,0,0,1-.58-.85A3.59,3.59,0,0,1,7.31,394.48Zm5.93-3.85a.93.93,0,0,1,.24-.67.81.81,0,0,1,1.19,0,.93.93,0,0,1,.24.67,1,1,0,0,1-.23.66.73.73,0,0,1-.58.26.8.8,0,0,1-.62-.26A.92.92,0,0,1,13.24,390.63Zm-.71-.75v1.49H7.38v-1.49ZM7.63,389a1.59,1.59,0,0,1-.25-.54,2.87,2.87,0,0,1-.07-.67,2,2,0,0,1,.47-1.42,1.76,1.76,0,0,1,1.37-.5h2.11v-.8h1.15v.8h1.25v1.49H12.41v1.28H11.26V387.4H9.17a.7.7,0,0,0-.5.16.65.65,0,0,0-.18.48,1,1,0,0,0,.19.6Zm4.22-6.15a1.68,1.68,0,0,1,.56.72,2.69,2.69,0,0,1,.19,1.05H11.23c0-.16,0-.27,0-.33a1.39,1.39,0,0,0-.37-1A1.43,1.43,0,0,0,9.81,383H7.38v-1.49h5.15v1.42Zm-.38-5.08a1.28,1.28,0,0,0-.28-.85,1.2,1.2,0,0,0-.79-.42v2.53a1.2,1.2,0,0,0,.78-.42A1.23,1.23,0,0,0,11.47,377.81Zm-1.53,2.67-.41,0v-3.89a1.22,1.22,0,0,0-.75.5,1.59,1.59,0,0,0-.28,1,2,2,0,0,0,.12.71,1.76,1.76,0,0,0,.38.58l-.86.79A2.64,2.64,0,0,1,7.31,378a3.45,3.45,0,0,1,.33-1.54,2.56,2.56,0,0,1,1-1,2.62,2.62,0,0,1,1.37-.36,2.66,2.66,0,0,1,1.35.35,2.45,2.45,0,0,1,.95,1,2.87,2.87,0,0,1,.34,1.4,2.94,2.94,0,0,1-.32,1.37,2.32,2.32,0,0,1-.94.95A2.68,2.68,0,0,1,9.94,380.48Zm-1.41-8.86a1.24,1.24,0,0,0,.38.94,1.45,1.45,0,0,0,1.05.37,1.42,1.42,0,0,0,1-.37,1.21,1.21,0,0,0,.39-.94,1.24,1.24,0,0,0-.39-.94,1.46,1.46,0,0,0-1-.37,1.49,1.49,0,0,0-1.05.37A1.27,1.27,0,0,0,8.53,371.62Zm4.07.26a2.59,2.59,0,0,1-.33,1.3,2.31,2.31,0,0,1-.93.93,2.79,2.79,0,0,1-1.38.33,2.87,2.87,0,0,1-1.4-.33,2.38,2.38,0,0,1-.93-.93,2.69,2.69,0,0,1-.32-1.3,2,2,0,0,1,.62-1.55H5.53v-1.49h7v1.43h-.6A2,2,0,0,1,12.6,371.88Zm-5.22-5.45L9,365.3l-1.58-1.17v-1.62l2.59,2,2.56-1.91v1.67L11,365.34l1.5,1.12V368L10,366.13l-2.63,2Zm1.25-4.33H7.38v-5.18h6.69V362H12.83v-3.51H11.38v3.1h-1.2v-3.1H8.63Z"/><rect class="cls-2" y="212.31" width="409.61" height="0.68"/><rect class="cls-2" x="204.8" y="8.19" width="0.68" height="409.61"/><path class="cls-3" d="M27.31,27.14a3,3,0,0,1-2.75-1.83,3,3,0,0,1-.17-1.71,3,3,0,0,1,2.34-2.33,3,3,0,0,1,3.06,1.26,3,3,0,0,1,.5,1.65,2.93,2.93,0,0,1-.23,1.13,2.89,2.89,0,0,1-1.61,1.61A2.79,2.79,0,0,1,27.31,27.14Zm6.08-9.41-.53-.48,0,0-.58-.43-.16-.11a2.26,2.26,0,0,0-.26-.16A9.26,9.26,0,0,0,27,15h-.23a9.22,9.22,0,0,0-9,9.22c0,4.41,6.22,12.26,8.49,15a1,1,0,0,0,.36.28,1,1,0,0,0,.45.11,1.07,1.07,0,0,0,.46-.11,1,1,0,0,0,.36-.28c2.23-2.71,8.31-10.49,8.31-14.91a9.16,9.16,0,0,0-2.79-6.57Z"/><path class="cls-3" d="M97.19,20.3h-.75v6.45h.75Zm-8.46,6.45h.74v-3a1.15,1.15,0,0,1,1.1-1.21.9.9,0,0,1,1,.92v3.32h.75V23.6a1,1,0,0,1,1.08-1.09.91.91,0,0,1,1,1v3.24h.74V23.51c0-1.14-.61-1.66-1.47-1.66a1.51,1.51,0,0,0-1.45.82h0a1.33,1.33,0,0,0-1.3-.82,1.3,1.3,0,0,0-1.3.82h-.06v-.76h-.72Zm-1.12-4.84h-1V20.75h-.75v1.16H85.1v.63h.73v3a1.24,1.24,0,0,0,1.31,1.25,1.51,1.51,0,0,0,.56-.09l-.15-.66a1.94,1.94,0,0,1-.33,0c-.33,0-.64-.1-.64-.73V22.54h1ZM81,23.84a1.21,1.21,0,0,1,1.27-1.33,1.07,1.07,0,0,1,1.12,1.21v3h.74V23.67c0-1.24-.66-1.82-1.65-1.82a1.39,1.39,0,0,0-1.42.82H81V20.3h-.75v6.45H81ZM79,23.64H76.13v.69H79Zm-6.81-1.73h-.86l1.54,2.42-1.54,2.42h.86l1.16-1.88,1.16,1.88h.86l-1.57-2.42,1.57-2.42h-.86l-1.16,2Zm-5.07,2a1.45,1.45,0,0,1,1.43-1.43,1.32,1.32,0,0,1,1.33,1.43Zm1.51,2.91a1.89,1.89,0,0,0,1.93-1.22l-.72-.2a1.19,1.19,0,0,1-1.21.75,1.47,1.47,0,0,1-1.51-1.6h3.51v-.31c0-1.81-1.07-2.42-2.08-2.42a2.25,2.25,0,0,0-2.18,2.52A2.23,2.23,0,0,0,68.58,26.85ZM63,26.18c-.94,0-1.41-.82-1.41-1.85S62,22.51,63,22.51s1.38.73,1.38,1.82S63.86,26.18,63,26.18Zm-.1.67A1.51,1.51,0,0,0,64.28,26h.09v.74h.72V20.3h-.75v2.38h-.06a1.49,1.49,0,0,0-1.4-.83c-1.22,0-2.07,1-2.07,2.49S61.66,26.85,62.87,26.85Zm-6.28-3a1.2,1.2,0,0,1,1.24-1.33,1.07,1.07,0,0,1,1.11,1.21v3h.74V23.67c0-1.23-.66-1.82-1.64-1.82a1.42,1.42,0,0,0-1.41.82h-.06v-.76h-.72v4.84h.74ZM54.12,21.1a.51.51,0,0,0,.53-.5.53.53,0,0,0-1.06,0A.51.51,0,0,0,54.12,21.1Zm-.38,5.65h.74V21.91h-.74Zm-1.31-3.11H49.61v.69h2.82Zm-5.72,3.11h.75V23.69a1.14,1.14,0,0,1,1.22-1.14,2.43,2.43,0,0,1,.45.05v-.75l-.39,0a1.32,1.32,0,0,0-1.26.81h0v-.73h-.72ZM45,21.1a.51.51,0,0,0,.53-.5.52.52,0,0,0-.53-.51.51.51,0,0,0-.52.51A.51.51,0,0,0,45,21.1Zm-.37,5.65h.74V21.91h-.74Zm-5.5-.69V21h1.25c1.51,0,2.28,1,2.28,2.52s-.77,2.55-2.37,2.55Zm1.21.69c2,0,3.08-1.22,3.08-3.24s-1.11-3.21-3-3.21H38.33v6.45Z"/><path class="cls-3" d="M10.92,12.13a3,3,0,0,1-1.65-.51A3,3,0,0,1,8,8.58a3,3,0,0,1,.81-1.52,3,3,0,0,1,3.25-.64A2.9,2.9,0,0,1,13.4,7.51,2.94,2.94,0,0,1,13,11.26a3,3,0,0,1-1,.64A2.94,2.94,0,0,1,10.92,12.13ZM17,2.71c-.16-.16-.34-.32-.53-.48l0,0c-.18-.15-.37-.29-.57-.43l-.17-.11-.25-.16A9.33,9.33,0,0,0,10.57,0h-.22a9.22,9.22,0,0,0-9,9.22c0,4.41,6.22,12.26,8.48,15a1,1,0,0,0,.37.28,1,1,0,0,0,.9,0,1,1,0,0,0,.37-.28C13.71,21.48,19.8,13.7,19.8,9.28a9.12,9.12,0,0,0-.73-3.57A9,9,0,0,0,17,2.71Z"/><path class="cls-3" d="M43.51,11.16c-1,0-1.45-.85-1.45-1.82s.45-1.85,1.45-1.85S45,8.36,45,9.34,44.51,11.16,43.51,11.16Zm0,.67A2.22,2.22,0,0,0,45.7,9.34a2.21,2.21,0,1,0-4.38,0A2.22,2.22,0,0,0,43.51,11.83ZM39.82,6.08a.51.51,0,0,0,.52-.5.51.51,0,0,0-.52-.51.52.52,0,0,0-.53.51A.51.51,0,0,0,39.82,6.08Zm-.38,5.65h.74V6.89h-.74Zm-1.91,0a.57.57,0,1,0-.56-.57A.56.56,0,0,0,37.53,11.78ZM35.79,8a1.64,1.64,0,0,0-1.72-1.14c-1,0-1.78.58-1.78,1.4,0,.66.4,1.11,1.29,1.32l.81.19c.48.11.71.35.71.68s-.44.76-1.13.76a1,1,0,0,1-1.12-.79l-.71.18A1.67,1.67,0,0,0,34,11.83c1.13,0,1.89-.61,1.89-1.45,0-.67-.42-1.1-1.28-1.31l-.72-.18c-.57-.14-.83-.33-.83-.7s.44-.72,1-.72a1,1,0,0,1,1,.69ZM31.51,6.89H30.43V6.4c0-.48.2-.73.69-.73a1.34,1.34,0,0,1,.42.07l.21-.64a1.69,1.69,0,0,0-.7-.13,1.25,1.25,0,0,0-1.36,1.25v.67H28.9v.63h.79v4.21h.74V7.52h1.08ZM24.68,9.31c0-1.08.48-1.82,1.39-1.82s1.41.8,1.41,1.82-.48,1.85-1.41,1.85S24.68,10.41,24.68,9.31ZM24,13.55h.74V11h.07a1.5,1.5,0,0,0,1.41.84c1.21,0,2-1,2-2.51s-.84-2.49-2.06-2.49a1.47,1.47,0,0,0-1.4.83h-.09V6.89H24ZM22.22,6.08a.51.51,0,0,0,.53-.5.53.53,0,0,0-1.06,0A.51.51,0,0,0,22.22,6.08Zm-.38,5.65h.75V6.89h-.75Z"/><path class="cls-3" d="M90.56,73.88a3,3,0,0,1-1.66-.51A2.9,2.9,0,0,1,87.81,72a3,3,0,0,1-.17-1.71,3,3,0,0,1,.82-1.52A2.93,2.93,0,0,1,90,68,3,3,0,0,1,93,69.26a3,3,0,0,1,.5,1.65,3,3,0,0,1-3,3Zm6.08-9.42L96.11,64l-.06,0c-.18-.15-.37-.29-.57-.43l-.16-.11a2.26,2.26,0,0,0-.26-.16,9.32,9.32,0,0,0-4.85-1.5H90a9.27,9.27,0,0,0-6.37,2.79A9.17,9.17,0,0,0,81,71c0,4.41,6.22,12.26,8.49,15a.9.9,0,0,0,.36.28,1,1,0,0,0,.45.11,1,1,0,0,0,.45-.11.93.93,0,0,0,.37-.28c2.22-2.71,8.31-10.49,8.31-14.91a9.16,9.16,0,0,0-2.79-6.57Z"/><path class="cls-3" d="M172.51,73.48h.74V70.42a1.15,1.15,0,0,1,1.23-1.14,2.55,2.55,0,0,1,.45,0v-.75l-.39,0a1.32,1.32,0,0,0-1.26.81h-.05v-.73h-.72Zm-4.65-2.81a1.46,1.46,0,0,1,1.44-1.43,1.32,1.32,0,0,1,1.32,1.43Zm1.51,2.91a1.87,1.87,0,0,0,1.93-1.22l-.72-.2a1.18,1.18,0,0,1-1.21.75,1.47,1.47,0,0,1-1.51-1.6h3.52V71c0-1.81-1.07-2.42-2.08-2.42a2.25,2.25,0,0,0-2.18,2.52A2.21,2.21,0,0,0,169.37,73.58Zm-6.65-.1h.74V71.67l.52-.48,1.81,2.29h1l-2.2-2.77,2.05-2.07h-.92l-2.12,2.16h-.09V67h-.74Zm-3,.1a1.79,1.79,0,0,0,1.9-1.51h-.74a1.12,1.12,0,0,1-1.16.84c-.89,0-1.45-.73-1.45-1.85s.58-1.82,1.45-1.82a1.15,1.15,0,0,1,1.16.85h.74a1.81,1.81,0,0,0-1.92-1.51,2.52,2.52,0,0,0,0,5Zm-6.62-2.91a1.46,1.46,0,0,1,1.44-1.43,1.32,1.32,0,0,1,1.32,1.43Zm1.51,2.91a1.88,1.88,0,0,0,1.93-1.22l-.72-.2a1.18,1.18,0,0,1-1.21.75,1.47,1.47,0,0,1-1.51-1.6h3.52V71c0-1.81-1.07-2.42-2.08-2.42a2.25,2.25,0,0,0-2.18,2.52A2.21,2.21,0,0,0,154.62,73.58Zm-6.53-3a1.22,1.22,0,0,1,1.28-1.33,1.08,1.08,0,0,1,1.12,1.22v3h.74V70.4c0-1.24-.66-1.82-1.65-1.82a1.4,1.4,0,0,0-1.42.82h-.07V67h-.74v6.45h.74ZM146.19,69a2.52,2.52,0,0,0-2.6-2.1c-1.65,0-2.85,1.27-2.85,3.31s1.2,3.32,2.85,3.32a2.52,2.52,0,0,0,2.6-2.11h-.78a1.76,1.76,0,0,1-1.82,1.38c-1.17,0-2.09-.91-2.09-2.59s.92-2.58,2.09-2.58A1.76,1.76,0,0,1,145.41,69ZM133.93,75.3a1.45,1.45,0,0,0,1.42-1.11l2.06-5.54h-.81l-1.34,3.86h0l-1.33-3.86h-.81l1.79,4.87-.14.37c-.27.74-.6.81-1.15.67l-.18.66A1.38,1.38,0,0,0,133.93,75.3Zm-3.77-2.37c-.59,0-1-.27-1-.79s.51-.74,1.09-.82a3.7,3.7,0,0,0,1.29-.27v.68A1.25,1.25,0,0,1,130.16,72.93Zm-.11.66a1.52,1.52,0,0,0,1.43-.76h0v.65h.74V70.29a1.58,1.58,0,0,0-1.79-1.71,2,2,0,0,0-1.94,1.13l.71.25a1.31,1.31,0,0,1,1.26-.73.9.9,0,0,1,1,1v0c0,.36-.37.33-1.25.44s-1.88.32-1.88,1.43A1.5,1.5,0,0,0,130.05,73.59Zm-7.54-.11h.73l1.06-3.72h.07l1.06,3.72h.73l1.48-4.84h-.78l-1,3.69h0l-1-3.69h-.8l-1,3.71h0l-1-3.71H121Zm-5.75-2.81a1.46,1.46,0,0,1,1.44-1.43,1.31,1.31,0,0,1,1.32,1.43Zm1.51,2.91a1.87,1.87,0,0,0,1.93-1.22l-.72-.2a1.17,1.17,0,0,1-1.21.75,1.47,1.47,0,0,1-1.51-1.6h3.52V71c0-1.81-1.07-2.42-2.08-2.42A2.25,2.25,0,0,0,116,71.1,2.22,2.22,0,0,0,118.27,73.58Zm-3.09-4.94h-1V67.48h-.74v1.16h-.73v.63h.73v3a1.23,1.23,0,0,0,1.31,1.24,1.84,1.84,0,0,0,.56-.08l-.16-.67a1.48,1.48,0,0,1-.32,0c-.33,0-.65-.11-.65-.74V69.27h1Zm-5.57,4.29c-.59,0-1-.27-1-.79s.52-.74,1.1-.82a3.64,3.64,0,0,0,1.28-.27v.68A1.25,1.25,0,0,1,109.61,72.93Zm-.11.66a1.52,1.52,0,0,0,1.43-.76h0v.65h.75V70.29a1.59,1.59,0,0,0-1.79-1.71,2,2,0,0,0-2,1.13l.71.25a1.31,1.31,0,0,1,1.26-.73.9.9,0,0,1,1,1v0c0,.36-.36.33-1.25.44s-1.87.32-1.87,1.43A1.49,1.49,0,0,0,109.5,73.59ZM106,69h.81a2.6,2.6,0,0,0-2.65-2.1c-1.66,0-2.82,1.27-2.82,3.31s1.16,3.32,2.87,3.32A2.49,2.49,0,0,0,106.83,71v-.7h-2.45V71h1.7a1.8,1.8,0,0,1-1.88,1.89c-1.2,0-2.12-.91-2.12-2.59s.92-2.58,2.07-2.58A1.84,1.84,0,0,1,106,69Z"/><path class="cls-3" d="M44.82,41.79a3.05,3.05,0,0,1-1.66-.5A3,3,0,0,1,42.07,40a3,3,0,0,1-.17-1.72,3,3,0,0,1,5.4-1.06A3,3,0,0,1,46,41.57,3.17,3.17,0,0,1,44.82,41.79Zm6.08-9.41c-.17-.17-.35-.33-.53-.48l0,0c-.19-.15-.38-.3-.58-.43l-.16-.12-.26-.15a9.21,9.21,0,0,0-4.85-1.51h-.23a9.24,9.24,0,0,0-9,9.23c0,4.4,6.22,12.25,8.49,15a1.12,1.12,0,0,0,.36.29,1,1,0,0,0,.45.1,1.06,1.06,0,0,0,.46-.1,1.12,1.12,0,0,0,.36-.29c2.23-2.71,8.31-10.49,8.31-14.91a9.16,9.16,0,0,0-2.79-6.56Z"/><path class="cls-3" d="M104.07,40.83c-1,0-1.45-.86-1.45-1.83s.46-1.84,1.45-1.84,1.45.87,1.45,1.84S105.07,40.83,104.07,40.83Zm0,.67a2.23,2.23,0,0,0,2.19-2.5,2.21,2.21,0,1,0-4.38,0A2.23,2.23,0,0,0,104.07,41.5Zm-3.69-5.75a.51.51,0,1,0-.53-.51A.52.52,0,0,0,100.38,35.75ZM100,41.39h.74V36.55H100Zm-1.9.06a.57.57,0,1,0-.57-.57A.57.57,0,0,0,98.1,41.45Zm-1.75-3.81a1.64,1.64,0,0,0-1.72-1.15c-1,0-1.78.58-1.78,1.4s.4,1.12,1.29,1.32l.81.19c.49.12.72.35.72.68s-.45.76-1.14.76a1,1,0,0,1-1.12-.78l-.71.17a1.67,1.67,0,0,0,1.84,1.27c1.13,0,1.89-.62,1.89-1.45,0-.68-.42-1.1-1.28-1.32l-.72-.17c-.57-.14-.83-.34-.83-.71s.44-.72,1-.72a1,1,0,0,1,1.05.7Zm-4.28-1.09H91v-.49c0-.48.2-.73.69-.73a1,1,0,0,1,.42.08l.21-.65a1.74,1.74,0,0,0-.7-.12,1.25,1.25,0,0,0-1.36,1.25v.66h-.78v.63h.78v4.21H91V37.18h1.08ZM85.24,39c0-1.08.48-1.81,1.39-1.81S88,38,88,39s-.48,1.86-1.41,1.86S85.24,40.07,85.24,39Zm-.73,4.24h.74V40.65h.07a1.49,1.49,0,0,0,1.41.85c1.21,0,2-1,2-2.51s-.84-2.5-2.06-2.5a1.47,1.47,0,0,0-1.4.83h-.09v-.77h-.72Zm-1.73-7.46a.51.51,0,1,0-.53-.51A.52.52,0,0,0,82.78,35.75Zm-.37,5.64h.74V36.55h-.74Zm-1.91.06a.57.57,0,1,0-.56-.57A.57.57,0,0,0,80.5,41.45Zm-5.18-2.87a1.44,1.44,0,0,1,1.43-1.42,1.3,1.3,0,0,1,1.32,1.42Zm1.51,2.92a1.87,1.87,0,0,0,1.92-1.23l-.71-.2a1.18,1.18,0,0,1-1.21.76,1.46,1.46,0,0,1-1.51-1.6h3.51v-.32c0-1.8-1.07-2.42-2.08-2.42A2.25,2.25,0,0,0,74.57,39,2.23,2.23,0,0,0,76.83,41.5Zm-5.19-.11h.74V38.33a1.15,1.15,0,0,1,1.23-1.13,1.77,1.77,0,0,1,.45,0v-.76h-.39a1.33,1.33,0,0,0-1.26.8h0v-.73h-.72Zm-3.46-.55c-.59,0-1-.26-1-.78s.51-.75,1.09-.82A3.92,3.92,0,0,0,69.54,39v.68A1.24,1.24,0,0,1,68.18,40.84Zm-.12.67a1.53,1.53,0,0,0,1.44-.77h0v.65h.74V38.21a1.59,1.59,0,0,0-1.79-1.72,2,2,0,0,0-1.94,1.14l.71.25a1.29,1.29,0,0,1,1.26-.73.9.9,0,0,1,1,1v0c0,.36-.37.33-1.25.45s-1.88.31-1.88,1.42A1.49,1.49,0,0,0,68.06,41.51Zm-5.92-3a1.22,1.22,0,0,1,1.27-1.32,1.07,1.07,0,0,1,1.13,1.21v3h.74V38.32c0-1.25-.66-1.83-1.65-1.83a1.42,1.42,0,0,0-1.43.82h-.06V34.94H61.4v6.45h.74Zm-2.77-1.93h.75a2.25,2.25,0,0,0-4.38.1c0,.87.63,1.39,1.64,1.68l.79.23c.68.19,1.29.43,1.29,1.07s-.68,1.17-1.58,1.17-1.45-.34-1.51-1.07h-.81c.08,1.06.93,1.78,2.32,1.78s2.33-.82,2.33-1.87c0-1.21-1.14-1.6-1.81-1.78l-.66-.17c-.48-.13-1.25-.38-1.25-1.07s.57-1.07,1.43-1.07S59.29,35.92,59.37,36.55Z"/><path class="cls-4" d="M222.88,265l1.48.83.67-1.19-1.48-.83Zm-4.14-2.31,3,1.65.67-1.19-3-1.66Zm-4.13-2.32,2.95,1.65.67-1.19-3-1.65Zm-4.14-2.32,3,1.66.66-1.19-3-1.66Zm-4.14-2.32,3,1.66.66-1.19L207,254.58Zm-4.13-2.31,3,1.65.67-1.19-3-1.65Zm-4.14-2.32L201,252.8l.67-1.2-3-1.65Zm-4.14-2.32,3,1.66.66-1.19-2.95-1.66Zm-4.14-2.31,3,1.65.67-1.19-3-1.65Zm-4.13-2.32,2.95,1.65.67-1.19-3-1.65Zm-4.14-2.32,3,1.66.67-1.19-3-1.66Zm-4.14-2.31,3,1.65L181,240l-3-1.66Zm-4.14-2.32,3,1.65.67-1.19-3-1.65Zm-4.13-2.32,3,1.66.67-1.19-3-1.66ZM165,232.6l2.95,1.66.67-1.19-3-1.66Zm-4.14-2.31,3,1.65.66-1.19-2.95-1.65ZM156.68,228l3,1.66.67-1.2-3-1.65Zm-4.13-2.32,2.95,1.66.67-1.19-3-1.66Zm-4.14-2.31,3,1.65.67-1.19-2.95-1.65ZM144.27,221l3,1.66.66-1.2-2.95-1.65Zm-4.14-2.32,3,1.66.67-1.19-3-1.66ZM136,216.39,139,218l.67-1.19-3-1.66Zm-4.14-2.32,2.95,1.65.67-1.19-2.95-1.65Zm-4.14-2.32,3,1.66.66-1.19-3-1.66Zm-4.14-2.31,3,1.65.67-1.19-3-1.66Zm-4.13-2.32,3,1.65.67-1.19-3-1.65Zm-4.14-2.32,3,1.66.67-1.19-3-1.66Zm-4.14-2.32,3,1.66.66-1.19-3-1.66ZM107,200.17l3,1.65.67-1.19-3-1.65Zm-4.13-2.32,2.95,1.66.67-1.2-3-1.65Zm-4.14-2.32,2.95,1.66.67-1.19-2.95-1.66Zm-4.14-2.31,3,1.65.66-1.19L95.29,192Zm-4.14-2.32,3,1.65.67-1.19-3-1.65Zm-2.66-1.49,1.48.83.67-1.19-1.48-.83Z"/><path class="cls-4" d="M260.4,302l1.46.85.69-1.18-1.47-.85Zm-4.11-2.39,2.93,1.7.69-1.18-2.94-1.7Zm-4.11-2.39,2.93,1.7.69-1.18-2.93-1.7Zm-4.11-2.39,2.94,1.7.68-1.18-2.93-1.7Zm-4.11-2.4,2.94,1.71.69-1.18-2.94-1.71Zm-4.1-2.39,2.93,1.71.69-1.18-2.94-1.71Zm-4.11-2.39,2.93,1.71.69-1.18-2.93-1.71Zm-4.11-2.39,2.93,1.71.69-1.18L232.33,284Zm-4.11-2.39,2.94,1.71.68-1.18-2.93-1.71Zm-4.11-2.39,2.94,1.71.69-1.18-2.94-1.71Zm-4.1-2.39,2.93,1.71.69-1.18L220,276.87Zm-4.11-2.39,2.93,1.71.69-1.18-2.93-1.71Zm-4.11-2.39L214,275l.68-1.18-2.93-1.71ZM207,270.88l2.94,1.7.68-1.18-2.93-1.7Zm-4.1-2.39,2.93,1.7.69-1.18-2.94-1.7Zm-4.11-2.39,2.93,1.7.69-1.18-2.94-1.7Zm-4.11-2.4,2.93,1.71.69-1.18-2.93-1.71Zm-4.11-2.39L193.5,263l.68-1.18-2.93-1.71Zm-4.11-2.39,2.94,1.71.68-1.18-2.93-1.71Zm-4.1-2.39,2.93,1.71.69-1.18L183,255.35Zm-4.11-2.39,2.93,1.71.69-1.18L178.92,253Zm-4.11-2.39,2.93,1.71.69-1.18-2.93-1.71ZM170,249.36l2.94,1.71.68-1.18-2.93-1.71ZM165.91,247l2.94,1.71.69-1.18-2.94-1.71Zm-4.1-2.39,2.93,1.71.69-1.18-2.94-1.71Zm-4.11-2.39,2.93,1.71.69-1.18L158.39,241Zm-4.11-2.39,2.94,1.7.68-1.18-2.93-1.7Zm-4.11-2.39,2.94,1.7.68-1.18-2.93-1.7Zm-4.1-2.39,2.93,1.7.69-1.18-2.94-1.7Zm-4.11-2.4,2.93,1.71.69-1.18L142,231.44Zm-4.11-2.39,2.93,1.71.69-1.18-2.93-1.71Zm-4.11-2.39,2.94,1.71.68-1.18-2.93-1.71Zm-4.11-2.39,2.94,1.71.68-1.18-2.93-1.71Zm-4.1-2.39,2.93,1.71.69-1.18-2.94-1.71Zm-4.11-2.39,2.93,1.71.69-1.18-2.94-1.71Zm-4.11-2.39,2.93,1.71.69-1.18-2.93-1.71Zm-4.11-2.39,2.94,1.71.68-1.18-2.93-1.71Zm-4.11-2.39,2.94,1.71L112,214l-2.94-1.71Zm-4.1-2.39,2.93,1.71.69-1.18L105,209.93Zm-4.11-2.39,2.93,1.7.69-1.18-2.93-1.7Zm-4.11-2.39L99,208l.69-1.18-2.93-1.7ZM92,203.93l2.94,1.71.68-1.18-2.93-1.71Zm-4.11-2.39,2.94,1.71.69-1.18-2.94-1.71Zm-4.1-2.39,2.93,1.71.69-1.18L84.44,198Zm-4.11-2.39,2.93,1.71.69-1.18-2.93-1.71Zm-4.11-2.39,2.94,1.71.68-1.18-2.93-1.71ZM71.43,192l2.94,1.71.68-1.18-2.93-1.71Zm-4.1-2.39,2.93,1.71.69-1.18L68,188.41Zm-4.11-2.39,2.93,1.71.69-1.18L63.9,186Zm-4.11-2.39L62,186.52l.69-1.18-2.93-1.71ZM55,182.42l2.94,1.71.68-1.18-2.93-1.71ZM50.89,180l2.94,1.7.69-1.18-2.94-1.7Zm-4.1-2.39,2.93,1.7.69-1.18-2.94-1.7Zm-4.11-2.39,2.93,1.7.69-1.18-2.93-1.7ZM40,173.71l1.46.85.69-1.18-1.47-.85Z"/><path class="cls-5" d="M400.84,191.24l1.7.22.18-1.36-1.71-.22Zm-4.77-.63,3.4.45.18-1.36-3.41-.44ZM391.3,190l3.4.45.18-1.36-3.41-.44Zm-4.77-.62,3.41.44.17-1.35-3.4-.45Zm-4.77-.62,3.41.44.17-1.35-3.4-.45Zm-4.77-.63,3.41.45.18-1.36-3.41-.44Zm-4.77-.62,3.41.45.18-1.36-3.41-.44Zm-4.77-.62,3.41.44L371,186l-3.41-.45Zm-4.76-.62,3.4.44.18-1.35-3.41-.45Zm-4.77-.63,3.4.45.18-1.36-3.41-.44Zm-4.77-.62,3.4.45.18-1.36-3.4-.44Zm-4.77-.62,3.41.44.17-1.35-3.4-.45Zm-4.77-.62,3.41.44.17-1.35-3.4-.45Zm-4.77-.63,3.41.45.18-1.36-3.41-.44Zm-4.77-.62,3.41.45.18-1.36-3.41-.44Zm-4.76-.62,3.4.44.18-1.35-3.41-.44Zm-4.77-.62,3.4.44.18-1.35-3.41-.45Zm-4.77-.63,3.4.45.18-1.36-3.41-.44ZM315,180l3.41.45.17-1.36-3.4-.44Zm-4.77-.62,3.41.44.17-1.35-3.4-.44Zm-4.77-.62,3.41.44.17-1.35-3.4-.45Zm-4.77-.63,3.41.45.18-1.35-3.41-.45Zm-4.77-.62,3.41.45.18-1.36-3.41-.44Zm-4.76-.62,3.4.44.18-1.35-3.41-.44Zm-4.77-.62,3.4.44.18-1.35-3.41-.45Zm-4.77-.63,3.4.45.18-1.35-3.41-.45Zm-4.77-.62,3.41.45.17-1.36-3.4-.44Zm-4.77-.62,3.41.44.17-1.35-3.4-.44Zm-4.77-.62,3.41.44.18-1.35-3.41-.45Zm-4.77-.63,3.41.45.18-1.35-3.41-.45Zm-4.77-.62,3.41.45.18-1.36-3.41-.44Zm-4.76-.62,3.4.44.18-1.35-3.41-.44Zm-4.77-.62,3.4.44.18-1.35-3.41-.45Zm-4.77-.62,3.4.44.18-1.35-3.4-.45Zm-4.77-.63,3.41.45.17-1.36-3.4-.44Zm-4.77-.62,3.41.44.17-1.35-3.4-.44Zm-4.77-.62,3.41.44.18-1.35-3.41-.45Zm-4.77-.62,3.41.44.18-1.35-3.41-.45Zm-4.76-.63,3.4.45.18-1.36-3.41-.44Zm-4.77-.62,3.4.44.18-1.35-3.41-.44Zm-4.77-.62,3.4.44.18-1.35-3.41-.45Zm-4.77-.62,3.41.44.17-1.35-3.4-.45Zm-4.77-.63,3.41.45.17-1.36-3.4-.44Zm-4.77-.62,3.41.45.17-1.36-3.4-.44Zm-4.77-.62,3.41.44.18-1.35-3.41-.45Zm-4.77-.62,3.41.44.18-1.35-3.41-.45Zm-4.76-.63,3.4.45.18-1.36-3.41-.44Zm-4.77-.62,3.4.45.18-1.36-3.41-.44Zm-4.77-.62,3.4.44.18-1.35-3.41-.45Zm-4.77-.62,3.41.44.17-1.35-3.4-.45Zm-4.77-.63,3.41.45.17-1.36-3.4-.44Zm-4.77-.62,3.41.45.18-1.36-3.41-.44Zm-4.77-.62,3.41.44.18-1.35-3.41-.45Zm-4.77-.62,3.41.44.18-1.35-3.41-.45Zm-4.76-.63,3.4.45.18-1.36-3.41-.44Zm-4.77-.62,3.4.45.18-1.36-3.41-.44Zm-4.77-.62,3.41.44.17-1.35L134,155Zm-4.77-.62,3.41.44.17-1.35-3.4-.45Zm-4.77-.63,3.41.45.17-1.36-3.4-.44Zm-4.77-.62,3.41.45.18-1.36-3.41-.44Zm-4.77-.62,3.41.44.18-1.35-3.41-.44Zm-4.76-.62,3.4.44.18-1.35-3.41-.45Zm-4.77-.63,3.4.45.18-1.35-3.41-.45Zm-4.77-.62,3.4.45.18-1.36-3.41-.44Zm-4.77-.62,3.41.44.17-1.35-3.4-.44Zm-4.77-.62,3.41.44.17-1.35-3.4-.45Zm-4.77-.63,3.41.45.17-1.35-3.4-.45Zm-4.77-.62,3.41.45.18-1.36-3.41-.44Zm-3.06-.4,1.7.22.18-1.35-1.71-.22Z"/><path class="cls-5" d="M400.84,177l1.69.2.16-1.35-1.68-.21Zm-4.72-.58,3.37.41.17-1.35-3.37-.42Zm-4.72-.58,3.37.41.17-1.35-3.37-.42Zm-4.72-.58,3.37.41.17-1.35-3.38-.42Zm-4.72-.58,3.37.41.16-1.35-3.37-.42Zm-4.73-.58,3.38.41.16-1.35-3.37-.42Zm-4.72-.58,3.37.41.17-1.35-3.37-.42Zm-4.72-.58,3.37.41.17-1.35-3.37-.42Zm-4.72-.58,3.37.41.17-1.35-3.38-.42Zm-4.72-.58,3.37.41.17-1.35-3.38-.41Zm-4.72-.58,3.37.41.16-1.35-3.37-.41Zm-4.73-.58,3.38.42.16-1.36-3.37-.41Zm-4.72-.58,3.37.42.17-1.36-3.37-.41Zm-4.72-.58,3.37.42.17-1.36-3.37-.41Zm-4.72-.58,3.37.42.17-1.36-3.38-.41ZM330,168.3l3.37.42.17-1.36-3.38-.41Zm-4.73-.58,3.38.42.16-1.36-3.37-.41Zm-4.72-.58,3.38.42.16-1.36-3.37-.41Zm-4.72-.57,3.37.41.17-1.36-3.37-.41Zm-4.72-.58,3.37.41.17-1.36-3.37-.41Zm-4.72-.58,3.37.41.17-1.36-3.38-.41Zm-4.72-.58,3.37.41.17-1.35-3.38-.42Zm-4.73-.58,3.38.41.16-1.35-3.37-.42Zm-4.72-.58,3.38.41.16-1.35-3.37-.42Zm-4.72-.58,3.37.41.17-1.35-3.37-.42Zm-4.72-.58,3.37.41.17-1.35-3.37-.42Zm-4.72-.58,3.37.41.17-1.35-3.38-.42Zm-4.72-.58,3.37.41.17-1.35-3.38-.42Zm-4.73-.58,3.38.41.16-1.35-3.37-.42Zm-4.72-.58,3.38.41.16-1.35-3.37-.41Zm-4.72-.58,3.37.41.17-1.35-3.37-.41Zm-4.72-.58,3.37.42.17-1.36-3.37-.41Zm-4.72-.58,3.37.42.17-1.36-3.38-.41Zm-4.72-.58,3.37.42.16-1.36-3.37-.41Zm-4.73-.58,3.38.42.16-1.36-3.37-.41Zm-4.72-.58,3.38.42.16-1.36-3.37-.41Zm-4.72-.58,3.37.42.17-1.36-3.37-.41Zm-4.72-.58,3.37.42.17-1.36-3.37-.41Zm-4.72-.58,3.37.42L225,154l-3.38-.41Zm-4.72-.57,3.37.41.16-1.36-3.37-.41Zm-4.73-.58,3.38.41.16-1.36-3.37-.41Zm-4.72-.58,3.38.41.16-1.35-3.37-.42Zm-4.72-.58,3.37.41.17-1.35-3.37-.42Zm-4.72-.58,3.37.41.17-1.35-3.37-.42Zm-4.72-.58,3.37.41.17-1.35-3.38-.42Zm-4.72-.58,3.37.41.16-1.35-3.37-.42Zm-4.73-.58,3.38.41.16-1.35-3.37-.42Zm-4.72-.58,3.37.41.17-1.35-3.37-.42Zm-4.72-.58,3.37.41.17-1.35-3.37-.42Zm-4.72-.58,3.37.41.17-1.35-3.37-.41Zm-4.72-.58,3.37.41.17-1.35-3.38-.41Zm-4.72-.58,3.37.42.16-1.36-3.37-.41Zm-4.73-.58,3.38.42.16-1.36-3.37-.41Zm-4.72-.58,3.37.42.17-1.36-3.37-.41Zm-4.72-.58,3.37.42.17-1.36-3.37-.41Zm-4.72-.58,3.37.42.17-1.36-3.38-.41Zm-4.72-.58,3.37.42.17-1.36-3.38-.41Zm-4.72-.58,3.37.42.16-1.36-3.37-.41Zm-4.73-.58,3.38.42.16-1.36-3.37-.41Zm-4.72-.57,3.37.41.17-1.36-3.37-.41Zm-4.72-.58,3.37.41.17-1.36-3.37-.41Zm-4.72-.58,3.37.41.17-1.35-3.38-.42Zm-4.72-.58,3.37.41.17-1.35-3.38-.42Zm-4.73-.58,3.38.41.16-1.35-3.37-.42Zm-4.72-.58,3.38.41.16-1.35-3.37-.42Zm-4.72-.58,3.37.41.17-1.35L94.1,138Zm-4.72-.58,3.37.41.17-1.35-3.37-.42Zm-4.72-.58,3.37.41.17-1.35-3.38-.42Zm-4.72-.58,3.37.41.17-1.35-3.38-.42ZM75,137l3.38.41.16-1.35-3.37-.41Zm-4.72-.58,3.38.41.16-1.35-3.37-.41Zm-4.72-.58,3.37.42.17-1.36-3.37-.41Zm-3-.37,1.68.21.17-1.36-1.69-.21Z"/><path class="cls-5" d="M400.85,164.63l1.69.2.16-1.35-1.69-.21Zm-4.74-.57,3.39.4.16-1.35-3.38-.41Zm-4.73-.58,3.38.41.17-1.35-3.38-.41Zm-4.73-.57,3.38.41.16-1.36-3.38-.41Zm-4.73-.57,3.38.4.16-1.35-3.38-.41Zm-4.74-.58,3.38.41.17-1.35-3.38-.41Zm-4.73-.57,3.38.41.16-1.36-3.38-.41Zm-4.73-.58,3.38.41.16-1.35-3.38-.41ZM363,160l3.38.41.17-1.35-3.38-.41Zm-4.73-.57,3.38.41.16-1.36-3.38-.41Zm-4.73-.58,3.38.41.16-1.35-3.38-.41Zm-4.74-.57,3.38.41.17-1.35L349,157Zm-4.73-.57,3.38.41.16-1.36-3.38-.41Zm-4.73-.58,3.38.41.16-1.35-3.38-.41Zm-4.74-.57L338,157l.17-1.36-3.38-.4Zm-4.73-.57,3.38.41.16-1.36-3.38-.41Zm-4.73-.58,3.38.41.16-1.35-3.38-.41Zm-4.74-.57,3.38.41.17-1.36-3.38-.41Zm-4.73-.57,3.38.41.17-1.36-3.39-.41Zm-4.73-.58,3.38.41.16-1.35-3.38-.41Zm-4.74-.57,3.38.41.17-1.36-3.38-.41Zm-4.73-.57,3.38.41.17-1.36-3.39-.41Zm-4.73-.58,3.38.41.16-1.35-3.38-.41Zm-4.74-.57,3.38.41.17-1.36-3.38-.41Zm-4.73-.57,3.38.41.17-1.36-3.38-.41Zm-4.73-.58,3.38.41.16-1.35-3.38-.41Zm-4.74-.57,3.39.41.16-1.36-3.38-.41Zm-4.73-.57,3.38.41.17-1.36-3.38-.41Zm-4.73-.58,3.38.41.16-1.35-3.38-.41Zm-4.74-.57,3.39.41.16-1.36-3.38-.41Zm-4.73-.57,3.38.41.17-1.36-3.38-.41Zm-4.73-.58,3.38.41.16-1.35-3.38-.41Zm-4.73-.57,3.38.41.16-1.36-3.38-.41Zm-4.74-.57,3.38.4.17-1.35-3.38-.41Zm-4.73-.58,3.38.41.16-1.35-3.38-.41Zm-4.73-.57,3.38.41.16-1.36-3.38-.41Zm-4.74-.58,3.38.41L234,143l-3.38-.41Zm-4.73-.57,3.38.41.16-1.35-3.38-.41Zm-4.73-.57,3.38.41.16-1.36-3.38-.41Zm-4.74-.58,3.38.41.17-1.35-3.38-.41Zm-4.73-.57,3.38.41.16-1.35-3.38-.41Zm-4.73-.57,3.38.41.16-1.36-3.38-.41Zm-4.74-.58,3.38.41.17-1.35-3.38-.41Zm-4.73-.57,3.38.41.16-1.36-3.38-.4Zm-4.73-.57,3.38.41.16-1.36-3.38-.41Zm-4.74-.58,3.38.41.17-1.35-3.38-.41Zm-4.73-.57,3.38.41.16-1.36-3.38-.41Zm-4.73-.57,3.38.41.16-1.36-3.38-.41Zm-4.74-.58,3.38.41.17-1.35-3.38-.41Zm-4.73-.57,3.38.41.17-1.36-3.39-.41Zm-4.73-.57,3.38.41.16-1.36-3.38-.41Zm-4.74-.58,3.38.41.17-1.35-3.38-.41Zm-4.73-.57,3.38.41.17-1.36-3.39-.41Zm-4.73-.57,3.38.41.16-1.36-3.38-.41Zm-4.74-.58,3.38.41.17-1.35-3.38-.41Zm-4.73-.57,3.38.41.17-1.36-3.38-.41Zm-4.73-.57,3.38.41.16-1.36-3.38-.41Zm-4.74-.58,3.39.41.16-1.35-3.38-.41Zm-4.73-.57,3.38.41.17-1.36-3.38-.41Zm-4.73-.57,3.38.41.16-1.36-3.38-.41Zm-4.74-.58,3.39.41.16-1.35-3.38-.41Zm-4.73-.57,3.38.41.17-1.36-3.38-.41Zm-4.73-.57,3.38.4.16-1.35-3.38-.41Zm-4.73-.58,3.38.41.16-1.35-3.38-.41Zm-4.74-.57,3.38.41.17-1.36-3.38-.41Zm-4.73-.58,3.38.41.16-1.35L93.35,126Zm-4.73-.57,3.38.41.16-1.35-3.38-.41Zm-4.74-.57,3.38.41.17-1.36-3.38-.41ZM79,125.63l3.38.41.16-1.35-3.38-.41Zm-4.73-.57,3.38.41.16-1.35-3.38-.41Zm-4.74-.57,3.38.41.17-1.36-3.38-.41Zm-4.73-.58,3.38.41.16-1.35L65,122.56Zm-4.73-.57,3.38.41.16-1.36-3.38-.4Zm-4.74-.57,3.38.41.17-1.36-3.38-.41Zm-4.73-.58,3.38.41.16-1.35-3.38-.41Zm-3-.36,1.69.2.16-1.36-1.69-.2Z"/><path class="cls-3" d="M400.82,86.33h1.72v-.69h-1.72Zm-4.8,0h3.43v-.69H396Zm-4.79,0h3.42v-.69h-3.42Zm-4.8,0h3.42v-.69h-3.42Zm-4.8,0h3.42v-.69h-3.42Zm-4.8,0h3.42v-.69h-3.42Zm-4.8,0h3.42v-.69H372Zm-4.8,0h3.42v-.69h-3.42Zm-4.8,0h3.42v-.69h-3.42Zm-4.8,0h3.43v-.69h-3.43Zm-4.8,0h3.43v-.69h-3.43Zm-4.8,0h3.43v-.69H348Zm-4.8,0h3.43v-.69h-3.43Zm-4.8,0h3.43v-.69h-3.43Zm-4.8,0h3.43v-.69h-3.43Zm-4.8,0h3.43v-.69h-3.43Zm-4.8,0h3.43v-.69H324Zm-4.8,0h3.43v-.69h-3.43Zm-4.8,0h3.43v-.69h-3.43Zm-4.8,0h3.43v-.69h-3.43Zm-4.8,0h3.43v-.69h-3.43Zm-4.8,0h3.43v-.69H300Zm-4.8,0h3.43v-.69h-3.43Zm-4.8,0h3.43v-.69h-3.43Zm-4.8,0h3.43v-.69h-3.43Zm-4.8,0h3.43v-.69h-3.43Zm-4.8,0h3.43v-.69H276Zm-4.8,0h3.43v-.69h-3.43Zm-4.8,0h3.43v-.69h-3.43Zm-4.8,0h3.43v-.69h-3.43Zm-4.8,0h3.43v-.69h-3.43Zm-4.8,0h3.43v-.69H252Zm-4.8,0h3.43v-.69h-3.43Zm-4.8,0h3.43v-.69h-3.43Zm-4.8,0h3.43v-.69h-3.43Zm-4.8,0h3.43v-.69h-3.43Zm-4.8,0h3.43v-.69H228Zm-4.8,0h3.43v-.69h-3.43Zm-4.8,0h3.43v-.69h-3.43Zm-4.8,0h3.43v-.69h-3.43Zm-4.8,0h3.43v-.69h-3.43Zm-4.79,0h3.42v-.69H204Zm-4.8,0h3.42v-.69h-3.42Zm-4.8,0h3.42v-.69h-3.42Zm-4.8,0h3.42v-.69h-3.42Zm-4.8,0h3.42v-.69h-3.42Zm-4.8,0h3.42v-.69H180Zm-4.8,0h3.43v-.69h-3.43Zm-4.8,0h3.43v-.69h-3.43Zm-4.8,0h3.43v-.69h-3.43Zm-4.8,0h3.43v-.69h-3.43Zm-4.8,0h3.43v-.69H156Zm-4.8,0h3.43v-.69h-3.43Zm-4.8,0h3.43v-.69h-3.43Zm-4.8,0h3.43v-.69h-3.43Zm-4.8,0h3.43v-.69h-3.43Zm-4.8,0h3.43v-.69H132Zm-4.8,0h3.43v-.69h-3.43Zm-4.8,0h3.43v-.69h-3.43Zm-4.8,0h3.43v-.69h-3.43Zm-4.8,0h3.43v-.69h-3.43Zm-4.8,0h3.43v-.69H108Zm-4.8,0h3.43v-.69h-3.43Zm-4.8,0h3.43v-.69H98.44Zm-4.8,0h3.43v-.69H93.64Zm-3.08,0h1.71v-.69H90.56Z"/><path class="cls-4" d="M222.73,128.87l1.63.46.37-1.31-1.63-.46Zm-4.57-1.3,3.26.93.37-1.32-3.26-.93Zm-4.58-1.3,3.27.93.37-1.32L214,125ZM209,125l3.27.93.37-1.31-3.27-.93Zm-4.57-1.3,3.26.93.38-1.31-3.27-.93Zm-4.57-1.3,3.26.93.38-1.31-3.27-.93Zm-4.58-1.3,3.27.93.37-1.31-3.26-.93Zm-4.57-1.3,3.27.93.37-1.32-3.27-.93Zm-4.57-1.31,3.26.93.38-1.31-3.27-.93Zm-4.57-1.3,3.26.93.38-1.31-3.27-.93Zm-4.58-1.3,3.27.93.37-1.31-3.26-.93Zm-4.57-1.3,3.27.93.37-1.31-3.26-.93Zm-4.57-1.3,3.27.93.37-1.32-3.27-.93Zm-4.57-1.3,3.26.93.38-1.32-3.27-.93Zm-4.58-1.31,3.27.93.37-1.31-3.26-.93Zm-4.57-1.3,3.27.93.37-1.31-3.26-.93Zm-4.57-1.3,3.27.93.37-1.31-3.27-.93Zm-4.57-1.3,3.26.93.38-1.32-3.27-.92Zm-4.57-1.3,3.26.93.38-1.32-3.27-.93Zm-4.58-1.31,3.27.93.37-1.31-3.26-.93Zm-4.57-1.3,3.27.93.37-1.31-3.27-.93Zm-4.57-1.3,3.26.93.38-1.31-3.27-.93Zm-4.57-1.3,3.26.93.38-1.31-3.27-.93Zm-4.58-1.3,3.27.93.37-1.32-3.26-.93ZM113,97.63l3.27.93.37-1.32-3.27-.93Zm-4.57-1.31,3.26.93.38-1.31L108.79,95ZM103.85,95l3.26.93.38-1.31-3.27-.93Zm-4.58-1.3,3.27.93.37-1.31-3.26-.93Zm-4.57-1.3,3.27.93L98.34,92l-3.26-.93Zm-4.57-1.3,3.27.93.37-1.32L90.5,89.8Zm-4.57-1.31,3.26.93.38-1.31-3.27-.93ZM81,88.51l3.27.93.37-1.31-3.26-.93Zm-4.57-1.3,3.27.93.37-1.31-3.26-.93Zm-4.57-1.3,3.27.93.37-1.31-3.27-.93Zm-4.57-1.3,3.26.93.38-1.32-3.27-.93ZM62.7,83.3l3.26.93.38-1.31L63.07,82ZM58.12,82l3.27.93.37-1.31-3.26-.93Zm-4.57-1.3,3.27.93.37-1.31-3.27-.93ZM49,79.4l3.26.93L52.62,79l-3.27-.93Zm-4.57-1.3,3.26.93.38-1.32-3.27-.93Zm-4.58-1.3,3.27.93.37-1.32-3.26-.93Zm-4.57-1.31,3.27.93.37-1.31-3.26-.93Zm-4.57-1.3,3.26.93.38-1.31-3.27-.93Zm-2.94-.83,1.63.46.38-1.31L28.12,72Z"/><path class="cls-3" d="M67,54.24h1.71v-.68H67Zm-4.78,0h3.42v-.68H62.22Zm-4.77,0h3.41v-.68H57.45Zm-4.78,0h3.41v-.68H52.67Zm-4.78,0H51.3v-.68H47.89Zm-3.07,0h1.7v-.68h-1.7Z"/><path class="cls-3" d="M400.84,39.22h1.7v-.68h-1.7Zm-4.76,0h3.4v-.68h-3.4Zm-4.77,0h3.41v-.68h-3.41Zm-4.76,0H390v-.68h-3.4Zm-4.76,0h3.4v-.68h-3.4Zm-4.76,0h3.4v-.68H377Zm-4.76,0h3.4v-.68h-3.4Zm-4.76,0h3.4v-.68h-3.4Zm-4.76,0h3.4v-.68h-3.4Zm-4.77,0h3.41v-.68H358Zm-4.76,0h3.4v-.68h-3.4Zm-4.76,0h3.4v-.68h-3.4Zm-4.76,0h3.4v-.68h-3.4Zm-4.76,0h3.4v-.68h-3.4Zm-4.76,0h3.4v-.68h-3.4Zm-4.76,0h3.4v-.68h-3.4Zm-4.77,0h3.41v-.68h-3.41Zm-4.76,0h3.4v-.68h-3.4Zm-4.76,0h3.4v-.68h-3.4Zm-4.76,0h3.4v-.68h-3.4Zm-4.76,0H309v-.68h-3.4Zm-4.76,0h3.4v-.68h-3.4Zm-4.76,0h3.4v-.68h-3.4Zm-4.77,0h3.41v-.68h-3.41Zm-4.76,0H290v-.68h-3.4Zm-4.76,0h3.4v-.68h-3.4Zm-4.76,0h3.4v-.68H277Zm-4.76,0h3.4v-.68h-3.4Zm-4.76,0h3.4v-.68h-3.4Zm-4.76,0h3.4v-.68h-3.4Zm-4.77,0h3.41v-.68H258Zm-4.76,0h3.4v-.68h-3.4Zm-4.76,0h3.4v-.68h-3.4Zm-4.76,0h3.4v-.68h-3.4Zm-4.76,0h3.4v-.68H239Zm-4.76,0h3.4v-.68h-3.4Zm-4.76,0h3.4v-.68h-3.4Zm-4.77,0h3.41v-.68h-3.41Zm-4.76,0h3.4v-.68h-3.4Zm-4.76,0h3.4v-.68h-3.4Zm-4.76,0h3.4v-.68h-3.4Zm-4.76,0H209v-.68h-3.4Zm-4.76,0h3.4v-.68h-3.4Zm-4.76,0h3.4v-.68h-3.4Zm-4.77,0h3.4v-.68h-3.4Zm-4.76,0H190v-.68h-3.4Zm-4.76,0h3.4v-.68h-3.4Zm-4.76,0h3.4v-.68h-3.4Zm-4.76,0h3.4v-.68h-3.4Zm-4.76,0h3.4v-.68h-3.4Zm-4.76,0h3.4v-.68h-3.4Zm-4.77,0h3.4v-.68H158Zm-4.76,0h3.4v-.68h-3.4Zm-4.76,0h3.4v-.68h-3.4Zm-4.76,0h3.4v-.68h-3.4Zm-4.76,0h3.4v-.68H139Zm-4.76,0h3.4v-.68h-3.4Zm-4.76,0h3.4v-.68h-3.4Zm-4.77,0h3.4v-.68h-3.4Zm-4.76,0h3.4v-.68h-3.4Zm-4.76,0h3.4v-.68h-3.4Zm-4.76,0h3.4v-.68h-3.4Zm-4.76,0H109v-.68h-3.4Zm-4.76,0h3.4v-.68h-3.4Zm-4.77,0h3.41v-.68H96.1Zm-4.76,0h3.4v-.68h-3.4Zm-4.76,0H90v-.68h-3.4Zm-4.76,0h3.4v-.68h-3.4Zm-4.76,0h3.4v-.68h-3.4Zm-4.76,0h3.4v-.68H72.3Zm-4.76,0h3.4v-.68h-3.4Zm-4.77,0h3.41v-.68H62.77Zm-4.76,0h3.4v-.68H58Zm-4.76,0h3.4v-.68h-3.4Zm-4.76,0h3.4v-.68h-3.4Zm-4.76,0h3.4v-.68h-3.4Zm-4.76,0h3.4v-.68H39Zm-4.76,0h3.4v-.68h-3.4Zm-4.77,0h3.41v-.68H29.44Zm-3.06,0h1.7v-.68h-1.7Z"/><path class="cls-3" d="M33.45,29.27l1.81.39L35.4,29l-1.8-.39ZM28.4,28.18,32,29l.15-.67-3.61-.78Zm-5-1.09,3.61.78.14-.67-3.6-.78ZM18.3,26l3.61.78.14-.67-3.61-.78Zm-5.05-1.1,3.61.78L17,25l-3.61-.78ZM10,24.2l1.8.39.15-.66-1.81-.39Z"/><path class="cls-4" d="M27.75,60.9a2.94,2.94,0,0,1-1.65-.5A3,3,0,0,1,25,59.07a3,3,0,0,1-.17-1.71,3,3,0,0,1,.82-1.52A3,3,0,0,1,27.17,55a3,3,0,0,1,3.06,1.26,2.94,2.94,0,0,1,.27,2.78,3,3,0,0,1-.64,1,3.15,3.15,0,0,1-1,.64A2.79,2.79,0,0,1,27.75,60.9Zm6.08-9.41L33.3,51l0,0c-.18-.15-.38-.29-.58-.43l-.16-.11a2.26,2.26,0,0,0-.26-.16,9.26,9.26,0,0,0-4.85-1.5h-.22a9.22,9.22,0,0,0-9,9.22c0,4.41,6.22,12.26,8.49,15a1,1,0,0,0,.36.28,1,1,0,0,0,.91,0,1,1,0,0,0,.36-.28c2.23-2.71,8.31-10.49,8.31-14.91a9.16,9.16,0,0,0-2.79-6.57Z"/><path class="cls-6" d="M98.4,55.67h.76a2.25,2.25,0,0,0-4.39.1c0,.87.63,1.39,1.64,1.68l.79.22c.68.19,1.29.43,1.29,1.07s-.68,1.18-1.58,1.18-1.45-.34-1.51-1.07h-.81c.08,1,.94,1.77,2.32,1.77s2.34-.82,2.34-1.86c0-1.21-1.15-1.6-1.82-1.78l-.65-.18c-.48-.12-1.25-.37-1.25-1.07s.56-1.07,1.42-1.07S98.33,55,98.4,55.67Zm-8.74,4.84h.78V57.62h2.8v-.69h-2.8V54.75h3.09v-.69H89.66Zm-4.85-3V54.75h1.37c1,0,1.45.57,1.45,1.35a1.26,1.26,0,0,1-1.43,1.36Zm-.78,3h.78V58.15h1.41a2,2,0,1,0,0-4.09H84Zm-1.57-6.45h-.78v6.45h.78Zm-8,3.64a1.45,1.45,0,0,1,1.43-1.43A1.32,1.32,0,0,1,77.2,57.7ZM76,60.61a1.89,1.89,0,0,0,1.93-1.22l-.72-.2a1.19,1.19,0,0,1-1.21.75,1.46,1.46,0,0,1-1.51-1.6H78V58c0-1.81-1.07-2.42-2.08-2.42a2.52,2.52,0,0,0,.08,5Zm-9.75-.1H67v-3a1.15,1.15,0,0,1,1.1-1.21.89.89,0,0,1,1,.92v3.32h.76V57.36a1,1,0,0,1,1.07-1.09.9.9,0,0,1,1,1v3.24h.75V57.27c0-1.14-.61-1.66-1.48-1.66a1.52,1.52,0,0,0-1.45.82h0a1.33,1.33,0,0,0-1.3-.82,1.29,1.29,0,0,0-1.29.82h-.07v-.76H66.2Zm-3.32-.57c-1,0-1.45-.85-1.45-1.83s.45-1.84,1.45-1.84,1.45.87,1.45,1.84S63.87,59.94,62.88,59.94Zm0,.67a2.52,2.52,0,1,0-2.2-2.5A2.23,2.23,0,0,0,62.88,60.61ZM59.7,56.75A1.62,1.62,0,0,0,58,55.61c-1,0-1.78.58-1.78,1.4,0,.66.4,1.11,1.29,1.32l.8.19c.49.11.72.34.72.68s-.44.75-1.13.75a1,1,0,0,1-1.13-.78l-.7.18a1.66,1.66,0,0,0,1.84,1.26c1.12,0,1.89-.61,1.89-1.45,0-.67-.42-1.1-1.29-1.31l-.71-.18c-.58-.14-.84-.33-.84-.7s.44-.72,1-.72a1,1,0,0,1,1,.69Zm-8.07,1a1.45,1.45,0,0,1,1.43-1.43,1.31,1.31,0,0,1,1.32,1.43Zm1.51,2.91a1.89,1.89,0,0,0,1.93-1.22l-.72-.2a1.19,1.19,0,0,1-1.21.75,1.46,1.46,0,0,1-1.51-1.6h3.51V58c0-1.81-1.07-2.42-2.08-2.42a2.52,2.52,0,0,0,.08,5Zm-8-.1h.73L47,56.79H47l1.06,3.72h.73l1.48-4.84h-.78l-1,3.69h-.05l-1-3.69H46.6l-1,3.71h-.05l-1-3.71h-.78ZM39.93,58l1-2.91H41l1,2.91ZM39,60.51l.65-1.83h2.6l.65,1.83h.82l-2.37-6.45h-.8l-2.37,6.45Z"/><path class="cls-4" d="M87.83,177a3.05,3.05,0,0,1-1.66-.5,3,3,0,0,1-1.09-1.33,2.9,2.9,0,0,1-.17-1.72A3,3,0,0,1,89,171.25a3.06,3.06,0,0,1,1.34,1.1,2.94,2.94,0,0,1,.27,2.78,2.86,2.86,0,0,1-.65,1,2.7,2.7,0,0,1-1,.64A3,3,0,0,1,87.83,177Zm6.08-9.41c-.17-.17-.35-.33-.53-.48l-.06,0a6.07,6.07,0,0,0-.57-.43l-.16-.12-.26-.15a9.24,9.24,0,0,0-4.85-1.51h-.23a9.24,9.24,0,0,0-9,9.23c0,4.4,6.22,12.25,8.49,15a1,1,0,0,0,.81.39,1,1,0,0,0,.45-.1,1.06,1.06,0,0,0,.37-.29c2.22-2.71,8.31-10.49,8.31-14.91a9.16,9.16,0,0,0-2.79-6.56Z"/><path class="cls-6" d="M151.82,176.56h.75V173.5a1.14,1.14,0,0,1,1.22-1.13,1.77,1.77,0,0,1,.45,0v-.76h-.39a1.33,1.33,0,0,0-1.26.8h-.05v-.73h-.72Zm-4.64-2.81a1.44,1.44,0,0,1,1.43-1.42,1.3,1.3,0,0,1,1.32,1.42Zm1.51,2.92a1.87,1.87,0,0,0,1.92-1.23l-.71-.2a1.18,1.18,0,0,1-1.21.76,1.46,1.46,0,0,1-1.51-1.6h3.51v-.32c0-1.8-1.07-2.42-2.08-2.42a2.52,2.52,0,0,0,.08,5Zm-5.19-.11h.75V173.5a1.14,1.14,0,0,1,1.22-1.13,1.77,1.77,0,0,1,.45,0v-.76h-.39a1.33,1.33,0,0,0-1.26.8h-.05v-.73h-.72Zm-3.33-.56c-1,0-1.45-.86-1.45-1.83s.46-1.84,1.45-1.84,1.45.87,1.45,1.84S141.17,176,140.17,176Zm0,.67a2.53,2.53,0,1,0-2.19-2.5A2.24,2.24,0,0,0,140.17,176.67Zm-3.33-6.56h-.74v6.45h.74Zm-5.42,4c0-1.08.48-1.81,1.39-1.81s1.41.79,1.41,1.81-.48,1.86-1.41,1.86S131.42,175.24,131.42,174.14Zm-.73,4.24h.75v-2.56h.06a1.49,1.49,0,0,0,1.41.85c1.21,0,2.06-1,2.06-2.51s-.85-2.5-2.07-2.5a1.47,1.47,0,0,0-1.4.83h-.09v-.77h-.72Zm-4.24-6.66h-.85l1.53,2.42-1.53,2.42h.85l1.16-1.87,1.16,1.87h.86l-1.56-2.42,1.56-2.42h-.86l-1.16,2Zm-5.75,4.84h3.94v-.69h-3.16v-2.19h2.91V173h-2.91V170.8h3.11v-.69H120.7Zm-8.1-.69V170.8h1.25c1.51,0,2.28,1,2.28,2.52s-.77,2.55-2.37,2.55Zm1.21.69c2,0,3.08-1.22,3.08-3.24s-1.11-3.21-3-3.21h-2.08v6.45Zm-7,0h3.78v-.69h-3v-5.76h-.78ZM102,173.51V170.8h1.37c1.05,0,1.45.58,1.45,1.35a1.26,1.26,0,0,1-1.44,1.36Zm-.78,3.05H102v-2.35h1.41a2.05,2.05,0,1,0,0-4.1H101.2Zm-1.57-6.45h-.78v6.45h.78Z"/><path class="cls-4" d="M40,161.26a3,3,0,0,1-2.75-1.84,3,3,0,0,1,2.17-4,3,3,0,0,1,3.06,1.26,3,3,0,0,1,.27,2.79,3.1,3.1,0,0,1-.64,1,3,3,0,0,1-2.11.87Zm6.08-9.42-.53-.47-.05,0L45,150.9l-.16-.11-.26-.16a9.26,9.26,0,0,0-4.85-1.5h-.23a9.24,9.24,0,0,0-9,9.23c0,4.4,6.22,12.25,8.49,15a1.12,1.12,0,0,0,.36.29,1.09,1.09,0,0,0,.91,0,1.12,1.12,0,0,0,.36-.29c2.23-2.71,8.31-10.49,8.31-14.91a9.12,9.12,0,0,0-.73-3.57A9.35,9.35,0,0,0,46.12,151.84Z"/><path class="cls-6" d="M95.47,160.3c-1,0-1.45-.86-1.45-1.83s.45-1.84,1.45-1.84,1.45.87,1.45,1.84S96.47,160.3,95.47,160.3Zm0,.66a2.52,2.52,0,1,0-2.19-2.49A2.22,2.22,0,0,0,95.47,161Zm-3.69-5.74a.51.51,0,0,0,.52-.51.51.51,0,0,0-.52-.5.51.51,0,0,0-.53.5A.52.52,0,0,0,91.78,155.22Zm-.38,5.64h.74V156H91.4Zm-1.9,0a.57.57,0,1,0-.57-.56A.56.56,0,0,0,89.5,160.91Zm-1.75-3.8A1.64,1.64,0,0,0,86,156c-1,0-1.78.58-1.78,1.4,0,.67.4,1.11,1.29,1.32l.81.19c.48.11.71.35.71.68s-.44.76-1.13.76a1,1,0,0,1-1.12-.78l-.71.17A1.66,1.66,0,0,0,85.94,161c1.13,0,1.89-.61,1.89-1.45,0-.67-.42-1.1-1.28-1.31l-.72-.17c-.57-.15-.83-.34-.83-.71s.44-.72,1-.72a1,1,0,0,1,1,.7ZM83.47,156H82.39v-.49c0-.48.2-.73.69-.73a1.34,1.34,0,0,1,.42.07l.21-.64a1.74,1.74,0,0,0-.7-.12,1.24,1.24,0,0,0-1.36,1.24V156h-.79v.63h.79v4.21h.74v-4.21h1.08Zm-6.83,2.42c0-1.08.48-1.81,1.39-1.81s1.41.79,1.41,1.81S79,160.3,78,160.3,76.64,159.54,76.64,158.44Zm-.73,4.24h.74v-2.56h.07a1.5,1.5,0,0,0,1.41.84c1.21,0,2.05-1,2.05-2.5s-.84-2.5-2.06-2.5a1.47,1.47,0,0,0-1.4.83h-.09V156h-.72Zm-1.73-7.46a.52.52,0,0,0,.53-.51.53.53,0,0,0-1.06,0A.52.52,0,0,0,74.18,155.22Zm-.38,5.64h.75V156H73.8Zm-1.9,0a.57.57,0,1,0-.57-.56A.57.57,0,0,0,71.9,160.91Zm-1.75-3.8A1.62,1.62,0,0,0,68.44,156c-1,0-1.78.58-1.78,1.4,0,.67.4,1.11,1.29,1.32l.8.19c.49.11.72.35.72.68s-.44.76-1.13.76a1,1,0,0,1-1.13-.78l-.7.17A1.65,1.65,0,0,0,68.35,161c1.12,0,1.89-.61,1.89-1.45,0-.67-.42-1.1-1.29-1.31l-.71-.17c-.58-.15-.84-.34-.84-.71s.44-.72,1-.72a1,1,0,0,1,1,.7ZM63.73,161a1.8,1.8,0,0,0,1.91-1.51h-.75a1.13,1.13,0,0,1-1.16.85c-.88,0-1.45-.74-1.45-1.86s.58-1.81,1.45-1.81a1.13,1.13,0,0,1,1.16.84h.75A1.81,1.81,0,0,0,63.72,156a2.52,2.52,0,0,0,0,5Zm-5.29-.66c-1,0-1.45-.86-1.45-1.83s.45-1.84,1.45-1.84,1.45.87,1.45,1.84S59.43,160.3,58.44,160.3Zm0,.66a2.52,2.52,0,1,0-2.2-2.49A2.22,2.22,0,0,0,58.44,161Zm-5.55-.66c-.94,0-1.42-.82-1.42-1.86s.47-1.81,1.42-1.81,1.38.73,1.38,1.81S53.78,160.3,52.89,160.3Zm-.1.66a1.51,1.51,0,0,0,1.41-.84h.09v.74H55v-6.45h-.74v2.38H54.2a1.49,1.49,0,0,0-1.4-.83c-1.22,0-2.07,1-2.07,2.5S51.58,161,52.79,161Z"/><path class="cls-5" d="M47.55,109.37a2.91,2.91,0,0,1-1.65-.5,3,3,0,0,1-1.1-1.33,3,3,0,0,1-.17-1.71A3,3,0,0,1,47,103.5,3,3,0,0,1,50,104.76a3,3,0,0,1,.5,1.65,2.93,2.93,0,0,1-.23,1.13,2.89,2.89,0,0,1-1.61,1.61A2.79,2.79,0,0,1,47.55,109.37ZM53.63,100l-.53-.48-.05,0L52.47,99l-.16-.11a2.26,2.26,0,0,0-.26-.16,9.26,9.26,0,0,0-4.85-1.5H47a9.22,9.22,0,0,0-9,9.22c0,4.41,6.22,12.26,8.49,15a1,1,0,0,0,.36.28,1,1,0,0,0,.91,0,1,1,0,0,0,.36-.28c2.23-2.71,8.31-10.49,8.31-14.91A9.16,9.16,0,0,0,53.63,100Z"/><path class="cls-6" d="M88.68,106.56c0-1.09.47-1.82,1.38-1.82s1.41.8,1.41,1.82-.48,1.85-1.41,1.85S88.68,107.66,88.68,106.56Zm-.74,4.23h.75v-2.55h.06a1.5,1.5,0,0,0,1.41.84c1.21,0,2.06-1,2.06-2.51s-.85-2.49-2.07-2.49a1.47,1.47,0,0,0-1.4.83h-.09v-.77h-.72Zm-3.32-2.38c-1,0-1.45-.86-1.45-1.83s.45-1.84,1.45-1.84,1.44.87,1.44,1.84S85.61,108.41,84.62,108.41Zm0,.67a2.52,2.52,0,1,0-2.2-2.5A2.23,2.23,0,0,0,84.62,109.08Zm-3-4.94h-1V103H79.8v1.16h-.73v.63h.73v3A1.24,1.24,0,0,0,81.12,109a1.49,1.49,0,0,0,.55-.09l-.15-.66a1.83,1.83,0,0,1-.33,0c-.33,0-.64-.1-.64-.73v-2.82h1ZM74.65,109h.74v-1.81l.52-.48L77.73,109h.94l-2.2-2.77,2-2.07H77.6l-2.12,2.15h-.09v-3.76h-.74Zm-1.21-3.76a1.63,1.63,0,0,0-1.71-1.14c-1,0-1.78.58-1.78,1.39s.4,1.12,1.29,1.33l.8.19c.49.11.72.34.72.68s-.44.75-1.13.75a1,1,0,0,1-1.13-.78l-.7.18a1.66,1.66,0,0,0,1.84,1.26c1.12,0,1.89-.61,1.89-1.45,0-.67-.42-1.1-1.29-1.31l-.71-.18c-.58-.14-.84-.33-.84-.7s.44-.72,1-.72a1,1,0,0,1,1,.69Zm-8.07,1a1.45,1.45,0,0,1,1.43-1.43,1.31,1.31,0,0,1,1.32,1.43Zm1.51,2.91a1.89,1.89,0,0,0,1.93-1.22l-.72-.2a1.19,1.19,0,0,1-1.21.75,1.46,1.46,0,0,1-1.51-1.6h3.51v-.31c0-1.81-1.07-2.42-2.08-2.42a2.52,2.52,0,0,0,.08,5Zm-7.53-.79v-5.07H60.6c1.51,0,2.28,1,2.28,2.52s-.77,2.55-2.37,2.55Zm1.21.69c2,0,3.08-1.22,3.08-3.24s-1.11-3.21-3-3.21H58.57V109Z"/><path class="cls-5" d="M62.57,123a3.05,3.05,0,0,1-1.66-.5,3,3,0,0,1-1.26-3,3,3,0,0,1,4.06-2.16,3.11,3.11,0,0,1,1.34,1.09,3,3,0,0,1,.5,1.65,3,3,0,0,1-.23,1.14,3,3,0,0,1-1.61,1.6A3,3,0,0,1,62.57,123Zm6.08-9.41c-.17-.17-.35-.33-.53-.48l-.06,0a6,6,0,0,0-.57-.42l-.16-.12-.26-.15a9.24,9.24,0,0,0-4.85-1.51H62a9.24,9.24,0,0,0-9,9.23c0,4.4,6.22,12.25,8.49,15a1,1,0,0,0,.36.29,1.18,1.18,0,0,0,.45.1,1.23,1.23,0,0,0,.46-.1,1.12,1.12,0,0,0,.36-.29c2.23-2.71,8.31-10.49,8.31-14.91a9.12,9.12,0,0,0-2.79-6.56Z"/><path class="cls-6" d="M102.09,116.18h-.78v6.45h.78Zm-3.12,0v4.21a1.73,1.73,0,0,1-3.45,0v-4.21h-.79v4.27a2.52,2.52,0,0,0,5,0v-4.27Zm-11.51,4c0-1.08.48-1.81,1.38-1.81s1.42.79,1.42,1.81-.48,1.86-1.42,1.86S87.46,121.31,87.46,120.21Zm-.73,2.42h.71v-.74h.09a1.51,1.51,0,0,0,1.41.84c1.22,0,2.06-1,2.06-2.5s-.84-2.5-2.07-2.5a1.49,1.49,0,0,0-1.4.83h-.06v-2.38h-.74ZM82,119.82a1.44,1.44,0,0,1,1.43-1.42,1.31,1.31,0,0,1,1.33,1.42Zm1.51,2.91a1.89,1.89,0,0,0,1.93-1.22l-.72-.2a1.2,1.2,0,0,1-1.21.76A1.47,1.47,0,0,1,82,120.46h3.51v-.31c0-1.8-1.07-2.42-2.08-2.42a2.25,2.25,0,0,0-2.18,2.52A2.22,2.22,0,0,0,83.49,122.73Zm-8.73-.1h.81L77,117.49H77l1.43,5.14h.8L81,116.18h-.8l-1.35,5.26h-.06l-1.37-5.26h-.89l-1.37,5.26h-.06l-1.35-5.26H73Z"/><path class="cls-5" d="M78.27,136.68a2.91,2.91,0,0,1-1.65-.5,3,3,0,0,1-1.27-3.05,3,3,0,0,1,.82-1.51,2.86,2.86,0,0,1,1.52-.81,3,3,0,0,1,3.06,1.26,2.94,2.94,0,0,1,.27,2.78,2.95,2.95,0,0,1-2.75,1.83Zm6.08-9.41c-.17-.17-.35-.33-.53-.48l0,0-.58-.43-.16-.12-.26-.15a9.17,9.17,0,0,0-4.85-1.5h-.23a9.22,9.22,0,0,0-9,9.22c0,4.4,6.22,12.26,8.49,15a1.12,1.12,0,0,0,.36.29,1,1,0,0,0,.45.1,1,1,0,0,0,.46-.1,1.12,1.12,0,0,0,.36-.29c2.23-2.7,8.31-10.49,8.31-14.91a9.16,9.16,0,0,0-2.79-6.56Z"/><path class="cls-6" d="M132.4,133.37a1.2,1.2,0,0,1,1.23-1.32,1.07,1.07,0,0,1,1.11,1.21v3h.75v-3.08c0-1.23-.66-1.83-1.64-1.83a1.42,1.42,0,0,0-1.41.82h-.07v-.75h-.71v4.84h.74Zm-4.07,2.35c-1,0-1.45-.86-1.45-1.83s.45-1.84,1.45-1.84,1.45.87,1.45,1.84S129.32,135.72,128.33,135.72Zm0,.67a2.53,2.53,0,1,0-2.2-2.5A2.23,2.23,0,0,0,128.33,136.39Zm-3.7-5.75a.51.51,0,1,0-.53-.51A.52.52,0,0,0,124.63,130.64Zm-.38,5.65H125v-4.84h-.75Zm-4.44-2.92a1.2,1.2,0,0,1,1.23-1.32,1.07,1.07,0,0,1,1.11,1.21v3h.74v-3.08c0-1.23-.65-1.83-1.63-1.83a1.44,1.44,0,0,0-1.42.82h-.06v-.75h-.72v4.84h.75Zm-4.21,2.36c-.59,0-1-.26-1-.78s.52-.74,1.1-.82a3.86,3.86,0,0,0,1.28-.28v.68A1.24,1.24,0,0,1,115.6,135.73Zm-.11.67a1.5,1.5,0,0,0,1.43-.77h0v.66h.74V133.1a1.59,1.59,0,0,0-1.79-1.72,2,2,0,0,0-1.94,1.14l.71.25a1.31,1.31,0,0,1,1.26-.73.9.9,0,0,1,1,1v0c0,.36-.36.32-1.25.44s-1.88.31-1.88,1.42A1.5,1.5,0,0,0,115.49,136.4Zm-6.11-2.53c0-1.09.48-1.82,1.39-1.82s1.41.8,1.41,1.82-.48,1.85-1.41,1.85S109.38,135,109.38,133.87Zm-.73,4.23h.75v-2.56h.06a1.49,1.49,0,0,0,1.41.85c1.21,0,2.06-1,2.06-2.51s-.85-2.5-2.07-2.5a1.47,1.47,0,0,0-1.4.83h-.09v-.76h-.72Zm-7.71-1.81h.74v-3a1.15,1.15,0,0,1,1.1-1.21.9.9,0,0,1,1,.92v3.32h.76v-3.15a1,1,0,0,1,1.07-1.09.9.9,0,0,1,1,1v3.24h.74v-3.24c0-1.14-.61-1.67-1.47-1.67a1.54,1.54,0,0,0-1.45.82h-.05a1.34,1.34,0,0,0-1.3-.82,1.31,1.31,0,0,0-1.3.82h-.06v-.75h-.72Zm-3.33-.57c-1,0-1.45-.86-1.45-1.83s.46-1.84,1.45-1.84,1.45.87,1.45,1.84S98.61,135.72,97.61,135.72Zm0,.67a2.53,2.53,0,1,0-2.19-2.5A2.23,2.23,0,0,0,97.61,136.39Zm-3.13-4.54a2.52,2.52,0,0,0-2.59-2.11c-1.66,0-2.85,1.28-2.85,3.32s1.19,3.31,2.85,3.31a2.51,2.51,0,0,0,2.59-2.1H93.7a1.76,1.76,0,0,1-1.81,1.37c-1.18,0-2.1-.9-2.1-2.58s.92-2.58,2.1-2.58a1.75,1.75,0,0,1,1.81,1.37Z"/></g></g></svg>