<svg xmlns="http://www.w3.org/2000/svg" viewBox="0 0 617.33 50.45"><defs><style>.cls-1{fill:#010101;}.cls-2{fill:#fff;}.cls-3{fill:#3c3c3b;}.cls-4,.cls-5{fill:#6bc4cd;}.cls-4{opacity:0.5;}</style></defs><g id="Layer_2" data-name="Layer 2"><g id="Layer_1-2" data-name="Layer 1"><path class="cls-1" d="M324.55,44.28a2.21,2.21,0,0,1,2.11-2.22,2,2,0,0,1,2,2.22Zm2.22,3.86a2.53,2.53,0,0,0,2.49-1.54l-.72-.23a1.81,1.81,0,0,1-1.77,1.07A2.23,2.23,0,0,1,324.55,45h4.87v-.37c0-2.19-1.35-3.21-2.76-3.21-1.7,0-2.87,1.41-2.87,3.4S324.94,48.14,326.77,48.14Zm-5-7.81a.55.55,0,1,0,0-1.09.55.55,0,1,0,0,1.09ZM321.35,48h.77V41.45h-.77Zm-6.46-3.27c0-1.57.72-2.67,2-2.67s2,1.16,2,2.67-.72,2.71-2,2.71S314.89,46.31,314.89,44.73ZM314.14,48h.74V46.79h.1a2.07,2.07,0,0,0,2,1.35c1.6,0,2.69-1.36,2.69-3.4s-1.09-3.37-2.71-3.37a2.07,2.07,0,0,0-2,1.33h-.07V39.27h-.77Zm-8.36,0h.79l1.55-5.37h.08L309.75,48h.79l2-6.55h-.8l-1.55,5.39h-.06l-1.53-5.39h-.81l-1.55,5.4h0l-1.55-5.4h-.8Zm-8-3.72a2.2,2.2,0,0,1,2.1-2.22,2,2,0,0,1,2,2.22ZM300,48.14a2.54,2.54,0,0,0,2.5-1.54l-.72-.23A1.83,1.83,0,0,1,300,47.44,2.24,2.24,0,0,1,297.78,45h4.88v-.37c0-2.19-1.35-3.21-2.77-3.21-1.7,0-2.87,1.41-2.87,3.4S298.17,48.14,300,48.14Zm-4.8-8.87h-.79v7.32h-.07l-5.17-7.32h-.77V48h.8V40.69h.06L294.42,48h.78Z"/><path class="cls-1" d="M610.33,48l3.82-3.82-3.82-3.82-.5.5,3,3H584.65v.72H612.8l-3,3Zm-35.57,2.45A1.83,1.83,0,0,0,576.53,49l2.77-7.57-.83,0L576.53,47h-.06l-1.94-5.55h-.82l2.4,6.61-.23.67c-.37,1-.88,1.16-1.65.92l-.2.67A1.91,1.91,0,0,0,574.76,50.45Zm-2-9h-.83L570,47h-.06L568,41.45h-.82L569.55,48h.8Zm-6.56,0h-.82L563.43,47h-.06l-1.94-5.55h-.83L563,48h.81Zm-9.58,6c-.85,0-1.49-.45-1.49-1.24s.65-1.13,1.75-1.27a4.58,4.58,0,0,0,1.72-.4v1A1.91,1.91,0,0,1,556.61,47.45Zm-.1.7a2.16,2.16,0,0,0,2-1.19h.05v1h.75V43.56A2.08,2.08,0,0,0,557,41.37a2.5,2.5,0,0,0-2.47,1.46l.72.26a1.82,1.82,0,0,1,1.77-1,1.36,1.36,0,0,1,1.55,1.44v.15c0,.49-.62.5-1.72.64-1.47.18-2.51.6-2.51,1.89A2,2,0,0,0,556.51,48.15Zm-3.58-5.26a2.12,2.12,0,0,0-2.22-1.52c-1.32,0-2.28.75-2.28,1.83,0,.88.53,1.47,1.67,1.74l1.07.26c.72.17,1.07.54,1.07,1.07s-.65,1.18-1.66,1.18a1.49,1.49,0,0,1-1.64-1.18l-.73.18a2.17,2.17,0,0,0,2.38,1.69c1.44,0,2.43-.8,2.43-1.91,0-.87-.55-1.46-1.64-1.72l-1-.25c-.82-.2-1.2-.53-1.2-1.1s.64-1.13,1.52-1.13a1.47,1.47,0,0,1,1.52,1.06ZM538.7,44.73c0-1.57.72-2.67,2-2.67s2,1.16,2,2.67-.72,2.71-2,2.71S538.7,46.31,538.7,44.73ZM538,48h.74V46.79h.1a2.07,2.07,0,0,0,2,1.35c1.6,0,2.69-1.36,2.69-3.4s-1.09-3.37-2.71-3.37a2.07,2.07,0,0,0-2,1.33h-.07V39.27H538Zm-6.7-3.72a2.21,2.21,0,0,1,2.1-2.22,2.05,2.05,0,0,1,2,2.22Zm2.22,3.86A2.52,2.52,0,0,0,536,46.6l-.72-.23a1.81,1.81,0,0,1-1.77,1.07A2.23,2.23,0,0,1,531.25,45h4.87v-.37c0-2.19-1.35-3.21-2.77-3.21-1.69,0-2.86,1.41-2.86,3.4S531.64,48.14,533.47,48.14ZM522.84,48h.79l1.55-5.37h.08L526.81,48h.78l2-6.55h-.8l-1.55,5.39h-.06l-1.53-5.39h-.81l-1.55,5.4h0l-1.55-5.4h-.8Zm-9.11-.72V40h1.87c2.12,0,3.24,1.37,3.24,3.63s-1.15,3.66-3.4,3.66Zm1.76.72c2.63,0,4.12-1.64,4.13-4.38s-1.48-4.35-4-4.35h-2.72V48Z"/><path class="cls-1" d="M110,50.45A1.83,1.83,0,0,0,111.77,49l2.78-7.57-.83,0L111.78,47h-.06l-2-5.55H109l2.41,6.61-.24.67c-.36,1-.87,1.16-1.64.92l-.21.67A2,2,0,0,0,110,50.45Zm-2-9h-.82L105.23,47h-.06l-2-5.55h-.82L104.79,48h.81Zm-6.55,0h-.82L98.68,47h-.06l-2-5.55h-.82L98.24,48h.81Zm-9.58,6c-.86,0-1.5-.45-1.5-1.24s.65-1.13,1.76-1.27a4.48,4.48,0,0,0,1.71-.4v1A1.9,1.9,0,0,1,91.86,47.45Zm-.1.7a2.17,2.17,0,0,0,2-1.19h0v1h.76V43.56a2.08,2.08,0,0,0-2.32-2.19,2.52,2.52,0,0,0-2.48,1.46l.72.26a1.82,1.82,0,0,1,1.78-1,1.36,1.36,0,0,1,1.54,1.44v.15c0,.49-.61.5-1.71.64-1.48.18-2.51.6-2.51,1.89A2,2,0,0,0,91.76,48.15Zm-3.59-5.26A2.11,2.11,0,0,0,86,41.37c-1.32,0-2.28.75-2.28,1.83,0,.88.53,1.47,1.67,1.74l1.07.26c.72.17,1.06.54,1.06,1.07s-.65,1.18-1.65,1.18a1.49,1.49,0,0,1-1.64-1.18l-.73.18a2.17,2.17,0,0,0,2.38,1.69c1.44,0,2.43-.8,2.43-1.91,0-.87-.55-1.46-1.65-1.72l-1-.25c-.81-.2-1.19-.53-1.19-1.1S85.08,42,86,42a1.47,1.47,0,0,1,1.52,1.06Zm-9.78-3.62h-.75V48h.75Zm-5.5,8.18c-.86,0-1.5-.45-1.5-1.24s.65-1.13,1.76-1.27a4.53,4.53,0,0,0,1.71-.4v1A1.9,1.9,0,0,1,72.89,47.45Zm-.11.7a2.15,2.15,0,0,0,2-1.19h0v1h.76V43.56a2.08,2.08,0,0,0-2.32-2.19,2.51,2.51,0,0,0-2.48,1.46l.72.26a1.82,1.82,0,0,1,1.78-1,1.36,1.36,0,0,1,1.54,1.44v.15c0,.49-.61.5-1.71.64-1.48.18-2.52.6-2.52,1.89A2,2,0,0,0,72.78,48.15ZM66.68,48h.76V43.77a1.66,1.66,0,0,1,1.77-1.67,3,3,0,0,1,.45,0v-.77h-.4a1.89,1.89,0,0,0-1.79,1.1h0v-1h-.74Zm-6.54-3.72a2.2,2.2,0,0,1,2.1-2.22,2,2,0,0,1,2,2.22Zm2.21,3.86a2.54,2.54,0,0,0,2.5-1.54l-.72-.23a1.84,1.84,0,0,1-1.78,1.07c-1.34,0-2.18-1-2.22-2.49H65v-.37c0-2.19-1.35-3.21-2.77-3.21-1.7,0-2.87,1.41-2.87,3.4S60.52,48.14,62.35,48.14Zm-8.83-4.23a1.72,1.72,0,0,1,1.78-1.85A1.59,1.59,0,0,1,57,43.81V48h.76V43.76a2.13,2.13,0,0,0-2.22-2.39,2,2,0,0,0-1.93,1.11h-.07v-1h-.73V48h.76Zm-7.31.37a2.21,2.21,0,0,1,2.11-2.22,2,2,0,0,1,2,2.22Zm2.22,3.86a2.52,2.52,0,0,0,2.49-1.54l-.72-.23a1.81,1.81,0,0,1-1.77,1.07A2.23,2.23,0,0,1,46.21,45h4.88v-.37c0-2.19-1.36-3.21-2.77-3.21-1.7,0-2.87,1.41-2.87,3.4S46.6,48.14,48.43,48.14ZM43.09,42h.81a3.46,3.46,0,0,0-3.49-2.85c-2.22,0-3.75,1.75-3.75,4.49s1.52,4.48,3.8,4.48A3.37,3.37,0,0,0,44,44.49v-.72H40.65v.72h2.54a2.66,2.66,0,0,1-2.73,2.88c-1.76,0-3-1.39-3-3.73s1.28-3.74,3-3.74A2.71,2.71,0,0,1,43.09,42ZM5.34,47.45l.5-.5-3-3H31v-.71H2.87l3-3-.5-.49L1.52,43.64Z"/><path class="cls-2" d="M11,4A11,11,0,0,0,0,15H4a7,7,0,0,1,7-7ZM606.33,8a7,7,0,0,1,7,7h4a11,11,0,0,0-11-11Zm7,8a7,7,0,0,1-7,7v4a11,11,0,0,0,11-11ZM11,23a7,7,0,0,1-7-7H0A11,11,0,0,0,11,27ZM4,16V15H0v1Zm602.33,7H11v4H606.33Zm7-8v1h4V15ZM11,8H606.33V4H11Z"/><rect class="cls-2" x="2" y="6" width="613.33" height="19" rx="9"/><rect class="cls-3" x="308.67" y="4" width="1" height="23"/><rect class="cls-4" x="331.67" y="6" width="284" height="19" rx="9"/><rect class="cls-4" x="1.67" y="6" width="146.49" height="19" rx="9"/><ellipse class="cls-5" cx="421.18" cy="16" rx="15.52" ry="16"/><path class="cls-2" d="M421.79,18.87a2.85,2.85,0,0,0,2.06-.73,2.75,2.75,0,0,0,.78-2.09,2.68,2.68,0,0,0-.78-2.07,2.82,2.82,0,0,0-2.06-.75h-1.68v5.64ZM416.1,10.1H422a8,8,0,0,1,3.51.73,5.4,5.4,0,0,1,2.36,2.06,5.75,5.75,0,0,1,.85,3.16,5.75,5.75,0,0,1-.85,3.16,5.51,5.51,0,0,1-2.36,2.08A8.24,8.24,0,0,1,422,22H416.1Z"/><circle class="cls-5" cx="49.67" cy="16" r="16"/><path class="cls-2" d="M52,15.73h3.49v5A8,8,0,0,1,53,21.88a10.13,10.13,0,0,1-2.74.39,7.35,7.35,0,0,1-3.41-.78,6,6,0,0,1-2.38-2.21,6.16,6.16,0,0,1-.85-3.23,6.06,6.06,0,0,1,.85-3.21,5.86,5.86,0,0,1,2.39-2.21,7.44,7.44,0,0,1,3.49-.8,7.94,7.94,0,0,1,3.13.59,5.9,5.9,0,0,1,2.31,1.7l-2.57,2.26a3.43,3.43,0,0,0-2.67-1.31,2.81,2.81,0,0,0-2.1.8,3,3,0,0,0-.79,2.18,3,3,0,0,0,.77,2.16,2.75,2.75,0,0,0,2.07.82A3.8,3.8,0,0,0,52,18.74Z"/></g></g></svg>